<svg width="65" height="55" viewBox="0 0 65 55" fill="none" xmlns="http://www.w3.org/2000/svg">
<path d="M37.3915 52.8548C35.6623 46.1978 32.6728 40.809 28.3859 36.5761C24.0368 32.2818 18.3778 29.2023 11.4079 27.1816C18.2196 25.2171 23.7273 22.1559 28.024 17.9356C32.3278 13.7084 35.3935 8.34095 37.3475 1.80424C39.3813 8.27952 42.4475 13.6552 46.6505 17.9018C50.8454 22.1401 56.1532 25.2337 62.6498 27.1806C56.0965 29.1468 50.6477 32.2171 46.3921 36.5126C42.1874 40.7568 39.169 46.1756 37.3915 52.8548Z" fill="#F7D323" stroke="#F7D323"/>
<path d="M37.569 23.2671L36.881 23.9671L39.6082 26.7671H0V27.7671H39.6082L36.881 30.5671L37.569 31.2671L41.5 27.2671L37.569 23.2671Z" fill="#426478"/>
</svg>
