<svg width="17" height="21" viewBox="0 0 17 21" fill="none" xmlns="http://www.w3.org/2000/svg">
<path d="M5.46694 0.000713274C5.37451 0.0112445 5.28718 0.048589 5.21572 0.108144C5.14425 0.1677 5.09177 0.246864 5.06474 0.33588L4.53592 2.04895H0.476682C0.350262 2.04897 0.229023 2.09919 0.139631 2.18859C0.0502384 2.27798 1.26148e-05 2.39922 0 2.52564V5.36338C1.26148e-05 5.4898 0.0502384 5.61104 0.139631 5.70043C0.229023 5.78982 0.350262 5.84005 0.476682 5.84006H16.2072C16.3336 5.84005 16.4548 5.78982 16.5442 5.70043C16.6336 5.61104 16.6838 5.4898 16.6839 5.36338V2.52564C16.6838 2.39922 16.6336 2.27798 16.5442 2.18859C16.4548 2.09919 16.3336 2.04897 16.2072 2.04895H12.1479L11.6191 0.33588C11.589 0.238905 11.5286 0.154094 11.4469 0.0938062C11.3652 0.0335179 11.2663 0.000902708 11.1648 0.000713274H5.51908C5.50171 -0.000237758 5.48431 -0.000237758 5.46694 0.000713274ZM5.86914 0.954077H10.8147L11.1499 2.04895H5.53398L5.86914 0.954077ZM0.953363 3.00232H15.7305V4.8867H0.953363V3.00232ZM15.224 6.41357C15.1015 6.41933 14.9859 6.47208 14.9013 6.56086C14.8167 6.64964 14.7696 6.76761 14.7697 6.89025L13.6227 20.0213H3.06119L1.91417 6.89025C1.90657 6.76907 1.85302 6.65535 1.76443 6.5723C1.67585 6.48925 1.55892 6.44314 1.43749 6.44336C1.37089 6.44401 1.30515 6.45861 1.24453 6.48622C1.18391 6.51383 1.12975 6.55384 1.08554 6.60366C1.04133 6.65348 1.00806 6.71202 0.987854 6.77549C0.967653 6.83897 0.960978 6.90597 0.96826 6.97218L2.26424 20.9747H2.38341C2.50258 20.9747 2.50152 20.9751 2.62175 20.9747H14.0621C14.0621 20.9747 14.3005 20.9747 14.4196 20.9747L15.7156 6.97218C15.7279 6.90182 15.7243 6.82958 15.705 6.76081C15.6857 6.69203 15.6511 6.62848 15.6039 6.57485C15.5567 6.52122 15.4981 6.47888 15.4323 6.45097C15.3666 6.42305 15.2954 6.41027 15.224 6.41357ZM8.28979 8.00003C8.17261 8.01293 8.06437 8.06879 7.98596 8.15683C7.90756 8.24486 7.86455 8.35882 7.86525 8.47671V16.9899C7.86436 17.0531 7.87603 17.1158 7.89958 17.1744C7.92314 17.2331 7.95811 17.2864 8.00246 17.3314C8.04681 17.3764 8.09966 17.4121 8.15794 17.4365C8.21622 17.4609 8.27876 17.4734 8.34193 17.4734C8.4051 17.4734 8.46764 17.4609 8.52592 17.4365C8.5842 17.4121 8.63705 17.3764 8.6814 17.3314C8.72575 17.2864 8.76072 17.2331 8.78428 17.1744C8.80783 17.1158 8.8195 17.0531 8.81861 16.9899V8.47671C8.81901 8.40947 8.80518 8.34291 8.77803 8.2814C8.75088 8.21989 8.71102 8.16482 8.66108 8.1198C8.61114 8.07478 8.55224 8.04084 8.48825 8.02019C8.42426 7.99955 8.35663 7.99268 8.28979 8.00003ZM4.40931 8.46926C4.28392 8.4842 4.16959 8.54827 4.09139 8.64741C4.0132 8.74655 3.97753 8.87267 3.99221 8.99808L4.76682 16.5654C4.77317 16.628 4.7918 16.6887 4.82163 16.7441C4.85146 16.7995 4.89191 16.8485 4.94067 16.8883C4.98943 16.9281 5.04554 16.9578 5.10581 16.9759C5.16607 16.994 5.22931 17 5.29191 16.9937C5.35451 16.9873 5.41524 16.9687 5.47064 16.9389C5.52604 16.909 5.57503 16.8686 5.6148 16.8198C5.65457 16.7711 5.68434 16.7149 5.70242 16.6547C5.7205 16.5944 5.72654 16.5312 5.72018 16.4686L4.94557 8.90125C4.94007 8.83715 4.92165 8.77482 4.89141 8.71803C4.86118 8.66123 4.81976 8.61114 4.76966 8.57078C4.71955 8.53042 4.66179 8.50061 4.59986 8.48317C4.53793 8.46572 4.47311 8.46099 4.40931 8.46926ZM12.1628 8.46926C12.053 8.48092 11.9506 8.53038 11.8731 8.60917C11.7957 8.68797 11.748 8.79121 11.7383 8.90125L10.9637 16.4686C10.9573 16.5312 10.9634 16.5944 10.9814 16.6547C10.9995 16.7149 11.0293 16.7711 11.0691 16.8198C11.1088 16.8686 11.1578 16.909 11.2132 16.9389C11.2686 16.9687 11.3293 16.9873 11.3919 16.9937C11.4545 17 11.5178 16.994 11.5781 16.9759C11.6383 16.9578 11.6944 16.9281 11.7432 16.8883C11.792 16.8485 11.8324 16.7995 11.8622 16.7441C11.8921 16.6887 11.9107 16.628 11.917 16.5654L12.6916 8.99808C12.7 8.92662 12.6921 8.85419 12.6684 8.78623C12.6448 8.71828 12.6061 8.65655 12.5552 8.60567C12.5044 8.5548 12.4426 8.5161 12.3747 8.49247C12.3067 8.46885 12.2343 8.46091 12.1628 8.46926Z" fill="white"/>
</svg>
