
<svg xmlns="http://www.w3.org/2000/svg" xmlns:xlink="http://www.w3.org/1999/xlink" x="0px" y="0px"
	 viewBox="0 0 303 206" style="enable-background:new 0 0 303 206;" xml:space="preserve">

<path stroke="#9AB4C1" stroke-width="2" class="st0" d="M84.5,205.9c0.2-0.7,0.4-1.4,0.6-2c0.9-3.3,1.4-7.8,3.4-10.5c2.2-2.9,20-20.6,26.6-34.1
	c0.6-1.3,4.8-9.3,9.8-19.9c-1.4,8.3-3.5,18.4-7.1,28.3c-0.1,0.3,0.2,0.5,0.4,0.4c44.5-30.5,101.9-50.5,161.9-50.7
	c5.4-3.2,10.3-11.4,14.6-24.6c-20.8-23.1-35.4-37-43.9-41.6c4-26.9-63.2-34.5-90.6-36.8l-7.9-5.3c-9.3-6.3-27.3,2.8-22.6,9.6
	c7.4,10.5,12.2,13.3,16.9,18.2c-39-20.1-82.2-20.2-82.2-20.2C39.2,14.3,17.3,19,0.1,25.1"/>
</svg>
