<svg width="374" height="347" viewBox="0 0 374 347" fill="none" xmlns="http://www.w3.org/2000/svg">
<g opacity="0.2">
<path d="M114.257 101.787L114.257 101.787C114.591 101.718 114.993 101.54 115.385 101.347C115.805 101.141 116.32 100.864 116.915 100.535C117.409 100.263 117.949 99.9588 118.544 99.6236C119.424 99.1285 120.426 98.5649 121.579 97.9315C125.391 95.8376 130.581 93.1365 136.891 90.5327C149.516 85.3232 166.598 80.5143 186.051 81.73L186.097 81.7329L186.142 81.7316L186.143 81.7315L186.146 81.7315L186.16 81.7311L186.22 81.7297C186.273 81.7285 186.354 81.7269 186.462 81.7253C186.677 81.7221 186.997 81.719 187.415 81.7193C188.251 81.7198 189.477 81.734 191.028 81.7888C194.13 81.8984 198.531 82.1706 203.714 82.8206C214.089 84.1218 227.547 86.9317 239.984 92.9503L241.142 91.3584C240.258 90.4362 239.388 89.6525 238.494 88.8467C236.3 86.871 233.959 84.7625 230.91 80.1552L230.91 80.1549C230.695 79.8306 230.639 79.5199 230.69 79.1959C230.744 78.8475 230.933 78.4288 231.306 77.959C232.059 77.0108 233.414 76.0433 235.113 75.2833C236.798 74.5297 238.733 74.0198 240.574 73.9217C242.424 73.8232 244.089 74.1438 245.324 74.9482L250.334 78.2114L250.56 78.3587L250.829 78.3723C260.012 78.8357 275.773 79.946 288.682 83.0922C295.15 84.6688 300.794 86.7322 304.536 89.4088C306.399 90.7415 307.74 92.1905 308.499 93.7564C309.248 95.3017 309.46 97.0184 308.977 98.9722L308.787 99.7398L309.49 100.102C312.069 101.429 315.605 104.197 320.123 108.494C324.524 112.679 329.803 118.262 335.963 125.25C332.473 133.256 328.974 138.122 325.567 140.167C285.877 141.491 246.824 154.882 215.297 174.62C217.765 168.912 219.451 163.262 220.717 158.592L218.885 157.831C215.73 163.319 213.039 167.693 211.8 169.708C211.474 170.237 211.249 170.603 211.141 170.785C208.577 175.097 204.065 180.163 199.935 184.429C197.878 186.553 195.933 188.462 194.395 189.963C194.209 190.144 194.028 190.321 193.853 190.491C192.607 191.706 191.655 192.634 191.264 193.086C191.264 193.086 191.264 193.086 191.264 193.086L192.02 193.74L114.257 101.787ZM114.257 101.787C89.2444 106.94 72.0441 117.535 61.1765 131.27C50.3063 145.008 45.697 161.984 46.0424 180.033C46.7341 216.171 67.2973 256.443 96.8284 282.912L95.8479 284.607L82.4527 280.191C83.9058 287.528 87.3357 296.494 91.4451 304.521C93.6514 308.83 96.0421 312.846 98.4076 316.172C100.683 319.371 102.899 321.881 104.87 323.413C123.808 323.341 142.566 318.408 161.151 308.581C162.156 301.183 161.446 297.101 160.062 294.68C158.673 292.252 156.499 291.301 153.991 290.399C153.783 290.324 153.572 290.25 153.358 290.174C151.08 289.37 148.516 288.464 146.762 286.195C144.814 283.675 143.997 279.703 144.89 272.963C145.288 269.951 146.023 267.11 146.753 264.283C146.852 263.902 146.95 263.52 147.048 263.139C147.874 259.913 148.646 256.642 148.934 252.961C149.507 245.641 148.174 236.559 141.19 223.104C138.609 218.132 135.589 212.711 131.375 207.67L132.688 206.19C135.328 207.909 138.321 210.478 140.574 212.939C139.809 210.036 139.167 207.102 138.617 204.153C138.256 202.314 137.994 200.457 137.736 198.63C137.696 198.345 137.656 198.06 137.615 197.777L137.613 197.761L137.611 197.744L137.263 194.555L137.262 194.546C137.191 193.837 137.137 193.115 137.083 192.408C137.055 192.043 137.028 191.683 136.999 191.33L136.998 191.322L136.998 191.313C136.434 182.697 136.916 173.958 138.712 165.47C139.61 161.223 140.877 157.052 142.494 153.035L142.497 153.027L142.501 153.019C144.175 149.053 146.148 145.118 148.825 141.664L150.519 142.704C146.963 150.226 145.006 158.256 143.843 166.376C142.722 174.497 142.54 182.722 143.069 190.917L143.069 190.921C143.318 195.015 143.786 199.105 144.4 203.182C145.016 207.266 145.751 211.333 146.665 215.369L146.667 215.379L146.995 216.895L147.359 218.405L147.359 218.405L148.09 221.437C148.292 222.183 148.483 222.92 148.672 223.651C149.003 224.931 149.329 226.194 149.703 227.463L149.708 227.476L149.711 227.49C149.992 228.554 150.292 229.613 150.603 230.677C150.788 231.168 150.955 231.646 151.117 232.11C151.146 232.193 151.175 232.277 151.204 232.36L151.228 232.429L151.242 232.5C151.482 233.738 151.73 235.018 151.939 236.361C152.367 239.102 153.256 241.6 154.224 244.154C154.329 244.43 154.435 244.708 154.541 244.986C155.408 247.258 156.305 249.605 156.889 252.136L156.889 252.137C157.932 256.661 157.207 261.211 155.637 265.383C157.807 264.892 159.312 264.146 161.539 262.716L163.052 261.745M114.257 101.787L163.052 261.745M114.055 100.808C114.599 100.696 115.956 99.9319 118.037 98.7616C127.839 93.2475 153.69 78.7057 186.113 80.732L114.055 100.808ZM114.055 100.808C14.3124 121.357 36.2922 228.199 94.3513 282.008L114.055 100.808ZM163.052 261.745L163.079 263.543C163.087 264.073 163.094 264.604 163.102 265.134L163.102 265.155C163.102 265.157 163.102 265.16 163.102 265.162M163.052 261.745L163.102 265.162M163.102 265.162C165.738 263.845 167.637 262.476 168.291 259.706C168.736 257.812 168.746 255.494 168.612 253.459C168.505 251.876 168.477 250.664 168.662 249.453C168.849 248.232 169.242 247.066 169.907 245.546C172.122 240.477 174.128 235.351 176.08 230.16L177.016 230.512L163.102 265.162Z" stroke="#8CAAB9" stroke-width="2"/>
<path d="M173.77 249.699C174.479 252.51 175.26 255.25 176.116 257.915C178.264 264.603 180.198 268.704 182.071 271.24C183.984 273.831 185.847 274.802 187.753 275.213C188.532 275.381 189.315 275.453 190.039 275.52C190.152 275.531 190.264 275.541 190.374 275.551C191.212 275.632 191.997 275.726 192.797 275.958C194.343 276.406 196.089 277.409 198.153 280.155L198.153 280.155C200.223 282.907 200.855 286.779 199.812 291.953C191.376 296.599 181.018 299.163 168.701 299.591C167.583 294.383 166.228 290.498 164.111 287.921C161.984 285.332 159.175 284.159 155.433 284.109C155.119 279.75 155.25 275.186 155.765 270.522C156.607 270.365 157.377 270.184 158.101 269.974L158.123 271.463L158.145 272.984L159.532 272.36L163.828 270.43L163.84 270.425L163.84 270.425L163.913 270.391C167.07 268.922 171.844 266.7 173.222 260.87L173.222 260.869C173.726 258.727 173.866 256.114 173.666 253.12L173.77 249.699ZM173.77 249.699C173.726 249.882 173.692 250.057 173.665 250.233C173.555 250.967 173.575 251.753 173.666 253.12L173.77 249.699Z" stroke="#8CAAB9" stroke-width="2"/>
</g>
</svg>
