<svg width="53" height="27" viewBox="0 0 53 27" fill="none" xmlns="http://www.w3.org/2000/svg">
<path d="M10.3191 14.1096C9.65698 15.4401 8.30213 16.3477 6.73338 16.3477C4.52288 16.3477 2.73003 14.5324 2.73003 12.2943C2.73003 10.0561 4.52288 8.24083 6.73338 8.24083C8.29193 8.24083 9.64678 9.14848 10.3089 10.4584L12.7537 9.22066C11.6434 6.99279 9.37173 5.46631 6.74357 5.46631C3.01526 5.46631 0 8.5296 0 12.2943C0 16.0589 3.01526 19.1223 6.74357 19.1223C9.38192 19.1223 11.6638 17.5854 12.7639 15.3576L10.3191 14.1096Z" fill="#FBFBFB"/>
<path d="M17.3885 5.46631L14.6992 5.46631L14.6992 19.0913L17.3885 19.0913L17.3885 5.46631Z" fill="#FBFBFB"/>
<path d="M50.4465 5.47607L45.6494 10.3333L47.551 12.2587L52.3482 7.40148L50.4465 5.47607Z" fill="#FBFBFB"/>
<path d="M43.723 12.2837L38.9258 17.1409L40.8274 19.0663L45.6246 14.2091L43.723 12.2837Z" fill="#FBFBFB"/>
<path d="M40.8273 5.47607L38.9258 7.40143L43.723 12.2587L45.6246 10.3333L40.8273 5.47607Z" fill="#FBFBFB"/>
<path d="M47.5505 12.2837L45.6489 14.209L50.4462 19.0663L52.3479 17.1409L47.5505 12.2837Z" fill="#FBFBFB"/>
<path d="M25.4669 2.73324L22.7674 2.73324L22.7674 0L20.0781 0L20.0781 19.0914L22.7674 19.0914L22.7674 5.4665L25.4669 5.4665L25.4669 2.73324Z" fill="#FBFBFB"/>
<path d="M38.1899 12.2947C38.1899 11.8306 38.139 11.3664 38.0574 10.9229C37.8537 9.91212 37.4157 8.93229 36.7739 8.11749C35.4904 6.43627 33.5447 5.47705 31.4565 5.47705C28.268 5.47705 25.4871 7.76682 24.8555 10.9229C24.7639 11.3768 24.7129 11.8306 24.7129 12.2947C24.7129 12.7485 24.7537 13.2023 24.8453 13.6355C25.4667 16.8123 28.2477 19.1123 31.4565 19.1123C33.5244 19.1123 35.4395 18.1738 36.723 16.5441L34.6856 14.9455C33.8911 15.9356 32.7196 16.5029 31.4565 16.5029C29.5923 16.5029 28.0134 15.2548 27.4837 13.553L38.088 13.553C38.1491 13.1508 38.1899 12.7176 38.1899 12.2947ZM31.4463 8.07621C33.3818 8.07621 35.0218 9.41704 35.4802 11.2427L27.4124 11.2427C27.881 9.41704 29.5108 8.07621 31.4463 8.07621Z" fill="#FBFBFB"/>
<path d="M21.1781 21.9072H20.2002L20.2002 25.6306H21.2086C22.2986 25.6306 22.9608 24.9809 22.9608 23.7535C22.9709 22.5364 22.3088 21.9072 21.1781 21.9072ZM21.1373 25.1149H20.8419L20.8419 22.4333H21.1373C21.8912 22.4333 22.319 22.8458 22.319 23.7638C22.319 24.6714 21.8912 25.1149 21.1373 25.1149Z" fill="#FBFBFB"/>
<path d="M24.6821 22.7734C24.0302 22.7734 23.4189 23.3304 23.4189 24.238C23.4189 25.156 24.0098 25.7026 24.7738 25.7026C25.1303 25.7026 25.4563 25.5788 25.7109 25.4035L25.497 25.0116C25.2933 25.1354 25.0896 25.2179 24.8553 25.2179C24.4071 25.2179 24.0811 24.9291 24.0302 24.4237L25.7925 24.4237C25.8026 24.3515 25.823 24.2277 25.823 24.1143C25.823 23.3201 25.4257 22.7734 24.6821 22.7734ZM24.0302 23.9802C24.0913 23.5263 24.3765 23.2685 24.7025 23.2685C25.0896 23.2685 25.2831 23.5367 25.2831 23.9802L24.0302 23.9802Z" fill="#FBFBFB"/>
<path d="M27.6161 24.3001C27.5346 24.5786 27.4531 24.857 27.3818 25.1355H27.3614C27.2799 24.857 27.1985 24.5682 27.1272 24.3001L26.6789 22.8354H26.0474L27.0151 25.6306L27.7383 25.6306L28.6755 22.8354H28.0745L27.6161 24.3001Z" fill="#FBFBFB"/>
<path d="M30.1528 22.7734C29.5009 22.7734 28.8896 23.3304 28.8896 24.238C28.8896 25.156 29.4805 25.7026 30.2445 25.7026C30.601 25.7026 30.927 25.5788 31.1816 25.4035L30.9677 25.0116C30.764 25.1354 30.5603 25.2179 30.326 25.2179C29.8778 25.2179 29.5518 24.9291 29.5009 24.4237L31.2631 24.4237C31.2733 24.3515 31.2937 24.2277 31.2937 24.1143C31.2835 23.3201 30.8862 22.7734 30.1528 22.7734ZM29.4907 23.9802C29.5518 23.5263 29.837 23.2685 30.163 23.2685C30.5501 23.2685 30.7436 23.5367 30.7436 23.9802L29.4907 23.9802Z" fill="#FBFBFB"/>
<path d="M32.618 25.1868C32.5467 25.1868 32.4753 25.1249 32.4753 24.9702L32.4753 21.6182H31.8438L31.8438 24.929C31.8438 25.4034 32.0067 25.7025 32.455 25.7025C32.6078 25.7025 32.7096 25.6819 32.7911 25.651L32.7096 25.1765C32.6689 25.1868 32.6485 25.1868 32.618 25.1868Z" fill="#FBFBFB"/>
<path d="M34.4314 22.7734C33.7489 22.7734 33.1274 23.3098 33.1274 24.238C33.1274 25.1663 33.7489 25.7026 34.4314 25.7026C35.1138 25.7026 35.7353 25.1663 35.7353 24.238C35.7353 23.3098 35.1138 22.7734 34.4314 22.7734ZM34.4314 25.1869C34.0239 25.1869 33.7692 24.8156 33.7692 24.2484C33.7692 23.6811 34.0239 23.2995 34.4314 23.2995C34.8388 23.2995 35.0935 23.6811 35.0935 24.2484C35.0935 24.8053 34.8388 25.1869 34.4314 25.1869Z" fill="#FBFBFB"/>
<path d="M37.7412 22.7734C37.4355 22.7734 37.1401 22.9385 36.9058 23.1447H36.8855L36.8345 22.8456H36.3252L36.3252 26.7444H36.9568V25.8573L36.9364 25.3932C37.1605 25.5892 37.405 25.7026 37.6495 25.7026C38.2606 25.7026 38.8311 25.1457 38.8311 24.1968C38.8311 23.3304 38.4338 22.7734 37.7412 22.7734ZM37.517 25.1766C37.354 25.1766 37.1503 25.1148 36.9466 24.9394L36.9466 23.6192C37.1707 23.4026 37.3642 23.2995 37.568 23.2995C37.9958 23.2995 38.1791 23.6398 38.1791 24.1968C38.1893 24.8363 37.8939 25.1766 37.517 25.1766Z" fill="#FBFBFB"/>
<path d="M42.5198 22.7734C42.1734 22.7734 41.8983 22.99 41.6335 23.2789C41.5113 22.9591 41.277 22.7734 40.8695 22.7734C40.5232 22.7734 40.2583 22.9797 40.024 23.2272H40.0036L39.9527 22.8456H39.4434L39.4434 25.6407H40.0749L40.0749 23.6811C40.2889 23.4438 40.4926 23.3201 40.6658 23.3201C40.9612 23.3201 41.1038 23.4954 41.1038 23.9596L41.1038 25.6305H41.7354L41.7354 23.6708C41.9493 23.4335 42.1428 23.3098 42.3262 23.3098C42.6216 23.3098 42.7642 23.4851 42.7642 23.9492L42.7642 25.6201H43.3958L43.3958 23.8667C43.3652 23.1757 43.0902 22.7734 42.5198 22.7734Z" fill="#FBFBFB"/>
<path d="M45.1987 22.7734C44.5468 22.7734 43.9355 23.3304 43.9355 24.238C43.9355 25.156 44.5264 25.7026 45.2904 25.7026C45.6469 25.7026 45.9729 25.5789 46.2275 25.4035L46.0136 25.0116C45.8099 25.1354 45.6062 25.2179 45.3719 25.2179C44.9135 25.2179 44.5977 24.9291 44.5468 24.4237L46.309 24.4237C46.3192 24.3515 46.3396 24.2277 46.3396 24.1143C46.3294 23.3201 45.9321 22.7734 45.1987 22.7734ZM44.5366 23.9802C44.5977 23.5263 44.8829 23.2685 45.2089 23.2685C45.596 23.2685 45.7895 23.5367 45.7895 23.9802L44.5366 23.9802Z" fill="#FBFBFB"/>
<path d="M48.3867 22.7734C48.0097 22.7734 47.7245 22.9797 47.4801 23.217H47.4597L47.4087 22.8353H46.8994L46.8994 25.6305H47.531L47.531 23.6708C47.7653 23.4335 47.9282 23.3098 48.1727 23.3098C48.4783 23.3098 48.6108 23.4851 48.6108 23.9492L48.6108 25.6201H49.2423L49.2423 23.8667C49.2321 23.1757 48.9774 22.7734 48.3867 22.7734Z" fill="#FBFBFB"/>
<path d="M51.0965 25.1974C50.8212 25.1974 50.6989 25.0323 50.6989 24.7023L50.6989 23.3512L51.4018 23.3512V22.8458L50.6989 22.8458V22.0825H50.1797L50.1082 22.8458L49.6807 22.8767V23.3512H50.0777L50.0777 24.7023C50.0777 25.3005 50.312 25.7028 50.9439 25.7028C51.1574 25.7028 51.3511 25.6512 51.5037 25.5996L51.3916 25.1355C51.3004 25.1664 51.1883 25.1974 51.0965 25.1974Z" fill="#FBFBFB"/>
</svg>
