<svg width="103" height="99" viewBox="0 0 103 99" fill="none" xmlns="http://www.w3.org/2000/svg">
<path d="M75.0069 48.616C75.0077 48.5198 74.9372 48.4368 74.8426 48.422L71.9904 47.9673C71.8316 42.0157 69.3832 36.6604 65.4856 32.7472C65.477 32.7315 65.477 32.7143 65.4652 32.7018C65.4535 32.6893 65.4355 32.6893 65.4199 32.6815C61.5066 28.7839 56.1513 26.3347 50.1997 26.1759L49.7451 23.3253C49.7294 23.2298 49.6481 23.1602 49.5518 23.1602C49.4556 23.1602 49.3734 23.2306 49.3585 23.326L48.9156 26.179C42.9977 26.3582 37.6729 28.8019 33.7777 32.6807C33.7628 32.6901 33.7448 32.6893 33.7323 32.7018C33.7198 32.7143 33.7198 32.7323 33.7111 32.7472C29.8144 36.6612 27.3652 42.0165 27.2063 47.9673L24.3557 48.422C24.2603 48.4376 24.1906 48.5198 24.1914 48.616C24.1922 48.7123 24.2618 48.7944 24.3573 48.8085L27.2102 49.2506C27.3894 55.1686 29.8324 60.4918 33.7104 64.387C33.719 64.4027 33.719 64.4207 33.7315 64.434C33.7432 64.4457 33.7604 64.4434 33.7737 64.4512C37.6666 68.3292 42.9875 70.7721 48.9023 70.9552L49.3578 73.9036C49.3726 73.9991 49.4548 74.0695 49.551 74.0695C49.6473 74.0695 49.7294 73.9991 49.7443 73.9044L50.2122 70.9591C56.1607 70.7964 61.5113 68.3472 65.4222 64.452C65.4363 64.4434 65.4527 64.4457 65.4652 64.4348C65.4778 64.4215 65.4778 64.4035 65.4864 64.3878C69.3644 60.4926 71.8065 55.1693 71.9865 49.2514L74.8394 48.8093C74.9365 48.7944 75.0061 48.7123 75.0069 48.616ZM48.8546 26.5741L47.8084 33.3176C44.8287 33.6674 42.0485 34.8638 39.7457 36.7903L34.19 32.8286C37.9898 29.1094 43.137 26.7659 48.8546 26.5741ZM36.4545 42.943L41.3952 43.8061L42.6033 45.5119L40.464 45.8538L36.4545 42.943ZM39.9178 45.9399L34.7456 46.7647C34.9076 45.4297 35.2448 44.1378 35.7448 42.9117L39.9178 45.9399ZM35.9389 42.4563C36.4812 41.2458 37.1854 40.108 38.0414 39.0681L41.0751 43.353L35.9389 42.4563ZM35.3865 34.6424L45.7004 45.0181L43.0345 45.443L35.3865 34.6424ZM35.6376 34.3403L46.4524 42.0533L46.0275 44.792L35.6376 34.3403ZM40.0775 37.0274C41.1197 36.1667 42.2598 35.4601 43.4727 34.9155L44.3937 40.1057L40.0775 37.0274ZM44.8491 40.4296L43.9782 35.5211L46.8522 39.4828L46.5205 41.6222L44.8491 40.4296ZM43.8897 34.7347C45.1159 34.2292 46.4093 33.8888 47.7458 33.7222L46.9367 38.9343L43.8897 34.7347ZM33.8583 33.1611L37.8051 38.7348C35.8779 41.0462 34.6822 43.8374 34.3418 46.8296L27.6023 47.9047C27.7736 42.1542 30.1227 36.9773 33.8583 33.1611ZM46.04 45.3593L49.0823 48.4196H26.8534L46.04 45.3593ZM26.9262 48.8109H49.08L46.1042 51.7867L26.9262 48.8109ZM43.9774 61.7086L44.8616 56.7249L44.8303 56.7195L46.5173 55.516L46.8601 57.7351L43.9774 61.7086ZM46.9453 58.2836L47.738 63.4121C46.4234 63.2485 45.1511 62.9152 43.9429 62.4222L46.9453 58.2836ZM43.4883 62.2282C42.2692 61.6835 41.1244 60.973 40.0775 60.1092L44.4132 57.0176L43.4883 62.2282ZM35.6721 62.7712L46.0377 52.4064L46.4516 55.0841L35.6721 62.7712ZM35.7464 54.2264C35.2519 53.0152 34.9177 51.7389 34.7534 50.422L39.9867 51.2334L35.7464 54.2264ZM40.543 51.3195L42.6518 51.6466L41.385 53.4228L36.4545 54.2053L40.543 51.3195ZM41.0665 53.8696L38.0571 58.0888C37.1948 57.0442 36.4858 55.9002 35.9405 54.6826L41.0665 53.8696ZM43.0853 51.7139L45.7614 52.1286L35.3982 62.4919L43.0853 51.7139ZM27.6054 49.3124L34.3489 50.3594C34.6986 53.3391 35.8951 56.1185 37.8208 58.4206L33.859 63.9762C30.1407 60.1765 27.7971 55.0301 27.6054 49.3124ZM34.1908 64.3072L39.7457 60.3455C42.0462 62.2696 44.824 63.4653 47.7998 63.8166L48.8421 70.5609C43.1292 70.366 37.9867 68.0233 34.1908 64.3072ZM49.3562 71.3261L46.3804 52.0637L49.3562 49.0879V71.3261ZM49.3562 48.141L46.3702 45.1371L47.2607 39.3983L47.2693 39.3921L47.263 39.3835L49.3562 25.8918V48.141ZM71.596 47.904L64.8565 46.8288C64.5153 43.8382 63.3204 41.0462 61.3932 38.7348L65.34 33.1603C69.0764 36.9773 71.4247 42.1542 71.596 47.904ZM55.2209 35.5211L54.3618 40.3639L52.6552 41.5721L52.3265 39.5094L55.2209 35.5211ZM52.2397 38.964L51.4032 33.7151C52.7561 33.8787 54.0668 34.2222 55.3086 34.7347L52.2397 38.964ZM55.7256 34.9147C56.9307 35.4554 58.0629 36.158 59.0997 37.0102L54.8156 40.0423L55.7256 34.9147ZM63.5599 34.3309L53.1591 44.731L52.724 42.0032L63.5599 34.3309ZM63.8338 34.6103L56.1638 45.443L53.4369 45.0072L63.8338 34.6103ZM61.1577 39.0681C62.0137 40.1088 62.7179 41.2458 63.2602 42.4563L58.1247 43.353L61.1577 39.0681ZM57.8031 43.8061L62.7258 42.9461L58.6592 45.8398L56.595 45.5111L57.8031 43.8061ZM63.4527 42.9101C63.9535 44.1355 64.2899 45.4289 64.4519 46.7647L59.2108 45.929L63.4527 42.9101ZM65.0067 32.827L59.4323 36.7739C57.12 34.8466 54.3289 33.651 51.3374 33.3098L50.2623 26.5702C56.0128 26.7424 61.1905 29.0914 65.0067 32.827ZM49.7474 25.8237L52.8171 45.0729L49.7474 48.1434V25.8237ZM49.7474 71.3942V49.0855L52.807 52.127L49.7474 71.3942ZM62.7258 54.2022L57.8125 53.4228L56.5465 51.6466L58.5801 51.3312L62.7258 54.2022ZM59.1396 51.2444L64.4449 50.4212C64.2798 51.7397 63.9457 53.0159 63.4503 54.228L59.1396 51.2444ZM63.2578 54.6826C62.7125 55.9002 62.0027 57.0442 61.1412 58.0888L58.1318 53.8696L63.2578 54.6826ZM63.8252 62.5255L53.3743 52.1388L56.113 51.7139L63.8252 62.5255ZM63.5239 62.7798L52.7264 55.1341L53.1497 52.4666L63.5239 62.7798ZM55.2554 62.4222C54.0323 62.9214 52.742 63.2571 51.411 63.4191L52.2318 58.2523L55.2554 62.4222ZM52.3179 57.7062L52.6583 55.5653L54.343 56.7578L55.2209 61.7078L52.3179 57.7062ZM54.7976 57.0794L59.0997 60.1256C58.059 60.9817 56.9213 61.6859 55.71 62.2282L54.7976 57.0794ZM50.2756 70.564L51.3461 63.8244C54.3328 63.4825 57.1216 62.2876 59.4323 60.3619L65.0059 64.3088C61.1929 68.0413 56.0206 70.3887 50.2756 70.564ZM65.3393 63.9754L61.3775 58.4198C63.3032 56.1177 64.4997 53.3375 64.8494 50.3586L71.5937 49.3116C71.4012 55.0301 69.0576 60.1765 65.3393 63.9754ZM53.0307 51.7968L50.0268 48.8116H72.2721L53.0307 51.7968ZM50.0244 48.4196L53.0949 45.3491L72.3456 48.4196H50.0244Z" fill="#072146"/>
<path d="M49.6009 76.7926C50.046 76.7926 50.4068 76.4317 50.4068 75.9866C50.4068 75.5415 50.046 75.1807 49.6009 75.1807C49.1558 75.1807 48.7949 75.5415 48.7949 75.9866C48.7949 76.4317 49.1558 76.7926 49.6009 76.7926Z" fill="#072146"/>
<path d="M49.6001 21.8604C50.0448 21.8604 50.4053 21.4999 50.4053 21.0552C50.4053 20.6105 50.0448 20.25 49.6001 20.25C49.1554 20.25 48.7949 20.6105 48.7949 21.0552C48.7949 21.4999 49.1554 21.8604 49.6001 21.8604Z" fill="#072146"/>
<path d="M77.1126 49.3732C77.5577 49.3732 77.9186 49.0123 77.9186 48.5672C77.9186 48.1221 77.5577 47.7612 77.1126 47.7612C76.6675 47.7612 76.3066 48.1221 76.3066 48.5672C76.3066 49.0123 76.6675 49.3732 77.1126 49.3732Z" fill="#072146"/>
<path d="M22.181 49.3732C22.6261 49.3732 22.9869 49.0123 22.9869 48.5672C22.9869 48.1221 22.6261 47.7612 22.181 47.7612C21.7358 47.7612 21.375 48.1221 21.375 48.5672C21.375 49.0123 21.7358 49.3732 22.181 49.3732Z" fill="#072146"/>
<path d="M30.2583 68.8096C30.703 68.8096 31.0635 68.4491 31.0635 68.0044C31.0635 67.5597 30.703 67.1992 30.2583 67.1992C29.8136 67.1992 29.4531 67.5597 29.4531 68.0044C29.4531 68.4491 29.8136 68.8096 30.2583 68.8096Z" fill="#072146"/>
<path d="M69.0384 29.9361C69.4835 29.9361 69.8443 29.5753 69.8443 29.1302C69.8443 28.6851 69.4835 28.3242 69.0384 28.3242C68.5933 28.3242 68.2324 28.6851 68.2324 29.1302C68.2324 29.5753 68.5933 29.9361 69.0384 29.9361Z" fill="#072146"/>
<path d="M69.0376 68.8096C69.4823 68.8096 69.8428 68.4491 69.8428 68.0044C69.8428 67.5597 69.4823 67.1992 69.0376 67.1992C68.5929 67.1992 68.2324 67.5597 68.2324 68.0044C68.2324 68.4491 68.5929 68.8096 69.0376 68.8096Z" fill="#072146"/>
<path d="M30.2552 29.9361C30.7003 29.9361 31.0611 29.5753 31.0611 29.1302C31.0611 28.6851 30.7003 28.3242 30.2552 28.3242C29.8101 28.3242 29.4492 28.6851 29.4492 29.1302C29.4492 29.5753 29.8101 29.9361 30.2552 29.9361Z" fill="#072146"/>
<path d="M38.8954 74.3503C39.1849 74.3503 39.4196 74.1156 39.4196 73.826C39.4196 73.5365 39.1849 73.3018 38.8954 73.3018C38.6058 73.3018 38.3711 73.5365 38.3711 73.826C38.3711 74.1156 38.6058 74.3503 38.8954 74.3503Z" fill="#072146"/>
<path d="M24.3407 59.7961C24.6302 59.7961 24.8649 59.5614 24.8649 59.2718C24.8649 58.9823 24.6302 58.7476 24.3407 58.7476C24.0511 58.7476 23.8164 58.9823 23.8164 59.2718C23.8164 59.5614 24.0511 59.7961 24.3407 59.7961Z" fill="#072146"/>
<path d="M38.8954 23.8332C39.1849 23.8332 39.4196 23.5985 39.4196 23.3089C39.4196 23.0194 39.1849 22.7847 38.8954 22.7847C38.6058 22.7847 38.3711 23.0194 38.3711 23.3089C38.3711 23.5985 38.6058 23.8332 38.8954 23.8332Z" fill="#072146"/>
<path d="M24.3407 38.2932C24.6302 38.2932 24.8649 38.0584 24.8649 37.7689C24.8649 37.4794 24.6302 37.2446 24.3407 37.2446C24.0511 37.2446 23.8164 37.4794 23.8164 37.7689C23.8164 38.0584 24.0511 38.2932 24.3407 38.2932Z" fill="#072146"/>
<path d="M60.3973 74.3503C60.6869 74.3503 60.9216 74.1156 60.9216 73.826C60.9216 73.5365 60.6869 73.3018 60.3973 73.3018C60.1078 73.3018 59.873 73.5365 59.873 73.826C59.873 74.1156 60.1078 74.3503 60.3973 74.3503Z" fill="#072146"/>
<path d="M74.952 59.7961C75.2415 59.7961 75.4763 59.5614 75.4763 59.2718C75.4763 58.9823 75.2415 58.7476 74.952 58.7476C74.6625 58.7476 74.4277 58.9823 74.4277 59.2718C74.4277 59.5614 74.6625 59.7961 74.952 59.7961Z" fill="#072146"/>
<path d="M60.3973 23.8332C60.6869 23.8332 60.9216 23.5985 60.9216 23.3089C60.9216 23.0194 60.6869 22.7847 60.3973 22.7847C60.1078 22.7847 59.873 23.0194 59.873 23.3089C59.873 23.5985 60.1078 23.8332 60.3973 23.8332Z" fill="#072146"/>
<path d="M74.952 38.2932C75.2415 38.2932 75.4763 38.0584 75.4763 37.7689C75.4763 37.4794 75.2415 37.2446 74.952 37.2446C74.6625 37.2446 74.4277 37.4794 74.4277 37.7689C74.4277 38.0584 74.6625 38.2932 74.952 38.2932Z" fill="#072146"/>
<path d="M50.613 3.084V3.684L49.593 3.84V11.28L50.709 11.412V12H47.325V11.412L48.321 11.28V3.792H44.481V11.292L45.597 11.412V12H42.237V11.412L43.209 11.292V3.828L42.189 3.684V3.084H50.613ZM54.8718 5.34V5.928L53.8758 6.096V8.196H57.1878V6.096L56.1798 5.928V5.34H59.2998V5.928L58.4238 6.096V11.304L59.3478 11.412V12H56.1558V11.412L57.1878 11.304V8.892H53.8758V11.304L54.9078 11.412V12H51.7278V11.412L52.6398 11.304V6.096L51.7398 5.928V5.34H54.8718Z" fill="#072146"/>
<path d="M50.613 85.209V85.809L49.593 85.965V93.405L50.709 93.537V94.125H47.325V93.537L48.321 93.405V85.917H44.481V93.417L45.597 93.537V94.125H42.237V93.537L43.209 93.417V85.953L42.189 85.809V85.209H50.613ZM58.1598 94.713C58.1038 95.385 58.0478 95.933 57.9918 96.357H57.2358C57.2198 96.061 57.1838 95.625 57.1278 95.049C57.0798 94.473 57.0438 94.165 57.0198 94.125H52.4838C52.4518 94.197 52.3638 94.633 52.2198 95.433L52.0278 96.357H51.2238C51.2558 95.221 51.2918 94.253 51.3318 93.453H52.0158C52.3998 93.301 52.7038 92.781 52.9278 91.893C53.1518 90.997 53.2638 89.773 53.2638 88.221L52.1478 88.053V87.465H58.3038V88.053L57.2358 88.221V93.465H58.2918L58.1598 94.713ZM53.9718 88.929C53.9718 89.945 53.8838 90.877 53.7078 91.725C53.5318 92.573 53.3318 93.153 53.1078 93.465H55.9878V88.173H53.9718V88.929Z" fill="#072146"/>
<path d="M0.888 44.997C1.016 44.989 1.272 44.941 1.656 44.853C2.016 44.773 2.324 44.713 2.58 44.673C2.836 44.633 3.084 44.613 3.324 44.613C4.324 44.613 5.092 44.781 5.628 45.117C6.164 45.453 6.432 45.961 6.432 46.641C6.432 47.281 6.228 47.793 5.82 48.177C5.42 48.561 4.936 48.809 4.368 48.921C5.112 48.937 5.684 49.141 6.084 49.533C6.492 49.917 6.696 50.409 6.696 51.009C6.696 51.873 6.428 52.537 5.892 53.001C5.364 53.465 4.52 53.697 3.36 53.697C2.88 53.697 2.456 53.657 2.088 53.577C1.72 53.497 1.428 53.425 1.212 53.361C1.004 53.289 0.876 53.245 0.828 53.229L1.044 51.153H1.644L1.98 52.713C2.364 52.921 2.9 53.025 3.588 53.025C4.124 53.025 4.528 52.865 4.8 52.545C5.08 52.225 5.22 51.745 5.22 51.105C5.22 50.609 5.072 50.193 4.776 49.857C4.48 49.521 3.972 49.353 3.252 49.353H2.412V48.681H3.108C3.444 48.681 3.76 48.613 4.056 48.477C4.36 48.341 4.604 48.133 4.788 47.853C4.972 47.565 5.064 47.217 5.064 46.809C5.064 46.273 4.912 45.881 4.608 45.633C4.312 45.385 3.9 45.261 3.372 45.261C3.02 45.261 2.72 45.305 2.472 45.393C2.232 45.481 2.072 45.593 1.992 45.729L1.764 46.845H1.008L0.888 44.997ZM10.2288 50.301L8.20078 47.673L7.52878 47.529V46.965H10.5768V47.529L9.73678 47.673L10.8288 49.221L11.1648 49.737L11.4888 49.221L12.6288 47.673L11.7528 47.529V46.965H14.2848V47.529L13.5648 47.673L11.5728 50.157L13.6968 52.941L14.3928 53.049V53.625H11.3088V53.049L12.1008 52.929L11.0088 51.309L10.6488 50.769L10.3248 51.297L9.17278 52.929L10.1688 53.049V53.625H7.37278V53.049L8.17678 52.929L10.2288 50.301Z" fill="#072146"/>
<path d="M90.036 53.757C89.156 53.757 88.404 53.569 87.78 53.193C87.164 52.809 86.696 52.273 86.376 51.585C86.056 50.897 85.896 50.089 85.896 49.161C85.896 48.265 86.084 47.473 86.46 46.785C86.836 46.097 87.352 45.565 88.008 45.189C88.664 44.805 89.4 44.613 90.216 44.613C90.832 44.613 91.572 44.709 92.436 44.901L92.832 44.973L92.712 47.133H91.908L91.608 45.609C91.496 45.513 91.3 45.433 91.02 45.369C90.748 45.297 90.412 45.261 90.012 45.261C89.5 45.261 89.044 45.409 88.644 45.705C88.244 45.993 87.928 46.421 87.696 46.989C87.472 47.557 87.36 48.237 87.36 49.029C87.36 49.781 87.46 50.465 87.66 51.081C87.86 51.697 88.164 52.189 88.572 52.557C88.98 52.917 89.484 53.097 90.084 53.097C90.508 53.097 90.832 53.061 91.056 52.989C91.288 52.917 91.484 52.813 91.644 52.677L92.148 51.501L92.904 51.597L92.616 53.301C92.448 53.309 92.2 53.365 91.872 53.469C91.584 53.557 91.304 53.625 91.032 53.673C90.768 53.729 90.436 53.757 90.036 53.757ZM96.2678 50.301L94.2398 47.673L93.5678 47.529V46.965H96.6158V47.529L95.7758 47.673L96.8678 49.221L97.2038 49.737L97.5278 49.221L98.6678 47.673L97.7918 47.529V46.965H100.324V47.529L99.6038 47.673L97.6118 50.157L99.7358 52.941L100.432 53.049V53.625H97.3478V53.049L98.1398 52.929L97.0478 51.309L96.6878 50.769L96.3638 51.297L95.2118 52.929L96.2078 53.049V53.625H93.4118V53.049L94.2158 52.929L96.2678 50.301Z" fill="#072146"/>
</svg>
