<svg width="148" height="25" viewBox="0 0 148 25" fill="none" xmlns="http://www.w3.org/2000/svg">
<path d="M52.6347 15.0087C52.8295 15.0363 53 15.0528 53.1458 15.0583C53.2919 15.0639 53.4624 15.0668 53.6572 15.0668C54.1028 15.0668 54.5247 14.9951 54.9218 14.8515C55.319 14.7079 55.6648 14.4997 55.9597 14.2264C56.2544 13.9531 56.4877 13.6208 56.6594 13.2288C56.8311 12.8369 56.9171 12.3927 56.9171 11.896C56.9171 11.3607 56.8374 10.9055 56.6786 10.5301C56.5196 10.1547 56.2968 9.84992 56.0097 9.61519C55.7225 9.38078 55.3792 9.21122 54.9796 9.10618C54.5797 9.00113 54.1389 8.94861 53.6572 8.94861C53.3752 8.94861 53.1638 8.99692 53.0228 9.09353C52.8818 9.19047 52.782 9.32696 52.7231 9.50333C52.6641 9.68003 52.6347 9.89109 52.6347 10.1368V10.9607L52.6347 15.0087ZM53.196 15.7217L52.9537 15.7217C52.8436 15.7217 52.7372 15.7191 52.6347 15.7133L52.6347 18.1724C52.6347 18.4827 52.6308 18.7488 52.6229 18.9703C52.6154 19.1917 52.6013 19.3746 52.5809 19.5185L54.0337 19.4355V20.1899L50.1743 20.1899V19.6346C50.4717 19.6235 50.6948 19.5655 50.8433 19.4605C50.9918 19.3554 51.0971 19.2115 51.1584 19.0293C51.22 18.8464 51.2519 18.6292 51.2546 18.3776C51.257 18.126 51.2585 17.8508 51.2585 17.5518L51.2585 10.2098C51.2585 9.97733 51.2624 9.75752 51.2699 9.55035C51.2778 9.34285 51.2919 9.15319 51.3123 8.98201L50.1743 9.05657V8.30214C50.7281 8.29111 51.297 8.28398 51.8812 8.28139C52.4654 8.27879 53.0676 8.27717 53.6879 8.27717C55.2153 8.27717 56.3762 8.55372 57.1705 9.10618C58.0214 9.70856 58.4469 10.5901 58.4469 11.7508C58.4469 11.9884 58.4225 12.251 58.3738 12.5383C58.3251 12.8258 58.2265 13.1225 58.0776 13.4295C57.9291 13.7362 57.7253 14.0293 57.4667 14.3081C57.2078 14.5873 56.8822 14.8304 56.4901 15.0379C56.098 15.2451 55.6305 15.4108 55.0872 15.5353C54.5439 15.6594 53.9134 15.7217 53.196 15.7217Z" fill="#FBFBFB"/>
<path d="M62.4467 12.0984C61.8315 12.0984 61.3243 12.2926 60.9247 12.681C60.5248 13.0694 60.2605 13.6987 60.1328 14.5689L64.1457 14.5689C64.1457 14.2716 64.1151 13.9756 64.0534 13.6806C63.9921 13.3859 63.8932 13.1216 63.7576 12.8876C63.6217 12.6538 63.4461 12.4635 63.2308 12.3176C63.0155 12.1714 62.7543 12.0984 62.4467 12.0984ZM65.6295 15.1823L60.0864 15.2819C60.0813 15.9355 60.1273 16.5278 60.2251 17.0595C60.3222 17.5909 60.4761 18.0451 60.6863 18.4218C60.8964 18.7982 61.1667 19.0891 61.4972 19.294C61.8279 19.4985 62.2239 19.601 62.6851 19.601C62.9311 19.601 63.1821 19.565 63.4386 19.4927C63.6947 19.4204 63.9422 19.3218 64.1803 19.1967C64.4187 19.0715 64.6379 18.9214 64.8379 18.7464C65.0375 18.5713 65.2041 18.3839 65.3376 18.1835L65.7218 18.5233C65.5066 18.877 65.2567 19.1769 64.9723 19.4227C64.6878 19.6687 64.3929 19.8694 64.088 20.0237C63.7831 20.1787 63.4771 20.2906 63.1695 20.3596C62.8619 20.4287 62.5748 20.4634 62.3084 20.4634C61.7651 20.4634 61.259 20.358 60.79 20.1482C60.321 19.9382 59.9148 19.637 59.5714 19.2447C59.228 18.8524 58.9574 18.3797 58.7602 17.8269C58.563 17.2745 58.4644 16.6526 58.4644 15.9617C58.4644 15.3645 58.5591 14.7942 58.7488 14.2499C58.9382 13.7055 59.2073 13.2231 59.5561 12.8033C59.9045 12.3834 60.3222 12.0488 60.8093 11.8002C61.296 11.5515 61.8369 11.427 62.4313 11.427C62.867 11.427 63.2783 11.5045 63.6653 11.6591C64.0522 11.8141 64.3917 12.0462 64.6839 12.3555C64.9762 12.6652 65.2068 13.0562 65.3758 13.5285C65.545 14.0012 65.6295 14.5524 65.6295 15.1823" fill="#FBFBFB"/>
<path d="M70.9618 12.3551C70.7619 12.3496 70.5592 12.3894 70.3545 12.475C70.1494 12.561 69.9483 12.6867 69.7511 12.8524C69.5535 13.0181 69.3677 13.2172 69.1936 13.4493C69.0192 13.6814 68.8629 13.9385 68.7246 14.2203L68.7399 18.3902C68.7399 18.6169 68.7375 18.8169 68.7324 18.991C68.7273 19.1654 68.7093 19.3493 68.6786 19.5425L69.6702 19.4929V20.189L66.4413 20.189V19.6835C66.6822 19.6835 66.8653 19.6323 66.9909 19.5302C67.1166 19.428 67.2074 19.2857 67.264 19.1032C67.3202 18.9207 67.3523 18.7025 67.3602 18.448C67.3677 18.1941 67.3716 17.915 67.3716 17.6108V13.731C67.3716 13.5543 67.374 13.376 67.3791 13.1967C67.3842 13.0168 67.4023 12.8304 67.4329 12.6368L66.3184 12.6867V11.99H66.8027C67.0279 11.99 67.2152 11.978 67.3638 11.9527C67.5123 11.9281 67.6368 11.8934 67.7366 11.8493C67.8367 11.8052 67.92 11.7569 67.9868 11.7044C68.0532 11.6519 68.1172 11.5951 68.1789 11.5345H68.6323C68.6479 11.7112 68.6617 11.931 68.6747 12.1933C68.6873 12.4559 68.6987 12.7944 68.7093 13.2087C68.8271 12.999 68.9783 12.7876 69.1627 12.5746C69.3473 12.3619 69.555 12.1713 69.7856 12.0027C70.0162 11.8341 70.2649 11.696 70.5313 11.5883C70.7977 11.4804 71.0719 11.4265 71.3539 11.4265C71.4973 11.4265 71.6371 11.4473 71.773 11.4888C71.9086 11.5303 72.0265 11.5951 72.1266 11.6836C72.2264 11.7722 72.3073 11.8824 72.3687 12.015C72.4303 12.1479 72.461 12.3081 72.461 12.4961C72.461 12.5733 72.4468 12.6589 72.4189 12.7529C72.3906 12.8469 72.3443 12.9354 72.2806 13.0181C72.2162 13.1011 72.1356 13.1705 72.0382 13.2256C71.9408 13.2807 71.8202 13.3083 71.6768 13.3083C71.559 13.3083 71.4525 13.2807 71.3578 13.2256C71.2628 13.1705 71.1834 13.0998 71.1194 13.0139C71.0553 12.9283 71.009 12.8291 70.9811 12.7156C70.9528 12.6021 70.9465 12.4822 70.9618 12.3551Z" fill="#FBFBFB"/>
<path d="M77.8209 8.19352C77.7442 8.08297 77.6402 8.00548 77.5094 7.96106C77.3789 7.91697 77.2572 7.89492 77.1444 7.89492C76.8985 7.89492 76.6958 7.95458 76.5371 8.07324C76.378 8.19223 76.2526 8.34817 76.1603 8.5414C76.068 8.73495 76.0028 8.95185 75.9643 9.19241C75.9258 9.43298 75.9066 9.67451 75.9066 9.91767V11.6999L78.0287 11.6999V12.3632L75.9066 12.4047L75.9219 18.3902C75.9219 18.6169 75.9195 18.8169 75.9144 18.991C75.9093 19.1654 75.8885 19.3493 75.8528 19.5425L76.8446 19.4929V20.189L73.6386 20.189V19.6835C73.8795 19.6835 74.0626 19.6323 74.1883 19.5298C74.3139 19.428 74.405 19.2854 74.4613 19.1032C74.5178 18.9207 74.5485 18.7025 74.5536 18.448C74.5587 18.1941 74.5614 17.915 74.5614 17.6108L74.5458 12.4381L73.2544 12.4627V11.6999L74.5458 11.6999V11.3435C74.5458 10.7136 74.5957 10.1485 74.6958 9.64825C74.7956 9.14832 74.9583 8.72393 75.1841 8.37573C75.4096 8.02753 75.703 7.75973 76.0644 7.57169C76.4255 7.38365 76.8651 7.28962 77.3828 7.28962C77.5518 7.28962 77.7352 7.31329 77.9325 7.3603C78.1297 7.40731 78.3116 7.48188 78.4782 7.58401C78.6447 7.68646 78.7845 7.81647 78.8973 7.97371C79.01 8.13127 79.0663 8.32061 79.0663 8.5414C79.0663 8.76835 79.0049 8.95347 78.882 9.09709C78.759 9.24072 78.6023 9.31269 78.4129 9.31269C78.2797 9.31269 78.1721 9.28903 78.09 9.24202C78.0079 9.19501 77.94 9.13568 77.8865 9.0637C77.8326 8.99205 77.7942 8.91456 77.771 8.83157C77.7479 8.74857 77.7364 8.67433 77.7364 8.60786C77.7364 8.5414 77.7427 8.47396 77.7557 8.40491C77.7683 8.33553 77.7902 8.26517 77.8209 8.19352Z" fill="#FBFBFB"/>
<path d="M82.4555 12.0984C81.8403 12.0984 81.3331 12.2926 80.9332 12.681C80.5336 13.0694 80.2693 13.6987 80.1412 14.5689L84.1545 14.5689C84.1545 14.2716 84.1239 13.9756 84.0622 13.6806C84.0006 13.3859 83.902 13.1216 83.7664 12.8876C83.6305 12.6538 83.4549 12.4635 83.2396 12.3176C83.0243 12.1714 82.7631 12.0984 82.4555 12.0984ZM85.6383 15.1823L80.0952 15.2819C80.0901 15.9355 80.1361 16.5278 80.2335 17.0595C80.331 17.5909 80.4846 18.0451 80.6948 18.4218C80.9049 18.7982 81.1755 19.0891 81.506 19.294C81.8367 19.4985 82.2327 19.601 82.6939 19.601C82.9398 19.601 83.1909 19.565 83.4471 19.4927C83.7035 19.4204 83.951 19.3218 84.1891 19.1967C84.4275 19.0715 84.6464 18.9214 84.8464 18.7464C85.0463 18.5713 85.2129 18.3839 85.3461 18.1835L85.7306 18.5233C85.5154 18.877 85.2655 19.1769 84.9811 19.4227C84.6966 19.6687 84.4017 19.8694 84.0968 20.0237C83.7919 20.1787 83.4856 20.2906 83.1783 20.3596C82.8707 20.4287 82.5836 20.4634 82.3172 20.4634C81.7739 20.4634 81.2678 20.358 80.7988 20.1482C80.3298 19.9382 79.9233 19.637 79.5802 19.2447C79.2365 18.8524 78.9662 18.3797 78.769 17.8269C78.5718 17.2744 78.4731 16.6526 78.4731 15.9617C78.4731 15.3645 78.5679 14.7942 78.7576 14.2499C78.947 13.7055 79.2161 13.2231 79.5649 12.8033C79.9133 12.3834 80.331 12.0488 80.818 11.8002C81.3048 11.5515 81.8454 11.427 82.4401 11.427C82.8758 11.427 83.2868 11.5045 83.6741 11.6591C84.061 11.8141 84.4005 12.0462 84.6927 12.3555C84.9847 12.6652 85.2156 13.0562 85.3846 13.5285C85.5538 14.0012 85.6383 14.5524 85.6383 15.1823Z" fill="#FBFBFB"/>
<path d="M92.1237 13C92.0518 12.801 91.9469 12.6421 91.8086 12.5231C91.6703 12.4045 91.5203 12.3121 91.3588 12.2456C91.1974 12.1795 91.0359 12.1367 90.8744 12.1172C90.713 12.0978 90.5786 12.088 90.4709 12.088C90.1119 12.088 89.7776 12.1668 89.4676 12.3241C89.1573 12.4819 88.8897 12.7128 88.6639 13.0166C88.4384 13.3207 88.2604 13.6994 88.1296 14.1523C87.9992 14.6055 87.9336 15.1249 87.9336 15.7107C87.9336 16.2745 87.9992 16.7956 88.1296 17.2734C88.2604 17.7516 88.4438 18.1634 88.6796 18.5087C88.9153 18.8543 89.1997 19.1237 89.5329 19.3169C89.866 19.5105 90.2349 19.6071 90.6399 19.6071C90.8862 19.6071 91.1294 19.5698 91.3705 19.4953C91.6114 19.4207 91.8393 19.3169 92.0546 19.1843C92.2698 19.0517 92.4686 18.8971 92.6505 18.7201C92.8324 18.543 92.9875 18.3524 93.1156 18.1482L93.523 18.4879C93.3128 18.8416 93.0732 19.1445 92.8041 19.3957C92.535 19.6473 92.253 19.8545 91.9586 20.0176C91.6637 20.1806 91.3666 20.3006 91.0669 20.3781C90.7668 20.4556 90.4836 20.4941 90.2172 20.4941C89.6841 20.4941 89.1817 20.3959 88.7102 20.1998C88.2388 20.0036 87.8263 19.719 87.4724 19.3461C87.1188 18.9729 86.8395 18.5158 86.6344 17.9737C86.4294 17.4326 86.3271 16.8163 86.3271 16.1254C86.3271 15.7328 86.3719 15.346 86.4615 14.9647C86.5511 14.5835 86.6807 14.22 86.8497 13.8747C87.019 13.5291 87.224 13.2085 87.4649 12.9128C87.7057 12.6171 87.9787 12.3617 88.2836 12.1461C88.5885 11.9305 88.9219 11.7619 89.283 11.6403C89.6444 11.519 90.0275 11.4581 90.4325 11.4581C90.8681 11.4581 91.2653 11.5161 91.624 11.6322C91.9827 11.7483 92.2903 11.9029 92.5467 12.0965C92.8029 12.2897 93.0002 12.5121 93.1388 12.7637C93.2771 13.0153 93.3462 13.2792 93.3462 13.5554C93.3462 13.7986 93.2834 14.007 93.158 14.1811C93.032 14.3556 92.8513 14.4454 92.6159 14.4505C92.4773 14.4564 92.3621 14.4327 92.2698 14.3802C92.1775 14.3277 92.1033 14.2628 92.047 14.1853C91.9905 14.1082 91.9493 14.0239 91.9238 13.9325C91.8982 13.8414 91.8856 13.76 91.8856 13.688C91.8856 13.5774 91.9021 13.4614 91.9355 13.3398C91.9689 13.2182 92.0317 13.1051 92.1237 13Z" fill="#FBFBFB"/>
<path d="M94.021 11.7006C94.2979 11.6954 94.549 11.6134 94.7745 11.4562C95 11.2986 95.1987 11.1025 95.3704 10.8674C95.5421 10.6327 95.6867 10.3772 95.8045 10.1007C95.9224 9.82443 96.0147 9.56474 96.0815 9.32126L96.6197 9.32126C96.6197 9.7745 96.6184 10.1976 96.6157 10.5896C96.613 10.9825 96.6118 11.3528 96.6118 11.7006L99.2643 11.7006V12.364L96.6118 12.397C96.6067 13.132 96.6043 13.7594 96.6043 14.2788C96.6043 14.7985 96.6028 15.2323 96.6004 15.5805C96.5977 15.9287 96.5965 16.2036 96.5965 16.4052C96.5965 16.6069 96.5953 16.7606 96.5926 16.8653C96.5899 16.9703 96.5887 17.0381 96.5887 17.0683V17.1224C96.5887 17.5095 96.6079 17.8506 96.6464 18.1463C96.6849 18.4419 96.7501 18.6906 96.8427 18.8923C96.9347 19.0939 97.0565 19.246 97.2078 19.3484C97.359 19.4505 97.5499 19.5018 97.7805 19.5018C98.052 19.5018 98.3211 19.4133 98.5875 19.2362C98.8542 19.0596 99.0899 18.8083 99.295 18.4818L99.7177 18.855C99.4871 19.2311 99.2577 19.5251 99.0298 19.7378C98.8016 19.9508 98.5851 20.111 98.3804 20.2186C98.175 20.3266 97.9841 20.394 97.8076 20.4216C97.6305 20.4494 97.4753 20.4634 97.3422 20.4634C97.1834 20.4634 97.0204 20.4494 96.8542 20.4216C96.6876 20.394 96.5234 20.3402 96.362 20.2601C96.2005 20.18 96.0493 20.0665 95.9083 19.9203C95.7673 19.7738 95.6431 19.5844 95.5358 19.3526C95.4278 19.1202 95.3433 18.8384 95.282 18.5068C95.2204 18.1751 95.1921 17.7828 95.1972 17.3296L95.2282 12.422L94.021 12.4304V11.7006Z" fill="#FBFBFB"/>
<path d="M31.8024 12.2656C31.4507 12.2656 31.165 11.958 31.165 11.5783C31.165 11.1993 31.4507 10.8913 31.8024 10.8913C32.1545 10.8913 32.4399 11.1993 32.4399 11.5783C32.4399 11.958 32.1545 12.2656 31.8024 12.2656Z" fill="#FBFBFB"/>
<path d="M13.2619 12.2656C12.9101 12.2656 12.6245 11.958 12.6245 11.5783C12.6245 11.1993 12.9101 10.8913 13.2619 10.8913C13.6137 10.8913 13.8993 11.1993 13.8993 11.5783C13.8993 11.958 13.6137 12.2656 13.2619 12.2656Z" fill="#FBFBFB"/>
<path d="M22.5324 11.0112C22.1807 11.0112 21.895 10.7039 21.895 10.3239C21.895 9.9449 22.1807 9.6369 22.5324 9.6369C22.8845 9.6369 23.1698 9.9449 23.1698 10.3239C23.1698 10.7039 22.8845 11.0112 22.5324 11.0112Z" fill="#FBFBFB"/>
<path d="M36.9886 15.06C36.9886 15.06 35.5694 14.41 33.036 13.6967C30.1893 12.895 26.1507 12.5432 22.5325 12.5361C18.9143 12.5432 14.9004 13.011 12.0291 13.6967C9.65439 14.2635 8.0765 15.06 8.0765 15.06L5.22558 11.8085C5.22558 11.8085 8.33026 12.2712 9.8823 11.578C11.4343 10.8849 12.1749 7.82238 12.1749 7.82238C12.1749 7.82238 15.625 10.6855 17.6545 10.5542C19.6843 10.4219 22.5325 6.24316 22.5325 6.24316C22.5325 6.24316 25.3807 10.4219 27.4105 10.5542C29.44 10.6855 32.8905 7.82238 32.8905 7.82238C32.8905 7.82238 33.631 10.8849 35.1828 11.578C36.7351 12.2712 39.8395 11.8085 39.8395 11.8085L36.9886 15.06ZM36.1942 16.7767C36.0189 17.4106 35.7432 20.986 35.4233 21.8026C34.6398 21.1218 29.0609 19.6087 22.5506 19.6087C22.5446 19.6087 22.5388 19.609 22.5325 19.609C22.5262 19.609 22.5205 19.6087 22.5142 19.6087C16.0042 19.6087 10.4253 21.1218 9.64176 21.8026C9.32216 20.986 9.0705 17.4018 8.87086 16.7767C8.77615 16.4801 8.94933 16.2178 8.94933 16.2178C9.85163 14.8953 15.539 13.3304 22.4387 13.3304H22.6263C29.5263 13.3304 35.2134 14.8953 36.1157 16.2178C36.1157 16.2178 36.2682 16.5093 36.1942 16.7767V16.7767ZM22.6152 24.1237C22.5872 24.1237 22.5605 24.1233 22.5325 24.1233C22.5046 24.1233 22.4778 24.1237 22.4498 24.1237C16.1016 24.1237 11.3372 23.2451 10.3354 22.6757C10.9596 22.0328 15.9287 20.6773 22.4498 20.6773C22.4778 20.6773 22.5049 20.678 22.5325 20.678C22.5602 20.678 22.5876 20.6773 22.6152 20.6773C29.1364 20.6773 34.1055 22.0328 34.7297 22.6757C33.7281 23.2451 28.9635 24.1237 22.6152 24.1237ZM44.9298 8.20398C44.7794 7.98579 42.7511 8.48929 42.1489 8.38813C41.6468 8.19231 41.3633 7.58182 40.9153 7.56561C40.3223 7.54389 39.8864 7.96569 39.8864 8.58136C39.8864 8.65593 39.8942 8.72823 39.9074 8.7989C39.5256 9.92683 37.7769 10.8803 36.6614 10.6946C35.0111 10.4196 34.668 9.00737 34.3637 7.83503C34.2176 7.27058 35.0333 7.4262 35.1575 6.62248C35.2591 5.9611 34.9119 5.42323 34.1103 5.18656C34.5171 5.0559 34.8111 4.70316 34.8111 4.28461C34.8111 3.75517 34.7191 3.05747 34.0192 2.91482C33.3836 2.78611 32.7257 3.75517 32.7257 4.28461C32.7257 4.60719 32.9007 4.89185 33.1665 5.0653C31.9623 5.09156 31.0543 5.49067 31.1484 6.32907C31.183 6.63351 31.3829 6.87634 31.3012 7.09842C31.2188 7.32051 29.2284 9.22589 27.9175 9.22589C26.4938 9.22589 24.4839 7.29457 24.3266 6.57612C24.2947 6.57515 25.213 6.02432 25.28 5.44657C25.4027 4.38576 24.5284 3.55319 23.4841 3.23708C23.5939 3.05164 23.6585 2.8302 23.6585 2.59093C23.6585 1.94511 23.1621 0.62914 22.5863 0.62914C22.5683 0.62914 22.5506 0.63368 22.5325 0.636273C22.5145 0.63368 22.4968 0.62914 22.4784 0.62914C21.9026 0.62914 21.4065 1.94511 21.4065 2.59093C21.4065 2.8302 21.4712 3.05164 21.5812 3.23708C20.5364 3.55319 19.6621 4.38576 19.785 5.44657C19.8521 6.02432 20.77 6.57515 20.7385 6.57612C20.5812 7.29457 18.5716 9.22589 17.1476 9.22589C15.8367 9.22589 13.8463 7.32051 13.7642 7.09842C13.6818 6.87634 13.8821 6.63351 13.9163 6.32907C14.0104 5.49067 13.1027 5.09156 11.8986 5.0653C12.1647 4.89185 12.3393 4.60719 12.3393 4.28461C12.3393 3.75517 11.6815 2.78611 11.0459 2.91482C10.3459 3.05747 10.2539 3.75517 10.2539 4.28461C10.2539 4.70316 10.5477 5.0559 10.9548 5.18656C10.1532 5.42323 9.80563 5.9611 9.90755 6.62248C10.0314 7.4262 10.8474 7.27058 10.7013 7.83503C10.397 9.00737 10.054 10.4196 8.40362 10.6946C7.28815 10.8803 5.53948 9.92683 5.15763 8.7989C5.17086 8.72823 5.17837 8.65593 5.17837 8.58136C5.17837 7.96569 4.74271 7.54389 4.1498 7.56561C3.7018 7.58182 3.41828 8.19231 2.91616 8.38813C2.31393 8.48929 0.285634 7.98579 0.135602 8.20398C0.135602 8.20398 0 8.36155 0 8.58817C0 8.76551 7.33866 15.3123 7.90091 16.1199C8.44601 16.9035 9.12282 21.7667 9.42589 22.7711C9.44122 22.8884 9.48361 23.0025 9.55848 23.1047C10.3928 24.2384 16.8974 25 22.4498 25C22.4775 25 22.5052 24.9997 22.5325 24.9997C22.5602 24.9997 22.5876 25 22.6152 25C28.1676 25 34.6725 24.2384 35.5063 23.1047C35.5814 23.0025 35.6241 22.8884 35.6389 22.7711C35.9422 21.7667 36.619 16.9035 37.1641 16.1199C37.7264 15.3123 45.0648 8.76551 45.0648 8.58817C45.0648 8.36155 44.9298 8.20398 44.9298 8.20398" fill="#FBFBFB"/>
<path d="M22.5323 14.2782C21.5762 14.2782 20.8008 15.2433 20.8008 16.4325C20.8008 17.6224 21.5762 18.5869 22.5323 18.5869C23.4887 18.5869 24.2639 17.6224 24.2639 16.4325C24.2639 15.2433 23.4887 14.2782 22.5323 14.2782Z" fill="#FBFBFB"/>
<path d="M30.2448 19.5098C31.0361 19.75 31.8927 19.123 32.1573 18.1089C32.4219 17.0944 31.9946 16.0764 31.2033 15.8371C30.411 15.5975 29.5547 16.2246 29.2899 17.239C29.025 18.2531 29.4528 19.2699 30.2448 19.5098Z" fill="#FBFBFB"/>
<path d="M14.8206 19.5098C14.0292 19.75 13.1726 19.123 12.9081 18.1089C12.6432 17.0944 13.0707 16.0764 13.8621 15.8371C14.6543 15.5975 15.5103 16.2246 15.7752 17.239C16.0404 18.2531 15.6126 19.2699 14.8206 19.5098Z" fill="#FBFBFB"/>
<path d="M114.742 19.6071L114.312 19.6071C114.137 19.6071 113.907 19.6402 113.62 19.7066C113.333 19.7731 112.997 19.8862 112.612 20.0464C112.449 20.1129 112.269 20.1735 112.075 20.2286C111.88 20.2841 111.681 20.3311 111.479 20.3696C111.276 20.4082 111.075 20.4387 110.875 20.4611C110.675 20.4831 110.488 20.4941 110.314 20.4941C109.524 20.4941 108.802 20.3573 108.146 20.084C107.49 19.8104 106.926 19.4178 106.454 18.9065C105.983 18.3955 105.617 17.7708 105.355 17.0332C105.094 16.2953 104.963 15.4621 104.963 14.5335C104.963 14.0031 105.013 13.474 105.113 12.9462C105.213 12.4181 105.364 11.9152 105.566 11.4373C105.769 10.9595 106.021 10.5143 106.324 10.1026C106.626 9.69082 106.981 9.33322 107.389 9.02911C107.796 8.725 108.255 8.48735 108.765 8.31617C109.274 8.14466 109.835 8.05907 110.444 8.05907C110.726 8.05907 111.014 8.08112 111.306 8.12554C111.598 8.16995 111.885 8.23188 112.167 8.31196C112.449 8.39204 112.72 8.48995 112.982 8.60602C113.243 8.72208 113.484 8.85209 113.704 8.99572L113.635 8.18325L114.504 8.18325L114.504 12.0715H113.935C113.899 11.5395 113.789 11.0658 113.604 10.6505C113.42 10.2348 113.178 9.88567 112.878 9.60328C112.578 9.3209 112.229 9.10465 111.832 8.95486C111.435 8.8054 111.008 8.73051 110.552 8.73051C109.993 8.73051 109.468 8.86473 108.976 9.13318C108.484 9.4013 108.056 9.77447 107.692 10.253C107.328 10.7315 107.04 11.3012 106.827 11.9619C106.614 12.623 106.508 13.3489 106.508 14.1396C106.508 14.9417 106.611 15.6816 106.816 16.3592C107.021 17.0368 107.309 17.62 107.681 18.1096C108.052 18.5991 108.497 18.982 109.014 19.2586C109.532 19.5351 110.101 19.6732 110.721 19.6732C110.931 19.6732 111.152 19.6567 111.382 19.6236C111.613 19.5906 111.845 19.5406 112.078 19.4745C112.311 19.408 112.542 19.3208 112.77 19.2132C112.998 19.1055 113.215 18.9772 113.42 18.8277L113.42 15.1139L112.313 15.1803L112.313 14.4343L115.872 14.4343L115.872 14.9894C115.677 14.9894 115.513 15.0296 115.38 15.1097C115.247 15.1897 115.139 15.2922 115.057 15.4167C114.975 15.5409 114.913 15.679 114.869 15.831C114.825 15.9831 114.795 16.1335 114.777 16.2827C114.759 16.4318 114.749 16.5715 114.746 16.7012C114.743 16.8312 114.742 16.935 114.742 17.0125L114.742 19.6071Z" fill="#FBFBFB"/>
<path d="M121.129 12.387C120.929 12.3815 120.727 12.4213 120.522 12.5069C120.317 12.5929 120.115 12.7186 119.918 12.8843C119.721 13.05 119.535 13.2491 119.361 13.4812C119.187 13.7133 119.03 13.9704 118.892 14.2525L118.907 18.4222C118.907 18.6488 118.905 18.8488 118.9 19.0232C118.894 19.1973 118.877 19.3812 118.846 19.5744L119.837 19.5248V20.2212L116.609 20.2212V19.7154C116.849 19.7154 117.033 19.6642 117.158 19.5621C117.284 19.4599 117.374 19.3176 117.431 19.1351C117.487 18.9529 117.52 18.7344 117.527 18.4802C117.535 18.226 117.539 17.9469 117.539 17.6427L117.539 13.7629C117.539 13.5862 117.541 13.4082 117.546 13.2283C117.552 13.0487 117.57 12.8623 117.6 12.6687L116.485 12.7186V12.0222H116.97C117.195 12.0222 117.382 12.0099 117.531 11.985C117.68 11.96 117.804 11.9256 117.904 11.8815C118.004 11.8371 118.087 11.7888 118.154 11.736C118.22 11.6838 118.285 11.627 118.346 11.5664H118.8C118.815 11.7431 118.829 11.9629 118.842 12.2252C118.855 12.4878 118.866 12.8263 118.877 13.2406C118.994 13.0309 119.145 12.8195 119.33 12.6065C119.515 12.3938 119.722 12.2032 119.953 12.0346C120.183 11.8663 120.432 11.7279 120.699 11.6202C120.965 11.5123 121.239 11.4584 121.521 11.4584C121.665 11.4584 121.804 11.4792 121.94 11.5207C122.076 11.5622 122.194 11.627 122.294 11.7155C122.394 11.8041 122.474 11.9143 122.536 12.0469C122.597 12.1798 122.628 12.34 122.628 12.528C122.628 12.6055 122.614 12.6908 122.586 12.7851C122.558 12.8791 122.512 12.9673 122.448 13.05C122.383 13.133 122.303 13.2024 122.206 13.2575C122.108 13.3126 121.988 13.3402 121.844 13.3402C121.726 13.3402 121.62 13.3126 121.525 13.2575C121.43 13.2024 121.351 13.1317 121.287 13.0458C121.223 12.9602 121.176 12.861 121.148 12.7475C121.12 12.6344 121.114 12.5141 121.129 12.387Z" fill="#FBFBFB"/>
<path d="M126.336 12.1046C125.921 12.1046 125.566 12.2041 125.272 12.4032C124.977 12.6025 124.735 12.8681 124.545 13.2001C124.355 13.5321 124.216 13.9137 124.126 14.3455C124.036 14.7767 123.992 15.2248 123.992 15.6897C123.992 16.2155 124.042 16.7271 124.142 17.2251C124.241 17.7228 124.394 18.164 124.599 18.5489C124.804 18.9331 125.061 19.2414 125.372 19.4739C125.682 19.7063 126.044 19.8224 126.459 19.8224C126.875 19.8224 127.224 19.7215 127.509 19.5199C127.793 19.3176 128.024 19.0508 128.201 18.7188C128.378 18.3868 128.505 18.0078 128.581 17.5818C128.658 17.1558 128.697 16.7187 128.697 16.2703C128.697 15.7616 128.653 15.2582 128.566 14.7602C128.479 14.2622 128.34 13.8167 128.151 13.4241C127.961 13.0312 127.716 12.7131 127.417 12.4696C127.117 12.2261 126.756 12.1046 126.336 12.1046ZM126.336 11.4581C126.89 11.4581 127.407 11.567 127.889 11.7852C128.371 12.0037 128.79 12.3049 129.146 12.6891C129.503 13.073 129.784 13.5291 129.992 14.057C130.2 14.5848 130.303 15.1551 130.303 15.7688C130.303 16.4266 130.202 17.0426 130 17.6174C129.797 18.1923 129.518 18.6925 129.162 19.1179C128.805 19.5436 128.385 19.8791 127.901 20.1252C127.417 20.3709 126.895 20.4941 126.336 20.4941C125.783 20.4941 125.266 20.3875 124.787 20.1748C124.308 19.9621 123.89 19.6651 123.534 19.2835C123.178 18.9023 122.897 18.4477 122.692 17.9199C122.487 17.3921 122.385 16.8131 122.385 16.1831C122.385 15.5146 122.486 14.8915 122.688 14.3137C122.891 13.7363 123.169 13.2361 123.523 12.8133C123.876 12.3905 124.294 12.0588 124.776 11.8183C125.257 11.578 125.778 11.4581 126.336 11.4581" fill="#FBFBFB"/>
<path d="M136.896 13.9634C136.896 13.6865 136.901 13.4502 136.912 13.2537C136.922 13.0573 136.943 12.8624 136.973 12.6685L135.843 12.7185L135.843 12.0221H136.327C136.553 12.0221 136.745 12.0097 136.904 11.9848C137.063 11.9598 137.198 11.9254 137.312 11.8813C137.424 11.8369 137.518 11.7886 137.592 11.7361C137.667 11.6836 137.735 11.6268 137.796 11.5662H138.249L138.234 17.9827C138.234 18.0708 138.233 18.183 138.23 18.3182C138.227 18.4537 138.224 18.5948 138.219 18.741C138.214 18.8875 138.207 19.0341 138.199 19.1803C138.192 19.3268 138.183 19.4581 138.173 19.5742L139.303 19.5081V20.221L137.05 20.221C137.024 20.0274 137.003 19.8491 136.985 19.686C136.967 19.5233 136.953 19.3615 136.943 19.2014C136.778 19.378 136.597 19.5453 136.397 19.7029C136.197 19.8601 135.985 19.997 135.762 20.113C135.539 20.2291 135.31 20.3218 135.074 20.3909C134.839 20.4599 134.606 20.4946 134.375 20.4946C133.944 20.4946 133.567 20.4321 133.245 20.3079C132.922 20.1834 132.653 19.9778 132.437 19.6903C132.222 19.403 132.061 19.023 131.953 18.5503C131.845 18.078 131.792 17.4908 131.792 16.7889V13.7712C131.792 13.5945 131.794 13.4149 131.799 13.2323C131.804 13.0498 131.822 12.8621 131.853 12.6685L130.769 12.7185L130.769 12.0221H131.261C131.481 12.0221 131.671 12.0097 131.83 11.9848C131.989 11.9598 132.125 11.9254 132.237 11.8813C132.35 11.8369 132.444 11.7886 132.518 11.7361C132.592 11.6836 132.66 11.6268 132.722 11.5662H133.176L133.176 16.7445C133.176 17.237 133.206 17.6643 133.268 18.0267C133.329 18.3889 133.428 18.6904 133.564 18.931C133.699 19.1719 133.875 19.3489 134.09 19.4623C134.305 19.5758 134.569 19.6326 134.882 19.6326C135.082 19.6326 135.278 19.5962 135.47 19.5243C135.662 19.4526 135.846 19.3557 136.02 19.2338C136.194 19.1122 136.357 18.9738 136.508 18.8191C136.659 18.6641 136.789 18.4978 136.896 18.3208V17.6153V13.9634Z" fill="#FBFBFB"/>
<path d="M143.595 12.2874C143.411 12.2874 143.231 12.3136 143.057 12.3662C142.883 12.4187 142.716 12.4881 142.557 12.5736C142.398 12.6592 142.248 12.7607 142.107 12.8765C141.966 12.9929 141.842 13.1144 141.735 13.2415C141.735 13.2859 141.736 13.3372 141.738 13.3952C141.741 13.4532 141.742 13.5515 141.742 13.6899V14.2751C141.742 14.5267 141.741 14.8642 141.738 15.2876C141.736 15.7107 141.733 16.2379 141.731 16.8685C141.728 17.4994 141.727 18.2626 141.727 19.159C141.988 19.3694 142.275 19.5325 142.588 19.6486C142.9 19.7649 143.228 19.823 143.572 19.823C143.946 19.823 144.282 19.726 144.579 19.5325C144.876 19.3389 145.13 19.0692 145.34 18.7233C145.55 18.3773 145.712 17.9679 145.825 17.4948C145.937 17.0218 145.994 16.5034 145.994 15.9389C145.994 15.4799 145.949 15.0315 145.859 14.5944C145.769 14.1574 145.629 13.7674 145.436 13.4244C145.244 13.0814 144.997 12.8061 144.694 12.5986C144.392 12.3911 144.026 12.2874 143.595 12.2874ZM140.389 13.7713C140.389 13.5946 140.392 13.4146 140.397 13.2324C140.402 13.0499 140.42 12.8622 140.451 12.6686L139.336 12.7351V12.0222C139.679 12.0222 139.959 12.0095 140.174 11.9849C140.389 11.9599 140.562 11.9256 140.693 11.8811C140.824 11.837 140.925 11.7884 140.997 11.7359C141.068 11.6837 141.132 11.627 141.189 11.566H141.65C141.66 11.6766 141.67 11.8062 141.681 11.9557C141.691 12.1052 141.701 12.2789 141.712 12.478C141.87 12.3285 142.046 12.1908 142.238 12.0637C142.43 11.9363 142.633 11.8286 142.846 11.7401C143.058 11.6519 143.275 11.5825 143.495 11.5329C143.715 11.483 143.936 11.4584 144.157 11.4584C144.612 11.4584 145.049 11.555 145.467 11.7485C145.885 11.9421 146.252 12.2196 146.57 12.5818C146.888 12.9436 147.142 13.3858 147.332 13.9081C147.521 14.4304 147.616 15.0201 147.616 15.678C147.616 16.1588 147.566 16.612 147.466 17.0374C147.366 17.4634 147.226 17.8541 147.047 18.2104C146.868 18.567 146.654 18.886 146.405 19.1681C146.157 19.4498 145.884 19.6891 145.587 19.8852C145.289 20.0814 144.973 20.2318 144.637 20.3369C144.301 20.4419 143.957 20.4944 143.603 20.4944C142.875 20.4944 142.247 20.3093 141.719 19.939L141.712 22.7493C141.712 22.9759 141.709 23.1763 141.704 23.3504C141.699 23.5245 141.681 23.7083 141.65 23.9019L142.642 23.8519V24.5483L139.428 24.5483V24.0426C139.669 24.0426 139.852 23.9913 139.978 23.8892C140.104 23.7868 140.193 23.6448 140.247 23.4622C140.301 23.2797 140.331 23.0615 140.339 22.8073C140.347 22.5532 140.353 22.274 140.358 21.9702L140.389 13.7713V13.7713Z" fill="#FBFBFB"/>
</svg>
