<svg width="56" height="22" viewBox="0 0 56 22" fill="none" xmlns="http://www.w3.org/2000/svg">
<path d="M22.0747 10.1827H22.2974C22.3221 10.658 22.5283 11.05 22.9241 11.3502C23.3199 11.6504 23.8147 11.8089 24.4084 11.8089C24.9856 11.8089 25.4639 11.6588 25.835 11.3586C26.2061 11.0583 26.3875 10.6747 26.3875 10.2077C26.3875 9.84075 26.2638 9.54886 26.0082 9.32369C25.7525 9.09852 25.3402 8.91505 24.763 8.77327L24.0126 8.58146C23.4024 8.43135 22.9571 8.22286 22.6767 7.97267C22.3963 7.72248 22.2561 7.38889 22.2561 6.98859C22.2561 6.49655 22.4623 6.07957 22.8663 5.74598C23.2704 5.4124 23.7652 5.24561 24.3342 5.24561C24.9362 5.24561 25.4392 5.40406 25.8515 5.72097C26.2638 6.03787 26.4782 6.42984 26.4947 6.89686H26.2721C26.2473 6.48821 26.0577 6.14629 25.6866 5.87108C25.3237 5.59587 24.8702 5.46244 24.3342 5.46244C23.8147 5.46244 23.3776 5.60421 23.023 5.8961C22.6602 6.18799 22.487 6.54659 22.487 6.98859C22.487 7.33885 22.6107 7.61406 22.8663 7.83089C23.122 8.04772 23.5261 8.22286 24.0868 8.36463L24.829 8.5481C25.4474 8.70656 25.9092 8.91505 26.1896 9.17358C26.4782 9.43211 26.6184 9.77403 26.6184 10.191C26.6184 10.7248 26.4122 11.1584 25.9999 11.5003C25.5876 11.8423 25.0599 12.0091 24.4002 12.0091C23.7405 12.0091 23.1962 11.8339 22.7591 11.492C22.3303 11.1584 22.0912 10.7164 22.0747 10.1827Z" fill="white"/>
<path d="M33.6277 5.3457V11.9257H33.4051V5.8711H33.3886L30.758 11.9257H30.5189L27.8883 5.8711H27.8718V11.9257H27.6492V5.3457H27.8883L30.6343 11.6421H30.6508L33.3803 5.3457H33.6277Z" fill="white"/>
<path d="M39.5073 11.9257L38.6579 9.64062H35.6316L34.7657 11.9257H34.5183L37.0252 5.3457H37.2561L39.7629 11.9257H39.5073ZM37.1324 5.65427L35.714 9.42379H38.5755L37.1571 5.65427H37.1324Z" fill="white"/>
<path d="M40.8681 9.0485V11.9257H40.6372V5.3457H42.6575C43.309 5.3457 43.8203 5.5125 44.1914 5.83774C44.5624 6.17133 44.7521 6.62167 44.7521 7.1971C44.7521 7.6808 44.6119 8.08111 44.3398 8.39801C44.0677 8.71492 43.6801 8.92341 43.1936 9.00681L44.9088 11.9257H44.6532L42.9544 9.04016C42.8472 9.0485 42.7483 9.0485 42.6575 9.0485H40.8681ZM40.8681 5.55419V8.84001H42.6575C43.2348 8.84001 43.6966 8.6899 44.0264 8.39801C44.3563 8.10612 44.5212 7.70582 44.5212 7.1971C44.5212 6.68004 44.3563 6.27974 44.0264 5.98785C43.6966 5.69597 43.2348 5.55419 42.6493 5.55419H40.8681Z" fill="white"/>
<path d="M47.9188 11.9257H47.6961V5.56253H45.3459V5.3457H50.2607V5.56253H47.9105L47.9188 11.9257Z" fill="white"/>
<path d="M24.9942 12.5933C25.8683 12.5933 26.5692 12.9018 27.0805 13.5106C27.6 14.1194 27.8556 14.945 27.8556 15.9792C27.8556 17.0133 27.6 17.8389 27.0805 18.4477C26.561 19.0565 25.8683 19.3651 24.9859 19.3651C24.1036 19.3651 23.4109 19.0565 22.8914 18.4477C22.3718 17.8389 22.1162 17.0133 22.1162 15.9792C22.1162 14.945 22.3718 14.1278 22.8914 13.5106C23.4109 12.8935 24.1036 12.5933 24.9942 12.5933ZM24.9942 12.8018C24.186 12.8018 23.5428 13.0853 23.0645 13.6607C22.5862 14.2278 22.3471 15.0034 22.3471 15.9708C22.3471 16.9382 22.5862 17.7055 23.0645 18.2809C23.5428 18.8563 24.186 19.1399 24.9942 19.1399C25.794 19.1399 26.4373 18.8563 26.9155 18.2809C27.3938 17.7055 27.633 16.9382 27.633 15.9708C27.633 15.0034 27.3938 14.2362 26.9155 13.6607C26.4373 13.0936 25.794 12.8018 24.9942 12.8018Z" fill="white"/>
<path d="M29.1586 16.3874V19.2645H28.9277V12.6846H30.9481C31.5995 12.6846 32.1108 12.8514 32.4819 13.1766C32.853 13.5102 33.0426 13.9605 33.0426 14.536C33.0426 15.0197 32.9024 15.42 32.6303 15.7369C32.3499 16.0538 31.9706 16.2623 31.4841 16.3457L33.1993 19.2645H32.9437L31.2449 16.379C31.1377 16.3874 31.0388 16.3874 30.9481 16.3874H29.1586ZM29.1586 12.8931V16.1789H30.9481C31.5253 16.1789 31.9871 16.0288 32.317 15.7369C32.6468 15.445 32.8117 15.0447 32.8117 14.536C32.8117 14.0189 32.6468 13.6186 32.317 13.3267C31.9871 13.0348 31.5253 12.8931 30.9398 12.8931H29.1586Z" fill="white"/>
<path d="M38.7412 19.2645L37.8919 16.9795H34.8655L34.0079 19.2645H33.7605L36.2674 12.6846H36.4983L39.0051 19.2645H38.7412ZM36.3746 12.9931L34.948 16.7627H37.8094L36.3911 12.9931H36.3746Z" fill="white"/>
<path d="M40.1015 19.2645H39.8706V12.6846H40.118L44.4391 18.8309H44.4555V12.6846H44.6782V19.2645H44.472L40.118 13.0682H40.1015V19.2645Z" fill="white"/>
<path d="M51.1514 16.6876C51.1514 17.5132 50.9205 18.1637 50.4587 18.6391C49.9969 19.1144 49.3619 19.3479 48.562 19.3479C48.0178 19.3479 47.5313 19.2061 47.1024 18.9143C46.6736 18.6307 46.3438 18.2221 46.1129 17.705C45.8737 17.188 45.7583 16.5875 45.7583 15.9203C45.7583 14.9196 46.0139 14.1106 46.5335 13.5018C47.0447 12.893 47.7292 12.5845 48.5703 12.5845C49.2135 12.5845 49.766 12.7679 50.236 13.1265C50.7061 13.4852 50.9947 13.9522 51.1184 14.5359H50.8957C50.772 14.0106 50.4917 13.5936 50.0711 13.2767C49.6505 12.9598 49.1475 12.8013 48.5703 12.8013C47.7951 12.8013 47.1684 13.0849 46.6984 13.6603C46.2283 14.2357 45.9974 14.9863 45.9974 15.9287C45.9974 16.8794 46.2366 17.655 46.7149 18.2471C47.1932 18.8392 47.8116 19.1394 48.5785 19.1394C49.3124 19.1394 49.8897 18.9226 50.3102 18.4889C50.7308 18.0553 50.9452 17.4548 50.9452 16.7043V16.2456H48.5538V16.0371H51.1679V16.6876H51.1514Z" fill="white"/>
<path d="M56.0005 19.0477V19.2645H52.2732V12.6846H56.0005V12.9014H52.5041V15.7869H55.8438V15.9954H52.5041V19.0561H56.0005V19.0477Z" fill="white"/>
<path d="M19.0404 14.1941L18.9579 13.7271L19.9392 11.9174L18.9909 10.3829L19.362 9.44052L18.4549 8.73165L18.3312 6.81353L16.55 6.00459L16.2202 5.229L15.6924 5.05387L14.909 3.79458L13.2515 3.86964L11.8496 2.61035L10.5715 3.05235L10.1592 2.82718L9.14486 3.32756L7.1905 2.90224L6.4071 3.7362L5.87109 3.66115L5.10419 4.85372L2.92717 5.54591L2.46538 7.5224L2.07781 7.81429L2.05307 8.25629L1.85516 8.4481L1.87165 8.71497L0.552246 10.1744L1.12949 11.7172L0.651202 12.6179L1.15422 13.5186L0.816128 15.0281L2.13553 16.3874L2.28396 17.58L3.13333 18.0053L3.72706 19.8317L5.73091 20.182L6.4071 21.066L7.37192 21.0326L8.55113 21.9083L10.0767 21.3245L11.7837 22L12.5176 21.3662L13.1773 21.4996L14.2576 20.2821L16.1872 20.0485L16.6902 18.7726L17.053 18.6141L17.3829 17.5383L19.1229 16.3624L18.9085 14.4026L19.0404 14.1941Z" fill="#727376"/>
<path d="M16.9955 15.9955L16.5667 16.8629L17.4243 14.9614L16.9955 15.9955Z" fill="#898A8D"/>
<path d="M13.9604 19.7484L13.3584 19.9903L15.0736 18.7227L13.9604 19.7484Z" fill="#A0A1A3"/>
<path d="M18.5621 10.9165L17.8364 8.61475L18.4961 9.83233L18.5621 10.9165Z" fill="#8D8E91"/>
<path d="M6.01094 19.8068L5.37598 19.4482L7.47878 20.2071L6.01094 19.8068Z" fill="#6C6E70"/>
<path d="M19.0405 14.1943L18.4138 15.12L18.8591 13.0518L19.0405 14.1943Z" fill="#F2F2F2"/>
<path d="M1.87172 9.39056L1.85522 8.44818L2.9025 7.41406L1.87172 9.39056Z" fill="#E5E5E5"/>
<path d="M14.7856 19.5983L16.1545 18.8311L17.0534 18.6143L14.7856 19.5983Z" fill="#A0A0A0"/>
<path d="M17.0531 18.6143L16.1543 18.8311L17.5067 17.1382L17.0531 18.6143Z" fill="#CCCCCC"/>
<path d="M15.1155 4.95361L16.2205 5.22882L16.7483 6.47143L15.1155 4.95361Z" fill="#D8D8D8"/>
<path d="M13.8945 4.45361L16.22 5.2292L15.115 4.95399L13.8945 4.45361Z" fill="#F2F2F2"/>
<path d="M2.21802 16.0874L3.52093 18.189L2.28399 17.5802L2.21802 16.0874Z" fill="#999999"/>
<path d="M2.21763 16.087L2.2836 17.5798L1.93726 14.9111L2.21763 16.087Z" fill="#A5A5A5"/>
<path d="M13.1776 21.4998L10.8687 21.0161L12.353 21.0828L13.1776 21.4998Z" fill="#BFBFBF"/>
<path d="M13.1777 21.4994L12.353 21.0824L14.3734 20.1567L13.1777 21.4994Z" fill="#D8D8D8"/>
<path d="M1.43501 13.6852L1.93803 14.9111L0.651611 12.6177L1.43501 13.6852Z" fill="#BFBFBF"/>
<path d="M1.25359 11.4585L1.43501 13.6852L0.651611 12.6177L1.25359 11.4585Z" fill="#D8D8D8"/>
<path d="M10.8682 21.0161L8.55103 21.9085L10.1178 21.2246L10.8682 21.0161Z" fill="#CCCCCC"/>
<path d="M11.8496 2.61035L13.8947 4.45341L13.0866 3.87798L11.8496 2.61035Z" fill="#E5E5E5"/>
<path d="M19.9395 11.9175L18.851 10.7416L18.5046 9.60742L19.9395 11.9175Z" fill="#E5E5E5"/>
<path d="M18.8509 10.7414L18.1582 8.48975L18.5045 9.60726L18.8509 10.7414Z" fill="#808183"/>
<path d="M18.5045 9.60725L18.1582 8.48974L18.3314 6.81348L18.5045 9.60725Z" fill="#D8D8D8"/>
<path d="M8.55116 21.9084L7.6853 20.8159L10.118 21.2246L8.55116 21.9084Z" fill="#999999"/>
<path d="M8.55066 21.9084L6.39014 20.2988L7.6848 20.8159L8.55066 21.9084Z" fill="#999999"/>
<path d="M6.79456 3.95314L5.4834 4.73706L7.19038 2.90234L6.79456 3.95314Z" fill="#F2F2F2"/>
<path d="M7.19019 2.90234L9.51563 3.41106L8.78171 3.49446L7.19019 2.90234Z" fill="#F2F2F2"/>
<path d="M6.79517 3.95314L7.19099 2.90234L8.78252 3.49446L6.79517 3.95314Z" fill="#E5E5E5"/>
<path d="M10.9097 3.40262L11.8497 2.61035L13.0867 3.87798L10.9097 3.40262Z" fill="#F2F2F2"/>
<path d="M9.5159 3.41068L10.9095 3.40234L8.78198 3.49408L9.5159 3.41068Z" fill="#9C9EA0"/>
<path d="M9.51587 3.41096L11.8496 2.61035L10.9095 3.40262L9.51587 3.41096Z" fill="#E5E5E5"/>
<path d="M4.86499 5.21241L5.48346 4.73705L6.79462 3.95312L4.86499 5.21241Z" fill="#B9B9BA"/>
<path d="M4.86487 5.21218L2.927 5.54576L5.48334 4.73682L4.86487 5.21218Z" fill="#E5E5E5"/>
<path d="M19.9391 11.9176L18.8176 12.7432L18.8506 10.7417L19.9391 11.9176Z" fill="#F2F2F2"/>
<path d="M18.8506 13.944L18.8176 12.7431L19.9391 11.9175L18.8506 13.944Z" fill="#E5E5E5"/>
<path d="M12.353 21.0824L13.6807 20.3485L14.3734 20.1567L12.353 21.0824Z" fill="#BFBFBF"/>
<path d="M1.39336 12.4593L1.43459 13.6852L1.25317 11.4585L1.39336 12.4593Z" fill="#A5A5A5"/>
<path d="M6.39081 20.2987L5.45898 19.7983L7.68548 20.8158L6.39081 20.2987Z" fill="#6E6F72"/>
<path d="M6.39035 20.2987L3.72681 19.8317L5.45852 19.7983L6.39035 20.2987Z" fill="#999999"/>
<path d="M3.09193 7.15554L2.927 5.54599L4.86488 5.2124L3.09193 7.15554Z" fill="#F2F2F2"/>
<path d="M3.09207 7.15545L2.28394 8.24794L2.92715 5.5459L3.09207 7.15545Z" fill="#E5E5E5"/>
<path d="M16.187 5.84619L18.331 6.81359L16.9787 7.02208L16.187 5.84619Z" fill="#E5E5E5"/>
<path d="M16.9788 7.02197L18.3312 6.81348L18.158 8.48974L16.9788 7.02197Z" fill="#F2F2F2"/>
<path d="M7.6853 20.8159L9.14489 20.966L10.118 21.2246L7.6853 20.8159Z" fill="#CCCCCC"/>
<path d="M19.1232 16.3623L18.3398 14.4692L18.8511 13.9438L19.1232 16.3623Z" fill="#D8D8D8"/>
<path d="M18.3398 14.4695L18.8181 12.7432L18.8511 13.9441L18.3398 14.4695Z" fill="#CCCCCC"/>
<path d="M2.01221 9.22351L2.28433 8.24777L3.09247 7.15527L2.01221 9.22351Z" fill="#B9BABA"/>
<path d="M2.01184 9.22379L0.552246 10.1745L2.28396 8.24805L2.01184 9.22379Z" fill="#F2F2F2"/>
<path d="M10.9097 3.40234L13.0867 3.8777L12.3528 3.99446L10.9097 3.40234Z" fill="#CCCCCC"/>
<path d="M12.353 3.99458L13.0869 3.87783L14.9094 3.79443L12.353 3.99458Z" fill="#F2F2F2"/>
<path d="M6.79517 3.95282L8.78252 3.49414L8.18054 3.9695L6.79517 3.95282Z" fill="#CCCCCC"/>
<path d="M3.0918 7.15554L4.86475 5.2124L4.28751 6.1381L3.0918 7.15554Z" fill="#E5E5E5"/>
<path d="M3.87524 17.9888L5.45852 19.7985L3.72681 19.8318L3.87524 17.9888Z" fill="#A5A5A5"/>
<path d="M3.87538 17.9888L3.72694 19.8318L2.86108 17.1465L3.87538 17.9888Z" fill="#B2B2B2"/>
<path d="M19.1231 16.3623L17.4739 16.2206L18.3397 14.4692L19.1231 16.3623Z" fill="#E5E5E5"/>
<path d="M17.0945 17.7385L17.4738 16.2207L19.1231 16.3625L17.0945 17.7385Z" fill="#F2F2F2"/>
<path d="M18.8508 10.7414L18.3972 11.1167L19.362 9.44043L18.8508 10.7414Z" fill="#CCCCCC"/>
<path d="M18.8178 12.7432L18.3972 11.117L18.8508 10.7417L18.8178 12.7432Z" fill="#D8D8D8"/>
<path d="M17.6714 8.7733L18.1579 8.48975L19.3619 9.44047L17.6714 8.7733Z" fill="#E5E5E5"/>
<path d="M17.6714 8.77344L19.3619 9.44061L18.3971 11.1169L17.6714 8.77344Z" fill="#F2F2F2"/>
<path d="M16.9788 7.02197L18.158 8.48975L17.6714 8.7733L16.9788 7.02197Z" fill="#CCCCCC"/>
<path d="M2.01184 9.22363L1.83042 11.2251L0.552246 10.1744L2.01184 9.22363Z" fill="#D8D8D8"/>
<path d="M1.83042 11.2251L1.39337 12.4594L0.552246 10.1743L1.83042 11.2251Z" fill="#B2B2B2"/>
<path d="M16.1872 5.84619L16.9789 7.02208L15.5935 6.01298L16.1872 5.84619Z" fill="#CCCCCC"/>
<path d="M14.9092 3.79443L16.1874 5.84599L15.5936 6.01278L14.9092 3.79443Z" fill="#E5E5E5"/>
<path d="M8.17993 3.96968L8.78191 3.49432L10.159 2.82715L8.17993 3.96968Z" fill="#D8D8D8"/>
<path d="M16.187 20.0484L16.253 17.7466L17.0941 17.7383L16.187 20.0484Z" fill="#D8D8D8"/>
<path d="M16.2529 17.7469L17.4734 16.2207L17.094 17.7385L16.2529 17.7469Z" fill="#E5E5E5"/>
<path d="M11.7836 22.0001L9.14478 20.966L10.761 20.6157L11.7836 22.0001Z" fill="#A5A5A5"/>
<path d="M11.7835 21.9999L10.761 20.6156L12.9215 20.0234L11.7835 21.9999Z" fill="#CCCCCC"/>
<path d="M11.7837 21.9999L12.9217 20.0234L13.6803 20.3487L11.7837 21.9999Z" fill="#E5E5E5"/>
<path d="M13.6802 20.3488L14.6615 19.0479L16.187 20.0486L13.6802 20.3488Z" fill="#CCCCCC"/>
<path d="M16.1872 20.0483L14.6616 19.0476L16.2531 17.7466L16.1872 20.0483Z" fill="#E5E5E5"/>
<path d="M12.9219 20.0236L14.6618 19.0479L13.6805 20.3488L12.9219 20.0236Z" fill="#D8D8D8"/>
<path d="M2.71281 15.7033L2.86124 17.1461L0.816162 15.0278L2.71281 15.7033Z" fill="#B2B2B2"/>
<path d="M3.87537 17.9887L2.86108 17.1464L2.71265 15.7036L3.87537 17.9887Z" fill="#999999"/>
<path d="M2.03661 13.3687L2.7128 15.7038L0.816162 15.0282L2.03661 13.3687Z" fill="#999999"/>
<path d="M2.03701 13.3684L1.3938 12.4594L1.83085 11.2251L2.03701 13.3684Z" fill="#D8D8D8"/>
<path d="M2.03661 13.3685L0.816162 15.0281L1.3934 12.4595L2.03661 13.3685Z" fill="#F2F2F2"/>
<path d="M13.8042 5.21217L14.9092 3.79443L15.5936 6.01278L13.8042 5.21217Z" fill="#F2F2F2"/>
<path d="M12.353 3.99458L14.9094 3.79443L13.8044 5.21217L12.353 3.99458Z" fill="#E5E5E5"/>
<path d="M5.92885 5.52921L4.28784 6.13801L5.87113 3.66113L5.92885 5.52921Z" fill="#D8D8D8"/>
<path d="M9.14499 20.9659L6.40723 21.0659L8.40282 20.2236L9.14499 20.9659Z" fill="#A5A5A5"/>
<path d="M9.145 20.9659L8.40283 20.2236L10.7613 20.6156L9.145 20.9659Z" fill="#999999"/>
<path d="M5.31834 18.6059L5.45853 19.7985L3.87524 17.9888L5.31834 18.6059Z" fill="#999999"/>
<path d="M5.3186 18.606L6.40711 21.0661L5.45879 19.7985L5.3186 18.606Z" fill="#BFBFBF"/>
<path d="M5.92882 5.52921L5.87109 3.66113L7.94916 4.79532L5.92882 5.52921Z" fill="#E5E5E5"/>
<path d="M5.87109 3.66113L8.18005 3.9697L7.94916 4.79532L5.87109 3.66113Z" fill="#D8D8D8"/>
<path d="M2.07818 7.81445L2.68015 10.0828L2.01221 9.22385L2.07818 7.81445Z" fill="#D8D8D8"/>
<path d="M2.67969 10.0826L1.83032 11.2251L2.01174 9.22363L2.67969 10.0826Z" fill="#BFBFBF"/>
<path d="M12.3532 3.99463L13.8046 5.21222L11.8667 4.82025L12.3532 3.99463Z" fill="#CCCCCC"/>
<path d="M10.1589 2.82715L12.3524 3.9947L11.8659 4.82032L10.1589 2.82715Z" fill="#D8D8D8"/>
<path d="M4.23853 7.40572L4.288 6.13809L5.92901 5.5293L4.23853 7.40572Z" fill="#F2F2F2"/>
<path d="M4.23865 7.40581L2.07812 7.81445L4.28813 6.13818L4.23865 7.40581Z" fill="#D8D8D8"/>
<path d="M8.17993 3.96968L10.159 2.82715L9.82919 4.70357L8.17993 3.96968Z" fill="#F2F2F2"/>
<path d="M9.8291 4.70357L10.159 2.82715L11.8659 4.82032L9.8291 4.70357Z" fill="#E5E5E5"/>
<path d="M8.1806 3.96973L9.82986 4.70361L7.94971 4.79535L8.1806 3.96973Z" fill="#E5E5E5"/>
<path d="M17.6718 8.77344L18.3975 11.1169L17.2183 10.2079L17.6718 8.77344Z" fill="#E5E5E5"/>
<path d="M17.2183 10.2075L18.3975 11.1165L18.917 12.8011L17.2183 10.2075Z" fill="#CCCCCC"/>
<path d="M17.4736 16.2207L17.3252 14.3276L18.3395 14.4694L17.4736 16.2207Z" fill="#D8D8D8"/>
<path d="M18.3395 14.4692L17.3252 14.3274L18.9167 12.8013L18.3395 14.4692Z" fill="#F2F2F2"/>
<path d="M15.5935 6.0127L16.9789 7.02179L17.1603 7.19692L15.5935 6.0127Z" fill="#E5E5E5"/>
<path d="M17.1602 7.19727L17.6714 8.77346L17.2179 10.2079L17.1602 7.19727Z" fill="#D8D8D8"/>
<path d="M6.98435 18.8728L6.40711 21.0661L5.3186 18.606L6.98435 18.8728Z" fill="#A5A5A5"/>
<path d="M6.98447 18.8726L8.40282 20.2236L6.40723 21.0659L6.98447 18.8726Z" fill="#BFBFBF"/>
<path d="M13.8042 5.2124L15.5936 6.01301L14.9504 6.86365L13.8042 5.2124Z" fill="#E5E5E5"/>
<path d="M14.95 6.86334L15.5932 6.0127L17.16 7.19692L14.95 6.86334Z" fill="#F2F2F2"/>
<path d="M10.761 20.6155L11.6104 19.4062L12.9215 20.0234L10.761 20.6155Z" fill="#D8D8D8"/>
<path d="M10.7613 20.6155L9.95312 20.8907L11.6106 19.4062L10.7613 20.6155Z" fill="#E5E5E5"/>
<path d="M3.29006 14.3027L2.71282 15.7038L2.03662 13.3687L3.29006 14.3027Z" fill="#BFBFBF"/>
<path d="M3.8923 9.29891L2.6801 10.0828L2.07812 7.81445L3.8923 9.29891Z" fill="#CCCCCC"/>
<path d="M4.23865 7.40576L3.89231 9.29886L2.07812 7.81441L4.23865 7.40576Z" fill="#E5E5E5"/>
<path d="M14.6616 19.0477L14.909 17.3047L16.2531 17.7467L14.6616 19.0477Z" fill="#D8D8D8"/>
<path d="M17.2177 10.2075L18.9165 12.8011L16.5828 11.8087L17.2177 10.2075Z" fill="#F2F2F2"/>
<path d="M16.5828 11.8091L18.9165 12.8015L17.3249 14.3277L16.5828 11.8091Z" fill="#D8D8D8"/>
<path d="M5.9292 5.5293L7.94954 4.79541L7.41353 6.27153L5.9292 5.5293Z" fill="#D8D8D8"/>
<path d="M17.2179 10.2076L16.5829 11.8089L15.7583 9.13184L17.2179 10.2076Z" fill="#CCCCCC"/>
<path d="M17.1602 7.19727L17.2179 10.2079L15.7583 9.13206L17.1602 7.19727Z" fill="#F2F2F2"/>
<path d="M14.95 6.86377L17.16 7.19736L15.7581 9.13215L14.95 6.86377Z" fill="#D8D8D8"/>
<path d="M3.37256 17.0962L5.31868 18.6057L3.87558 17.9885L3.37256 17.0962Z" fill="#A5A5A5"/>
<path d="M3.28989 14.3027L3.37235 17.0965L2.71265 15.7038L3.28989 14.3027Z" fill="#A5A5A5"/>
<path d="M9.16974 18.9893L9.95313 20.8907L8.40283 20.2235L9.16974 18.9893Z" fill="#B2B2B2"/>
<path d="M9.16964 18.9893L8.40273 20.2236L6.98438 18.8726L9.16964 18.9893Z" fill="#999999"/>
<path d="M9.16968 18.9893L11.6106 19.4062L9.95307 20.8907L9.16968 18.9893Z" fill="#D8D8D8"/>
<path d="M1.9707 11.959L3.29011 14.3024L2.03667 13.3684L1.9707 11.959Z" fill="#B2B2B2"/>
<path d="M2.67969 10.0825L1.97051 11.9589L1.83032 11.2251L2.67969 10.0825Z" fill="#F2F2F2"/>
<path d="M1.97051 11.959L2.03648 13.3684L1.83032 11.2251L1.97051 11.959Z" fill="#A5A5A5"/>
<path d="M5.12915 6.013L5.92904 5.5293L7.41337 6.27153L5.12915 6.013Z" fill="#E5E5E5"/>
<path d="M16.2533 17.747L14.9092 17.305L16.9543 16.3042L16.2533 17.747Z" fill="#CCCCCC"/>
<path d="M17.4739 16.2207L16.9543 16.3041L17.3254 14.3276L17.4739 16.2207Z" fill="#CCCCCC"/>
<path d="M16.2529 17.7469L16.9539 16.3041L17.4734 16.2207L16.2529 17.7469Z" fill="#D8D8D8"/>
<path d="M9.8291 4.70361L11.8659 4.82037L11.231 5.98792L9.8291 4.70361Z" fill="#D8D8D8"/>
<path d="M6.0361 17.1963L5.31868 18.6057L3.37256 17.0962L6.0361 17.1963Z" fill="#BFBFBF"/>
<path d="M6.98435 18.8726L5.3186 18.6057L6.03603 17.1963L6.98435 18.8726Z" fill="#999999"/>
<path d="M5.66455 8.21471L3.8916 9.29886L4.23795 7.40576L5.66455 8.21471Z" fill="#D8D8D8"/>
<path d="M5.12915 6.0127L7.41337 6.27122L5.66516 8.21436L5.12915 6.0127Z" fill="#D8D8D8"/>
<path d="M5.12912 6.0127L5.66513 8.21436L4.23853 7.40541L5.12912 6.0127Z" fill="#E5E5E5"/>
<path d="M12.9218 20.0233L11.6106 19.4062L13.7299 19.2061L12.9218 20.0233Z" fill="#BFBFBF"/>
<path d="M14.6613 19.0477L13.7295 19.2061L14.9087 17.3047L14.6613 19.0477Z" fill="#BFBFBF"/>
<path d="M12.9219 20.0236L13.73 19.2063L14.6618 19.0479L12.9219 20.0236Z" fill="#E5E5E5"/>
<path d="M4.18027 11.0585L2.67944 10.0828L3.89165 9.29883L4.18027 11.0585Z" fill="#BFBFBF"/>
<path d="M4.1807 11.0583L1.9707 11.9589L2.67988 10.0825L4.1807 11.0583Z" fill="#E5E5E5"/>
<path d="M11.231 5.98786L11.8659 4.82031L13.5647 5.65428L11.231 5.98786Z" fill="#F2F2F2"/>
<path d="M11.8667 4.82031L13.8046 5.21228L13.5654 5.65428L11.8667 4.82031Z" fill="#D8D8D8"/>
<path d="M13.5647 5.6544L13.8038 5.2124L14.9501 6.86365L13.5647 5.6544Z" fill="#CCCCCC"/>
<path d="M16.5831 11.8091L17.3253 14.3277L15.5276 13.4854L16.5831 11.8091Z" fill="#E5E5E5"/>
<path d="M15.5276 13.4854L17.3253 14.3277L16.9542 16.3042L15.5276 13.4854Z" fill="#F2F2F2"/>
<path d="M5.14569 15.2118L3.37275 17.0965L3.29028 14.3027L5.14569 15.2118Z" fill="#BFBFBF"/>
<path d="M5.14551 15.2114L6.0361 17.1963L3.37256 17.0962L5.14551 15.2114Z" fill="#A5A5A5"/>
<path d="M14.9505 6.86377L15.7586 9.13215L13.8867 8.3649L14.9505 6.86377Z" fill="#E5E5E5"/>
<path d="M13.5647 5.6543L14.9501 6.86354L13.8863 8.36468L13.5647 5.6543Z" fill="#F2F2F2"/>
<path d="M10.9097 17.8218L13.7299 19.2062L11.6106 19.4063L10.9097 17.8218Z" fill="#A5A5A5"/>
<path d="M10.9096 17.8218L11.6106 19.4063L9.16968 18.9893L10.9096 17.8218Z" fill="#BFBFBF"/>
<path d="M5.14569 15.2118L3.29028 14.3028L4.56845 13.1353L5.14569 15.2118Z" fill="#999999"/>
<path d="M4.1807 11.0586L4.56828 13.1352L1.9707 11.9593L4.1807 11.0586Z" fill="#B2B2B2"/>
<path d="M4.56828 13.1349L3.29011 14.3024L1.9707 11.959L4.56828 13.1349Z" fill="#A5A5A5"/>
<path d="M9.2522 5.22067L9.82944 4.70361L11.2313 5.98792L9.2522 5.22067Z" fill="#CCCCCC"/>
<path d="M7.94971 4.79535L9.82986 4.70361L9.25262 5.22067L7.94971 4.79535Z" fill="#D8D8D8"/>
<path d="M7.41357 6.27153L7.94958 4.79541L9.25249 5.22073L7.41357 6.27153Z" fill="#F2F2F2"/>
<path d="M15.5274 13.4854L16.954 16.3042L14.208 15.0866L15.5274 13.4854Z" fill="#E5E5E5"/>
<path d="M14.208 15.0864L16.954 16.304L14.9089 17.3048L14.208 15.0864Z" fill="#CCCCCC"/>
<path d="M12.6086 16.6128L14.9094 17.305L13.7301 19.2064L12.6086 16.6128Z" fill="#CCCCCC"/>
<path d="M12.6084 16.6128L13.7299 19.2064L10.9097 17.822L12.6084 16.6128Z" fill="#B2B2B2"/>
<path d="M14.2084 15.0864L14.9094 17.3048L12.6086 16.6126L14.2084 15.0864Z" fill="#BFBFBF"/>
<path d="M7.41357 6.2715L9.25249 5.2207L7.72693 7.98112L7.41357 6.2715Z" fill="#E5E5E5"/>
<path d="M7.41349 6.27148L7.72685 7.98111L5.66528 8.21462L7.41349 6.27148Z" fill="#CCCCCC"/>
<path d="M11.231 5.98788L13.5647 5.6543L11.8577 7.85597L11.231 5.98788Z" fill="#D8D8D8"/>
<path d="M13.5649 5.6543L13.8865 8.36468L11.8579 7.85596L13.5649 5.6543Z" fill="#E5E5E5"/>
<path d="M9.25188 5.2207L9.72192 7.67256L7.72632 7.98112L9.25188 5.2207Z" fill="#BFBFBF"/>
<path d="M9.2522 5.2207L11.2313 5.98795L9.72223 7.67256L9.2522 5.2207Z" fill="#E5E5E5"/>
<path d="M11.2315 5.98779L11.8582 7.85587L9.72241 7.6724L11.2315 5.98779Z" fill="#CCCCCC"/>
<path d="M7.33053 15.7869L6.03586 17.1963L5.14526 15.2114L7.33053 15.7869Z" fill="#999999"/>
<path d="M12.6085 16.6127L10.9097 17.8219L9.88721 16.1123L12.6085 16.6127Z" fill="#A5A5A5"/>
<path d="M6.09404 11.8425L4.56848 13.1352L4.18091 11.0586L6.09404 11.8425Z" fill="#999999"/>
<path d="M7.95744 18.1221L9.16964 18.9894L6.98438 18.8726L7.95744 18.1221Z" fill="#BFBFBF"/>
<path d="M7.33105 15.7871L9.8874 16.1124L7.95777 18.1222L7.33105 15.7871Z" fill="#BFBFBF"/>
<path d="M9.88666 16.1123L10.9092 17.8219L7.95703 18.1222L9.88666 16.1123Z" fill="#999999"/>
<path d="M7.95703 18.122L10.9092 17.8218L9.16923 18.9893L7.95703 18.122Z" fill="#B2B2B2"/>
<path d="M7.3308 15.7871L7.95752 18.1222L6.03613 17.1965L7.3308 15.7871Z" fill="#A5A5A5"/>
<path d="M7.95752 18.122L6.98446 18.8726L6.03613 17.1963L7.95752 18.122Z" fill="#B2B2B2"/>
<path d="M15.5277 13.4853L14.2083 15.0865L13.2188 12.5513L15.5277 13.4853Z" fill="#CCCCCC"/>
<path d="M9.72192 7.67236L7.79229 9.85735L7.72632 7.98093L9.72192 7.67236Z" fill="#B2B2B2"/>
<path d="M13.8865 8.36467L12.3692 10.0743L11.8579 7.85596L13.8865 8.36467Z" fill="#D8D8D8"/>
<path d="M15.7582 9.13184L16.5828 11.8089L15.2222 10.5663L15.7582 9.13184Z" fill="#E5E5E5"/>
<path d="M13.8865 8.36475L15.2224 10.5664L12.3691 10.0744L13.8865 8.36475Z" fill="#E5E5E5"/>
<path d="M13.8867 8.36475L15.7586 9.13199L15.2226 10.5664L13.8867 8.36475Z" fill="#D8D8D8"/>
<path d="M15.2226 10.5664L15.5277 13.4853L13.2188 12.5512L15.2226 10.5664Z" fill="#F2F2F2"/>
<path d="M15.2222 10.5664L16.5828 11.809L15.5273 13.4853L15.2222 10.5664Z" fill="#D8D8D8"/>
<path d="M12.3691 10.0742L15.2224 10.5663L13.2185 12.5511L12.3691 10.0742Z" fill="#D8D8D8"/>
<path d="M5.22778 9.73242L7.79238 9.85752L6.09364 11.8424L5.22778 9.73242Z" fill="#BFBFBF"/>
<path d="M7.72641 7.98096L7.79238 9.85738L5.22778 9.73228L7.72641 7.98096Z" fill="#D8D8D8"/>
<path d="M5.22818 9.73242L6.09404 11.8424L4.18091 11.0584L5.22818 9.73242Z" fill="#A5A5A5"/>
<path d="M5.2275 9.73249L4.18022 11.0585L3.8916 9.29883L5.2275 9.73249Z" fill="#B2B2B2"/>
<path d="M5.66455 8.21436L5.2275 9.73217L3.8916 9.29851L5.66455 8.21436Z" fill="#F2F2F2"/>
<path d="M5.66484 8.21447L7.72641 7.98096L5.22778 9.73228L5.66484 8.21447Z" fill="#E5E5E5"/>
<path d="M9.04628 14.0439L9.8874 16.1122L7.33105 15.7869L9.04628 14.0439Z" fill="#A5A5A5"/>
<path d="M7.79224 9.85742L8.30351 11.9507L6.09351 11.8423L7.79224 9.85742Z" fill="#999999"/>
<path d="M10.7364 12.0007L9.04588 14.0439L8.30371 11.9507L10.7364 12.0007Z" fill="#999999"/>
<path d="M12.3693 10.0742L13.2187 12.5511L10.7366 12.0007L12.3693 10.0742Z" fill="#CCCCCC"/>
<path d="M6.24194 14.1107L9.04567 14.0439L7.33045 15.7869L6.24194 14.1107Z" fill="#BFBFBF"/>
<path d="M6.24202 14.1108L7.33053 15.7871L5.14526 15.2117L6.24202 14.1108Z" fill="#A5A5A5"/>
<path d="M6.09392 11.8423L6.24235 14.1107L4.56836 13.1349L6.09392 11.8423Z" fill="#A5A5A5"/>
<path d="M6.24235 14.111L5.1456 15.2118L4.56836 13.1353L6.24235 14.111Z" fill="#BFBFBF"/>
<path d="M8.30351 11.9507L9.04567 14.0439L6.24194 14.1107L8.30351 11.9507Z" fill="#A5A5A5"/>
<path d="M6.09351 11.8423L8.30351 11.9507L6.24194 14.1107L6.09351 11.8423Z" fill="#B2B2B2"/>
<path d="M9.93652 9.33203L12.3692 10.0743L10.7364 12.0007L9.93652 9.33203Z" fill="#D8D8D8"/>
<path d="M11.8579 7.85596L12.3692 10.0743L9.93652 9.33207L11.8579 7.85596Z" fill="#F2F2F2"/>
<path d="M9.72241 7.67236L11.8582 7.85584L9.93682 9.33195L9.72241 7.67236Z" fill="#BFBFBF"/>
<path d="M9.93647 9.33203L10.7364 12.0007L8.30371 11.9507L9.93647 9.33203Z" fill="#A5A5A5"/>
<path d="M9.72187 7.67236L9.93627 9.33195L7.79224 9.85735L9.72187 7.67236Z" fill="#F2F2F2"/>
<path d="M7.79224 9.85743L9.93627 9.33203L8.30351 11.9507L7.79224 9.85743Z" fill="#B2B2B2"/>
<path d="M13.2185 12.5513L14.2081 15.0865L11.7837 14.6612L13.2185 12.5513Z" fill="#F2F2F2"/>
<path d="M11.7837 14.6611L14.2081 15.0865L12.6083 16.6126L11.7837 14.6611Z" fill="#D8D8D8"/>
<path d="M10.7366 12.001L11.7839 14.6613L9.04614 14.0442L10.7366 12.001Z" fill="#B2B2B2"/>
<path d="M10.7366 12.001L13.2187 12.5514L11.7838 14.6613L10.7366 12.001Z" fill="#D8D8D8"/>
<path d="M11.7838 14.6611L12.6085 16.6126L9.88721 16.1122L11.7838 14.6611Z" fill="#BFBFBF"/>
<path d="M9.04614 14.0439L11.7839 14.6611L9.88726 16.1122L9.04614 14.0439Z" fill="#999999"/>
<path d="M2.07812 2.44336L3.99126 3.26899L4.70044 5.00363L2.07812 2.44336Z" fill="#727272"/>
<path d="M4.28787 2.5435L4.70018 5.00369L3.991 3.26905L3.3313 1.80127L4.28787 2.5435Z" fill="#A5A5A5"/>
<path d="M0.676025 1.80127L2.07789 2.44342L3.99103 3.26905L3.33133 1.80127H0.676025Z" fill="#8C8C8C"/>
<path d="M2.18509 0.750488L3.33133 1.80128H0.676025L2.18509 0.750488Z" fill="#B2B2B2"/>
<path d="M0 0.750488H2.18526L0.676194 1.80128L0 0.750488Z" fill="#BFBFBF"/>
<path d="M2.18526 0.750568L3.66135 0.858982L2.32545 0L0 0.750568H2.18526Z" fill="#8C8C8C"/>
<path d="M4.36251 0.858982H3.66158L2.32568 0L4.36251 0.858982Z" fill="#A5A5A5"/>
<path d="M4.2881 2.54351L3.66139 0.858903L2.1853 0.750488L3.33154 1.80128L4.2881 2.54351Z" fill="#727272"/>
<path d="M5.10471 4.87856L4.28833 2.54346L4.70064 5.00365L5.10471 4.87856Z" fill="#727272"/>
<path d="M4.36231 0.858887L5.10447 4.87859L4.28809 2.5435L3.66138 0.858887H4.36231Z" fill="#8C8C8C"/>
</svg>
