<svg width="160" height="160" viewBox="0 0 160 160" fill="none" xmlns="http://www.w3.org/2000/svg">
<rect width="160" height="160" fill="#072146"/>
<g clip-path="url(#clip0)">
<path d="M115.328 87.0701C114.933 86.0514 115.768 73.4004 107.673 62.4786C107.673 62.4786 102.448 53.878 94.1719 48.861C95.5995 49.1378 96.6887 49.7094 99.4292 49.7472C101.207 49.7725 100.62 44.9408 98.3933 43.9489L96.4992 43.1052C92.7794 37.9581 83.3039 25.5871 79.0291 30.0648C77.1946 29.013 72.9756 27.9919 66.3696 27C64.559 29.6445 63.6975 31.7308 63.7819 33.2565C71.0122 45.2364 74.4199 59.3894 74.4072 72.4172C74.4072 72.485 74.4932 72.5071 74.529 72.4495C75.8419 70.3656 77.3889 68.5719 78.6756 67.1629C77.3977 69.604 76.4908 71.5191 76.3403 71.8164C74.7416 74.9821 73.775 80.9468 73.529 81.7724C73.2989 82.5458 72.564 83.2342 72.091 83.8744C70.9565 85.4103 69.8704 86.9518 68.5766 88.3639C67.3632 89.6886 66.6944 91.4902 65.5957 92.9504C64.4428 94.4824 63.317 96.0215 62.2461 97.6118C61.6227 98.5383 61.2548 98.8245 60.297 99.3473C59.6672 99.6918 58.9554 100.145 58.449 100.663C57.5159 101.62 57.6297 102.748 57.8001 103.994C58.113 103.802 58.4259 103.609 58.7388 103.417C58.7388 104.593 58.8463 105.255 59.3336 106.333C60.2779 104.922 61.5335 103.7 63.1689 103.12C65.0208 102.463 66.8975 102.414 68.7327 101.612C69.1579 101.426 69.5727 101.262 69.9803 101.101C70.181 101.053 70.38 101.005 70.5902 100.961C70.9652 100.852 71.3386 100.74 71.7105 100.621C72.4087 100.419 73.0958 100.181 73.7869 99.9638L74.8148 99.6106L75.3284 99.434L75.8371 99.2455C77.1978 98.7567 78.5331 98.2103 79.8484 97.6268C81.1629 97.0434 82.4559 96.4142 83.7099 95.7195C86.2227 94.3397 88.6129 92.7454 90.7968 90.8941C92.9689 89.0341 94.9761 86.9494 96.5318 84.4831C96.039 85.8598 95.2778 87.1339 94.4402 88.345C93.5811 89.5435 92.613 90.6702 91.554 91.7055C89.4354 93.7783 86.9974 95.524 84.397 96.9487C84.069 97.1214 83.7441 97.3004 83.4129 97.4676L82.4153 97.9596C81.7401 98.2655 81.0681 98.5777 80.3786 98.8482C79.0052 99.4017 77.6079 99.8937 76.1843 100.291L75.6715 100.439C75.8929 100.439 76.1166 100.442 76.3459 100.447C77.5904 100.479 79.5315 100.974 80.8826 101.576C78.5792 101.288 76.3969 101.425 74.4533 101.602C63.8647 102.57 62.5701 106.879 58.9912 109.878C51.8756 115.842 53.6551 104.826 45.3906 111.907C45.9949 119.278 48.1152 125.771 51.749 131.386C55.2427 132.696 64.4898 131.81 69.493 129.656L65.235 126.235C91.9481 133.535 128.173 120.101 115.328 87.0701Z" fill="#FBFBFB"/>
<path d="M53.8569 109.615C55.3824 108.821 56.8761 107.811 58.3092 106.642C58.0775 106.113 57.9247 105.659 57.8291 105.221L56.9876 105.739L56.7455 104.136C56.5807 102.936 56.3562 101.291 57.6834 99.9299C58.1834 99.4182 58.8897 98.9112 59.7838 98.4231C60.6142 97.969 60.8419 97.7987 61.3603 97.0268C61.4184 96.9408 61.4781 96.8533 61.5362 96.7673C60.2313 97.2333 58.9406 97.6354 57.6651 97.9713C48.2772 100.444 52.1467 96.0806 47.1426 95.7147C45.7771 95.6146 44.3965 96.2556 43 97.6354C43.2062 101.131 44.4769 104.793 46.8146 108.62C50.5264 107.2 52.4373 107.248 53.8569 109.615Z" fill="#FBFBFB"/>
</g>
<defs>
<clipPath id="clip0">
<rect x="43" y="27" width="75" height="105" fill="white"/>
</clipPath>
</defs>
</svg>
