<svg width="28" height="30" viewBox="0 0 28 30" fill="none" xmlns="http://www.w3.org/2000/svg">
<path d="M25.2758 2.20489V1.05518C25.2758 0.473507 24.7992 0 24.2138 0H23.3351C22.7497 0 22.2731 0.473507 22.2731 1.05518V2.18206H15.4304V1.05518C15.4304 0.473507 14.9538 0 14.3683 0H13.4901C12.9047 0 12.428 0.473507 12.428 1.05518V2.18206H5.5854V1.05518C5.5854 0.473507 5.1088 0 4.52332 0H3.64471C3.05923 0 2.58262 0.473507 2.58262 1.05518V2.22532C1.00098 2.22532 1.50098 2.22532 0 2.22532V26.9334C0 28.6243 0.000976562 29.5 0.000592172 30H28C28 28.5 28 28.6239 28 26.9334V2.20489C28 2.20489 27.001 2.20489 25.2758 2.20489ZM23.0799 1.05518C23.0799 0.914966 23.1944 0.801196 23.3356 0.801196H24.2142C24.3553 0.801196 24.4698 0.914966 24.4698 1.05518V4.10974C24.4698 4.24995 24.3553 4.36372 24.2142 4.36372H23.3356C23.1944 4.36372 23.0799 4.24995 23.0799 4.10974V1.05518ZM13.2349 1.05518C13.2349 0.914966 13.3494 0.801196 13.4905 0.801196H14.3687C14.5099 0.801196 14.6244 0.914966 14.6244 1.05518V4.10974C14.6244 4.24995 14.5099 4.36372 14.3687 4.36372H13.4905C13.3494 4.36372 13.2349 4.24995 13.2349 4.10974V1.05518ZM3.38947 1.05518C3.38947 0.914966 3.50398 0.801196 3.64511 0.801196H4.52372C4.66485 0.801196 4.77937 0.914966 4.77937 1.05518V4.10974C4.77937 4.24995 4.66485 4.36372 4.52372 4.36372H3.64511C3.50398 4.36372 3.38947 4.24995 3.38947 4.10974V1.05518ZM2.58303 3.04054V4.10974C2.58303 4.69141 3.05963 5.16491 3.64511 5.16491H4.52372C5.1092 5.16491 5.58581 4.69141 5.58581 4.10974V2.98285H12.4289V4.10974C12.4289 4.69141 12.9055 5.16491 13.4909 5.16491H14.3691C14.9546 5.16491 15.4312 4.69141 15.4312 4.10974V2.98285H22.2743V4.10974C22.2743 4.69141 22.7509 5.16491 23.3364 5.16491H24.215C24.8004 5.16491 25.2771 4.69141 25.2771 4.10974V3.0145C26.501 3 26.501 3.0145 27.1952 3.0145V9.14726H0.80644L0.829102 3.04054C1.50098 3.04054 1.50098 3 2.58303 3.04054ZM27.194 29.1988H0.806843C0.806843 28.5 0.806843 28.1825 0.806843 26.9334V9.94846H27.194V26.933C27.194 28.1825 27.194 28.5 27.194 29.1988Z" fill="#8CAAB9"/>
<path d="M5.98627 11.751C4.73911 11.751 3.72461 12.7593 3.72461 13.9979C3.72461 15.2366 4.73951 16.2449 5.98627 16.2449C7.23383 16.2449 8.24833 15.2366 8.24833 13.9979C8.24833 12.7593 7.23383 11.751 5.98627 11.751ZM5.98627 15.4441C5.18386 15.4441 4.53105 14.7955 4.53105 13.9983C4.53105 13.2011 5.18386 12.5526 5.98627 12.5526C6.78908 12.5526 7.44189 13.2011 7.44189 13.9983C7.44189 14.7955 6.78908 15.4441 5.98627 15.4441Z" fill="#8CAAB9"/>
<path d="M11.2812 11.751C10.034 11.751 9.01953 12.7593 9.01953 13.9979C9.01953 15.2366 10.0344 16.2449 11.2812 16.2449C12.5279 16.2449 13.5429 15.2366 13.5429 13.9979C13.5429 12.7593 12.5284 11.751 11.2812 11.751ZM11.2812 15.4441C10.4788 15.4441 9.82597 14.7955 9.82597 13.9983C9.82597 13.2011 10.4788 12.5526 11.2812 12.5526C12.0836 12.5526 12.7364 13.2011 12.7364 13.9983C12.7364 14.7955 12.0836 15.4441 11.2812 15.4441Z" fill="#8CAAB9"/>
<path d="M16.5771 11.751C15.3299 11.751 14.3154 12.7593 14.3154 13.9979C14.3154 15.2366 15.3303 16.2449 16.5771 16.2449C17.8238 16.2449 18.8388 15.237 18.8388 13.9983C18.8388 12.7597 17.8238 11.751 16.5771 11.751ZM16.5771 15.4441C15.7747 15.4441 15.1219 14.7955 15.1219 13.9983C15.1219 13.2011 15.7747 12.5526 16.5771 12.5526C17.3795 12.5526 18.0323 13.2007 18.0323 13.9983C18.0323 14.7959 17.3795 15.4441 16.5771 15.4441Z" fill="#8CAAB9"/>
<path d="M5.98627 17.2153C4.73911 17.2153 3.72461 18.2236 3.72461 19.4627C3.72461 20.7017 4.73951 21.7096 5.98627 21.7096C7.23383 21.7096 8.24833 20.7013 8.24833 19.4627C8.24833 18.2232 7.23383 17.2153 5.98627 17.2153ZM5.98627 20.9088C5.18386 20.9088 4.53105 20.2603 4.53105 19.4631C4.53105 18.6655 5.18386 18.0169 5.98627 18.0169C6.78908 18.0169 7.44189 18.6655 7.44189 19.4631C7.44189 20.2599 6.78908 20.9088 5.98627 20.9088Z" fill="#8CAAB9"/>
<path d="M11.2812 17.2153C10.034 17.2153 9.01953 18.2236 9.01953 19.4627C9.01953 20.7017 10.0344 21.7096 11.2812 21.7096C12.5279 21.7096 13.5429 20.7013 13.5429 19.4627C13.5429 18.2232 12.5284 17.2153 11.2812 17.2153ZM11.2812 20.9088C10.4788 20.9088 9.82597 20.2603 9.82597 19.4631C9.82597 18.6655 10.4788 18.0169 11.2812 18.0169C12.0836 18.0169 12.7364 18.6655 12.7364 19.4631C12.7364 20.2599 12.0836 20.9088 11.2812 20.9088Z" fill="#8CAAB9"/>
<path d="M16.5771 17.2153C15.3299 17.2153 14.3154 18.2236 14.3154 19.4627C14.3154 20.7017 15.3303 21.7096 16.5771 21.7096C17.8238 21.7096 18.8388 20.7017 18.8388 19.4627C18.8388 18.2232 17.8238 17.2153 16.5771 17.2153ZM16.5771 20.9088C15.7747 20.9088 15.1219 20.2603 15.1219 19.4631C15.1219 18.6655 15.7747 18.0169 16.5771 18.0169C17.3795 18.0169 18.0323 18.6651 18.0323 19.4627C18.0323 20.2599 17.3795 20.9088 16.5771 20.9088Z" fill="#8CAAB9"/>
<path d="M16.5771 22.6797C15.3299 22.6797 14.3154 23.688 14.3154 24.927C14.3154 26.1661 15.3303 27.174 16.5771 27.174C17.8238 27.174 18.8388 26.1665 18.8388 24.927C18.8388 23.688 17.8238 22.6797 16.5771 22.6797ZM16.5771 26.3732C15.7747 26.3732 15.1219 25.7246 15.1219 24.927C15.1219 24.1299 15.7747 23.4813 16.5771 23.4813C17.3795 23.4813 18.0323 24.1299 18.0323 24.9274C18.0323 25.7246 17.3795 26.3732 16.5771 26.3732Z" fill="#8CAAB9"/>
<path d="M21.8724 11.751C20.6249 11.751 19.6104 12.7593 19.6104 13.9979C19.6104 15.2366 20.6253 16.2449 21.8724 16.2449C23.1196 16.2449 24.1341 15.2366 24.1341 13.9979C24.1341 12.7593 23.1196 11.751 21.8724 11.751ZM21.8724 15.4441C21.0696 15.4441 20.4168 14.7955 20.4168 13.9983C20.4168 13.2011 21.0696 12.5526 21.8724 12.5526C22.6748 12.5526 23.3276 13.2011 23.3276 13.9983C23.3276 14.7955 22.6752 15.4441 21.8724 15.4441Z" fill="#8CAAB9"/>
<path d="M21.8724 17.2153C20.6249 17.2153 19.6104 18.2236 19.6104 19.4627C19.6104 20.7017 20.6253 21.7096 21.8724 21.7096C23.1196 21.7096 24.1341 20.7013 24.1341 19.4627C24.1345 18.2232 23.1196 17.2153 21.8724 17.2153ZM21.8724 20.9088C21.0696 20.9088 20.4168 20.2603 20.4168 19.4631C20.4168 18.6655 21.0696 18.0169 21.8724 18.0169C22.6748 18.0169 23.3276 18.6655 23.3276 19.4631C23.328 20.2599 22.6752 20.9088 21.8724 20.9088Z" fill="#8CAAB9"/>
<path d="M21.8724 22.6797C20.6249 22.6797 19.6104 23.688 19.6104 24.927C19.6104 26.1661 20.6253 27.174 21.8724 27.174C23.1196 27.174 24.1341 26.1657 24.1341 24.9266C24.1345 23.688 23.1196 22.6797 21.8724 22.6797ZM21.8724 26.3732C21.0696 26.3732 20.4168 25.7246 20.4168 24.927C20.4168 24.1299 21.0696 23.4813 21.8724 23.4813C22.6748 23.4813 23.3276 24.1299 23.3276 24.9274C23.328 25.7246 22.6752 26.3732 21.8724 26.3732Z" fill="#8CAAB9"/>
<path d="M5.98627 22.6797C4.73911 22.6797 3.72461 23.688 3.72461 24.927C3.72461 26.1661 4.73951 27.174 5.98627 27.174C7.23383 27.174 8.24833 26.1657 8.24833 24.9266C8.24833 23.688 7.23383 22.6797 5.98627 22.6797ZM5.98627 26.3732C5.18386 26.3732 4.53105 25.7246 4.53105 24.927C4.53105 24.1299 5.18386 23.4813 5.98627 23.4813C6.78908 23.4813 7.44189 24.1299 7.44189 24.9274C7.44189 25.7246 6.78908 26.3732 5.98627 26.3732Z" fill="#8CAAB9"/>
<path d="M11.2812 22.6797C10.034 22.6797 9.01953 23.688 9.01953 24.927C9.01953 26.1661 10.0344 27.174 11.2812 27.174C12.5279 27.174 13.5429 26.1657 13.5429 24.9266C13.5429 23.688 12.5284 22.6797 11.2812 22.6797ZM11.2812 26.3732C10.4788 26.3732 9.82597 25.7246 9.82597 24.927C9.82597 24.1299 10.4788 23.4813 11.2812 23.4813C12.0836 23.4813 12.7364 24.1299 12.7364 24.9274C12.7364 25.7246 12.0836 26.3732 11.2812 26.3732Z" fill="#8CAAB9"/>
</svg>
