<svg width="28" height="28" viewBox="0 0 28 28" fill="none" xmlns="http://www.w3.org/2000/svg">
<path d="M28 27.3002H26.2939V6.13779e-05C26.2939 6.13779e-05 26.1372 0 25.9439 0C18.6286 0 15.4156 4.89511 15.2823 5.10354C15.2464 5.15991 15.2272 5.22518 15.2272 5.29197V11.2712H11.5309V0.00939625C11.5309 0.00939625 11.3742 0.00939625 11.1809 0.00939625C11.1809 0.00939625 1.86024 0.0190648 1.86024 0.00939625C1.86024 -0.000272296 1.86024 0.166058 1.86024 0.359279V27.3002H3.25069e-05C0 27.5 0.000178896 27.4569 0.000178896 27.6501C0.000178896 27.8433 0 28 0 28H28C28 28 28.0002 27.8433 28.0002 27.6501C28.0002 27.4569 28 27.5 28 27.3002ZM25.5939 0.703865V27.3002H23.3482V23.7847C23.3482 23.5914 23.1914 23.4348 22.9981 23.4348H18.523C18.3297 23.4348 18.173 23.5914 18.173 23.7847V27.3002H15.9272V5.40063C16.3654 4.7856 19.411 0.848226 25.5939 0.703865ZM22.6482 27.3002H18.873V24.1345H22.6482V27.3002ZM15.2272 27.3002H9.17999V11.971H15.2272V27.3002ZM2.56024 0.709161H10.8309V11.2712H8.82999C8.6367 11.2712 8.5 11.2712 8.47999 11.2712V27.3002H7.04564V23.7847C7.04564 23.5914 6.88892 23.4348 6.69564 23.4348H4.32152C4.12823 23.4348 3.97152 23.5914 3.97152 23.7847V27.3002H2.56024V0.709161ZM6.34564 27.3002H4.67152V24.1345H6.34564V27.3002Z" fill="#8CAAB9"/>
<path d="M11.1801 15.2651C11.3734 15.2651 11.5301 15.1085 11.5301 14.9153V14.0047C11.5301 13.8114 11.3734 13.6548 11.1801 13.6548C10.9868 13.6548 10.8301 13.8114 10.8301 14.0047V14.9153C10.8301 15.1085 10.9868 15.2651 11.1801 15.2651Z" fill="#8CAAB9"/>
<path d="M13.223 15.2651C13.4163 15.2651 13.573 15.1085 13.573 14.9153V14.0047C13.573 13.8114 13.4163 13.6548 13.223 13.6548C13.0298 13.6548 12.873 13.8114 12.873 14.0047V14.9153C12.873 15.1085 13.0298 15.2651 13.223 15.2651Z" fill="#8CAAB9"/>
<path d="M11.1801 17.854C11.3734 17.854 11.5301 17.6973 11.5301 17.5041V16.5935C11.5301 16.4003 11.3734 16.2437 11.1801 16.2437C10.9868 16.2437 10.8301 16.4003 10.8301 16.5935V17.5041C10.8301 17.6973 10.9868 17.854 11.1801 17.854Z" fill="#8CAAB9"/>
<path d="M13.223 17.854C13.4163 17.854 13.573 17.6973 13.573 17.5041V16.5935C13.573 16.4003 13.4163 16.2437 13.223 16.2437C13.0298 16.2437 12.873 16.4003 12.873 16.5935V17.5041C12.873 17.6973 13.0298 17.854 13.223 17.854Z" fill="#8CAAB9"/>
<path d="M11.1801 20.443C11.3734 20.443 11.5301 20.2864 11.5301 20.0932V19.1824C11.5301 18.9892 11.3734 18.8325 11.1801 18.8325C10.9868 18.8325 10.8301 18.9892 10.8301 19.1824V20.0932C10.8301 20.2864 10.9868 20.443 11.1801 20.443Z" fill="#8CAAB9"/>
<path d="M13.223 20.443C13.4163 20.443 13.573 20.2864 13.573 20.0932V19.1824C13.573 18.9892 13.4163 18.8325 13.223 18.8325C13.0298 18.8325 12.873 18.9892 12.873 19.1824V20.0932C12.873 20.2864 13.0298 20.443 13.223 20.443Z" fill="#8CAAB9"/>
<path d="M11.1801 23.0314C11.3734 23.0314 11.5301 22.8748 11.5301 22.6815V21.7708C11.5301 21.5776 11.3734 21.4209 11.1801 21.4209C10.9868 21.4209 10.8301 21.5776 10.8301 21.7708V22.6815C10.8301 22.8748 10.9868 23.0314 11.1801 23.0314Z" fill="#8CAAB9"/>
<path d="M13.223 23.0314C13.4163 23.0314 13.573 22.8748 13.573 22.6815V21.7708C13.573 21.5776 13.4163 21.4209 13.223 21.4209C13.0298 21.4209 12.873 21.5776 12.873 21.7708V22.6815C12.873 22.8748 13.0298 23.0314 13.223 23.0314Z" fill="#8CAAB9"/>
<path d="M11.1801 25.6201C11.3734 25.6201 11.5301 25.4635 11.5301 25.2702V24.3596C11.5301 24.1664 11.3734 24.0098 11.1801 24.0098C10.9868 24.0098 10.8301 24.1664 10.8301 24.3596V25.2702C10.8301 25.4635 10.9868 25.6201 11.1801 25.6201Z" fill="#8CAAB9"/>
<path d="M13.223 25.6201C13.4163 25.6201 13.573 25.4635 13.573 25.2702V24.3596C13.573 24.1664 13.4163 24.0098 13.223 24.0098C13.0298 24.0098 12.873 24.1664 12.873 24.3596V25.2702C12.873 25.4635 13.0298 25.6201 13.223 25.6201Z" fill="#8CAAB9"/>
<path d="M4.3207 5.59971C4.51399 5.59971 4.6707 5.44305 4.6707 5.24983V4.44363C4.6707 4.25041 4.51399 4.09375 4.3207 4.09375C4.12742 4.09375 3.9707 4.25041 3.9707 4.44363V5.24983C3.9707 5.44305 4.12742 5.59971 4.3207 5.59971Z" fill="#8CAAB9"/>
<path d="M6.52578 5.59971C6.71907 5.59971 6.87578 5.44305 6.87578 5.24983V4.44363C6.87578 4.25041 6.71907 4.09375 6.52578 4.09375C6.3325 4.09375 6.17578 4.25041 6.17578 4.44363V5.24983C6.17578 5.44305 6.3325 5.59971 6.52578 5.59971Z" fill="#8CAAB9"/>
<path d="M4.3207 7.89105C4.51399 7.89105 4.6707 7.73439 4.6707 7.54116V6.73514C4.6707 6.54192 4.51399 6.38525 4.3207 6.38525C4.12742 6.38525 3.9707 6.54192 3.9707 6.73514V7.54116C3.9707 7.73439 4.12742 7.89105 4.3207 7.89105Z" fill="#8CAAB9"/>
<path d="M6.52578 7.89105C6.71907 7.89105 6.87578 7.73439 6.87578 7.54116V6.73514C6.87578 6.54192 6.71907 6.38525 6.52578 6.38525C6.3325 6.38525 6.17578 6.54192 6.17578 6.73514V7.54116C6.17578 7.73439 6.3325 7.89105 6.52578 7.89105Z" fill="#8CAAB9"/>
<path d="M8.82949 5.59971C9.02278 5.59971 9.17949 5.44305 9.17949 5.24983V4.44363C9.17949 4.25041 9.02278 4.09375 8.82949 4.09375C8.63621 4.09375 8.47949 4.25041 8.47949 4.44363V5.24983C8.47949 5.44305 8.63621 5.59971 8.82949 5.59971Z" fill="#8CAAB9"/>
<path d="M8.82949 7.89105C9.02278 7.89105 9.17949 7.73439 9.17949 7.54116V6.73514C9.17949 6.54192 9.02278 6.38525 8.82949 6.38525C8.63621 6.38525 8.47949 6.54192 8.47949 6.73514V7.54116C8.47949 7.73439 8.63621 7.89105 8.82949 7.89105Z" fill="#8CAAB9"/>
<path d="M4.3207 10.183C4.51399 10.183 4.6707 10.0264 4.6707 9.83316V9.02713C4.6707 8.83391 4.51399 8.67725 4.3207 8.67725C4.12742 8.67725 3.9707 8.83391 3.9707 9.02713V9.83316C3.9707 10.0264 4.12742 10.183 4.3207 10.183Z" fill="#8CAAB9"/>
<path d="M6.52578 10.183C6.71907 10.183 6.87578 10.0264 6.87578 9.83316V9.02713C6.87578 8.83391 6.71907 8.67725 6.52578 8.67725C6.3325 8.67725 6.17578 8.83391 6.17578 9.02713V9.83316C6.17578 10.0264 6.3325 10.183 6.52578 10.183Z" fill="#8CAAB9"/>
<path d="M8.82949 10.183C9.02278 10.183 9.17949 10.0264 9.17949 9.83316V9.02713C9.17949 8.83391 9.02278 8.67725 8.82949 8.67725C8.63621 8.67725 8.47949 8.83391 8.47949 9.02713V9.83316C8.47949 10.0264 8.63621 10.183 8.82949 10.183Z" fill="#8CAAB9"/>
<path d="M18.434 17.4587C18.6273 17.4587 18.784 17.302 18.784 17.1088V16.2703C18.784 16.0771 18.6273 15.9204 18.434 15.9204C18.2407 15.9204 18.084 16.0771 18.084 16.2703V17.1088C18.084 17.302 18.2407 17.4587 18.434 17.4587Z" fill="#8CAAB9"/>
<path d="M20.6381 17.4587C20.8314 17.4587 20.9881 17.302 20.9881 17.1088V16.2703C20.9881 16.0771 20.8314 15.9204 20.6381 15.9204C20.4448 15.9204 20.2881 16.0771 20.2881 16.2703V17.1088C20.2881 17.302 20.4448 17.4587 20.6381 17.4587Z" fill="#8CAAB9"/>
<path d="M18.434 19.8429C18.6273 19.8429 18.784 19.6863 18.784 19.4931V18.6546C18.784 18.4613 18.6273 18.3047 18.434 18.3047C18.2407 18.3047 18.084 18.4613 18.084 18.6546V19.4931C18.084 19.6863 18.2407 19.8429 18.434 19.8429Z" fill="#8CAAB9"/>
<path d="M20.6381 19.8429C20.8314 19.8429 20.9881 19.6863 20.9881 19.4931V18.6546C20.9881 18.4613 20.8314 18.3047 20.6381 18.3047C20.4448 18.3047 20.2881 18.4613 20.2881 18.6546V19.4931C20.2881 19.6863 20.4448 19.8429 20.6381 19.8429Z" fill="#8CAAB9"/>
<path d="M22.9408 17.4587C23.1341 17.4587 23.2908 17.302 23.2908 17.1088V16.2703C23.2908 16.0771 23.1341 15.9204 22.9408 15.9204C22.7475 15.9204 22.5908 16.0771 22.5908 16.2703V17.1088C22.5908 17.302 22.7475 17.4587 22.9408 17.4587Z" fill="#8CAAB9"/>
<path d="M22.9408 19.8429C23.1341 19.8429 23.2908 19.6863 23.2908 19.4931V18.6546C23.2908 18.4613 23.1341 18.3047 22.9408 18.3047C22.7475 18.3047 22.5908 18.4613 22.5908 18.6546V19.4931C22.5908 19.6863 22.7475 19.8429 22.9408 19.8429Z" fill="#8CAAB9"/>
<path d="M18.434 22.2269C18.6273 22.2269 18.784 22.0702 18.784 21.877V21.0384C18.784 20.8451 18.6273 20.6885 18.434 20.6885C18.2407 20.6885 18.084 20.8451 18.084 21.0384V21.877C18.084 22.0702 18.2407 22.2269 18.434 22.2269Z" fill="#8CAAB9"/>
<path d="M20.6381 22.2269C20.8314 22.2269 20.9881 22.0702 20.9881 21.877V21.0384C20.9881 20.8451 20.8314 20.6885 20.6381 20.6885C20.4448 20.6885 20.2881 20.8451 20.2881 21.0384V21.877C20.2881 22.0702 20.4448 22.2269 20.6381 22.2269Z" fill="#8CAAB9"/>
<path d="M22.9408 22.2269C23.1341 22.2269 23.2908 22.0702 23.2908 21.877V21.0384C23.2908 20.8451 23.1341 20.6885 22.9408 20.6885C22.7475 20.6885 22.5908 20.8451 22.5908 21.0384V21.877C22.5908 22.0702 22.7475 22.2269 22.9408 22.2269Z" fill="#8CAAB9"/>
<path d="M18.434 10.3075C18.6273 10.3075 18.784 10.1508 18.784 9.95758V9.11893C18.784 8.9257 18.6273 8.76904 18.434 8.76904C18.2407 8.76904 18.084 8.9257 18.084 9.11893V9.95758C18.084 10.1508 18.2407 10.3075 18.434 10.3075Z" fill="#8CAAB9"/>
<path d="M20.6381 10.3075C20.8314 10.3075 20.9881 10.1508 20.9881 9.95758V9.11893C20.9881 8.9257 20.8314 8.76904 20.6381 8.76904C20.4448 8.76904 20.2881 8.9257 20.2881 9.11893V9.95758C20.2881 10.1508 20.4448 10.3075 20.6381 10.3075Z" fill="#8CAAB9"/>
<path d="M18.434 12.6916C18.6273 12.6916 18.784 12.5349 18.784 12.3417V11.5032C18.784 11.31 18.6273 11.1533 18.434 11.1533C18.2407 11.1533 18.084 11.31 18.084 11.5032V12.3417C18.084 12.5349 18.2407 12.6916 18.434 12.6916Z" fill="#8CAAB9"/>
<path d="M20.6381 12.6916C20.8314 12.6916 20.9881 12.5349 20.9881 12.3417V11.5032C20.9881 11.31 20.8314 11.1533 20.6381 11.1533C20.4448 11.1533 20.2881 11.31 20.2881 11.5032V12.3417C20.2881 12.5349 20.4448 12.6916 20.6381 12.6916Z" fill="#8CAAB9"/>
<path d="M22.9408 10.3075C23.1341 10.3075 23.2908 10.1508 23.2908 9.95758V9.11893C23.2908 8.9257 23.1341 8.76904 22.9408 8.76904C22.7475 8.76904 22.5908 8.9257 22.5908 9.11893V9.95758C22.5908 10.1508 22.7475 10.3075 22.9408 10.3075Z" fill="#8CAAB9"/>
<path d="M22.9408 12.6916C23.1341 12.6916 23.2908 12.5349 23.2908 12.3417V11.5032C23.2908 11.31 23.1341 11.1533 22.9408 11.1533C22.7475 11.1533 22.5908 11.31 22.5908 11.5032V12.3417C22.5908 12.5349 22.7475 12.6916 22.9408 12.6916Z" fill="#8CAAB9"/>
<path d="M18.434 15.075C18.6273 15.075 18.784 14.9184 18.784 14.7252V13.8865C18.784 13.6933 18.6273 13.5366 18.434 13.5366C18.2407 13.5366 18.084 13.6933 18.084 13.8865V14.7252C18.084 14.9184 18.2407 15.075 18.434 15.075Z" fill="#8CAAB9"/>
<path d="M20.6381 15.075C20.8314 15.075 20.9881 14.9184 20.9881 14.7252V13.8865C20.9881 13.6933 20.8314 13.5366 20.6381 13.5366C20.4448 13.5366 20.2881 13.6933 20.2881 13.8865V14.7252C20.2881 14.9184 20.4448 15.075 20.6381 15.075Z" fill="#8CAAB9"/>
<path d="M22.9408 15.075C23.1341 15.075 23.2908 14.9184 23.2908 14.7252V13.8865C23.2908 13.6933 23.1341 13.5366 22.9408 13.5366C22.7475 13.5366 22.5908 13.6933 22.5908 13.8865V14.7252C22.5908 14.9184 22.7475 15.075 22.9408 15.075Z" fill="#8CAAB9"/>
<path d="M18.434 7.92351C18.6273 7.92351 18.784 7.76685 18.784 7.57362V6.73514C18.784 6.54192 18.6273 6.38525 18.434 6.38525C18.2407 6.38525 18.084 6.54192 18.084 6.73514V7.57362C18.084 7.76685 18.2407 7.92351 18.434 7.92351Z" fill="#8CAAB9"/>
<path d="M20.6381 7.92351C20.8314 7.92351 20.9881 7.76685 20.9881 7.57362V6.73514C20.9881 6.54192 20.8314 6.38525 20.6381 6.38525C20.4448 6.38525 20.2881 6.54192 20.2881 6.73514V7.57362C20.2881 7.76685 20.4448 7.92351 20.6381 7.92351Z" fill="#8CAAB9"/>
<path d="M22.9408 7.92351C23.1341 7.92351 23.2908 7.76685 23.2908 7.57362V6.73514C23.2908 6.54192 23.1341 6.38525 22.9408 6.38525C22.7475 6.38525 22.5908 6.54192 22.5908 6.73514V7.57362C22.5908 7.76685 22.7475 7.92351 22.9408 7.92351Z" fill="#8CAAB9"/>
<path d="M4.3207 12.4736C4.51399 12.4736 4.6707 12.3169 4.6707 12.1237V11.3177C4.6707 11.1244 4.51399 10.9678 4.3207 10.9678C4.12742 10.9678 3.9707 11.1244 3.9707 11.3177V12.1237C3.9707 12.3169 4.12742 12.4736 4.3207 12.4736Z" fill="#8CAAB9"/>
<path d="M6.52578 12.4736C6.71907 12.4736 6.87578 12.3169 6.87578 12.1237V11.3177C6.87578 11.1244 6.71907 10.9678 6.52578 10.9678C6.3325 10.9678 6.17578 11.1244 6.17578 11.3177V12.1237C6.17578 12.3169 6.3325 12.4736 6.52578 12.4736Z" fill="#8CAAB9"/>
<path d="M4.3207 14.7656C4.51399 14.7656 4.6707 14.6089 4.6707 14.4157V13.6096C4.6707 13.4164 4.51399 13.2598 4.3207 13.2598C4.12742 13.2598 3.9707 13.4164 3.9707 13.6096V14.4157C3.9707 14.6089 4.12742 14.7656 4.3207 14.7656Z" fill="#8CAAB9"/>
<path d="M6.52578 14.7656C6.71907 14.7656 6.87578 14.6089 6.87578 14.4157V13.6096C6.87578 13.4164 6.71907 13.2598 6.52578 13.2598C6.3325 13.2598 6.17578 13.4164 6.17578 13.6096V14.4157C6.17578 14.6089 6.3325 14.7656 6.52578 14.7656Z" fill="#8CAAB9"/>
<path d="M4.3207 17.0566C4.51399 17.0566 4.6707 16.8999 4.6707 16.7067V15.9007C4.6707 15.7074 4.51399 15.5508 4.3207 15.5508C4.12742 15.5508 3.9707 15.7074 3.9707 15.9007V16.7067C3.9707 16.8999 4.12742 17.0566 4.3207 17.0566Z" fill="#8CAAB9"/>
<path d="M6.52578 17.0566C6.71907 17.0566 6.87578 16.8999 6.87578 16.7067V15.9007C6.87578 15.7074 6.71907 15.5508 6.52578 15.5508C6.3325 15.5508 6.17578 15.7074 6.17578 15.9007V16.7067C6.17578 16.8999 6.3325 17.0566 6.52578 17.0566Z" fill="#8CAAB9"/>
<path d="M4.3207 19.3481C4.51399 19.3481 4.6707 19.1914 4.6707 18.9982V18.1922C4.6707 17.9989 4.51399 17.8423 4.3207 17.8423C4.12742 17.8423 3.9707 17.9989 3.9707 18.1922V18.9982C3.9707 19.1914 4.12742 19.3481 4.3207 19.3481Z" fill="#8CAAB9"/>
<path d="M6.52578 19.3481C6.71907 19.3481 6.87578 19.1914 6.87578 18.9982V18.1922C6.87578 17.9989 6.71907 17.8423 6.52578 17.8423C6.3325 17.8423 6.17578 17.9989 6.17578 18.1922V18.9982C6.17578 19.1914 6.3325 19.3481 6.52578 19.3481Z" fill="#8CAAB9"/>
<path d="M4.3207 21.6396C4.51399 21.6396 4.6707 21.4829 4.6707 21.2897V20.4837C4.6707 20.2905 4.51399 20.1338 4.3207 20.1338C4.12742 20.1338 3.9707 20.2905 3.9707 20.4837V21.2897C3.9707 21.4829 4.12742 21.6396 4.3207 21.6396Z" fill="#8CAAB9"/>
<path d="M6.52578 21.6396C6.71907 21.6396 6.87578 21.4829 6.87578 21.2897V20.4837C6.87578 20.2905 6.71907 20.1338 6.52578 20.1338C6.3325 20.1338 6.17578 20.2905 6.17578 20.4837V21.2897C6.17578 21.4829 6.3325 21.6396 6.52578 21.6396Z" fill="#8CAAB9"/>
</svg>
