<svg width="22" height="12" viewBox="0 0 22 12" fill="none" xmlns="http://www.w3.org/2000/svg">
<path d="M21.8045 5.42299C21.8045 5.42299 17.2291 0 11 0C4.7713 0 0.195535 5.42299 0.195535 5.42299C-0.0651784 5.73196 -0.0651784 6.23767 0.195535 6.54701C0.195535 6.54664 4.7713 11.9696 11 11.9696C17.2287 11.9696 21.8041 6.54664 21.8041 6.54664C22.0652 6.23767 22.0652 5.73196 21.8045 5.42299ZM11 10.592C8.4557 10.592 6.39281 8.52948 6.39281 5.98481C6.39281 3.44015 8.4557 1.37763 11 1.37763C13.5443 1.37763 15.6072 3.44052 15.6072 5.98481C15.6072 8.52911 13.5447 10.592 11 10.592Z" fill="#8CAAB9"/>
<path d="M13.1725 5.02089C12.6312 5.02089 12.1921 4.58213 12.1921 4.04051C12.1921 3.89912 12.2224 3.76446 12.2763 3.64326C11.897 3.43604 11.4619 3.31821 10.9996 3.31821C9.52698 3.31821 8.33301 4.51218 8.33301 5.98482C8.33301 7.45746 9.52698 8.65181 10.9996 8.65181C12.4723 8.65181 13.6662 7.45784 13.6662 5.9852C13.6662 5.62798 13.5955 5.28722 13.468 4.97563C13.3748 5.00481 13.2753 5.02089 13.1725 5.02089Z" fill="#8CAAB9"/>
</svg>
