<svg width="21" height="20" viewBox="0 0 21 20" fill="none" xmlns="http://www.w3.org/2000/svg">
<path d="M2.1718 3.35582C3.98336 2.96878 5.0428 1.86077 5.52001 -7.82013e-05C5.98024 1.82283 7.0505 2.89289 8.79102 3.34975C7.06749 3.8309 5.97252 4.88275 5.52001 6.61914C5.05979 4.87213 3.98799 3.75653 2.1718 3.35582Z" fill="#F7D323"/>
<path d="M12.8241 9.8559C14.6357 9.46886 15.6951 8.36085 16.1724 6.5C16.6326 8.3229 17.7028 9.39297 19.4434 9.84983C17.7198 10.331 16.6249 11.3828 16.1724 13.1192C15.7121 11.3722 14.6403 10.2566 12.8241 9.8559Z" fill="#F7D323"/>
<path d="M5.88078 16.475C7.69234 16.088 8.75178 14.98 9.229 13.1191C9.68922 14.942 10.7595 16.0121 12.5 16.469C10.7765 16.9501 9.6815 18.002 9.229 19.7384C8.76877 17.9913 7.69697 16.8757 5.88078 16.475Z" fill="#F7D323"/>
<line y1="3.37646" x2="20.6285" y2="3.37646" stroke="#F7D323"/>
<line y1="9.89062" x2="20.6285" y2="9.89062" stroke="#F7D323"/>
<line y1="16.4053" x2="20.6285" y2="16.4053" stroke="#F7D323"/>
</svg>
