<svg width="65" height="61" viewBox="0 0 65 61" fill="none" xmlns="http://www.w3.org/2000/svg">
<path d="M65.0001 20L57.4167 15.0222L57.2001 1.15556C57.2001 0.505556 56.6945 0 56.0445 0H9.02783C8.37783 0 7.87227 0.505556 7.87227 1.15556V14.6611L0.000194798 20C0.000194798 20 0 20 4.88112e-05 20.5833V60.6667C4.88112e-05 60.5944 4.88112e-05 60.7389 4.88112e-05 60.6667H1.08338C1.08338 60.6667 1.08338 60.6667 1.1556 60.6667H63.8445H65.0001C65.0001 60.6667 65.0001 59.6556 65.0001 59.5833V20.5833C65.0001 20.2222 65.0001 20.5 65.0001 20ZM57.2001 17.6222L61.9667 20.5833L57.2001 24.2667V17.6222ZM10.1834 14.5167V2.31111H54.8167V14.5167V25.6389L32.5001 42.8278L10.1834 25.6389V14.5167ZM7.80005 17.6222V24.2667L6.42783 23.1833L3.03338 20.5833L7.80005 17.6222ZM2.31116 22.9667L8.23339 27.5889L24.5556 40.0111L2.31116 57.1278V22.9667ZM4.55005 58.3556L26.4334 41.5278L32.5001 46.3667L38.5667 41.5278L60.3778 58.3556H4.55005ZM62.6889 57.1278L53.1556 49.7611L40.4445 40.0111L61.6778 23.6167L62.6167 22.8944V57.1278H62.6889Z" fill="#F7D323"/>
<path d="M16.8274 9.89461H40.4441C41.0941 9.89461 41.5997 9.38905 41.5997 8.73905C41.5997 8.08905 41.0941 7.5835 40.4441 7.5835H16.8274C16.1774 7.5835 15.6719 8.08905 15.6719 8.73905C15.6719 9.38905 16.1774 9.89461 16.8274 9.89461Z" fill="#F7D323"/>
<path d="M49.3274 24.4837C49.3274 23.8337 48.8219 23.3281 48.1719 23.3281H16.8274C16.1774 23.3281 15.6719 23.8337 15.6719 24.4837C15.6719 25.1337 16.1774 25.6392 16.8274 25.6392H48.1719C48.8219 25.7115 49.3274 25.1337 49.3274 24.4837Z" fill="#F7D323"/>
<path d="M16.8274 17.8389H41.1663C41.8163 17.8389 42.3219 17.3334 42.3219 16.6834C42.3219 16.0334 41.8163 15.5278 41.1663 15.5278H16.8274C16.1774 15.5278 15.6719 16.0334 15.6719 16.6834C15.6719 17.3334 16.1774 17.8389 16.8274 17.8389Z" fill="#F7D323"/>
</svg>
