<svg width="32" height="33" viewBox="0 0 32 33" fill="none" xmlns="http://www.w3.org/2000/svg">
<g>
<path d="M24 4.125C22.45 4.125 21 9.10723 21 14.4375C21 18.1113 23 19.5938 23 19.5938V27.8438C23 28.4109 23.45 28.875 24 28.875C24.55 28.875 25 28.4109 25 27.8438V4.83398C25 4.125 24.3125 4.125 24 4.125Z" />
<path d="M18 4.125L18.625 10.8281C18.625 11.1117 18.4 11.3438 18.125 11.3438C17.85 11.3438 17.625 11.1117 17.625 10.8281L17.25 4.125H16.75L16.375 10.8281C16.375 11.1117 16.15 11.3438 15.875 11.3438C15.6 11.3438 15.375 11.1117 15.375 10.8281L16 4.125H15.5C15.5 4.125 14 11.0344 14 12.375C14 13.7156 14.8375 14.8629 16 15.2883V27.8438C16 28.4109 16.45 28.875 17 28.875C17.55 28.875 18 28.4109 18 27.8438V15.2883C19.1625 14.8629 20 13.7285 20 12.375C20 11.0215 18.5 4.125 18.5 4.125H18Z" />
<path d="M10 4.125C8.34375 4.125 7 8.25 7 12.375C7 13.7156 7.8375 14.8629 9 15.2883V27.8438C9 28.4109 9.45 28.875 10 28.875C10.55 28.875 11 28.4109 11 27.8438V15.2883C12.1625 14.8629 13 13.7285 13 12.375C13 8.25 11.6562 4.125 10 4.125Z" />
</g>
</svg>
