<svg width="24" height="21" viewBox="0 0 24 21" fill="none" xmlns="http://www.w3.org/2000/svg">
<g>
<path fill-rule="evenodd" clip-rule="evenodd" d="M20.0795 19.8793C20.0959 20.0567 20.0842 20.2363 20.0842 20.4412C20.3736 20.4412 20.7912 20.4412 21.0899 20.4412C21.1013 20.1937 21.1128 19.9451 21.1266 19.649C21.9318 19.7337 22.6385 19.7608 23.3865 20.0564C23.3912 20.0993 23.3956 20.1422 23.4003 20.1848C23.2123 20.2478 23.0285 20.346 22.8361 20.3679C21.6824 20.4989 20.5296 20.6791 19.3723 20.7189C16.3764 20.8216 13.3778 20.9139 10.3808 20.9084C7.34162 20.9027 4.29884 20.8486 1.27478 20.4794C0.94068 20.4386 0.611 20.3575 0.28132 20.286C0.20436 20.2693 0.13598 20.2142 0 20.144C0.37518 19.8458 0.77766 19.8468 1.14946 19.7959C1.82858 19.7025 2.51316 19.6466 3.19696 19.5957C3.39872 19.5803 3.48842 19.4979 3.56408 19.3219C4.22188 17.7902 4.54896 16.186 4.61968 14.527C4.68208 13.0554 4.58354 11.5942 4.30196 10.1468C4.29026 10.0864 4.27414 10.0266 4.26478 9.98789C3.90286 10.1158 3.56122 10.2913 3.20008 10.3555C1.48278 10.6603 0.0858001 9.01393 0.65026 7.36111C0.7124 7.17937 0.70174 7.06627 0.58214 6.91235C-0.14742 5.97635 -0.04394 4.65113 0.81978 3.83915C0.95524 3.71201 1.01192 3.59527 1.00802 3.40729C0.97552 1.92555 2.08338 0.895692 3.55628 1.01113C3.66652 1.01945 3.81966 0.951592 3.89428 0.866832C4.84042 -0.207228 6.25612 -0.291728 7.32472 0.661172C7.40038 0.728512 7.57406 0.759712 7.66714 0.721752C9.4068 0.0148117 11.0867 1.27789 10.9104 3.16029C10.9005 3.26637 10.9704 3.42315 11.0557 3.48893C12.3539 4.49305 12.3482 6.25481 11.0318 7.25217C10.9114 7.34343 10.8222 7.40843 10.8503 7.60213C10.9858 8.54567 10.6551 9.32021 9.87584 9.85581C9.10494 10.3857 8.27684 10.3951 7.4464 9.95955C7.39258 9.93147 7.33564 9.90833 7.2228 9.85659C7.12192 10.4556 7.00414 11.0196 6.93576 11.5892C6.6287 14.1445 6.88766 16.6423 7.71238 19.0832C7.79766 19.3357 7.91674 19.4007 8.16582 19.3846C8.53138 19.3604 8.74016 19.3783 9.1442 19.3783C9.1442 19.7353 9.1533 20.1435 9.1533 20.5135C9.45828 20.5135 9.9775 20.5132 10.2856 20.5132C10.2856 20.2267 10.2661 19.9069 10.2661 19.9069C10.2661 19.9069 10.3498 19.9048 10.2934 19.8949C10.3652 19.9126 10.3233 19.8799 10.3233 19.8799C10.3233 19.8799 10.3568 19.8115 10.3646 19.8949C10.6441 19.8949 11.1134 19.9189 11.4031 19.9189C11.4145 19.7652 11.4189 19.5372 11.4353 19.3188C14.0005 19.3723 16.3522 19.4129 18.9108 19.4662C18.942 19.6147 18.9205 19.8515 18.9454 19.9701C19.2018 19.9701 19.7792 19.982 19.9716 19.982C19.9911 19.8705 19.9672 19.5195 19.9672 19.5195C19.9672 19.5195 20.0041 19.525 20.0668 19.5093" />
<path fill-rule="evenodd" clip-rule="evenodd" d="M21.4482 17.459C21.2597 17.4753 21.1165 17.4571 20.9444 17.472C20.9444 18.2007 20.9444 18.917 20.9444 19.6333C20.9444 19.7597 20.9454 19.8863 20.9459 20.0127C20.9475 20.438 20.9654 20.3325 20.5583 20.347C20.299 20.3561 20.1904 20.3665 20.195 20.0995C20.2096 19.2353 20.2005 18.3705 20.2005 17.4795C20.0734 17.4795 19.9662 17.4795 19.8175 17.4795C19.8175 18.1368 19.8212 18.7883 19.8139 19.4399C19.8126 19.5569 19.784 19.7657 19.738 19.7743C19.5476 19.8107 19.3433 19.801 19.1498 19.7706C19.1134 19.7652 19.0859 19.5878 19.0851 19.4893C19.0794 18.8255 19.082 18.162 19.082 17.4746C16.4555 17.4746 13.8542 17.4746 11.2126 17.4746C11.2126 18.2475 11.2126 19.0117 11.2126 19.7665C11.1447 19.788 11.1161 19.8031 11.0862 19.8057C10.4713 19.8663 10.4651 19.8567 10.471 19.2498C10.4768 18.6617 10.4723 18.0736 10.4723 17.4694C10.3426 17.4694 10.2534 17.4694 10.1221 17.4694C10.1221 18.0986 10.1213 18.7176 10.1224 19.3364C10.1226 19.5899 10.112 19.8445 10.1325 20.0964C10.1598 20.4287 9.96794 20.4357 9.7173 20.4406C9.46354 20.4461 9.36344 20.3827 9.36968 20.1073C9.38736 19.3367 9.37644 18.5653 9.3754 17.7944C9.3754 17.6914 9.36708 17.5884 9.36188 17.4704C9.24254 17.4582 9.20276 17.4618 9.0166 17.4587C9.0166 17.2315 9.03766 17.1046 9.07406 16.9405C9.46458 16.3758 9.90294 15.8181 9.90294 15.8181C9.90294 15.8181 10.5223 15.8241 11.0573 15.8241C14.2044 15.8241 17.3519 15.8275 20.4992 15.8181C20.6144 15.8176 20.7899 15.8181 20.7899 15.8181C20.7899 15.8181 20.9254 15.9957 20.9753 16.1197C21.1069 16.4476 21.2779 16.7596 21.4163 17.0848C21.455 17.1753 21.4373 17.3196 21.4482 17.459Z" />
<path fill-rule="evenodd" clip-rule="evenodd" d="M20.7893 14.0454C20.7893 14.2719 20.7893 14.3454 20.7893 14.5924C17.1623 14.5924 13.5423 14.5924 9.90283 14.5924C9.90283 14.3631 9.90283 14.2906 9.90283 14.0454C13.5298 14.0454 17.1509 14.0454 20.7893 14.0454Z" />
<path fill-rule="evenodd" clip-rule="evenodd" d="M20.7892 14.9334C20.7892 15.1747 20.7985 15.2805 20.7985 15.5387C20.6878 15.5447 20.5773 15.5559 20.4673 15.5559C17.0592 15.5569 13.6556 15.5273 10.247 15.54C10.1019 15.5405 9.91337 15.5455 9.91337 15.5455C9.91337 15.5455 9.90557 15.4384 9.90401 15.2941C9.90245 15.1313 9.90401 14.9119 9.90401 14.9119C9.90401 14.9119 10.112 14.9113 10.2386 14.9119C13.6467 14.9241 17.0551 14.9186 20.4631 14.9186C20.5658 14.9189 20.6685 14.9277 20.7892 14.9334Z" />
<path fill-rule="evenodd" clip-rule="evenodd" d="M9.9393 13.0581C13.5632 13.0581 17.1608 13.0581 20.7829 13.0581C20.7829 13.2973 20.7808 13.451 20.7808 13.7128C20.6549 13.7128 20.5418 13.7128 20.429 13.7128C17.0924 13.7125 13.7561 13.7128 10.4195 13.7123C10.1416 13.7123 9.93125 13.7128 9.93125 13.7128C9.93125 13.7128 9.92058 13.4408 9.9393 13.0581Z" />
</g>
</svg>
