<svg width="20" height="20" viewBox="0 0 20 20" fill="none" xmlns="http://www.w3.org/2000/svg">
<g>
<g clip-path="url(#clip0)">
<path fill-rule="evenodd" clip-rule="evenodd" d="M16.7587 3.94502L15.1849 2.40002L10.0937 7.43877C9.52492 6.76877 8.94617 6.10002 8.38867 5.46252L13.2399 0.602517C13.8662 -0.0237334 14.9212 0.0112666 15.5949 0.682517L18.1012 3.17002C18.7737 3.84127 18.7387 4.74627 18.1112 5.37377L12.7849 10.7175C12.3887 10.2063 11.9437 9.65377 11.4712 9.07877L16.7587 3.94502ZM19.79 16.3025L19.7761 16.3074C19.1255 16.5328 17.857 16.9723 16.4 14.5075C14.9325 12.0275 12.9925 12.6038 12.9925 12.6038C12.9033 12.6192 12.825 12.6464 12.7465 12.6736C12.7294 12.6795 12.7123 12.6855 12.695 12.6913C10.505 9.57255 4.34629 2.78004 3.80379 2.23629C3.02504 1.45879 1.71754 0.728794 0.623795 1.87504C-0.404955 2.95254 0.122545 4.3588 0.901295 5.13755C1.44879 5.68505 8.27879 11.875 11.3963 14.0575C11.3449 14.1928 11.3129 14.3346 11.3013 14.4788C11.3013 19.0363 15.9625 18.795 16.9263 18.6188C18.645 18.3075 20.4363 16.0813 19.79 16.3025ZM7.01662 13.4125L6.73287 14.3525L7.34037 14.96L2.57662 17.03L1.63912 16.1313L3.79037 11.5975L3.76787 12.48L5.01537 12.4625L6.08162 11.4063C5.41912 10.8438 4.75912 10.2738 4.12912 9.7225L3.08662 10.7663C3.08662 10.7663 0.196625 17.4163 0.000374841 17.9538C-0.155875 18.3788 0.382875 18.9175 0.755375 18.735C1.35537 18.4388 7.93037 15.585 7.93037 15.585L9.39037 14.12C8.81654 13.6726 8.24939 13.2168 7.68912 12.7525L7.01662 13.4125Z"/>
</g>
</g>
<defs>
<clipPath id="clip0">
<rect width="20" height="20" fill="white"/>
</clipPath>
</defs>
</svg>
