<svg width="24" height="26" viewBox="0 0 24 26" fill="none" xmlns="http://www.w3.org/2000/svg">
<g>
<path d="M16.0222 19.5442C16.3524 18.9083 16.8478 18.4843 17.5083 18.4843C18.7467 18.4843 20.4393 18.9083 21.0172 17.4244C21.3474 16.5765 21.43 15.6439 21.43 14.7112C21.43 12.6762 20.0677 10.8956 21.2236 9.03023C21.5126 8.56388 22.0492 8.18232 22.5033 8.3943C22.8748 8.60627 23.04 9.15741 23.04 9.62376C23.1638 11.0652 22.9574 12.549 22.8748 13.9904C22.8748 14.2024 22.8336 14.4568 22.8336 14.6688C22.7097 16.195 22.5859 17.7636 22.0905 19.1626C22.0079 19.3746 21.9254 19.5866 21.8015 19.7138C21.5951 19.9258 21.2236 19.9682 20.9346 19.9682C20.8108 19.9682 20.6457 19.9682 20.4805 19.9682C20.4805 20.3921 20.4805 20.3497 20.4805 20.7737C20.4805 21.028 20.4393 21.24 20.1916 21.24V23.275C20.7282 23.4869 21.2649 23.9109 21.8015 24.5468C21.9667 24.7588 21.9254 25.0556 21.7602 25.2251C21.6777 25.3099 21.5951 25.3523 21.4713 25.3523C21.3474 25.3523 21.2649 25.3099 21.1823 25.1827C20.6457 24.5044 20.0677 24.1229 19.5311 24.0805C18.9944 24.1229 18.4165 24.462 17.8798 25.1827C17.7973 25.2675 17.6734 25.3523 17.5909 25.3523C17.5083 25.3523 17.3845 25.3099 17.3019 25.2251C17.1368 25.0556 17.1368 24.7588 17.2606 24.5468C17.756 23.9109 18.2926 23.4869 18.8706 23.275V21.3248C18.5816 21.3248 18.5403 21.0704 18.5816 20.8584C18.5816 20.4345 18.5816 20.3921 18.5816 19.9682C17.9624 20.0105 17.4258 20.1377 17.0542 20.5193C16.8065 20.7737 16.4763 20.7737 16.2286 20.5193C15.8984 20.2649 15.8158 19.8834 16.0222 19.5442Z" />
<path d="M20.07 14.9224V15.0072V15.0496C20.07 15.2192 20.07 15.3888 20.07 15.5584C20.07 16.7878 19.2444 17.5933 18.0472 17.5085C17.139 17.4237 16.1896 17.3813 15.2814 17.2966C14.9512 17.2542 14.7448 17.4661 14.7035 17.8053C14.5383 19.4163 14.4145 20.9849 14.2494 22.5959C14.2494 22.7655 14.2081 22.8927 14.2081 23.0623C14.1255 23.4862 13.9191 23.6558 13.5476 23.6982C13.2999 23.6982 13.0522 23.6982 12.8458 23.6982C12.5156 23.6982 12.3092 23.571 12.1853 23.359C12.1028 23.2319 12.0615 23.0623 12.0615 22.8503C12.0615 21.4937 12.0615 20.137 12.0615 18.738C12.0615 17.8477 12.0615 16.9998 12.0615 16.1095C12.0615 15.2616 12.5569 14.7528 13.3825 14.7528C14.1668 14.7528 14.9512 14.7528 15.7355 14.7528C16.1896 14.7528 16.4373 14.5409 16.4786 14.0745L16.3134 10.3438C16.107 10.4709 15.9832 10.5981 15.8181 10.6829C15.4465 10.8949 15.1576 11.1917 14.7035 11.1917C13.8366 11.1917 12.6807 11.1917 11.8138 11.1917C11.1533 11.1917 10.6992 10.6829 10.6992 10.0046C10.6992 9.75023 10.7818 9.53826 10.9056 9.36868C11.112 9.07191 11.4423 8.85994 11.8551 8.90233C12.5156 8.90233 13.2174 8.90233 13.8779 8.90233C14.0017 8.90233 14.4558 8.85993 14.5383 8.81754C14.9099 8.60556 15.2814 8.35119 15.6529 8.09682C16.0245 7.88485 16.3547 7.63048 16.7675 7.4609C16.8501 7.4185 16.9326 7.37611 17.0152 7.37611C17.6344 7.20653 18.2536 7.29132 18.8728 7.33371C19.4508 7.37611 19.9461 7.92724 20.0287 8.52077C20.07 8.81754 20.07 9.1567 20.07 9.45347C20.07 11.1917 20.07 12.9299 20.07 14.6681C20.07 14.7528 20.07 14.8376 20.07 14.9224Z" />
<path d="M20.0704 4.0273C20.0704 4.83281 19.6989 5.51113 19.0797 5.93508C18.7082 6.18945 18.2541 6.35903 17.7587 6.35903C17.5523 6.35903 17.3872 6.31664 17.222 6.27424C16.2313 6.01987 15.5708 5.08718 15.5708 3.94251C15.5708 2.58587 16.5615 1.56839 17.8 1.56839C19.0384 1.61078 20.0704 2.62827 20.0704 4.0273Z" />
<path d="M1.82304 8.05481H14.7027C14.5789 8.1396 14.4137 8.22439 14.2899 8.30918C14.2073 8.30918 13.9596 8.35157 13.8358 8.35157C13.2166 8.35157 12.5561 8.35157 11.813 8.35157C11.2351 8.35157 10.7397 8.60595 10.4508 9.07229C10.2856 9.32666 10.1618 9.66582 10.1618 10.005C10.1618 10.0474 10.1618 10.0898 10.1618 10.1322H1.82304C1.24511 10.1322 0.791016 9.66582 0.791016 9.11469C0.791016 8.56355 1.24511 8.05481 1.82304 8.05481Z" />
<path d="M2.07129 10.556V24.1224H9.91467V10.556H2.07129ZM9.21289 18.5687C9.21289 18.8655 8.96521 19.0774 8.71752 19.0774C8.59368 19.0774 8.46984 19.035 8.34599 18.9079C8.26343 18.8231 8.18087 18.6959 8.18087 18.5263V16.0674C8.18087 15.7706 8.42855 15.5586 8.67624 15.5586C8.80008 15.5586 8.92393 15.601 9.04777 15.7282C9.13033 15.813 9.21289 15.9402 9.21289 16.1098V18.5687Z" />
<path d="M15.818 11.3198L15.8593 12.1253H10.2451V10.6414C10.3277 10.8958 10.4515 11.1078 10.6166 11.2774C10.9056 11.5741 11.3184 11.7437 11.7725 11.7437C12.144 11.7437 12.5569 11.7437 12.9697 11.7437C13.5476 11.7437 14.1668 11.7437 14.6622 11.7437H14.7035C15.1988 11.7437 15.5291 11.5317 15.818 11.3198Z" />
<path d="M3.43311 0V5.9777H6.9007H6.98327V6.48644C6.24021 6.61363 5.66228 6.9104 5.45587 7.24956C5.37331 7.37674 5.45587 7.58872 5.621 7.58872H10.3683C10.5334 7.58872 10.616 7.41914 10.5334 7.24956C10.327 6.9104 9.74909 6.61363 9.00603 6.48644V5.9777H9.08859H11.7306H12.5562V0H3.43311ZM11.937 5.42657H4.01104V0.466346H11.937V5.42657Z" />
</g>
</svg>
