<svg width="20" height="20" viewBox="0 0 20 20" fill="none" xmlns="http://www.w3.org/2000/svg">
<g>
<path d="M0.301959 14.1149L5.88481 19.6977C6.28436 20.0973 6.9328 20.1004 7.33613 19.7066L0.29307 12.6636C-0.100705 13.0671 -0.0975933 13.7153 0.301959 14.1149Z" />
<path d="M12.5244 5.753L5.75342 12.524L7.4759 14.2465L14.2469 7.47549L12.5244 5.753Z" />
<path d="M0.736822 10.2526L0.682156 10.3073C0.161938 10.8275 0.161938 11.6739 0.682156 12.1942L0.861933 12.3739H0.860377L7.62544 19.139V19.1377L7.80522 19.3174C8.32543 19.8377 9.17165 19.8377 9.69209 19.3172L9.74676 19.2626C10.267 18.7423 10.267 17.8959 9.74698 17.3757L2.62392 10.2526C2.10348 9.7324 1.25726 9.7324 0.736822 10.2526Z" />
<path d="M10.3071 0.682293L10.2525 0.73696C9.73225 1.25718 9.73225 2.10362 10.2525 2.62383L17.3758 9.74712C17.896 10.2673 18.7422 10.2673 19.2626 9.74689L19.3173 9.69223C19.8375 9.17201 19.8375 8.32557 19.3175 7.80535L12.1942 0.682293C11.6738 0.162075 10.8276 0.162075 10.3071 0.682293Z" />
<path d="M12.6621 0.294839L19.7063 7.33679C20.1007 6.93346 20.0981 6.28457 19.6981 5.8848L14.1152 0.30195C13.715 -0.0982691 13.0652 -0.100713 12.6621 0.294839Z" />
<path d="M1.82198 18.1778C2.19109 18.5469 2.71864 18.6974 3.2333 18.5805L3.6613 18.4829L1.51687 16.3385L1.41932 16.7665C1.30221 17.2812 1.45287 17.8087 1.82198 18.1778Z" />
<path d="M16.7659 1.41976L16.3379 1.51731L18.4823 3.66174L18.5799 3.23375C18.697 2.71908 18.5463 2.19153 18.1772 1.82242C17.8081 1.45331 17.2805 1.30265 16.7659 1.41976Z" />
</g>
</svg>
