<svg width="17" height="25" viewBox="0 0 17 25" fill="none" xmlns="http://www.w3.org/2000/svg">
<g>
<path d="M16.1865 11.1517C14.8108 10.0923 13.1864 9.96646 12.0514 9.9017C13.024 8.9376 13.6276 7.60174 13.6288 6.12414C13.6288 5.86906 13.6047 5.61979 13.5702 5.37418C14.4224 5.13622 15.0506 4.3383 15.0506 3.38796C15.0518 2.24882 14.1529 1.32536 13.044 1.32474C12.4797 1.32444 11.9705 1.56424 11.6052 1.94884C10.698 1.23035 9.55396 0.797487 8.30764 0.796876C7.05001 0.796265 5.8959 1.23432 4.98421 1.96289C4.61864 1.5673 4.10316 1.31925 3.52997 1.31925C2.42136 1.31864 1.52187 2.24118 1.52157 3.38001C1.52068 4.34502 2.16674 5.15332 3.03858 5.37846C3.00467 5.62071 2.98117 5.86631 2.98087 6.11772C2.97998 7.53423 3.53651 8.81877 4.43838 9.77309C3.41188 9.74743 2.17478 9.84946 1.01798 10.5279C-0.792308 11.5873 -0.123635 14.5206 2.51119 14.2471C2.86933 14.2099 3.20128 14.1479 3.52253 14.0736C3.39284 14.3473 3.27237 14.6479 3.17094 14.9876C3.04244 15.4202 2.99098 16.0024 3.08528 16.6201C2.50435 18.457 2.40827 20.9741 2.81638 22.7612C3.4214 25.4091 6.33999 25.1051 6.72668 23.0019C6.89385 22.0983 6.79004 21.0151 6.58777 19.9883C7.07083 20.087 7.61339 20.1435 8.22346 20.1457C8.81569 20.1481 9.34396 20.098 9.81631 20.0085C9.62714 21.0407 9.5382 22.1288 9.71905 23.0321C10.1358 25.1289 13.0576 25.3892 13.6252 22.7331C13.9916 21.0154 13.8864 18.6357 13.3438 16.8315C13.4797 16.1521 13.4348 15.5008 13.2971 15.0273C13.2156 14.7454 13.1204 14.4906 13.0181 14.2551C13.4006 14.4127 13.8078 14.5453 14.2543 14.651C16.8347 15.2586 17.8538 12.4344 16.1865 11.1517ZM13.0434 2.30747C13.6231 2.30778 14.0928 2.79105 14.0925 3.38673C14.0925 3.87428 13.776 4.28118 13.3435 4.41467C13.1168 3.74567 12.7614 3.13746 12.306 2.61753C12.4961 2.4263 12.756 2.30717 13.0434 2.30747ZM10.6899 4.91444C11.0177 4.91474 11.2833 5.19456 11.2831 5.54067C11.2831 5.88617 11.0168 6.16568 10.6893 6.16568C10.3615 6.16538 10.0956 5.88525 10.0962 5.53975C10.0965 5.19395 10.3624 4.91413 10.6899 4.91444ZM8.3234 5.71143C8.64138 5.71113 8.94835 5.76611 9.23063 5.86509C9.59442 5.99064 9.91685 6.19134 10.1858 6.44123C10.5513 6.7913 10.8116 7.24005 10.91 7.74471C10.9407 7.89134 10.9556 8.0453 10.9559 8.20293C10.955 8.57317 10.8696 8.92355 10.7194 9.23881C10.5855 9.51038 10.4035 9.75476 10.1846 9.9628C9.91447 10.2173 9.59263 10.4137 9.22825 10.5392C8.94597 10.6382 8.6387 10.6911 8.32013 10.6904C8.04082 10.6908 7.77252 10.6504 7.51909 10.5747C7.11277 10.451 6.75226 10.2393 6.45838 9.96096C6.23767 9.75232 6.05474 9.50824 5.92356 9.23637C5.77067 8.9208 5.68709 8.57011 5.68679 8.19957C5.68709 8.04255 5.70255 7.88828 5.73022 7.74165C5.82986 7.23731 6.09014 6.78825 6.46017 6.43878C6.75464 6.16202 7.11486 5.95062 7.52147 5.83057C7.7755 5.75145 8.0435 5.71143 8.3234 5.71143ZM5.88341 4.91138C6.21149 4.91138 6.47712 5.19181 6.47653 5.53762C6.47653 5.88342 6.2106 6.16293 5.88281 6.16263C5.55472 6.16263 5.2891 5.8822 5.28939 5.53639C5.28939 5.1912 5.55532 4.91108 5.88341 4.91138ZM3.26226 4.42078C2.81132 4.2992 2.47728 3.88161 2.47758 3.38032C2.47788 2.78433 2.94845 2.30167 3.52878 2.30197C3.82682 2.30197 4.09423 2.43058 4.2852 2.63525C3.83634 3.15304 3.48624 3.75697 3.26226 4.42078ZM8.14434 18.9173C6.55267 18.9164 5.26352 17.3746 5.26471 15.4736C5.2659 13.5726 6.55684 12.0318 8.1485 12.0327C9.74017 12.0339 11.0296 13.576 11.0284 15.4767C11.0272 17.3777 9.736 18.9182 8.14434 18.9173Z" />
<path d="M7.76639 8.56843C7.77412 8.56843 7.91333 8.56843 8.06384 8.48809C8.11679 8.46029 8.17033 8.4221 8.2206 8.37109C8.25957 8.33137 8.29258 8.28616 8.32114 8.23698C8.35029 8.2883 8.3836 8.33626 8.42406 8.3772C8.61175 8.56873 8.8506 8.56873 8.85982 8.56873C9.00498 8.56904 9.12247 8.53666 9.21766 8.48595C9.44134 8.36742 9.53772 8.14809 9.55854 8.01306C9.56865 7.94861 9.52612 7.88873 9.46335 7.87804C9.40059 7.86766 9.3414 7.91134 9.33039 7.97549C9.32415 8.01184 9.25841 8.33199 8.85923 8.33168C8.85744 8.33199 8.70515 8.32985 8.58736 8.20918C8.4886 8.10807 8.43863 7.95136 8.43863 7.74241C8.43863 7.70728 8.43833 7.67948 8.43833 7.64924C8.47909 7.6306 8.52519 7.60281 8.57843 7.56004C8.57843 7.56004 9.08113 7.14123 9.20398 6.80734C9.21617 6.77373 9.22777 6.74746 9.23194 6.72058L9.2361 6.71783C9.2361 6.71783 9.26704 6.53118 9.11236 6.4988C8.96066 6.46703 8.35743 6.25442 7.56888 6.49086C7.56888 6.49086 7.52992 6.50369 7.50939 6.51652C7.47846 6.53302 7.4029 6.57975 7.40737 6.68301C7.40766 6.68667 7.40737 6.69003 7.40796 6.694C7.40796 6.69492 7.40796 6.69584 7.40796 6.69645C7.41064 6.72822 7.41897 6.76396 7.4389 6.80459C7.50909 6.95335 7.72207 7.23409 7.93951 7.44121C8.02815 7.53041 8.11976 7.60281 8.20751 7.64557C8.20751 7.67459 8.20781 7.70606 8.20781 7.74149C8.20722 8.31091 7.81339 8.32985 7.76788 8.33015C7.36929 8.32985 7.30415 8.01031 7.2979 7.97366C7.28779 7.90951 7.2289 7.86552 7.16613 7.8756C7.10278 7.88598 7.05994 7.94678 7.06976 8.01123C7.09861 8.20399 7.28244 8.56782 7.76639 8.56843Z" />
</g>
</svg>
