<svg width="28" height="28" viewBox="0 0 28 28" fill="none" xmlns="http://www.w3.org/2000/svg">
<path d="M10.5297 5.30808C10.7231 5.30808 10.8797 5.15137 10.8797 4.95808V3.1498C10.8797 2.95652 10.7231 2.7998 10.5297 2.7998C10.3362 2.7998 10.1797 2.95652 10.1797 3.1498V4.95808C10.1797 5.15137 10.3362 5.30808 10.5297 5.30808Z" fill="#8CAAB9"/>
<path d="M12.8432 5.30808C13.0366 5.30808 13.1932 5.15137 13.1932 4.95808V3.1498C13.1932 2.95652 13.0366 2.7998 12.8432 2.7998C12.6497 2.7998 12.4932 2.95652 12.4932 3.1498V4.95808C12.4932 5.15137 12.6497 5.30808 12.8432 5.30808Z" fill="#8CAAB9"/>
<path d="M15.1576 5.30808C15.3511 5.30808 15.5076 5.15137 15.5076 4.95808V3.1498C15.5076 2.95652 15.3511 2.7998 15.1576 2.7998C14.9642 2.7998 14.8076 2.95652 14.8076 3.1498V4.95808C14.8076 5.15137 14.9642 5.30808 15.1576 5.30808Z" fill="#8CAAB9"/>
<path d="M17.4711 5.30808C17.6646 5.30808 17.8211 5.15137 17.8211 4.95808V3.1498C17.8211 2.95652 17.6646 2.7998 17.4711 2.7998C17.2776 2.7998 17.1211 2.95652 17.1211 3.1498V4.95808C17.1211 5.15137 17.2776 5.30808 17.4711 5.30808Z" fill="#8CAAB9"/>
<path d="M10.5297 9.33347C10.7231 9.33347 10.8797 9.17676 10.8797 8.98347V7.1752C10.8797 6.98191 10.7231 6.8252 10.5297 6.8252C10.3362 6.8252 10.1797 6.98191 10.1797 7.1752V8.98347C10.1797 9.17676 10.3362 9.33347 10.5297 9.33347Z" fill="#8CAAB9"/>
<path d="M12.8432 9.33347C13.0366 9.33347 13.1932 9.17676 13.1932 8.98347V7.1752C13.1932 6.98191 13.0366 6.8252 12.8432 6.8252C12.6497 6.8252 12.4932 6.98191 12.4932 7.1752V8.98347C12.4932 9.17676 12.6497 9.33347 12.8432 9.33347Z" fill="#8CAAB9"/>
<path d="M15.1576 9.33347C15.3511 9.33347 15.5076 9.17676 15.5076 8.98347V7.1752C15.5076 6.98191 15.3511 6.8252 15.1576 6.8252C14.9642 6.8252 14.8076 6.98191 14.8076 7.1752V8.98347C14.8076 9.17676 14.9642 9.33347 15.1576 9.33347Z" fill="#8CAAB9"/>
<path d="M17.4711 9.33347C17.6646 9.33347 17.8211 9.17676 17.8211 8.98347V7.1752C17.8211 6.98191 17.6646 6.8252 17.4711 6.8252C17.2776 6.8252 17.1211 6.98191 17.1211 7.1752V8.98347C17.1211 9.17676 17.2776 9.33347 17.4711 9.33347Z" fill="#8CAAB9"/>
<path d="M10.5297 13.3584C10.7231 13.3584 10.8797 13.2017 10.8797 13.0084V11.2001C10.8797 11.0068 10.7231 10.8501 10.5297 10.8501C10.3362 10.8501 10.1797 11.0068 10.1797 11.2001V13.0084C10.1797 13.2017 10.3362 13.3584 10.5297 13.3584Z" fill="#8CAAB9"/>
<path d="M12.8432 13.3584C13.0366 13.3584 13.1932 13.2017 13.1932 13.0084V11.2001C13.1932 11.0068 13.0366 10.8501 12.8432 10.8501C12.6497 10.8501 12.4932 11.0068 12.4932 11.2001V13.0084C12.4932 13.2017 12.6497 13.3584 12.8432 13.3584Z" fill="#8CAAB9"/>
<path d="M15.1576 13.3584C15.3511 13.3584 15.5076 13.2017 15.5076 13.0084V11.2001C15.5076 11.0068 15.3511 10.8501 15.1576 10.8501C14.9642 10.8501 14.8076 11.0068 14.8076 11.2001V13.0084C14.8076 13.2017 14.9642 13.3584 15.1576 13.3584Z" fill="#8CAAB9"/>
<path d="M17.4711 13.3584C17.6646 13.3584 17.8211 13.2017 17.8211 13.0084V11.2001C17.8211 11.0068 17.6646 10.8501 17.4711 10.8501C17.2776 10.8501 17.1211 11.0068 17.1211 11.2001V13.0084C17.1211 13.2017 17.2776 13.3584 17.4711 13.3584Z" fill="#8CAAB9"/>
<path d="M10.5297 17.3833C10.7231 17.3833 10.8797 17.2266 10.8797 17.0333V15.225C10.8797 15.0317 10.7231 14.875 10.5297 14.875C10.3362 14.875 10.1797 15.0317 10.1797 15.225V17.0333C10.1797 17.2266 10.3362 17.3833 10.5297 17.3833Z" fill="#8CAAB9"/>
<path d="M12.8432 17.3833C13.0366 17.3833 13.1932 17.2266 13.1932 17.0333V15.225C13.1932 15.0317 13.0366 14.875 12.8432 14.875C12.6497 14.875 12.4932 15.0317 12.4932 15.225V17.0333C12.4932 17.2266 12.6497 17.3833 12.8432 17.3833Z" fill="#8CAAB9"/>
<path d="M15.1576 17.3833C15.3511 17.3833 15.5076 17.2266 15.5076 17.0333V15.225C15.5076 15.0317 15.3511 14.875 15.1576 14.875C14.9642 14.875 14.8076 15.0317 14.8076 15.225V17.0333C14.8076 17.2266 14.9642 17.3833 15.1576 17.3833Z" fill="#8CAAB9"/>
<path d="M17.4711 17.3833C17.6646 17.3833 17.8211 17.2266 17.8211 17.0333V15.225C17.8211 15.0317 17.6646 14.875 17.4711 14.875C17.2776 14.875 17.1211 15.0317 17.1211 15.225V17.0333C17.1211 17.2266 17.2776 17.3833 17.4711 17.3833Z" fill="#8CAAB9"/>
<path d="M28.0002 24.5C28.0002 23.6436 27.3036 22.9469 26.4471 22.9469C25.5906 22.9469 24.894 23.6436 24.894 24.5C24.894 25.2356 25.4093 25.8503 26.0971 26.0099V27.3H23.4721V23.8187C24.4288 23.652 25.1592 22.8178 25.1592 21.8142C25.1592 20.691 24.2452 19.7772 23.1221 19.7772C21.999 19.7772 21.0853 20.691 21.0853 21.8142C21.0853 22.8178 21.8155 23.652 22.7721 23.8187V27.3H20.2281V0.000151135C20.5 0 20.0716 0 19.8781 0H8.12235C7.92889 0 7.77235 6.49318e-05 7.77235 6.49318e-05V27.3H5.22836V23.8187C6.18498 23.652 6.91512 22.8178 6.91512 21.8142C6.91512 20.691 6.0015 19.7772 4.87836 19.7772C3.75521 19.7772 2.84125 20.691 2.84125 21.8142C2.84125 22.8178 3.57167 23.652 4.52836 23.8187V27.3H1.90336V26.0099C2.5912 25.8503 3.10648 25.2356 3.10648 24.5C3.10648 23.6436 2.4099 22.9469 1.55336 22.9469C0.696813 22.9469 0.000230648 23.6436 0.000230648 24.5C0.000230648 25.2356 0.515511 25.8503 1.20336 26.0099V27.3H0.000451624C0.000451624 27.3 0.000230648 27.4567 0.000230648 27.65C0.000230648 27.8433 0 28 0 28H28.0002C28.0002 28 28.0002 27.8433 28.0002 27.65C28.0002 27.4567 28 27.5 28 27.3H26.7971V26.0099C27.485 25.8503 28.0002 25.2356 28.0002 24.5ZM21.7853 21.8142C21.7853 21.0769 22.3848 20.4772 23.1221 20.4772C23.8594 20.4772 24.4592 21.0769 24.4592 21.8142C24.4592 22.5512 23.8594 23.1509 23.1221 23.1509C22.3848 23.1509 21.7853 22.5512 21.7853 21.8142ZM3.54125 21.8142C3.54125 21.0769 4.1411 20.4772 4.87836 20.4772C5.61561 20.4772 6.21512 21.0769 6.21512 21.8142C6.21512 22.5512 5.61561 23.1509 4.87836 23.1509C4.1411 23.1509 3.54125 22.5512 3.54125 21.8142ZM0.700231 24.5C0.700231 24.0295 1.08304 23.6469 1.55336 23.6469C2.02367 23.6469 2.40648 24.0295 2.40648 24.5C2.40648 24.9705 2.02367 25.3531 1.55336 25.3531C1.08304 25.3531 0.700231 24.9705 0.700231 24.5ZM19.5281 0.7V19.3375H8.47235V0.7H19.5281ZM8.47235 20.0375H19.5281V27.3H16.8819V23.1437C16.8819 22.9505 16.7254 22.7937 16.5319 22.7937H11.4685C11.2751 22.7937 11.1185 22.9505 11.1185 23.1437V27.3H8.47235V20.0375ZM14.3502 23.4937H16.1819V27.3H14.3502V23.4937ZM13.6502 27.3H11.8185V23.4937H13.6502V27.3ZM25.594 24.5C25.594 24.0295 25.9768 23.6469 26.4471 23.6469C26.9174 23.6469 27.3002 24.0295 27.3002 24.5C27.3002 24.9705 26.9174 25.3531 26.4471 25.3531C25.9768 25.3531 25.594 24.9705 25.594 24.5Z" fill="#8CAAB9"/>
</svg>
