<svg width="34" height="43" viewBox="0 0 34 43" fill="none" xmlns="http://www.w3.org/2000/svg">
<path d="M9.27705 15.8457C9.11891 15.8457 8.90807 15.8457 8.5918 15.8987V19.5025C8.85535 19.5025 9.01349 19.5025 9.22433 19.5025C9.85687 19.5025 10.2786 19.2905 10.5421 18.8665C10.753 18.5485 10.8584 18.1245 10.8584 17.5946C10.8584 16.3757 10.3313 15.8457 9.27705 15.8457Z" fill="#072146"/>
<path d="M4.4295 15.8457C4.27137 15.8457 4.06052 15.8457 4.00781 15.8457V17.3296C4.06052 17.3296 4.27137 17.3826 4.37679 17.3826C5.43102 17.3826 5.53645 16.9586 5.53645 16.5877C5.53645 16.3757 5.53645 15.8457 4.4295 15.8457Z" fill="#072146"/>
<path d="M19.187 14.4682C19.187 13.3553 18.2909 12.5073 17.2366 12.5073H1.95032C0.843382 12.5073 0 13.4083 0 14.4682V20.9337C0 22.0467 0.896094 22.8946 1.95032 22.8946H17.2366C18.3436 22.8946 19.187 21.9937 19.187 20.9337V14.4682ZM6.06181 18.0189C5.58741 18.3899 5.00758 18.5489 4.26962 18.5489C4.1642 18.5489 4.00607 18.5489 4.00607 18.5489V20.7748H2.74099V14.8392L3.00455 14.7862C3.53167 14.6802 4.05878 14.6272 4.48047 14.6272C5.21843 14.6272 5.79826 14.7862 6.16724 15.1041C6.58893 15.4751 6.85249 15.8991 6.85249 16.4821C6.79977 17.171 6.58893 17.648 6.06181 18.0189ZM11.4911 19.6618C10.964 20.2978 10.1733 20.6688 9.11908 20.6688C8.80281 20.6688 8.32841 20.6158 7.64316 20.5628L7.48502 20.5098V14.8392L7.64316 14.7862C8.48654 14.6802 9.01365 14.6272 9.32992 14.6272C10.3314 14.6272 11.0694 14.9452 11.5438 15.5281C11.9655 16.0051 12.1236 16.694 12.1236 17.489C12.1236 18.4429 11.9128 19.1319 11.4911 19.6618ZM16.446 15.8991H13.9158V17.012H16.2351V18.2839H13.9158V20.7748H12.598V14.7862H16.446V15.8991Z" fill="#072146"/>
<path d="M20.245 0V0.0529966H6.171C5.06406 0.0529966 4.16797 0.900938 4.16797 1.96087V11.5002H5.80202V2.9678C5.80202 2.22585 6.38185 1.64289 7.11981 1.64289H20.245V10.9172C20.245 11.9772 21.1411 12.9311 22.1953 12.9311H31.4198V35.6665C31.4198 36.4085 30.84 36.9915 30.102 36.9915H24.1983C24.1456 37.0445 24.1456 37.0974 24.0929 37.1504L22.986 38.5813H31.0508C32.1577 38.5813 33.0011 37.6804 33.0011 36.5675V12.8781L20.245 0Z" fill="#072146"/>
<path d="M13.0235 37.0445H7.11981C6.38185 37.0445 5.80202 36.4615 5.80202 35.7196V23.7954H4.16797V36.6205C4.16797 37.7335 5.06406 38.6344 6.171 38.6344H14.2359L13.1289 37.2035C13.1289 37.1505 13.0762 37.0975 13.0235 37.0445Z" fill="#072146"/>
<path d="M22.877 35.8253H20.7685V28.5118C20.7685 28.0348 20.3996 27.6108 19.9252 27.6108H17.2896C16.8152 27.6108 16.3935 28.0348 16.3935 28.5118V35.8253H14.285C13.8633 35.8253 13.5998 36.3022 13.8633 36.6202L18.133 42.2378C18.3438 42.5028 18.7655 42.5028 18.9763 42.2378L23.246 36.6202C23.5622 36.3022 23.2987 35.8253 22.877 35.8253Z" fill="#072146"/>
</svg>
