<svg width="28" height="28" viewBox="0 0 28 28" fill="none" xmlns="http://www.w3.org/2000/svg">
<path d="M19.8422 14.4377H21.1393C21.3553 16.1318 22.8024 17.4462 24.5539 17.4462C26.4542 17.4462 28 15.9004 28 14C28 12.0996 26.4542 10.5538 24.5539 10.5538C22.8024 10.5538 21.3553 11.8682 21.1393 13.5623H19.8422C19.7465 12.2744 19.2355 11.1028 18.4394 10.1794L19.3575 9.26135C19.9584 9.7274 20.6902 9.98303 21.463 9.98303C22.3831 9.98303 23.2486 9.62467 23.8994 8.9739C25.2429 7.63034 25.2429 5.4437 23.8994 4.10043C23.2489 3.44995 22.3837 3.0913 21.463 3.0913C20.5423 3.0913 19.677 3.44995 19.026 4.10072C18.3749 4.75149 18.0169 5.61704 18.0169 6.53746C18.0169 7.30992 18.2725 8.04211 18.7386 8.64268L17.8205 9.56076C16.8972 8.76466 15.7255 8.25368 14.4377 8.15796V6.8608C16.1317 6.64485 17.4461 5.19769 17.4461 3.44616C17.4461 1.5458 15.9003 0 14 0C12.0997 0 10.5539 1.5455 10.5539 3.44587C10.5539 5.1974 11.8683 6.64456 13.5623 6.86051V8.15767C12.2745 8.25339 11.1028 8.76437 10.1795 9.56047L9.26116 8.6421C10.3062 7.29182 10.2122 5.33893 8.97401 4.10043C8.32354 3.44995 7.45801 3.0913 6.53761 3.0913C5.61693 3.0913 4.75139 3.44995 4.10064 4.10072C3.44988 4.7512 3.09153 5.61646 3.09124 6.53746C3.09124 7.45787 3.44988 8.32343 4.10034 8.97419C4.7511 9.62496 5.61634 9.98333 6.53674 9.98333C7.30947 9.98333 8.04165 9.72769 8.6425 9.26164L9.56056 10.1797C8.76448 11.1031 8.25351 12.2747 8.15779 13.5626H6.86066C6.64471 11.8685 5.19758 10.5541 3.44609 10.5541C1.54576 10.5538 0 12.0996 0 14C0 15.9004 1.54576 17.4462 3.44609 17.4462C5.19758 17.4462 6.64471 16.1318 6.86066 14.4377H8.15779C8.25351 15.7256 8.76448 16.8972 9.56056 17.8206L8.6425 18.7387C8.04165 18.2726 7.30977 18.017 6.53703 18.017C5.61693 18.017 4.75139 18.3753 4.10064 19.0261C2.7571 20.3697 2.7571 22.5563 4.10064 23.8996C4.7511 24.55 5.61634 24.9087 6.53703 24.9087C7.45772 24.9087 8.32296 24.55 8.97401 23.8993C10.2122 22.6608 10.3059 20.7079 9.26116 19.3576L10.1795 18.4392C11.1028 19.2353 12.2745 19.7463 13.5623 19.842V21.1392C11.8683 21.3552 10.5539 22.8023 10.5539 24.5538C10.5539 26.4542 12.0997 28 14 28C15.9003 28 17.4461 26.4542 17.4461 24.5538C17.4461 22.8023 16.1317 21.3552 14.4377 21.1392V19.8423C15.7255 19.7466 16.8972 19.2356 17.8205 18.4395L18.7388 19.3579C17.6941 20.7082 17.7878 22.6611 19.026 23.8996C19.6765 24.5503 20.542 24.9087 21.4627 24.9087C22.3834 24.9087 23.2486 24.5503 23.8994 23.8996C25.2429 22.556 25.2429 20.3697 23.8997 19.0261C23.2489 18.3753 22.3837 18.017 21.4633 18.017C20.6905 18.017 19.9584 18.2726 19.3575 18.7387L18.4394 17.8206C19.2352 16.8972 19.7462 15.7256 19.8422 14.4377ZM24.5539 11.4293C25.9713 11.4293 27.1245 12.5823 27.1245 14C27.1245 15.4177 25.9716 16.5707 24.5539 16.5707C23.1368 16.5707 21.9836 15.4177 21.9836 14C21.9836 12.5823 23.1368 11.4293 24.5539 11.4293ZM19.6452 4.71939C20.1308 4.23379 20.7763 3.96648 21.463 3.96648C22.1496 3.96648 22.7948 4.23379 23.2804 4.7191C24.2828 5.72152 24.2825 7.35194 23.2804 8.35465C22.7948 8.83996 22.1496 9.10727 21.463 9.10727C20.7763 9.10727 20.1311 8.83996 19.6452 8.35436C19.1596 7.86905 18.8923 7.22354 18.8923 6.53688C18.8923 5.85021 19.1599 5.20499 19.6452 4.71939ZM11.4294 3.44587C11.4294 2.02847 12.5823 0.875182 14 0.875182C15.4177 0.875182 16.5706 2.02818 16.5706 3.44587C16.5706 4.86297 15.4177 6.01626 14 6.01626C12.5823 6.01626 11.4294 4.86297 11.4294 3.44587ZM4.71929 8.35465C4.234 7.86935 3.96669 7.22383 3.96669 6.53688C3.96669 5.84992 4.23429 5.2047 4.71958 4.7191C5.20517 4.2335 5.85067 3.96619 6.53732 3.96619C7.22397 3.96619 7.86918 4.2335 8.35477 4.71881C9.35687 5.72122 9.35687 7.35194 8.35448 8.35407C7.86889 8.83966 7.22339 9.10698 6.53674 9.10698C5.85009 9.10727 5.20488 8.83996 4.71929 8.35465ZM3.44609 16.5707C2.02872 16.5707 0.875456 15.4177 0.875456 14C0.875456 12.5823 2.02843 11.4293 3.44609 11.4293C4.86316 11.4293 6.01643 12.5823 6.01643 14C6.01643 15.4177 4.86316 16.5707 3.44609 16.5707ZM8.35477 23.2806C7.86918 23.7662 7.22368 24.0335 6.53703 24.0335C5.85038 24.0335 5.20517 23.7662 4.71958 23.2809C3.71719 22.2785 3.71748 20.6481 4.71958 19.6454C5.20517 19.16 5.85038 18.8927 6.53703 18.8927C7.22368 18.8927 7.86889 19.16 8.35477 19.6456C9.35658 20.6475 9.35687 22.2782 8.35477 23.2806ZM16.5706 24.5541C16.5706 25.9715 15.4177 27.1248 14 27.1248C12.5823 27.1248 11.4294 25.9718 11.4294 24.5541C11.4294 23.137 12.5823 21.9837 14 21.9837C15.4177 21.9837 16.5706 23.137 16.5706 24.5541ZM14 18.989C11.249 18.989 9.01107 16.751 9.01107 14C9.01107 11.249 11.249 9.01096 14 9.01096C16.751 9.01096 18.9889 11.249 18.9889 14C18.9889 16.751 16.751 18.989 14 18.989ZM23.2807 19.6454C24.2828 20.6478 24.2828 22.2785 23.2804 23.2809C22.7951 23.7662 22.1496 24.0335 21.4627 24.0335C20.7757 24.0335 20.1305 23.7662 19.6449 23.2809C18.6428 22.2785 18.6428 20.6481 19.6452 19.6456C20.1308 19.16 20.7763 18.8927 21.463 18.8927C22.1499 18.8927 22.7951 19.16 23.2807 19.6454Z" fill="#8CAAB9"/>
</svg>
