<svg viewBox="0 0 13 14" fill="none" xmlns="http://www.w3.org/2000/svg">
<path d="M12.8666 11.1133C12.1303 12.8968 10.4037 13.2094 9.83952 13.2094C9.67384 13.2094 7.09363 13.3476 3.38459 9.79323C0.399654 6.93278 0.0349333 3.8568 0.00315556 3.27237C-0.0277555 2.70311 0.133589 1.27508 2.0781 0.214046C2.31903 0.0825661 2.79671 0.0243415 2.92006 0.148963C2.97481 0.204269 4.60688 2.91747 4.64978 3.00737C4.69268 3.09711 4.7142 3.18554 4.7142 3.27222C4.7142 3.39611 4.62681 3.55109 4.45189 3.737C4.27711 3.92291 4.08703 4.09335 3.88148 4.24818C3.67594 4.40315 3.48585 4.56732 3.31093 4.74082C3.13615 4.91418 3.04876 5.0569 3.04876 5.16839C3.06061 5.45776 3.29533 6.49427 5.0834 8.08151C6.87177 9.66919 7.73323 10.1165 7.816 10.1474C7.89891 10.1783 7.96781 10.1936 8.02299 10.1936C8.13348 10.1936 8.27461 10.1055 8.44635 9.92894C8.61795 9.75222 9.19529 8.95284 9.37932 8.77612C9.56334 8.5997 9.71674 8.51141 9.83952 8.51141C9.92532 8.51141 10.0127 8.53301 10.1015 8.57635C10.1905 8.61969 12.8796 10.2094 12.9311 10.2625C13.0706 10.407 12.9721 10.8579 12.8666 11.1133Z" />
</svg>
