<svg width="30" height="27" viewBox="0 0 30 27" fill="none" xmlns="http://www.w3.org/2000/svg">
<path d="M0.455317 13.4481L3.69431 14.7704L4.94799 19.1807C5.02821 19.4631 5.34398 19.5675 5.55356 19.3801L7.35903 17.7701C7.54828 17.6014 7.81785 17.593 8.01563 17.7501L11.272 20.3362C11.4963 20.5144 11.8139 20.38 11.8701 20.0837L14.2556 7.53209C14.317 7.20837 14.0262 6.93832 13.7444 7.05753L0.451522 12.6668C0.123481 12.8052 0.126339 13.3132 0.455317 13.4481ZM4.74595 14.0665L11.0761 9.80182C11.1899 9.7254 11.307 9.89366 11.2093 9.99279L5.98502 15.3047C5.80139 15.4917 5.68294 15.7419 5.64939 16.0135L5.47143 17.4561C5.44786 17.6487 5.2005 17.6678 5.15191 17.4814L4.46748 14.8508C4.38909 14.5508 4.50333 14.2303 4.74595 14.0665Z" fill="white"/>
</svg>
