<svg width="28" height="28" viewBox="0 0 28 28" fill="none" xmlns="http://www.w3.org/2000/svg">
<path d="M20.687 10.4306L20.6829 10.4139C20.3451 9.04844 18.8224 7.58332 17.4241 7.27851L17.4083 7.27525C15.1465 6.8438 12.8532 6.8438 10.5919 7.27525L10.5757 7.27851C9.17783 7.58332 7.65509 9.04854 7.3169 10.4139L7.31315 10.4306C6.89562 12.3374 6.89562 14.2712 7.31315 16.178L7.3169 16.1947C7.64072 17.5018 9.04999 18.8996 10.3962 19.284V20.8082C10.3962 21.3599 11.0684 21.6308 11.4507 21.2327L12.995 19.6275C13.33 19.6462 13.6651 19.6567 14.0001 19.6567C15.1386 19.6567 16.2776 19.549 17.4083 19.3333L17.424 19.3301C18.8224 19.0253 20.3451 17.56 20.6828 16.1947L20.687 16.178C21.1045 14.2712 21.1045 12.3375 20.687 10.4306ZM19.4649 15.9015C19.2394 16.7923 18.0832 17.8997 17.1646 18.1044C15.9621 18.3331 14.7499 18.4308 13.539 18.3973C13.5149 18.3966 13.4917 18.406 13.475 18.4232C13.3031 18.5996 12.3474 19.5807 12.3474 19.5807L11.1482 20.8116C11.0605 20.9031 10.9064 20.8408 10.9064 20.7146V18.1897C10.9064 18.148 10.8767 18.1126 10.8357 18.1045C10.8354 18.1044 10.8352 18.1044 10.835 18.1043C9.91636 17.8997 8.76064 16.7923 8.53474 15.9015C8.15893 14.1779 8.15893 12.4306 8.53474 10.7071C8.76064 9.81625 9.91636 8.70882 10.835 8.5042C12.9353 8.10474 15.0648 8.10474 17.1647 8.5042C18.0837 8.70882 19.2394 9.81625 19.4649 10.7071C19.8411 12.4307 19.8411 14.1779 19.4649 15.9015Z" fill="white"/>
<path d="M15.9983 17.0695C15.8571 17.0266 15.7225 16.9978 15.5975 16.9461C14.3022 16.4087 13.1103 15.7154 12.1661 14.6528C11.6292 14.0485 11.209 13.3663 10.8537 12.6443C10.6853 12.3019 10.5433 11.9461 10.3986 11.5926C10.2666 11.2702 10.461 10.9372 10.6656 10.6943C10.8576 10.4663 11.1048 10.2919 11.3724 10.1633C11.5813 10.063 11.7873 10.1208 11.9398 10.2979C12.2696 10.6806 12.5726 11.083 12.8178 11.5267C12.9686 11.7996 12.9272 12.1332 12.6538 12.3189C12.5874 12.364 12.5268 12.417 12.465 12.468C12.4106 12.5127 12.3596 12.5578 12.3224 12.6183C12.2544 12.7289 12.2511 12.8595 12.2949 12.9799C12.632 13.9062 13.2001 14.6267 14.1326 15.0147C14.2818 15.0768 14.4317 15.149 14.6036 15.129C14.8915 15.0954 14.9847 14.7796 15.1864 14.6146C15.3836 14.4534 15.6356 14.4513 15.848 14.5857C16.0605 14.7202 16.2664 14.8645 16.4711 15.0104C16.6721 15.1536 16.8721 15.2935 17.0574 15.4568C17.2356 15.6138 17.297 15.8197 17.1966 16.0327C17.013 16.4228 16.7456 16.7473 16.36 16.9544C16.2511 17.0128 16.1211 17.0317 15.9983 17.0695C15.8571 17.0266 16.1211 17.0317 15.9983 17.0695Z" fill="white"/>
<path d="M14.0045 9.71795C15.6986 9.76546 17.0901 10.8897 17.3883 12.5646C17.4391 12.85 17.4572 13.1417 17.4798 13.4314C17.4893 13.5532 17.4203 13.669 17.2888 13.6706C17.1531 13.6722 17.092 13.5586 17.0831 13.4368C17.0657 13.1958 17.0536 12.9536 17.0203 12.7146C16.845 11.4526 15.8387 10.4085 14.5825 10.1845C14.3935 10.1507 14.2001 10.1419 14.0086 10.1218C13.8875 10.1091 13.729 10.1018 13.7022 9.95131C13.6798 9.82515 13.7862 9.72472 13.9064 9.71825C13.9389 9.71633 13.9717 9.71786 14.0045 9.71795C15.6987 9.76546 13.9717 9.71786 14.0045 9.71795Z" fill="white"/>
<path d="M16.5786 13.0552C16.5758 13.0764 16.5743 13.1261 16.5619 13.1729C16.5169 13.343 16.259 13.3642 16.1997 13.1927C16.1821 13.1417 16.1795 13.0838 16.1794 13.029C16.1788 12.6702 16.1008 12.3117 15.9198 11.9995C15.7338 11.6786 15.4496 11.409 15.1164 11.2457C14.9148 11.147 14.6969 11.0856 14.476 11.0491C14.3795 11.0331 14.2819 11.0235 14.1849 11.01C14.0673 10.9936 14.0045 10.9187 14.0101 10.8029C14.0153 10.6944 14.0946 10.6162 14.213 10.623C14.6017 10.645 14.9773 10.7291 15.323 10.9121C16.0258 11.2844 16.4273 11.8719 16.5445 12.6564C16.5498 12.692 16.5583 12.7272 16.561 12.7628C16.5677 12.8508 16.5719 12.939 16.5786 13.0552C16.5758 13.0763 16.5719 12.939 16.5786 13.0552Z" fill="white"/>
<path d="M15.5253 13.0124C15.3836 13.015 15.3077 12.9365 15.2931 12.8066C15.2829 12.716 15.2748 12.6242 15.2532 12.536C15.2107 12.3624 15.1184 12.2015 14.9723 12.0951C14.9034 12.0449 14.8252 12.0083 14.7434 11.9846C14.6395 11.9545 14.5314 11.9628 14.4278 11.9374C14.3152 11.9098 14.2528 11.8186 14.2706 11.713C14.2867 11.6168 14.3802 11.5417 14.4853 11.5494C15.1421 11.5968 15.6116 11.9363 15.6786 12.7096C15.6833 12.7641 15.6889 12.8218 15.6768 12.8741C15.6559 12.9633 15.5898 13.0081 15.5253 13.0124C15.3835 13.0149 15.5898 13.0081 15.5253 13.0124Z" fill="white"/>
<path d="M15.9984 17.0692C16.1227 17.031 15.8554 17.0258 15.9984 17.0692V17.0692Z" fill="white"/>
<path d="M14.007 9.71768C14.0055 9.71768 14.004 9.71737 14.0025 9.71737C14.001 9.71716 14.0029 9.71737 14.007 9.71768Z" fill="white"/>
<path d="M14.0039 9.71729C14.0053 9.71729 14.0067 9.71743 14.0082 9.71743C14.1022 9.72079 15.6313 9.76291 14.0039 9.71729Z" fill="white"/>
<path d="M16.58 13.0558C16.5731 12.9366 16.5771 13.0775 16.58 13.0558V13.0558Z" fill="white"/>
<path d="M15.5252 13.015C15.5276 13.0147 15.5299 13.0122 15.5321 13.0117C15.5257 13.0117 15.5159 13.012 15.5059 13.0128C15.5124 13.0131 15.5184 13.0151 15.5252 13.015Z" fill="white"/>
<path d="M15.5268 13.0138C15.5203 13.0141 15.5145 13.0121 15.5082 13.0117C15.4768 13.0134 15.4443 13.0168 15.5268 13.0138Z" fill="white"/>
<path d="M15.5351 13.0127C15.5324 13.0133 15.5299 13.016 15.5273 13.0164C15.5472 13.0136 15.5455 13.0127 15.5351 13.0127Z" fill="white"/>
</svg>
