<svg width="13" height="11" viewBox="0 0 13 11" fill="none" xmlns="http://www.w3.org/2000/svg">
<path d="M11.7 0H1.3C0.585 0 0 0.585 0 1.3V9.1C0 9.815 0.585 10.4 1.3 10.4H11.7C12.415 10.4 13 9.815 13 9.1V1.3C13 0.585 12.415 0 11.7 0ZM11.44 2.7625L7.189 5.421C6.7665 5.6875 6.2335 5.6875 5.811 5.421L1.56 2.7625C1.49482 2.72591 1.43775 2.67648 1.39223 2.61719C1.34671 2.55791 1.31369 2.49001 1.29517 2.41759C1.27666 2.34518 1.27303 2.26976 1.2845 2.1959C1.29598 2.12204 1.32232 2.05128 1.36193 1.9879C1.40155 1.92451 1.45361 1.86983 1.51497 1.82715C1.57633 1.78447 1.64572 1.75468 1.71892 1.73959C1.79213 1.72451 1.86763 1.72443 1.94087 1.73937C2.01411 1.7543 2.08355 1.78395 2.145 1.8265L6.5 4.55L10.855 1.8265C10.9164 1.78395 10.9859 1.7543 11.0591 1.73937C11.1324 1.72443 11.2079 1.72451 11.2811 1.73959C11.3543 1.75468 11.4237 1.78447 11.485 1.82715C11.5464 1.86983 11.5985 1.92451 11.6381 1.9879C11.6777 2.05128 11.704 2.12204 11.7155 2.1959C11.727 2.26976 11.7233 2.34518 11.7048 2.41759C11.6863 2.49001 11.6533 2.55791 11.6078 2.61719C11.5623 2.67648 11.5052 2.72591 11.44 2.7625Z" fill="#9AB4C1"/>
</svg>
