<svg width="10" height="14" viewBox="0 0 10 14" fill="none" xmlns="http://www.w3.org/2000/svg">
<path d="M5 14C1.66643 9.737 0 6.7039 0 4.9C-9.78424e-09 4.25652 0.129329 3.61935 0.380602 3.02485C0.631876 2.43036 1.00017 1.89018 1.46447 1.43518C1.92876 0.98017 2.47995 0.619238 3.08658 0.37299C3.69321 0.126742 4.34339 0 5 0C5.65661 0 6.30679 0.126742 6.91342 0.37299C7.52005 0.619238 8.07124 0.98017 8.53553 1.43518C8.99983 1.89018 9.36812 2.43036 9.6194 3.02485C9.87067 3.61935 10 4.25652 10 4.9C10 6.7039 8.33357 9.737 5 14ZM5 7.7C5.75776 7.7 6.48449 7.405 7.02031 6.8799C7.55612 6.3548 7.85714 5.64261 7.85714 4.9C7.85714 4.15739 7.55612 3.4452 7.02031 2.9201C6.48449 2.395 5.75776 2.1 5 2.1C4.24224 2.1 3.51551 2.395 2.97969 2.9201C2.44388 3.4452 2.14286 4.15739 2.14286 4.9C2.14286 5.64261 2.44388 6.3548 2.97969 6.8799C3.51551 7.405 4.24224 7.7 5 7.7Z" fill="#C4C4C4"/>
</svg>
