<svg width="14.495mm" height="14.479mm" version="1.1" viewBox="0 0 14.495 14.479" xmlns="http://www.w3.org/2000/svg">
 <g transform="translate(-10.14 -16.106)" fill="none">
  <g transform="matrix(.26458 0 0 .26458 9.9788 16.08)">
   <path d="m28.392 52.855c-1.7292-6.657-4.7187-12.046-9.0056-16.279-4.3491-4.2943-10.008-7.3738-16.978-9.3945 6.8116-1.9645 12.319-5.0257 16.616-9.246 4.3038-4.2272 7.3695-9.5946 9.3235-16.131 2.0338 6.4753 5.1 11.851 9.303 16.098 4.1949 4.2383 9.5027 7.3319 15.999 9.2788-6.5533 1.9662-12.002 5.0365-16.258 9.332-4.2047 4.2442-7.2231 9.663-9.0006 16.342z" fill="#f7d323" stroke="#f7d323"/>
  </g>
  <g transform="matrix(.26458 0 0 .26458 7.5691 22.175)">
   <path d="m37.569 0.26709-0.688 0.7 2.7272 2.8h-39.608v1h39.608l-2.7272 2.8 0.688 0.7 3.931-4z" fill="#072146"/>
  </g>
 </g>
</svg>
