<svg width="13" height="13" viewBox="0 0 13 13" fill="none" xmlns="http://www.w3.org/2000/svg">
<path d="M12.8194 10.8101L10.9865 12.6282C10.716 12.9057 10.3573 12.9997 10.0081 13.0001C8.46357 12.9539 7.00364 12.1952 5.80496 11.4161C3.83739 9.98472 2.03205 8.20984 0.898995 6.06497C0.464427 5.16555 -0.0454764 4.01797 0.00324112 3.01405C0.00758528 2.6364 0.109354 2.26576 0.375323 2.02234L2.20817 0.190408C2.58877 -0.133324 2.95683 -0.0213945 3.20039 0.355692L4.67492 3.1518C4.83012 3.48305 4.74109 3.83797 4.50954 4.07467L3.83428 4.74958C3.79259 4.80669 3.76605 4.87169 3.76538 4.94243C4.02431 5.94475 4.80877 6.86858 5.50175 7.50436C6.19473 8.14015 6.93961 9.0015 7.90651 9.20542C8.02602 9.23875 8.17241 9.25047 8.25792 9.17098L9.04344 8.3721C9.31423 8.16686 9.70521 8.06654 9.99429 8.23436H10.0081L12.6678 9.80458C13.0582 10.0493 13.0989 10.5223 12.8194 10.8101Z" fill="#9AB4C1"/>
</svg>
