<svg width="57" height="82" viewBox="0 0 57 82" fill="none" xmlns="http://www.w3.org/2000/svg">
<path d="M28.5 0C36.0587 0 43.3078 3.02374 48.6525 8.40603C53.9973 13.7883 57 21.0883 57 28.7C57 50.225 28.5 82 28.5 82C28.5 82 0 50.225 0 28.7C0 21.0883 3.00267 13.7883 8.34746 8.40603C13.6922 3.02374 20.9413 0 28.5 0Z" fill="#072146"/>
<path d="M13.2328 16.2891H14.8461C15.6039 16.2891 16.1521 16.4023 16.4906 16.6289C16.8292 16.8555 16.9984 17.2135 16.9984 17.7031C16.9984 18.0417 16.9034 18.3216 16.7133 18.543C16.5258 18.7617 16.251 18.9036 15.8891 18.9688V19.0078C16.7563 19.1562 17.1898 19.612 17.1898 20.375C17.1898 20.8854 17.0167 21.2839 16.6703 21.5703C16.3266 21.8568 15.8448 22 15.225 22H13.2328V16.2891ZM13.8969 18.7344H14.9906C15.4594 18.7344 15.7966 18.6615 16.0023 18.5156C16.2081 18.3672 16.3109 18.1185 16.3109 17.7695C16.3109 17.4492 16.1964 17.2188 15.9672 17.0781C15.738 16.9349 15.3734 16.8633 14.8734 16.8633H13.8969V18.7344ZM13.8969 19.2969V21.4336H15.0883C15.5492 21.4336 15.8956 21.3451 16.1273 21.168C16.3617 20.9883 16.4789 20.7083 16.4789 20.3281C16.4789 19.974 16.3591 19.7135 16.1195 19.5469C15.8826 19.3802 15.5206 19.2969 15.0336 19.2969H13.8969ZM19.2203 22V16.2891H19.8844V22H19.2203ZM26.7586 23.4883H26.1258V22H22.157V23.4883H21.5242V21.3984H21.9656C22.3667 20.724 22.7091 19.9036 22.993 18.9375C23.2794 17.9714 23.4383 17.0885 23.4695 16.2891H26.0359V21.3984H26.7586V23.4883ZM25.3719 21.3984V16.8867H24.0711C24.0242 17.5169 23.8667 18.2747 23.5984 19.1602C23.3302 20.043 23.0177 20.7891 22.6609 21.3984H25.3719ZM33.0273 23.4883H32.3945V22H28.4258V23.4883H27.793V21.3984H28.2344C28.6354 20.724 28.9779 19.9036 29.2617 18.9375C29.5482 17.9714 29.707 17.0885 29.7383 16.2891H32.3047V21.3984H33.0273V23.4883ZM31.6406 21.3984V16.8867H30.3398C30.293 17.5169 30.1354 18.2747 29.8672 19.1602C29.599 20.043 29.2865 20.7891 28.9297 21.3984H31.6406ZM34.7922 22V16.2891H35.4563V22H34.7922ZM41.8891 22H41.225V16.8789H39.3695L39.2484 17.8164C39.0896 19.0638 38.949 19.9766 38.8266 20.5547C38.7068 21.1302 38.5479 21.5312 38.35 21.7578C38.1521 21.9844 37.8891 22.0951 37.5609 22.0898C37.3682 22.0898 37.1951 22.0573 37.0414 21.9922V21.4336C37.182 21.5013 37.3292 21.5352 37.4828 21.5352C37.6208 21.5352 37.7406 21.4792 37.8422 21.3672C37.9464 21.2526 38.0375 21.056 38.1156 20.7773C38.1964 20.4961 38.2966 19.9648 38.4164 19.1836C38.5388 18.3997 38.6729 17.4349 38.8187 16.2891H41.8891V22ZM10.4461 37H9.78203V31.8789H6.84844V37H6.18438V31.2891H10.4461V37ZM16.4414 32.9531C16.4414 33.5312 16.2435 33.9766 15.8477 34.2891C15.4544 34.599 14.8906 34.7539 14.1563 34.7539H13.4844V37H12.8203V31.2891H14.3008C15.7279 31.2891 16.4414 31.8438 16.4414 32.9531ZM13.4844 34.1836H14.082C14.6706 34.1836 15.0964 34.0885 15.3594 33.8984C15.6224 33.7083 15.7539 33.4036 15.7539 32.9844C15.7539 32.6068 15.6302 32.3255 15.3828 32.1406C15.1354 31.9557 14.75 31.8633 14.2266 31.8633H13.4844V34.1836ZM23.3977 34.1367C23.3977 35.0508 23.1659 35.7695 22.7023 36.293C22.2414 36.8164 21.5995 37.0781 20.7766 37.0781C19.9354 37.0781 19.2857 36.8216 18.8273 36.3086C18.3716 35.793 18.1438 35.0664 18.1438 34.1289C18.1438 33.1992 18.3729 32.4792 18.8313 31.9688C19.2896 31.4557 19.9406 31.1992 20.7844 31.1992C21.6047 31.1992 22.2453 31.4596 22.7063 31.9805C23.1672 32.5013 23.3977 33.2201 23.3977 34.1367ZM18.8469 34.1367C18.8469 34.9102 19.0109 35.4974 19.3391 35.8984C19.6698 36.2969 20.149 36.4961 20.7766 36.4961C21.4094 36.4961 21.8872 36.2969 22.2102 35.8984C22.5331 35.5 22.6945 34.9128 22.6945 34.1367C22.6945 33.3685 22.5331 32.7865 22.2102 32.3906C21.8898 31.9922 21.4146 31.793 20.7844 31.793C20.1516 31.793 19.6698 31.9935 19.3391 32.3945C19.0109 32.793 18.8469 33.3737 18.8469 34.1367ZM29.9789 38.4883H29.3461V37H25.3773V38.4883H24.7445V36.3984H25.1859C25.587 35.724 25.9294 34.9036 26.2133 33.9375C26.4997 32.9714 26.6586 32.0885 26.6898 31.2891H29.2563V36.3984H29.9789V38.4883ZM28.5922 36.3984V31.8867H27.2914C27.2445 32.5169 27.087 33.2747 26.8188 34.1602C26.5505 35.043 26.238 35.7891 25.8813 36.3984H28.5922ZM35.3336 37L34.6227 35.1836H32.3336L31.6305 37H30.9586L33.2164 31.2656H33.775L36.0211 37H35.3336ZM34.4156 34.5859L33.7516 32.8164C33.6656 32.5924 33.5771 32.3177 33.4859 31.9922C33.4286 32.2422 33.3466 32.5169 33.2398 32.8164L32.568 34.5859H34.4156ZM39.157 34.0625L36.9109 31.2891H37.6531L39.8758 34.0547V31.2891H40.5164V34.0547L42.743 31.2891H43.4852L41.2352 34.0547L43.5555 37H42.7898L40.5164 34.1055V37H39.8758V34.1055L37.6063 37H36.8289L39.157 34.0625ZM45.1641 37V31.2891H45.8281V37H45.1641ZM48.1984 31.2891H49.8117C50.5695 31.2891 51.1177 31.4023 51.4562 31.6289C51.7948 31.8555 51.9641 32.2135 51.9641 32.7031C51.9641 33.0417 51.869 33.3216 51.6789 33.543C51.4914 33.7617 51.2167 33.9036 50.8547 33.9688V34.0078C51.7219 34.1562 52.1555 34.612 52.1555 35.375C52.1555 35.8854 51.9823 36.2839 51.6359 36.5703C51.2922 36.8568 50.8104 37 50.1906 37H48.1984V31.2891ZM48.8625 33.7344H49.9562C50.425 33.7344 50.7622 33.6615 50.968 33.5156C51.1737 33.3672 51.2766 33.1185 51.2766 32.7695C51.2766 32.4492 51.162 32.2188 50.9328 32.0781C50.7036 31.9349 50.3391 31.8633 49.8391 31.8633H48.8625V33.7344ZM48.8625 34.2969V36.4336H50.0539C50.5148 36.4336 50.8612 36.3451 51.093 36.168C51.3273 35.9883 51.4445 35.7083 51.4445 35.3281C51.4445 34.974 51.3247 34.7135 51.0852 34.5469C50.8482 34.3802 50.4862 34.2969 49.9992 34.2969H48.8625Z" fill="#FBFBFB"/>
</svg>
