<svg width="57" height="82" viewBox="0 0 57 82" fill="none" xmlns="http://www.w3.org/2000/svg">
<path d="M28.5 0C36.0587 0 43.3078 3.02374 48.6525 8.40603C53.9973 13.7883 57 21.0883 57 28.7C57 50.225 28.5 82 28.5 82C28.5 82 0 50.225 0 28.7C0 21.0883 3.00267 13.7883 8.34746 8.40603C13.6922 3.02374 20.9413 0 28.5 0Z" fill="#072146"/>
<path d="M42.8959 36.6001C42.7323 36.1829 43.0776 31.0021 39.7317 26.5293C39.7317 26.5293 37.5718 23.0072 34.1512 20.9526C34.7413 21.0659 35.1915 21.3 36.3242 21.3155C37.0591 21.3259 36.8162 19.3472 35.8961 18.941L35.1132 18.5955C33.5756 16.4876 29.6591 11.4214 27.8922 13.2551C27.1339 12.8244 25.3901 12.4062 22.6596 12C21.9112 13.083 21.5551 13.9374 21.59 14.5622C24.5785 19.4683 25.9871 25.2642 25.9818 30.5994C25.9818 30.6272 26.0173 30.6362 26.0321 30.6127C26.5748 29.7593 27.2142 29.0247 27.7461 28.4477C27.2179 29.4473 26.843 30.2317 26.7808 30.3534C26.12 31.6498 25.7205 34.0925 25.6188 34.4306C25.5237 34.7473 25.2199 35.0292 25.0245 35.2914C24.5555 35.9204 24.1066 36.5517 23.5718 37.13C23.0703 37.6725 22.7938 38.4103 22.3397 39.0083C21.8632 39.6357 21.3978 40.266 20.9552 40.9172C20.6975 41.2966 20.5455 41.4138 20.1496 41.6279C19.8893 41.769 19.5951 41.9547 19.3858 42.1668C19.0001 42.5585 19.0471 43.0206 19.1175 43.5311C19.2469 43.4523 19.3762 43.3732 19.5055 43.2944C19.5055 43.7761 19.55 44.0474 19.7514 44.4888C20.1417 43.9108 20.6607 43.4106 21.3366 43.173C22.1021 42.904 22.8778 42.884 23.6363 42.5553C23.8121 42.4791 23.9835 42.4119 24.152 42.346C24.235 42.3267 24.3172 42.307 24.4041 42.2889C24.5591 42.244 24.7135 42.1982 24.8671 42.1494C25.1558 42.0667 25.4398 41.9692 25.7254 41.8804L26.1503 41.7358L26.3625 41.6634L26.5728 41.5863C27.1353 41.3861 27.6872 41.1623 28.2308 40.9234C28.7741 40.6844 29.3086 40.4268 29.8269 40.1423C30.8655 39.5772 31.8535 38.9243 32.7562 38.1662C33.654 37.4045 34.4836 36.5507 35.1266 35.5407C34.9229 36.1045 34.6083 36.6263 34.2621 37.1222C33.907 37.613 33.5068 38.0745 33.0692 38.4984C32.1934 39.3473 31.1857 40.0622 30.1109 40.6457C29.9753 40.7164 29.8411 40.7897 29.7042 40.8581L29.2918 41.0596C29.0127 41.1849 28.735 41.3128 28.45 41.4235C27.8823 41.6502 27.3047 41.8517 26.7163 42.0144L26.5044 42.0751C26.5959 42.0751 26.6883 42.0761 26.7831 42.0784C27.2975 42.0916 28.0998 42.2941 28.6583 42.5408C27.7062 42.4229 26.8042 42.4788 26.0009 42.5514C21.6242 42.9476 21.0891 44.7122 19.6099 45.9405C16.6688 48.3829 17.4043 43.8717 13.9883 46.7713C14.2381 49.7901 15.1144 52.4491 16.6164 54.7485C18.0605 55.2851 21.8826 54.9222 23.9506 54.04L22.1906 52.639C33.2321 55.6287 48.2048 50.1272 42.8959 36.6001Z" fill="white"/>
<path d="M17.4875 45.8327C18.1181 45.5075 18.7355 45.0942 19.3278 44.6154C19.2321 44.3987 19.1689 44.2127 19.1294 44.0332L18.7815 44.2453L18.6815 43.5892C18.6134 43.0974 18.5206 42.4239 19.0692 41.8666C19.2758 41.657 19.5677 41.4494 19.9373 41.2495C20.2805 41.0635 20.3747 40.9938 20.5889 40.6777C20.6129 40.6425 20.6376 40.6066 20.6616 40.5714C20.1223 40.7623 19.5888 40.9269 19.0616 41.0645C15.1812 42.0771 16.7806 40.2902 14.7123 40.1404C14.1479 40.0993 13.5772 40.3619 13 40.9269C13.0852 42.3583 13.6105 43.8582 14.5767 45.4255C16.1109 44.844 16.9008 44.8637 17.4875 45.8327Z" fill="white"/>
</svg>
