<svg width="44" height="63" viewBox="0 0 44 63" fill="none" xmlns="http://www.w3.org/2000/svg">
<path d="M21.9663 62.0635C7.32106 43.1652 0 29.7191 0 21.7222C-4.29847e-08 18.8696 0.568175 16.045 1.67209 13.4095C2.776 10.774 4.39402 8.37939 6.43378 6.3623C8.47354 4.3452 10.8951 2.74515 13.5602 1.65351C16.2252 0.561862 19.0817 0 21.9663 0C24.851 0 27.7074 0.561862 30.3725 1.65351C33.0375 2.74515 35.4591 4.3452 37.4988 6.3623C39.5386 8.37939 41.1566 10.774 42.2605 13.4095C43.3644 16.045 43.9326 18.8696 43.9326 21.7222C43.9326 29.7191 36.6116 43.1652 21.9663 62.0635Z" fill="#F7D323"/>
<path d="M31.1964 32.5417L30.31 15.4221C30.2853 14.9458 29.8919 14.5722 29.415 14.5722H26.7993V13.7309C26.7993 10.8641 24.4668 8.53174 21.5998 8.53174C18.733 8.53174 16.4008 10.8641 16.4008 13.7309V14.5722H13.785C13.3081 14.5722 12.9146 14.9458 12.8899 15.4221L12.0012 32.5891C11.9885 32.8345 12.0771 33.0744 12.2464 33.2526C12.4155 33.4308 12.6505 33.5317 12.8963 33.5317H30.3038C30.3042 33.5318 30.3046 33.5318 30.305 33.5317C30.8 33.5317 31.2012 33.1304 31.2012 32.6355C31.2011 32.6037 31.1996 32.5725 31.1964 32.5417ZM17.6776 18.1999C17.1474 18.1999 16.7175 17.77 16.7175 17.2398C16.7175 16.7097 17.1474 16.2798 17.6776 16.2798C18.2077 16.2798 18.6376 16.7097 18.6376 17.2398C18.6376 17.77 18.2077 18.1999 17.6776 18.1999ZM24.1329 14.5722H19.0671V13.7309C19.0671 12.3342 20.2032 11.198 21.5998 11.198C22.9966 11.198 24.1329 12.3342 24.1329 13.7309V14.5722ZM25.5236 18.1999C24.9934 18.1999 24.5635 17.77 24.5635 17.2398C24.5635 16.7097 24.9934 16.2798 25.5236 16.2798C26.0537 16.2798 26.4836 16.7097 26.4836 17.2398C26.4836 17.77 26.0537 18.1999 25.5236 18.1999Z" fill="white"/>
</svg>
