<svg width="306" height="73" viewBox="0 0 306 73" fill="none" xmlns="http://www.w3.org/2000/svg">
<path d="M12.46 23.7H14.46V20.8732L11.7944 21.814L12.46 23.7ZM8.19 24.82L8.59079 26.7794L8.61207 26.7751L8.63324 26.7703L8.19 24.82ZM3.36 25.66L1.38425 25.9705L1.68361 27.8755L3.59829 27.6458L3.36 25.66ZM2.59 20.76L2.19079 18.8002L0.317462 19.1819L0.614246 21.0705L2.59 20.76ZM10.43 18.03L11.2995 19.8311L11.3059 19.828L11.3122 19.8249L10.43 18.03ZM17.15 13.83V11.83H16.4229L15.8656 12.297L17.15 13.83ZM17.22 13.83L17.4958 11.8491L17.3586 11.83H17.22V13.83ZM22.75 14.6H24.75V12.8592L23.0258 12.6191L22.75 14.6ZM22.75 53.1H20.75V54.9163L22.5579 55.0908L22.75 53.1ZM30.73 53.87H32.73V52.0537L30.9221 51.8792L30.73 53.87ZM30.73 58V60H32.73V58H30.73ZM4.06 58H2.06V60H4.06V58ZM4.06 53.87L3.89391 51.8769L2.06 52.0297V53.87H4.06ZM12.46 53.17L12.6261 55.1631L14.46 55.0103V53.17H12.46ZM11.7944 21.814C11.1231 22.0509 9.80344 22.4023 7.74676 22.8697L8.63324 26.7703C10.6832 26.3044 12.2103 25.909 13.1256 25.586L11.7944 21.814ZM7.78921 22.8606C5.75507 23.2766 4.20747 23.544 3.12171 23.6742L3.59829 27.6458C4.84586 27.496 6.51826 27.2034 8.59079 26.7794L7.78921 22.8606ZM5.33575 25.3495L4.56575 20.4495L0.614246 21.0705L1.38425 25.9705L5.33575 25.3495ZM2.98921 22.7198C5.69657 22.1683 8.46772 21.1982 11.2995 19.8311L9.5605 16.2289C6.97895 17.4752 4.52343 18.3251 2.19079 18.8002L2.98921 22.7198ZM11.3122 19.8249C14.1616 18.4244 16.5495 16.9423 18.4344 15.363L15.8656 12.297C14.2972 13.611 12.2051 14.929 9.54776 16.2351L11.3122 19.8249ZM17.15 15.83H17.22V11.83H17.15V15.83ZM16.9442 15.8109L22.4742 16.5809L23.0258 12.6191L17.4958 11.8491L16.9442 15.8109ZM20.75 14.6V53.1H24.75V14.6H20.75ZM22.5579 55.0908L30.5379 55.8608L30.9221 51.8792L22.9421 51.1092L22.5579 55.0908ZM28.73 53.87V58H32.73V53.87H28.73ZM30.73 56H4.06V60H30.73V56ZM6.06 58V53.87H2.06V58H6.06ZM4.22609 55.8631L12.6261 55.1631L12.2939 51.1769L3.89391 51.8769L4.22609 55.8631ZM14.46 53.17V23.7H10.46V53.17H14.46ZM61.1319 23.7H63.1319V20.8732L60.4662 21.814L61.1319 23.7ZM56.8619 24.82L57.2627 26.7794L57.2839 26.7751L57.3051 26.7703L56.8619 24.82ZM52.0319 25.66L50.0561 25.9705L50.3555 27.8755L52.2702 27.6458L52.0319 25.66ZM51.2619 20.76L50.8627 18.8002L48.9893 19.1819L49.2861 21.0705L51.2619 20.76ZM59.1019 18.03L59.9714 19.8311L59.9778 19.828L59.9841 19.8249L59.1019 18.03ZM65.8219 13.83V11.83H65.0948L64.5374 12.297L65.8219 13.83ZM65.8919 13.83L66.1677 11.8491L66.0304 11.83H65.8919V13.83ZM71.4219 14.6H73.4219V12.8592L71.6977 12.6191L71.4219 14.6ZM71.4219 53.1H69.4219V54.9163L71.2298 55.0908L71.4219 53.1ZM79.4019 53.87H81.4019V52.0537L79.594 51.8792L79.4019 53.87ZM79.4019 58V60H81.4019V58H79.4019ZM52.7319 58H50.7319V60H52.7319V58ZM52.7319 53.87L52.5658 51.8769L50.7319 52.0297V53.87H52.7319ZM61.1319 53.17L61.298 55.1631L63.1319 55.0103V53.17H61.1319ZM60.4662 21.814C59.7949 22.0509 58.4753 22.4023 56.4186 22.8697L57.3051 26.7703C59.3551 26.3044 60.8822 25.909 61.7975 25.586L60.4662 21.814ZM56.4611 22.8606C54.4269 23.2766 52.8793 23.544 51.7936 23.6742L52.2702 27.6458C53.5177 27.496 55.1901 27.2034 57.2627 26.7794L56.4611 22.8606ZM54.0076 25.3495L53.2376 20.4495L49.2861 21.0705L50.0561 25.9705L54.0076 25.3495ZM51.6611 22.7198C54.3684 22.1683 57.1396 21.1982 59.9714 19.8311L58.2324 16.2289C55.6508 17.4752 53.1953 18.3251 50.8627 18.8002L51.6611 22.7198ZM59.9841 19.8249C62.8335 18.4244 65.2214 16.9423 67.1063 15.363L64.5374 12.297C62.969 13.611 60.8769 14.929 58.2196 16.2351L59.9841 19.8249ZM65.8219 15.83H65.8919V11.83H65.8219V15.83ZM65.6161 15.8109L71.1461 16.5809L71.6977 12.6191L66.1677 11.8491L65.6161 15.8109ZM69.4219 14.6V53.1H73.4219V14.6H69.4219ZM71.2298 55.0908L79.2098 55.8608L79.594 51.8792L71.614 51.1092L71.2298 55.0908ZM77.4019 53.87V58H81.4019V53.87H77.4019ZM79.4019 56H52.7319V60H79.4019V56ZM54.7319 58V53.87H50.7319V58H54.7319ZM52.898 55.8631L61.298 55.1631L60.9658 51.1769L52.5658 51.8769L52.898 55.8631ZM63.1319 53.17V23.7H59.1319V53.17H63.1319ZM93.1924 23.7H95.1924V20.8732L92.5268 21.814L93.1924 23.7ZM88.9224 24.82L89.3232 26.7794L89.3445 26.7751L89.3657 26.7703L88.9224 24.82ZM84.0924 25.66L82.1167 25.9705L82.416 27.8755L84.3307 27.6458L84.0924 25.66ZM83.3224 20.76L82.9232 18.8002L81.0499 19.1819L81.3467 21.0705L83.3224 20.76ZM91.1624 18.03L92.0319 19.8311L92.0383 19.828L92.0447 19.8249L91.1624 18.03ZM97.8824 13.83V11.83H97.1553L96.598 12.297L97.8824 13.83ZM97.9524 13.83L98.2282 11.8491L98.091 11.83H97.9524V13.83ZM103.482 14.6H105.482V12.8592L103.758 12.6191L103.482 14.6ZM103.482 53.1H101.482V54.9163L103.29 55.0908L103.482 53.1ZM111.462 53.87H113.462V52.0537L111.655 51.8792L111.462 53.87ZM111.462 58V60H113.462V58H111.462ZM84.7924 58H82.7924V60H84.7924V58ZM84.7924 53.87L84.6263 51.8769L82.7924 52.0297V53.87H84.7924ZM93.1924 53.17L93.3585 55.1631L95.1924 55.0103V53.17H93.1924ZM92.5268 21.814C91.8555 22.0509 90.5359 22.4023 88.4792 22.8697L89.3657 26.7703C91.4156 26.3044 92.9427 25.909 93.8581 25.586L92.5268 21.814ZM88.5216 22.8606C86.4875 23.2766 84.9399 23.544 83.8541 23.6742L84.3307 27.6458C85.5783 27.496 87.2507 27.2034 89.3232 26.7794L88.5216 22.8606ZM86.0682 25.3495L85.2982 20.4495L81.3467 21.0705L82.1167 25.9705L86.0682 25.3495ZM83.7216 22.7198C86.429 22.1683 89.2001 21.1982 92.0319 19.8311L90.2929 16.2289C87.7114 17.4752 85.2559 18.3251 82.9232 18.8002L83.7216 22.7198ZM92.0447 19.8249C94.894 18.4244 97.2819 16.9423 99.1669 15.363L96.598 12.297C95.0296 13.611 92.9375 14.929 90.2802 16.2351L92.0447 19.8249ZM97.8824 15.83H97.9524V11.83H97.8824V15.83ZM97.6766 15.8109L103.207 16.5809L103.758 12.6191L98.2282 11.8491L97.6766 15.8109ZM101.482 14.6V53.1H105.482V14.6H101.482ZM103.29 55.0908L111.27 55.8608L111.655 51.8792L103.675 51.1092L103.29 55.0908ZM109.462 53.87V58H113.462V53.87H109.462ZM111.462 56H84.7924V60H111.462V56ZM86.7924 58V53.87H82.7924V58H86.7924ZM84.9585 55.8631L93.3585 55.1631L93.0263 51.1769L84.6263 51.8769L84.9585 55.8631ZM95.1924 53.17V23.7H91.1924V53.17H95.1924ZM115.453 54.22L114.437 52.4974L112.973 53.3609L113.589 54.9449L115.453 54.22ZM131.413 41.55L129.926 40.2129L131.413 41.55ZM135.473 22.72L134.059 24.1342L134.082 24.1578L134.107 24.1805L135.473 22.72ZM123.363 22.02L124.317 23.7777L124.326 23.7731L124.334 23.7683L123.363 22.02ZM118.533 25.52L116.888 26.6569L118.189 28.5403L119.88 26.9979L118.533 25.52ZM115.873 21.67L114.311 20.4206L113.382 21.5826L114.228 22.8069L115.873 21.67ZM119.863 18.1L118.734 16.4494L118.723 16.4564L118.713 16.4636L119.863 18.1ZM126.023 15.09L126.667 16.9835L126.684 16.9778L126.7 16.9718L126.023 15.09ZM141.633 15.58L140.724 17.3615L140.731 17.3652L140.739 17.3689L141.633 15.58ZM146.813 20.2L148.539 19.1896L146.813 20.2ZM142.053 40.08L140.602 38.7037L142.053 40.08ZM125.673 52.54L124.682 50.8028L125.858 54.5314L125.673 52.54ZM145.973 50.65L146.158 52.6414L147.316 52.5336L147.795 51.4743L145.973 50.65ZM148.633 44.77L149.037 42.8113L147.47 42.4879L146.811 43.9457L148.633 44.77ZM153.043 45.68L155.016 46.0052L155.329 44.1095L153.447 43.7213L153.043 45.68ZM151.013 58V60H152.71L152.986 58.3252L151.013 58ZM116.923 58L115.059 58.7249L115.555 60H116.923V58ZM116.469 55.9426C123.096 52.0334 128.585 47.6871 132.9 42.8871L129.926 40.2129C125.934 44.6529 120.784 48.7532 114.437 52.4974L116.469 55.9426ZM132.9 42.8871C137.238 38.0619 139.643 33.1484 139.643 28.18H135.643C135.643 31.7983 133.894 35.7981 129.926 40.2129L132.9 42.8871ZM139.643 28.18C139.643 25.4333 138.754 23.0504 136.839 21.2595L134.107 24.1805C135.085 25.0962 135.643 26.3534 135.643 28.18H139.643ZM136.887 21.3058C135.01 19.4288 132.456 18.62 129.523 18.62V22.62C131.723 22.62 133.136 23.2112 134.059 24.1342L136.887 21.3058ZM129.523 18.62C126.844 18.62 124.437 19.1354 122.392 20.2717L124.334 23.7683C125.649 23.0379 127.349 22.62 129.523 22.62V18.62ZM122.409 20.2623C120.614 21.2368 118.873 22.503 117.185 24.0421L119.88 26.9979C121.366 25.6436 122.846 24.5765 124.317 23.7777L122.409 20.2623ZM120.178 24.3831L117.518 20.5331L114.228 22.8069L116.888 26.6569L120.178 24.3831ZM117.435 22.9194C118.212 21.9475 119.383 20.8819 121.013 19.7364L118.713 16.4636C116.89 17.7448 115.4 19.0592 114.311 20.4206L117.435 22.9194ZM120.992 19.7506C122.595 18.6537 124.481 17.7268 126.667 16.9835L125.379 13.1965C122.898 14.0399 120.677 15.1196 118.734 16.4494L120.992 19.7506ZM126.7 16.9718C128.826 16.2067 130.954 15.83 133.093 15.83V11.83C130.472 11.83 127.887 12.2933 125.346 13.2082L126.7 16.9718ZM133.093 15.83C136.283 15.83 138.796 16.3776 140.724 17.3615L142.542 13.7985C139.897 12.4491 136.717 11.83 133.093 11.83V15.83ZM140.739 17.3689C142.787 18.3933 144.195 19.6872 145.087 21.2104L148.539 19.1896C147.191 16.8862 145.145 15.1 142.527 13.7911L140.739 17.3689ZM145.087 21.2104C146.018 22.8009 146.493 24.5724 146.493 26.57H150.493C150.493 23.9009 149.848 21.4258 148.539 19.1896L145.087 21.2104ZM146.493 26.57C146.493 30.3658 144.682 34.4014 140.602 38.7037L143.504 41.4563C148.01 36.7052 150.493 31.7342 150.493 26.57H146.493ZM140.602 38.7037C136.469 43.0606 131.175 47.0991 124.682 50.8028L126.664 54.2772C133.424 50.4209 139.05 46.1527 143.504 41.4563L140.602 38.7037ZM125.858 54.5314L146.158 52.6414L145.788 48.6586L125.488 50.5486L125.858 54.5314ZM147.795 51.4743L150.455 45.5943L146.811 43.9457L144.151 49.8257L147.795 51.4743ZM148.229 46.7287L152.639 47.6387L153.447 43.7213L149.037 42.8113L148.229 46.7287ZM151.07 45.3548L149.04 57.6748L152.986 58.3252L155.016 46.0052L151.07 45.3548ZM151.013 56H116.923V60H151.013V56ZM118.787 57.2751L117.317 53.4951L113.589 54.9449L115.059 58.7249L118.787 57.2751ZM205.177 16.63L204.068 18.2941L204.084 18.3047L204.1 18.315L205.177 16.63ZM211.547 24.19L209.713 24.9875L209.717 24.9973L211.547 24.19ZM209.517 52.12L207.758 51.1679L207.755 51.1737L209.517 52.12ZM198.877 64.3L197.728 62.6632L197.722 62.6672L197.716 62.6714L198.877 64.3ZM185.227 69.9L183.465 70.8463L184.117 72.0594L185.482 71.8836L185.227 69.9ZM183.197 66.12L182.608 64.2088L180.285 64.9251L181.435 67.0663L183.197 66.12ZM195.377 58.35L196.894 59.6532L195.377 58.35ZM201.887 45.4L203.831 45.8722L205.514 38.9448L200.473 43.9858L201.887 45.4ZM197.477 48.34L198.253 50.1833L198.274 50.1747L198.294 50.1656L197.477 48.34ZM177.737 41.48L175.962 42.4006L175.968 42.4135L175.975 42.4263L177.737 41.48ZM178.017 23.28L176.252 22.3403L176.246 22.3509L178.017 23.28ZM184.667 16.42L185.671 18.1496L185.682 18.1436L185.692 18.1374L184.667 16.42ZM199.507 42.88L200.465 44.6358V44.6358L199.507 42.88ZM202.867 40.08L204.52 41.2067L204.809 40.7817L204.858 40.2696L202.867 40.08ZM203.147 35.67L205.145 35.7651L205.147 35.7176V35.67H203.147ZM201.117 22.72L199.276 23.5011L199.283 23.5181L199.291 23.5349L201.117 22.72ZM188.237 21.81L189.963 22.8198V22.8198L188.237 21.81ZM188.307 40.92L186.654 42.0456L186.66 42.0539L186.665 42.0621L188.307 40.92ZM194.887 15.83C198.635 15.83 201.659 16.6882 204.068 18.2941L206.287 14.9659C203.095 12.8385 199.259 11.83 194.887 11.83V15.83ZM204.1 18.315C206.598 19.9122 208.465 22.1168 209.713 24.9875L213.381 23.3925C211.829 19.8232 209.45 16.9878 206.254 14.945L204.1 18.315ZM209.717 24.9973C210.985 27.8712 211.647 31.2507 211.647 35.18H215.647C215.647 30.8026 214.909 26.8555 213.377 23.3827L209.717 24.9973ZM211.647 35.18C211.647 41.0792 210.342 46.3949 207.758 51.168L211.276 53.072C214.199 47.6718 215.647 41.6941 215.647 35.18H211.647ZM207.755 51.1737C205.186 55.9579 201.842 59.7744 197.728 62.6632L200.026 65.9368C204.685 62.6656 208.435 58.3621 211.279 53.0663L207.755 51.1737ZM197.716 62.6714C193.561 65.6328 189.317 67.3571 184.972 67.9164L185.482 71.8836C190.564 71.2296 195.419 69.2205 200.038 65.9286L197.716 62.6714ZM186.989 68.9537L184.959 65.1737L181.435 67.0663L183.465 70.8463L186.989 68.9537ZM183.787 68.0312C189.107 66.3903 193.5 63.6046 196.894 59.6532L193.86 57.0468C191.001 60.3754 187.274 62.7697 182.608 64.2088L183.787 68.0312ZM196.894 59.6532C200.241 55.7569 202.548 51.15 203.831 45.8722L199.944 44.9278C198.799 49.6366 196.767 53.6631 193.86 57.0468L196.894 59.6532ZM200.473 43.9858C199.506 44.9524 198.25 45.8033 196.66 46.5144L198.294 50.1656C200.251 49.29 201.935 48.1809 203.301 46.8142L200.473 43.9858ZM196.701 46.4967C195.205 47.1265 193.491 47.46 191.527 47.46V51.46C193.95 51.46 196.202 51.0469 198.253 50.1833L196.701 46.4967ZM191.527 47.46C188.762 47.46 186.389 46.8351 184.351 45.6361L182.323 49.0839C185.045 50.6849 188.133 51.46 191.527 51.46V47.46ZM184.351 45.6361C182.299 44.4288 180.686 42.7431 179.499 40.5337L175.975 42.4263C177.495 45.2569 179.616 47.4912 182.323 49.0839L184.351 45.6361ZM179.513 40.5594C178.378 38.3717 177.777 35.7582 177.777 32.66H173.777C173.777 36.2818 174.483 39.5483 175.962 42.4006L179.513 40.5594ZM177.777 32.66C177.777 29.5571 178.454 26.752 179.788 24.2091L176.246 22.3509C174.593 25.5013 173.777 28.9496 173.777 32.66H177.777ZM179.783 24.2197C181.144 21.6626 183.093 19.6465 185.671 18.1496L183.663 14.6904C180.454 16.5535 177.971 19.1107 176.252 22.3403L179.783 24.2197ZM185.692 18.1374C188.228 16.6241 191.268 15.83 194.887 15.83V11.83C190.666 11.83 186.893 12.7626 183.642 14.7026L185.692 18.1374ZM194.397 46.14C196.576 46.14 198.612 45.6463 200.465 44.6358L198.549 41.1242C197.322 41.7937 195.951 42.14 194.397 42.14V46.14ZM200.465 44.6358C202.176 43.7027 203.583 42.5803 204.52 41.2067L201.215 38.9533C200.751 39.633 199.919 40.3773 198.549 41.1242L200.465 44.6358ZM204.858 40.2696C204.956 39.2408 205.051 37.7323 205.145 35.7651L201.149 35.5749C201.056 37.5277 200.965 38.9592 200.876 39.8904L204.858 40.2696ZM205.147 35.67C205.147 29.9562 204.464 25.3128 202.944 21.9051L199.291 23.5349C200.477 26.1938 201.147 30.1838 201.147 35.67H205.147ZM202.958 21.9389C202.188 20.1243 201.078 18.6312 199.565 17.6015C198.046 16.5682 196.266 16.1 194.327 16.1V20.1C195.608 20.1 196.57 20.4018 197.315 20.9085C198.065 21.4188 198.739 22.2357 199.276 23.5011L202.958 21.9389ZM194.327 16.1C190.924 16.1 188.274 17.7852 186.511 20.8002L189.963 22.8198C191.093 20.8881 192.503 20.1 194.327 20.1V16.1ZM186.511 20.8002C184.847 23.6449 184.067 27.0222 184.067 30.84H188.067C188.067 27.5645 188.734 24.9218 189.963 22.8198L186.511 20.8002ZM184.067 30.84C184.067 35.5155 184.825 39.3596 186.654 42.0456L189.96 39.7944C188.802 38.0937 188.067 35.2179 188.067 30.84H184.067ZM186.665 42.0621C188.524 44.7341 191.161 46.14 194.397 46.14V42.14C192.5 42.14 191.077 41.3992 189.949 39.7779L186.665 42.0621ZM231.576 55.97L232.692 54.3101L231.576 55.97ZM225.066 48.13L223.234 48.9303L223.238 48.9411L223.243 48.9518L225.066 48.13ZM227.306 20.55L229.026 21.5718L229.03 21.5647L227.306 20.55ZM238.576 8.51L239.682 10.1768L239.694 10.1689L238.576 8.51ZM252.366 2.98L254.128 2.03374L253.475 0.817245L252.106 0.997023L252.366 2.98ZM254.396 6.76L254.969 8.67614L257.318 7.97367L256.158 5.81374L254.396 6.76ZM241.796 14.53L240.328 13.1727L240.327 13.1734L241.796 14.53ZM234.726 27.2L232.801 26.658L230.809 33.7329L236.111 28.6428L234.726 27.2ZM239.276 24.4L240.019 26.257L240.039 26.249L240.059 26.2407L239.276 24.4ZM256.636 27.55L255.164 28.9036L255.175 28.916L255.187 28.9281L256.636 27.55ZM258.456 48.97L256.668 48.0756L258.456 48.97ZM251.946 56.18L253.004 57.8776L253.014 57.8714L253.024 57.865L251.946 56.18ZM237.106 29.79L238.045 31.5562L238.054 31.5511L238.064 31.5458L237.106 29.79ZM233.676 32.45L232.122 31.1916L231.751 31.6502L231.688 32.2369L233.676 32.45ZM233.466 36.44L235.466 36.4731L235.466 36.4565V36.44H233.466ZM235.356 49.74L233.513 50.5149L233.517 50.5262L233.522 50.5375L235.356 49.74ZM248.236 50.79L246.494 49.808L246.488 49.8187L248.236 50.79ZM248.236 31.61L246.601 32.7619L246.608 32.7708L246.614 32.7796L248.236 31.61ZM241.796 56.84C238.163 56.84 235.16 55.9686 232.692 54.3101L230.461 57.6299C233.687 59.7981 237.496 60.84 241.796 60.84V56.84ZM232.692 54.3101C230.174 52.6173 228.239 50.3028 226.89 47.3082L223.243 48.9518C224.88 52.5838 227.286 55.496 230.461 57.6299L232.692 54.3101ZM226.899 47.3297C225.578 44.3036 224.896 40.8487 224.896 36.93H220.896C220.896 41.318 221.661 45.3297 223.234 48.9303L226.899 47.3297ZM224.896 36.93C224.896 31.302 226.277 26.1972 229.026 21.5718L225.587 19.5282C222.456 24.7961 220.896 30.6113 220.896 36.93H224.896ZM229.03 21.5647C231.825 16.8178 235.375 13.033 239.682 10.1767L237.471 6.84329C232.631 10.0536 228.668 14.2955 225.583 19.5353L229.03 21.5647ZM239.694 10.1689C244.057 7.23025 248.365 5.5226 252.627 4.96298L252.106 0.997023C247.128 1.65073 242.242 3.62974 237.459 6.85112L239.694 10.1689ZM250.604 3.92625L252.634 7.70625L256.158 5.81374L254.128 2.03374L250.604 3.92625ZM253.823 4.84385C248.5 6.43574 243.987 9.2125 240.328 13.1727L243.265 15.8873C246.419 12.4742 250.306 10.0709 254.969 8.67614L253.823 4.84385ZM240.327 13.1734C236.751 17.0472 234.239 21.5502 232.801 26.658L236.652 27.742C237.92 23.2365 240.122 19.2928 243.266 15.8866L240.327 13.1734ZM236.111 28.6428C237.054 27.7384 238.335 26.9306 240.019 26.257L238.534 22.543C236.484 23.3628 234.733 24.4216 233.341 25.7572L236.111 28.6428ZM240.059 26.2407C241.634 25.571 243.507 25.21 245.716 25.21V21.21C243.073 21.21 240.652 21.6423 238.494 22.5593L240.059 26.2407ZM245.716 25.21C249.884 25.21 252.95 26.495 255.164 28.9036L258.109 26.1964C255.003 22.8183 250.789 21.21 245.716 21.21V25.21ZM255.187 28.9281C257.452 31.3098 258.696 34.6846 258.696 39.31H262.696C262.696 33.9487 261.235 29.4836 258.086 26.1719L255.187 28.9281ZM258.696 39.31C258.696 42.4638 258.017 45.3763 256.668 48.0756L260.245 49.8644C261.882 46.5904 262.696 43.0629 262.696 39.31H258.696ZM256.668 48.0756C255.338 50.7353 253.415 52.867 250.869 54.495L253.024 57.865C256.171 55.853 258.588 53.178 260.245 49.8644L256.668 48.0756ZM250.889 54.4824C248.41 56.0267 245.407 56.84 241.796 56.84V60.84C246.026 60.84 249.79 59.8799 253.004 57.8776L250.889 54.4824ZM242.286 26.53C240.07 26.53 238.009 27.0197 236.149 28.0342L238.064 31.5458C239.284 30.8803 240.677 30.53 242.286 30.53V26.53ZM236.168 28.0238C234.514 28.9026 233.132 29.9444 232.122 31.1916L235.231 33.7084C235.808 32.9956 236.712 32.2641 238.045 31.5562L236.168 28.0238ZM231.688 32.2369C231.54 33.6164 231.466 35.0176 231.466 36.44H235.466C235.466 35.1557 235.533 33.8969 235.665 32.6631L231.688 32.2369ZM231.467 36.4069C231.371 42.1801 232.006 46.9296 233.513 50.5149L237.2 48.9651C236 46.1104 235.375 41.9932 235.466 36.4731L231.467 36.4069ZM233.522 50.5375C234.329 52.394 235.448 53.9274 236.945 54.9922C238.457 56.0678 240.222 56.57 242.146 56.57V52.57C240.944 52.57 240.014 52.2672 239.263 51.7328C238.497 51.1876 237.783 50.306 237.191 48.9425L233.522 50.5375ZM242.146 56.57C245.604 56.57 248.268 54.851 249.985 51.7613L246.488 49.8187C245.405 51.769 244.008 52.57 242.146 52.57V56.57ZM249.979 51.772C251.636 48.8324 252.406 45.2989 252.406 41.27H248.406C248.406 44.8011 247.731 47.6143 246.494 49.808L249.979 51.772ZM252.406 41.27C252.406 36.7086 251.679 32.9656 249.859 30.4404L246.614 32.7796C247.687 34.2677 248.406 36.9647 248.406 41.27H252.406ZM249.871 30.4581C248.049 27.8709 245.454 26.53 242.286 26.53V30.53C244.158 30.53 245.531 31.2424 246.601 32.7619L249.871 30.4581ZM271.329 64.37L271.434 62.3728L269.329 62.262V64.37H271.329ZM284.139 62.55L283.257 60.7548L283.245 60.7611L284.139 62.55ZM290.439 57.23L292.087 58.3631L292.093 58.3552L292.098 58.3472L290.439 57.23ZM290.229 42.11L288.878 43.5843L290.229 42.11ZM277.839 40.43L277.4 38.4788L277.39 38.4812L277.839 40.43ZM273.289 41.9L272.146 43.5408L273.086 44.1964L274.127 43.7159L273.289 41.9ZM270.979 40.29L268.996 40.032L268.839 41.2364L269.836 41.9308L270.979 40.29ZM274.339 14.46V12.46H272.583L272.356 14.202L274.339 14.46ZM295.969 14.46V16.46H297.177L297.739 15.3915L295.969 14.46ZM296.669 13.13V11.13H295.462L294.899 12.1985L296.669 13.13ZM301.499 13.13L303.472 13.4614L303.863 11.13H301.499V13.13ZM300.029 21.88V23.88H301.721L302.002 22.2114L300.029 21.88ZM280.849 21.88V19.88H279.205L278.887 21.4932L280.849 21.88ZM277.979 36.44L276.017 36.0532L275.215 40.1214L278.898 38.2164L277.979 36.44ZM282.809 34.62L283.34 36.5484L283.355 36.5441L283.371 36.5395L282.809 34.62ZM299.819 37.49L298.418 38.9174L298.425 38.9238L298.432 38.9302L299.819 37.49ZM300.099 58.84L298.491 57.6512L298.481 57.6643L298.472 57.6775L300.099 58.84ZM290.299 66.47L289.504 64.6349L289.492 64.6402L289.479 64.6458L290.299 66.47ZM271.329 68.78H269.329V70.3898L270.902 70.7338L271.329 68.78ZM271.224 66.3672C273.007 66.4611 274.402 66.51 275.389 66.51V62.51C274.509 62.51 273.198 62.4656 271.434 62.3728L271.224 66.3672ZM275.389 66.51C278.888 66.51 282.115 65.7981 285.034 64.3389L283.245 60.7611C280.937 61.9153 278.331 62.51 275.389 62.51V66.51ZM285.021 64.3451C287.961 62.9012 290.336 60.9109 292.087 58.3631L288.791 56.0969C287.463 58.0291 285.638 59.5855 283.257 60.7549L285.021 64.3451ZM292.098 58.3472C293.86 55.7308 294.749 52.8219 294.749 49.67H290.749C290.749 52.0247 290.098 54.1558 288.78 56.1128L292.098 58.3472ZM294.749 49.67C294.749 45.9074 293.852 42.7175 291.581 40.6357L288.878 43.5843C289.967 44.5825 290.749 46.4326 290.749 49.67H294.749ZM291.581 40.6357C289.409 38.6445 286.426 37.8 282.949 37.8V41.8C285.819 41.8 287.69 42.4954 288.878 43.5843L291.581 40.6357ZM282.949 37.8C281.231 37.8 279.378 38.0338 277.4 38.4788L278.278 42.3812C280.034 41.9862 281.587 41.8 282.949 41.8V37.8ZM277.39 38.4812C275.484 38.9209 273.827 39.449 272.451 40.0841L274.127 43.7159C275.178 43.231 276.554 42.7791 278.289 42.3788L277.39 38.4812ZM274.433 40.2592L272.123 38.6492L269.836 41.9308L272.146 43.5408L274.433 40.2592ZM272.963 40.548L276.323 14.718L272.356 14.202L268.996 40.032L272.963 40.548ZM274.339 16.46H295.969V12.46H274.339V16.46ZM297.739 15.3915L298.439 14.0615L294.899 12.1985L294.199 13.5285L297.739 15.3915ZM296.669 15.13H301.499V11.13H296.669V15.13ZM299.527 12.7986L298.057 21.5486L302.002 22.2114L303.472 13.4614L299.527 12.7986ZM300.029 19.88H280.849V23.88H300.029V19.88ZM278.887 21.4932L276.017 36.0532L279.942 36.8268L282.812 22.2668L278.887 21.4932ZM278.898 38.2164C280.1 37.595 281.573 37.0342 283.34 36.5484L282.279 32.6916C280.312 33.2325 278.566 33.885 277.06 34.6636L278.898 38.2164ZM283.371 36.5395C285.089 36.0368 286.928 35.78 288.899 35.78V31.78C286.577 31.78 284.357 32.0832 282.247 32.7005L283.371 36.5395ZM288.899 35.78C293.322 35.78 296.387 36.9241 298.418 38.9174L301.22 36.0626C298.211 33.1093 293.996 31.78 288.899 31.78V35.78ZM298.432 38.9302C300.508 40.931 301.669 43.8516 301.669 47.99H305.669C305.669 43.0751 304.264 38.9956 301.207 36.0498L298.432 38.9302ZM301.669 47.99C301.669 51.5764 300.616 54.7762 298.491 57.6512L301.708 60.0288C304.343 56.4638 305.669 52.4302 305.669 47.99H301.669ZM298.472 57.6775C296.378 60.6089 293.418 62.9387 289.504 64.6349L291.095 68.3051C295.58 66.3613 299.154 63.6044 301.727 60.0025L298.472 57.6775ZM289.479 64.6458C285.619 66.3806 281.215 67.27 276.229 67.27V71.27C281.697 71.27 286.673 70.2927 291.119 68.2942L289.479 64.6458ZM276.229 67.27C274.577 67.27 273.089 67.1177 271.757 66.8262L270.902 70.7338C272.556 71.0956 274.335 71.27 276.229 71.27V67.27ZM273.329 68.78V64.37H269.329V68.78H273.329Z" fill="#F7D323"/>
</svg>
