<svg width="86" height="58" viewBox="0 0 86 58" fill="none" xmlns="http://www.w3.org/2000/svg">
<path d="M2.66 51.22L1.64379 49.4974L0.180008 50.3609L0.795991 51.9449L2.66 51.22ZM18.62 38.55L17.1327 37.2129L18.62 38.55ZM22.68 19.72L21.2658 21.1342L21.2894 21.1578L21.3137 21.1805L22.68 19.72ZM10.57 19.02L11.5242 20.7777L11.5328 20.7731L11.5413 20.7683L10.57 19.02ZM5.74 22.52L4.09454 23.6569L5.39584 25.5403L7.08751 23.9979L5.74 22.52ZM3.08 18.67L1.51826 17.4206L0.588678 18.5826L1.43454 19.8069L3.08 18.67ZM7.07 15.1L5.94063 13.4494L5.93033 13.4564L5.92011 13.4636L7.07 15.1ZM13.23 12.09L13.8738 13.9835L13.8907 13.9778L13.9074 13.9718L13.23 12.09ZM28.84 12.58L27.9311 14.3615L27.9383 14.3652L27.9456 14.3689L28.84 12.58ZM34.02 17.2L35.746 16.1896L34.02 17.2ZM29.26 37.08L27.8089 35.7037L29.26 37.08ZM12.88 49.54L11.889 47.8028L13.0654 51.5314L12.88 49.54ZM33.18 47.65L33.3654 49.6414L34.523 49.5336L35.0022 48.4743L33.18 47.65ZM35.84 41.77L36.2442 39.8113L34.6772 39.4879L34.0178 40.9457L35.84 41.77ZM40.25 42.68L42.2234 43.0052L42.5357 41.1095L40.6542 40.7213L40.25 42.68ZM38.22 55V57H39.9174L40.1934 55.3252L38.22 55ZM4.13 55L2.26599 55.7249L2.76187 57H4.13V55ZM3.67621 52.9426C10.3027 49.0334 15.7922 44.6871 20.1073 39.8871L17.1327 37.2129C13.1412 41.6529 7.99065 45.7532 1.64379 49.4974L3.67621 52.9426ZM20.1073 39.8871C24.4452 35.0619 26.85 30.1484 26.85 25.18H22.85C22.85 28.7983 21.1015 32.7981 17.1327 37.2129L20.1073 39.8871ZM26.85 25.18C26.85 22.4333 25.9608 20.0504 24.0463 18.2595L21.3137 21.1805C22.2925 22.0962 22.85 23.3534 22.85 25.18H26.85ZM24.0942 18.3058C22.2172 16.4288 19.6631 15.62 16.73 15.62V19.62C18.9302 19.62 20.3428 20.2112 21.2658 21.1342L24.0942 18.3058ZM16.73 15.62C14.0511 15.62 11.644 16.1354 9.59871 17.2717L11.5413 20.7683C12.856 20.0379 14.5556 19.62 16.73 19.62V15.62ZM9.61582 17.2623C7.82062 18.2368 6.08047 19.503 4.39249 21.0421L7.08751 23.9979C8.57286 22.6436 10.0527 21.5765 11.5242 20.7777L9.61582 17.2623ZM7.38546 21.3831L4.72546 17.5331L1.43454 19.8069L4.09454 23.6569L7.38546 21.3831ZM4.64174 19.9194C5.41926 18.9475 6.58977 17.8819 8.21989 16.7364L5.92011 13.4636C4.09689 14.7448 2.60741 16.0592 1.51826 17.4206L4.64174 19.9194ZM8.19937 16.7506C9.80252 15.6537 11.6879 14.7268 13.8738 13.9835L12.5862 10.1965C10.1054 11.0399 7.88415 12.1196 5.94063 13.4494L8.19937 16.7506ZM13.9074 13.9718C16.0327 13.2067 18.1606 12.83 20.3 12.83V8.83C17.6794 8.83 15.094 9.29332 12.5526 10.2082L13.9074 13.9718ZM20.3 12.83C23.4898 12.83 26.0025 13.3776 27.9311 14.3615L29.7489 10.7985C27.1041 9.44908 23.9235 8.83 20.3 8.83V12.83ZM27.9456 14.3689C29.9945 15.3933 31.4024 16.6872 32.294 18.2104L35.746 16.1896C34.3976 13.8862 32.3521 12.1 29.7344 10.7911L27.9456 14.3689ZM32.294 18.2104C33.225 19.8009 33.7 21.5724 33.7 23.57H37.7C37.7 20.9009 37.055 18.4258 35.746 16.1896L32.294 18.2104ZM33.7 23.57C33.7 27.3658 31.8894 31.4014 27.8089 35.7037L30.7111 38.4563C35.2173 33.7052 37.7 28.7342 37.7 23.57H33.7ZM27.8089 35.7037C23.6765 40.0606 18.3819 44.0991 11.889 47.8028L13.871 51.2772C20.6314 47.4209 26.2568 43.1527 30.7111 38.4563L27.8089 35.7037ZM13.0654 51.5314L33.3654 49.6414L32.9946 45.6586L12.6946 47.5486L13.0654 51.5314ZM35.0022 48.4743L37.6622 42.5943L34.0178 40.9457L31.3578 46.8257L35.0022 48.4743ZM35.4358 43.7287L39.8458 44.6387L40.6542 40.7213L36.2442 39.8113L35.4358 43.7287ZM38.2766 42.3548L36.2466 54.6748L40.1934 55.3252L42.2234 43.0052L38.2766 42.3548ZM38.22 53H4.13V57H38.22V53ZM5.99401 54.2751L4.52401 50.4951L0.795991 51.9449L2.26599 55.7249L5.99401 54.2751ZM48.8228 34.84L50.3909 36.0814L50.3971 36.0736L50.4033 36.0656L48.8228 34.84ZM56.6628 29.17L57.4566 31.0057L60.9004 29.5165L57.7443 27.4876L56.6628 29.17ZM50.5728 23.57L48.9258 24.7046L48.9318 24.7133L48.9378 24.7219L50.5728 23.57ZM50.6428 8.59L49.0428 7.38999L49.0383 7.39598L50.6428 8.59ZM56.8028 3.9L57.5744 5.74516L56.8028 3.9ZM73.7428 3.76L74.5043 1.91064V1.91064L73.7428 3.76ZM78.7128 21.05L80.3085 22.2557L80.3149 22.2473L80.3212 22.2388L78.7128 21.05ZM71.8528 26.44L70.9584 24.6511L67.6104 26.3251L70.8629 28.1778L71.8528 26.44ZM81.1628 49.05L79.5878 47.8174L79.5794 47.8281L79.5712 47.839L81.1628 49.05ZM74.3028 54.02L73.5651 52.161L73.5549 52.1651L74.3028 54.02ZM51.4828 52.48L50.4148 54.171L50.4228 54.176L50.4309 54.181L51.4828 52.48ZM58.5528 17.83L56.9457 19.0205L56.9706 19.0541L56.9969 19.0867L58.5528 17.83ZM62.1228 21.05L61.0134 22.7141L61.0452 22.7353L61.0777 22.7552L62.1228 21.05ZM68.0728 24.41L67.1266 26.172L68.146 26.7194L69.1287 26.1086L68.0728 24.41ZM72.0628 20.49L70.3755 19.4162L70.3638 19.4347L70.3524 19.4534L72.0628 20.49ZM71.2928 8.73L69.8149 10.0775L69.8256 10.0892L69.8364 10.1007L71.2928 8.73ZM59.4628 8.31L60.7293 9.85792L60.7342 9.85386L59.4628 8.31ZM72.3428 39.18L70.7576 40.3994L70.7692 40.4145L70.7811 40.4294L72.3428 39.18ZM68.8428 36.03L67.7468 37.7029L67.7597 37.7114L67.7727 37.7196L68.8428 36.03ZM63.1028 32.74L64.0371 30.9716L64.0173 30.9612L63.9972 30.9511L63.1028 32.74ZM60.1628 31.2L61.1551 29.4635L60.0969 28.8588L59.0744 29.5221L60.1628 31.2ZM55.9628 35.33L54.2914 34.2316L54.2803 34.2485L54.2695 34.2657L55.9628 35.33ZM57.1528 48.49L55.6872 49.8509L55.6958 49.8602L55.7045 49.8693L57.1528 48.49ZM69.1228 50.45L69.9923 52.2511L70.0048 52.2451L70.0172 52.2389L69.1228 50.45ZM72.4828 47.58L70.8384 46.4416H70.8384L72.4828 47.58ZM48.1628 42.26C48.1628 40.0302 48.8806 37.9892 50.3909 36.0814L47.2547 33.5986C45.2184 36.1708 44.1628 39.0765 44.1628 42.26H48.1628ZM50.4033 36.0656C51.9171 34.1135 54.2225 32.4043 57.4566 31.0057L55.869 27.3343C52.1964 28.9224 49.2752 30.9931 47.2424 33.6144L50.4033 36.0656ZM57.7443 27.4876C55.2982 25.9151 53.4753 24.2171 52.2078 22.4181L48.9378 24.7219C50.5637 27.0296 52.8008 29.0649 55.5813 30.8524L57.7443 27.4876ZM52.2198 22.4354C51.0472 20.7332 50.4028 18.5604 50.4028 15.8H46.4028C46.4028 19.1996 47.2051 22.2067 48.9258 24.7046L52.2198 22.4354ZM50.4028 15.8C50.4028 13.3763 51.0412 11.4047 52.2473 9.78402L49.0383 7.39598C47.2578 9.78862 46.4028 12.6237 46.4028 15.8H50.4028ZM52.2428 9.79C53.5513 8.04539 55.3079 6.69297 57.5744 5.74516L56.0312 2.05484C53.1644 3.2537 50.8144 5.02794 49.0428 7.39L52.2428 9.79ZM57.5744 5.74516C59.8717 4.78446 62.4293 4.29 65.2728 4.29V0.289999C61.9563 0.289999 58.8672 0.868868 56.0312 2.05484L57.5744 5.74516ZM65.2728 4.29C68.3458 4.29 70.8983 4.75166 72.9813 5.60935L74.5043 1.91064C71.8273 0.808336 68.7332 0.289999 65.2728 0.289999V4.29ZM72.9813 5.60935C75.0771 6.47232 76.5684 7.63529 77.5725 9.04841L80.8332 6.73158C79.3172 4.59804 77.1685 3.00767 74.5043 1.91064L72.9813 5.60935ZM77.5725 9.04841C78.5793 10.4654 79.0928 12.0859 79.0928 13.98H83.0928C83.0928 11.3007 82.3464 8.86126 80.8332 6.73158L77.5725 9.04841ZM79.0928 13.98C79.0928 16.1007 78.4476 18.044 77.1045 19.8612L80.3212 22.2388C82.1513 19.7627 83.0928 16.9926 83.0928 13.98H79.0928ZM77.1171 19.8443C75.7592 21.6415 73.7414 23.2596 70.9584 24.6511L72.7472 28.2289C75.9375 26.6337 78.4931 24.6585 80.3085 22.2557L77.1171 19.8443ZM70.8629 28.1778C74.4307 30.2101 77.1407 32.2831 79.0598 34.3728L82.0059 31.6672C79.725 29.1835 76.6482 26.8699 72.8427 24.7022L70.8629 28.1778ZM79.0598 34.3728C80.7917 36.2587 81.6828 38.5861 81.6828 41.49H85.6828C85.6828 37.6739 84.474 34.3547 82.0059 31.6672L79.0598 34.3728ZM81.6828 41.49C81.6828 43.9659 80.9748 46.0451 79.5878 47.8174L82.7378 50.2826C84.7108 47.7616 85.6828 44.8007 85.6828 41.49H81.6828ZM79.5712 47.839C78.1938 49.6492 76.2259 51.1051 73.5651 52.161L75.0405 55.879C78.2597 54.6015 80.8652 52.7441 82.7545 50.261L79.5712 47.839ZM73.5549 52.1651C70.9354 53.2213 67.9286 53.77 64.5028 53.77V57.77C68.357 57.77 71.8835 57.152 75.0508 55.8749L73.5549 52.1651ZM64.5028 53.77C59.6553 53.77 55.6996 52.7362 52.5348 50.779L50.4309 54.181C54.3594 56.6105 59.0836 57.77 64.5028 57.77V53.77ZM52.5508 50.789C49.6442 48.9533 48.1628 46.2211 48.1628 42.26H44.1628C44.1628 47.4456 46.228 51.5267 50.4148 54.171L52.5508 50.789ZM55.1528 13.63C55.1528 15.607 55.7622 17.4227 56.9457 19.0205L60.1599 16.6395C59.4768 15.7173 59.1528 14.733 59.1528 13.63H55.1528ZM56.9969 19.0867C58.1139 20.4696 59.4581 21.6772 61.0134 22.7141L63.2322 19.3859C61.9876 18.5561 60.9517 17.6171 60.1087 16.5733L56.9969 19.0867ZM61.0777 22.7552C62.5712 23.6706 64.5924 24.811 67.1266 26.172L69.0191 22.648C66.5133 21.3023 64.5677 20.2027 63.1679 19.3448L61.0777 22.7552ZM69.1287 26.1086C71.0878 24.8908 72.6568 23.3686 73.7732 21.5266L70.3524 19.4534C69.6021 20.6914 68.5112 21.7826 67.0169 22.7114L69.1287 26.1086ZM73.7501 21.5637C74.928 19.7128 75.5328 17.6853 75.5328 15.52H71.5328C71.5328 16.9014 71.1576 18.1872 70.3755 19.4162L73.7501 21.5637ZM75.5328 15.52C75.5328 12.2519 74.6989 9.43076 72.7492 7.35927L69.8364 10.1007C70.8734 11.2026 71.5328 12.9081 71.5328 15.52H75.5328ZM72.7707 7.38249C70.8644 5.2917 68.2466 4.35 65.2028 4.35V8.35C67.3857 8.35 68.8279 8.99496 69.8149 10.0775L72.7707 7.38249ZM65.2028 4.35C62.5435 4.35 60.1691 5.13742 58.1914 6.76614L60.7342 9.85386C61.9298 8.86924 63.3821 8.35 65.2028 8.35V4.35ZM58.1963 6.76208C56.1196 8.46125 55.1528 10.8439 55.1528 13.63H59.1528C59.1528 11.8428 59.7261 10.6787 60.7293 9.85791L58.1963 6.76208ZM75.7428 43.31C75.7428 41.2994 75.1399 39.4748 73.9046 37.9306L70.7811 40.4294C71.4124 41.2185 71.7428 42.1472 71.7428 43.31H75.7428ZM73.9281 37.9606C72.8405 36.5468 71.4945 35.342 69.9129 34.3404L67.7727 37.7196C68.9912 38.4913 69.9784 39.3866 70.7576 40.3994L73.9281 37.9606ZM69.9389 34.3571C68.5088 33.4202 66.5322 32.2898 64.0371 30.9716L62.1686 34.5084C64.6201 35.8035 66.4701 36.8665 67.7468 37.7029L69.9389 34.3571ZM63.9972 30.9511C62.6991 30.3021 61.759 29.8086 61.1551 29.4635L59.1705 32.9365C59.8733 33.3381 60.8932 33.8713 62.2084 34.5289L63.9972 30.9511ZM59.0744 29.5221C57.1279 30.7847 55.5249 32.3546 54.2914 34.2316L57.6342 36.4284C58.5474 35.0387 59.7443 33.8553 61.2512 32.8779L59.0744 29.5221ZM54.2695 34.2657C53.0391 36.2232 52.4228 38.3898 52.4228 40.72H56.4228C56.4228 39.1302 56.8332 37.7035 57.6561 36.3943L54.2695 34.2657ZM52.4228 40.72C52.4228 44.336 53.4562 47.4483 55.6872 49.8509L58.6184 47.1291C57.2094 45.6117 56.4228 43.544 56.4228 40.72H52.4228ZM55.7045 49.8693C58.0197 52.3002 61.1277 53.43 64.7828 53.43V49.43C61.9979 49.43 60.0193 48.5998 58.6011 47.1107L55.7045 49.8693ZM64.7828 53.43C66.6162 53.43 68.361 53.0387 69.9923 52.2511L68.2533 48.6489C67.178 49.168 66.0294 49.43 64.7828 49.43V53.43ZM70.0172 52.2389C71.6991 51.3979 73.0842 50.225 74.1272 48.7184L70.8384 46.4416C70.2014 47.3617 69.3465 48.1021 68.2284 48.6611L70.0172 52.2389ZM74.1272 48.7184C75.2233 47.1352 75.7428 45.3048 75.7428 43.31H71.7428C71.7428 44.5819 71.4223 45.5982 70.8384 46.4416L74.1272 48.7184Z" fill="#F7D323"/>
</svg>
