<svg width="84" height="61" viewBox="0 0 84 61" fill="none" xmlns="http://www.w3.org/2000/svg">
<path d="M7.35 57.85L7.63284 55.8701L7.6083 55.8666L7.58368 55.8637L7.35 57.85ZM3.43 57.15H1.43V58.6776L2.90377 59.0795L3.43 57.15ZM3.43 51.97L4.02137 50.0594L1.43 49.2573V51.97H3.43ZM18.2 51.27L17.391 49.4409L17.3844 49.4439L17.3778 49.4468L18.2 51.27ZM23.73 46.93L25.3744 48.0684L23.73 46.93ZM22.96 33.98L21.605 35.4511L22.96 33.98ZM15.05 31.39L15.1033 29.3907L14.8301 29.3834L14.5649 29.4497L15.05 31.39ZM10.85 32.44L8.95893 33.091L9.55589 34.8251L11.3351 34.3803L10.85 32.44ZM9.38 28.17L9.04341 26.1985L6.72251 26.5948L7.48892 28.821L9.38 28.17ZM15.05 26.42L14.2319 24.595L14.2293 24.5962L15.05 26.42ZM21.35 21.87L22.8961 23.1386L22.904 23.1291L22.9117 23.1194L21.35 21.87ZM21.42 10.81L20.2031 12.3972L20.2156 12.4068L20.2283 12.4162L21.42 10.81ZM10.22 10.25L9.50204 8.38331L9.49384 8.38646L9.48567 8.38969L10.22 10.25ZM5.67 12.84L3.93527 13.8353L5.10743 15.8783L6.93335 14.3905L5.67 12.84ZM3.22 8.57L1.83081 7.1312L0.709705 8.21364L1.48527 9.56534L3.22 8.57ZM9.8 4.72L9.04272 2.86888L9.03279 2.873L9.8 4.72ZM29.96 5.7L28.8187 7.34238L28.8345 7.35339L28.8506 7.3641L29.96 5.7ZM30.24 23.13L28.8386 21.7031L30.24 23.13ZM20.65 29.01L19.9759 27.127L20.849 31.0001L20.65 29.01ZM32.83 32.09L31.5635 33.6379L31.5703 33.6435L31.5772 33.649L32.83 32.09ZM36.75 40.49H34.75V40.5039L34.7502 40.5178L36.75 40.49ZM33.74 49.52L32.1568 48.2979L32.145 48.3133L32.1334 48.3289L33.74 49.52ZM25.06 55.89L24.3054 54.0378L25.06 55.89ZM11.83 56.2C10.5891 56.2 9.19198 56.0928 7.63284 55.8701L7.06716 59.8299C8.77469 60.0738 10.3642 60.2 11.83 60.2V56.2ZM7.58368 55.8637C6.05207 55.6835 4.85218 55.4648 3.95623 55.2205L2.90377 59.0795C4.06116 59.3952 5.4746 59.6432 7.11632 59.8363L7.58368 55.8637ZM5.43 57.15V51.97H1.43V57.15H5.43ZM2.83863 53.8806C5.00687 54.5517 7.30779 54.88 9.73 54.88V50.88C7.67221 50.88 5.77313 50.6016 4.02137 50.0594L2.83863 53.8806ZM9.73 54.88C13.2111 54.88 16.3275 54.3085 19.0222 53.0932L17.3778 49.4468C15.3126 50.3782 12.7822 50.88 9.73 50.88V54.88ZM19.009 53.0991C21.7051 51.9066 23.8665 50.2465 25.3744 48.0684L22.0856 45.7916C21.0735 47.2535 19.5483 48.4867 17.391 49.4409L19.009 53.0991ZM25.3744 48.0684C26.8637 45.9173 27.62 43.5141 27.62 40.91H23.62C23.62 42.6925 23.1163 44.3027 22.0856 45.7916L25.3744 48.0684ZM27.62 40.91C27.62 37.5077 26.5942 34.6082 24.315 32.5089L21.605 35.4511C22.8725 36.6185 23.62 38.339 23.62 40.91H27.62ZM24.315 32.5089C22.0546 30.427 18.8722 29.4912 15.1033 29.3907L14.9967 33.3893C18.2278 33.4755 20.3187 34.2663 21.605 35.4511L24.315 32.5089ZM14.5649 29.4497L10.3649 30.4997L11.3351 34.3803L15.5351 33.3303L14.5649 29.4497ZM12.7411 31.789L11.2711 27.519L7.48892 28.821L8.95893 33.091L12.7411 31.789ZM9.71659 30.1415C11.8058 29.7848 13.858 29.1496 15.8707 28.2438L14.2293 24.5962C12.5087 25.3704 10.7809 25.9019 9.04341 26.1985L9.71659 30.1415ZM15.8681 28.245C18.7857 26.9371 21.1621 25.2519 22.8961 23.1386L19.8039 20.6014C18.5512 22.1281 16.7276 23.4762 14.2319 24.595L15.8681 28.245ZM22.9117 23.1194C24.6474 20.9498 25.59 18.5362 25.59 15.92H21.59C21.59 17.5038 21.0392 19.0569 19.7883 20.6206L22.9117 23.1194ZM25.59 15.92C25.59 13.1588 24.7118 10.762 22.6117 9.2038L20.2283 12.4162C21.0215 13.0047 21.59 14.0145 21.59 15.92H25.59ZM22.6369 9.22279C20.81 7.82217 18.5542 7.2 16.03 7.2V11.2C17.8925 11.2 19.23 11.6512 20.2031 12.3972L22.6369 9.22279ZM16.03 7.2C13.7444 7.2 11.5631 7.59058 9.50204 8.38331L10.938 12.1167C12.5169 11.5094 14.209 11.2 16.03 11.2V7.2ZM9.48567 8.38969C7.55335 9.15244 5.85082 10.1128 4.40665 11.2895L6.93335 14.3905C8.00918 13.5139 9.33999 12.7475 10.9543 12.1103L9.48567 8.38969ZM7.40473 11.8447L4.95473 7.57466L1.48527 9.56534L3.93527 13.8353L7.40473 11.8447ZM4.60919 10.0088C5.69589 8.95958 7.61871 7.79175 10.5672 6.56699L9.03279 2.873C5.91462 4.16824 3.45078 5.56709 1.83081 7.1312L4.60919 10.0088ZM10.5573 6.57109C13.4088 5.40456 16.2789 4.83 19.18 4.83V0.829997C15.7344 0.829997 12.3512 1.51544 9.04273 2.8689L10.5573 6.57109ZM19.18 4.83C23.3351 4.83 26.4932 5.72635 28.8187 7.34238L31.1013 4.05762C27.9202 1.84698 23.8915 0.829997 19.18 0.829997V4.83ZM28.8506 7.3641C31.0106 8.8041 32.16 10.9749 32.16 14.24H36.16C36.16 9.85176 34.5094 6.32923 31.0694 4.0359L28.8506 7.3641ZM32.16 14.24C32.16 17.0121 31.1072 19.475 28.8386 21.7031L31.6414 24.5569C34.5995 21.6516 36.16 18.1879 36.16 14.24H32.16ZM28.8386 21.7031C26.451 24.0481 23.5098 25.8618 19.9759 27.127L21.3241 30.893C25.3502 29.4515 28.8024 27.3453 31.6414 24.5569L28.8386 21.7031ZM20.849 31.0001C21.2129 30.9637 21.8317 30.94 22.75 30.94V26.94C21.8016 26.94 21.0204 26.963 20.451 27.0199L20.849 31.0001ZM22.75 30.94C26.5612 30.94 29.4369 31.8979 31.5635 33.6379L34.0965 30.5421C31.0898 28.0821 27.2455 26.94 22.75 26.94V30.94ZM31.5772 33.649C33.6946 35.3505 34.75 37.5652 34.75 40.49H38.75C38.75 36.4148 37.1921 33.0295 34.0828 30.531L31.5772 33.649ZM34.7502 40.5178C34.7906 43.4261 33.9341 45.9955 32.1568 48.2979L35.3232 50.7421C37.6526 47.7245 38.8027 44.2739 38.7498 40.4622L34.7502 40.5178ZM32.1334 48.3289C30.3868 50.6847 27.8181 52.6067 24.3054 54.0378L25.8146 57.7422C29.8619 56.0933 33.0798 53.7687 35.3466 50.7111L32.1334 48.3289ZM24.3054 54.0378C20.8141 55.4602 16.6701 56.2 11.83 56.2V60.2C17.0699 60.2 21.7459 59.3998 25.8146 57.7422L24.3054 54.0378ZM48.2584 41.75L46.6807 42.9791L46.6886 42.9893L46.6967 42.9994L48.2584 41.75ZM46.2984 13.12L48.0571 14.0726L48.0625 14.0624L46.2984 13.12ZM53.5084 5.49L54.489 7.23317L54.4978 7.22813L53.5084 5.49ZM77.1684 8.64L75.6011 9.8824L75.6086 9.89173L77.1684 8.64ZM79.0584 37.2L77.2743 36.2961L77.2696 36.3056L79.0584 37.2ZM71.9884 45.04L70.9674 43.3203L71.9884 45.04ZM69.1184 39.02L67.3025 38.1819L67.2967 38.1945L69.1184 39.02ZM69.2584 11.58L67.4157 12.3574L67.4231 12.3749L67.4308 12.3923L69.2584 11.58ZM56.0984 38.81L54.2588 39.5946L54.2658 39.611L54.2731 39.6273L56.0984 38.81ZM61.9784 45.7C56.4932 45.7 52.5451 43.9068 49.8202 40.5006L46.6967 42.9994C50.3184 47.5266 55.517 49.7 61.9784 49.7V45.7ZM49.8362 40.5208C47.0648 36.9636 45.5684 32.0089 45.5684 25.44H41.5684C41.5684 32.5911 43.1987 38.5097 46.6807 42.9791L49.8362 40.5208ZM45.5684 25.44C45.5684 20.8315 46.4326 17.0715 48.057 14.0726L44.5399 12.1674C42.5243 15.8885 41.5684 20.3419 41.5684 25.44H45.5684ZM48.0625 14.0624C49.7264 10.9479 51.8754 8.7033 54.489 7.23315L52.5279 3.74685C49.1682 5.63669 46.5105 8.47879 44.5344 12.1776L48.0625 14.0624ZM54.4978 7.22813C57.2125 5.68283 60.2285 4.9 63.5884 4.9V0.899996C59.5751 0.899996 55.871 1.84383 52.519 3.75187L54.4978 7.22813ZM63.5884 4.9C69.1546 4.9 73.035 6.64506 75.6011 9.88238L78.7358 7.39761C75.2353 2.9816 70.0623 0.899996 63.5884 0.899996V4.9ZM75.6086 9.89173C78.2561 13.1909 79.7184 18.0489 79.7184 24.74H83.7184C83.7184 17.5244 82.1475 11.6491 78.7283 7.38826L75.6086 9.89173ZM79.7184 24.74C79.7184 29.3022 78.8773 33.1323 77.2744 36.2961L80.8425 38.1039C82.7862 34.2677 83.7184 29.7912 83.7184 24.74H79.7184ZM77.2696 36.3056C75.6946 39.4555 73.5882 41.7642 70.9674 43.3203L73.0095 46.7597C76.362 44.7691 78.9689 41.8512 80.8473 38.0944L77.2696 36.3056ZM70.9674 43.3203C68.3088 44.8988 65.3287 45.7 61.9784 45.7V49.7C66.0015 49.7 69.6947 48.7279 73.0095 46.7597L70.9674 43.3203ZM62.6784 45.5C64.504 45.5 66.1862 45.0301 67.6356 44.0218C69.0713 43.023 70.1521 41.5847 70.9401 39.8455L67.2967 38.1945C66.7315 39.442 66.0622 40.2436 65.3513 40.7382C64.6541 41.2232 63.7929 41.5 62.6784 41.5V45.5ZM70.9344 39.8581C72.5165 36.4301 73.2184 31.5797 73.2184 25.51H69.2184C69.2184 31.387 68.5204 35.5432 67.3025 38.1819L70.9344 39.8581ZM73.2184 25.51C73.2184 19.1032 72.5705 14.1078 71.0861 10.7677L67.4308 12.3923C68.5597 14.9322 69.2184 19.2235 69.2184 25.51H73.2184ZM71.1012 10.8026C70.3571 9.0388 69.2848 7.58066 67.8197 6.57243C66.3476 5.55934 64.623 5.1 62.7484 5.1V9.1C63.9539 9.1 64.8543 9.38732 65.5521 9.86756C66.257 10.3527 66.8998 11.1345 67.4157 12.3574L71.1012 10.8026ZM62.7484 5.1C60.9468 5.1 59.2822 5.56192 57.8323 6.54022C56.3961 7.50927 55.2849 8.90713 54.4453 10.6067C52.7937 13.9499 52.0684 18.713 52.0684 24.67H56.0684C56.0684 18.9137 56.7899 14.8918 58.0316 12.3783C58.6386 11.1495 59.3358 10.3511 60.0696 9.85603C60.7897 9.37016 61.6567 9.1 62.7484 9.1V5.1ZM52.0684 24.67C52.0684 31.0094 52.7458 36.0469 54.2588 39.5946L57.9381 38.0254C56.7444 35.2264 56.0684 30.8372 56.0684 24.67H52.0684ZM54.2731 39.6273C55.0796 41.4285 56.1775 42.919 57.6326 43.9561C59.1048 45.0055 60.8164 45.5 62.6784 45.5V41.5C61.5538 41.5 60.6754 41.2128 59.9543 40.6989C59.2161 40.1727 58.5173 39.3181 57.9238 37.9927L54.2731 39.6273Z" fill="#F7D323"/>
</svg>
