<svg width="43" height="62" viewBox="0 0 43 62" fill="none" xmlns="http://www.w3.org/2000/svg">
<path d="M32.39 5.63L31.2806 7.2941L31.2965 7.30472L31.3127 7.31504L32.39 5.63ZM38.76 13.19L36.9258 13.9875L36.9302 13.9973L38.76 13.19ZM36.73 41.12L34.9711 40.1679L34.968 40.1737L36.73 41.12ZM26.09 53.3L24.9407 51.6632L24.9349 51.6672L24.9292 51.6714L26.09 53.3ZM12.44 58.9L10.678 59.8463L11.3295 61.0594L12.6953 60.8836L12.44 58.9ZM10.41 55.12L9.82057 53.2088L7.49813 53.9251L8.64801 56.0663L10.41 55.12ZM22.59 47.35L24.1071 48.6532L22.59 47.35ZM29.1 34.4L31.0434 34.8722L32.7267 27.9448L27.6858 32.9858L29.1 34.4ZM24.69 37.34L25.4661 39.1833L25.4865 39.1747L25.5067 39.1656L24.69 37.34ZM4.95 30.48L3.17449 31.4006L3.18116 31.4135L3.18801 31.4263L4.95 30.48ZM5.23 12.28L3.46448 11.3403L3.45891 11.3509L5.23 12.28ZM11.88 5.42L12.8843 7.14957L12.8946 7.14356L12.9049 7.13742L11.88 5.42ZM26.72 31.88L27.6777 33.6358V33.6358L26.72 31.88ZM30.08 29.08L31.7325 30.2067L32.0222 29.7817L32.071 29.2696L30.08 29.08ZM30.36 24.67L32.3577 24.7651L32.36 24.7176V24.67H30.36ZM28.33 11.72L26.4888 12.5011L26.496 12.5181L26.5035 12.5349L28.33 11.72ZM15.45 10.81L17.1764 11.8198V11.8198L15.45 10.81ZM15.52 29.92L13.8668 31.0456L13.8725 31.0539L13.8782 31.0621L15.52 29.92ZM22.1 4.83C25.8478 4.83 28.8717 5.68818 31.2806 7.2941L33.4994 3.9659C30.3083 1.83848 26.4723 0.829997 22.1 0.829997V4.83ZM31.3127 7.31504C33.8109 8.91223 35.6778 11.1168 36.9259 13.9875L40.5941 12.3925C39.0422 8.82318 36.6625 5.98776 33.4673 3.94495L31.3127 7.31504ZM36.9302 13.9973C38.1981 16.8712 38.86 20.2507 38.86 24.18H42.86C42.86 19.8026 42.1219 15.8555 40.5898 12.3827L36.9302 13.9973ZM38.86 24.18C38.86 30.0792 37.5547 35.3949 34.9711 40.168L38.4889 42.072C41.4119 36.6718 42.86 30.6941 42.86 24.18H38.86ZM34.968 40.1737C32.3988 44.9579 29.0551 48.7744 24.9407 51.6632L27.2393 54.9368C31.8983 51.6656 35.6479 47.3621 38.492 42.0663L34.968 40.1737ZM24.9292 51.6714C20.7743 54.6328 16.5301 56.3571 12.1847 56.9164L12.6953 60.8836C17.7765 60.2296 22.6324 58.2205 27.2508 54.9286L24.9292 51.6714ZM14.202 57.9537L12.172 54.1737L8.64801 56.0663L10.678 59.8463L14.202 57.9537ZM10.9994 57.0312C16.3198 55.3903 20.713 52.6046 24.1071 48.6532L21.0729 46.0468C18.2137 49.3754 14.4868 51.7697 9.82057 53.2088L10.9994 57.0312ZM24.1071 48.6532C27.4539 44.7569 29.761 40.15 31.0434 34.8722L27.1566 33.9278C26.0123 38.6366 23.9794 42.6631 21.0729 46.0468L24.1071 48.6532ZM27.6858 32.9858C26.7192 33.9524 25.4627 34.8033 23.8733 35.5144L25.5067 39.1656C27.4639 38.29 29.1475 37.1809 30.5142 35.8142L27.6858 32.9858ZM23.9139 35.4967C22.4183 36.1265 20.7039 36.46 18.74 36.46V40.46C21.1628 40.46 23.4151 40.0469 25.4661 39.1833L23.9139 35.4967ZM18.74 36.46C15.9744 36.46 13.6023 35.8351 11.564 34.6361L9.53596 38.0839C12.2577 39.6849 15.3456 40.46 18.74 40.46V36.46ZM11.564 34.6361C9.51158 33.4288 7.89848 31.7431 6.71199 29.5337L3.18801 31.4263C4.70818 34.2569 6.82842 36.4912 9.53596 38.0839L11.564 34.6361ZM6.72551 29.5594C5.59116 27.3717 4.99 24.7582 4.99 21.66H0.99C0.99 25.2818 1.69551 28.5483 3.17449 31.4006L6.72551 29.5594ZM4.99 21.66C4.99 18.5571 5.6671 15.752 7.00109 13.2091L3.45891 11.3509C1.80623 14.5013 0.99 17.9496 0.99 21.66H4.99ZM6.99549 13.2197C8.35653 10.6626 10.3063 8.64648 12.8843 7.14957L10.8757 3.69042C7.66706 5.55352 5.18347 8.11074 3.46451 11.3403L6.99549 13.2197ZM12.9049 7.13742C15.4408 5.62409 18.4811 4.83 22.1 4.83V0.829997C17.8789 0.829997 14.1059 1.76257 10.8551 3.70257L12.9049 7.13742ZM21.61 35.14C23.7892 35.14 25.8251 34.6463 27.6777 33.6358L25.7623 30.1242C24.5349 30.7937 23.1642 31.14 21.61 31.14V35.14ZM27.6777 33.6358C29.3884 32.7027 30.7959 31.5803 31.7325 30.2067L28.4275 27.9533C27.9641 28.633 27.1316 29.3773 25.7623 30.1242L27.6777 33.6358ZM32.071 29.2696C32.169 28.2408 32.2641 26.7323 32.3577 24.7651L28.3623 24.5749C28.2693 26.5277 28.1777 27.9592 28.089 28.8904L32.071 29.2696ZM32.36 24.67C32.36 18.9562 31.6768 14.3128 30.1565 10.9051L26.5035 12.5349C27.6898 15.1938 28.36 19.1838 28.36 24.67H32.36ZM30.1712 10.9389C29.4014 9.12433 28.2909 7.63115 26.7776 6.60146C25.259 5.56817 23.4789 5.1 21.54 5.1V9.1C22.8211 9.1 23.7827 9.40182 24.5274 9.90853C25.2774 10.4188 25.952 11.2357 26.4888 12.5011L30.1712 10.9389ZM21.54 5.1C18.137 5.1 15.4871 6.78521 13.7236 9.80023L17.1764 11.8198C18.3062 9.88812 19.7164 9.1 21.54 9.1V5.1ZM13.7236 9.80023C12.0598 12.6449 11.28 16.0222 11.28 19.84H15.28C15.28 16.5645 15.9469 13.9218 17.1764 11.8198L13.7236 9.80023ZM11.28 19.84C11.28 24.5155 12.0381 28.3596 13.8668 31.0456L17.1732 28.7944C16.0153 27.0937 15.28 24.2179 15.28 19.84H11.28ZM13.8782 31.0621C15.737 33.7341 18.374 35.14 21.61 35.14V31.14C19.7126 31.14 18.2897 30.3992 17.1618 28.7779L13.8782 31.0621Z" fill="#F7D323"/>
</svg>
