<svg width="111" height="111" viewBox="0 0 111 111" fill="none" xmlns="http://www.w3.org/2000/svg">
<path d="M11.5005 69.994H10.4326V61.4514H11.5005V69.994ZM11.5005 65.6676L14.7862 61.4514H16.0731L12.7053 65.6676L16.3469 69.994H15.06L11.5005 65.6676Z" fill="#FBFBFB"/>
<path d="M27.2167 69.994H26.1214L23.0273 61.4514H24.1774L26.669 68.4233L29.1607 61.4514H30.3107L27.2167 69.994Z" fill="#FBFBFB"/>
<path d="M54.4334 66.4667H52.8179V69.994H51.75V61.4514H54.9262C55.2822 61.4514 55.6108 61.5065 55.912 61.6443C56.2131 61.7821 56.487 61.9474 56.7334 62.1955C56.9524 62.4159 57.1441 62.6915 57.281 62.9946C57.4179 63.2977 57.4727 63.6284 57.4727 63.9591C57.4727 64.4551 57.3632 64.8684 57.1715 65.1716C56.9798 65.4747 56.7608 65.7227 56.5143 65.9156C56.2405 66.1361 55.9393 66.3014 55.5834 66.4116L57.6644 70.0216H56.4596L54.4334 66.4667ZM52.8179 65.5298H54.8988C55.0905 65.5298 55.2822 65.5023 55.4739 65.4196C55.6655 65.3369 55.8024 65.2267 55.9393 65.0889C56.0762 64.9511 56.1858 64.7858 56.2679 64.5929C56.3501 64.4 56.3774 64.2071 56.3774 63.9866C56.3774 63.7662 56.3501 63.5733 56.2679 63.3804C56.1858 63.1875 56.0762 63.0222 55.9393 62.8844C55.8024 62.7466 55.6381 62.6364 55.4739 62.5537C55.2822 62.471 55.1179 62.4435 54.8988 62.4435H52.8179V65.5298Z" fill="#FBFBFB"/>
<path d="M71.1638 62.3883H68.5899V69.994H67.5221V62.3883H64.9482V61.4514H71.1638V62.3883Z" fill="#FBFBFB"/>
<path d="M97.9152 69.0571V69.994H92.7676V61.4514H93.8628V69.0571H97.9152Z" fill="#FBFBFB"/>
<path d="M40.6881 61.4514H39.5654L40.3321 63.4906L41.619 66.9352L41.975 67.8997L42.769 69.994H43.919L40.6881 61.4514Z" fill="#FBFBFB"/>
<path d="M39.6478 64.7307L38.9907 62.9946L36.499 69.994H37.649L38.4705 67.8997L38.799 66.9352L39.6478 64.7307Z" fill="#FBFBFB"/>
<path d="M81.733 61.4514H80.583L81.3497 63.4906L82.664 66.9352L82.9926 67.8997L83.814 69.994H84.964L81.733 61.4514Z" fill="#FBFBFB"/>
<path d="M80.6918 64.7307L80.0347 62.9946L77.543 69.994H78.693L79.5144 67.8997L79.843 66.9352L80.6918 64.7307Z" fill="#FBFBFB"/>
<path d="M60.9784 25.5175C61.5534 25.0491 62.101 24.4428 62.6213 23.6437C63.1141 22.8445 63.3605 21.8249 63.3605 20.5849C63.3605 19.7306 63.1963 18.9315 62.8403 18.1599C62.5117 17.3883 62.0462 16.6994 61.4712 16.1482C60.8962 15.5695 60.2117 15.1286 59.4177 14.7704C58.6236 14.4397 57.7748 14.2468 56.8986 14.2468H48.9033V35.8237H51.6414V16.6443H56.8986C57.3915 16.6443 57.8843 16.7545 58.3224 16.9474C58.7879 17.1678 59.1712 17.4434 59.5272 17.7741C59.8831 18.1323 60.1296 18.5457 60.3486 19.0417C60.5403 19.5377 60.6498 20.0337 60.6498 20.5849C60.6498 21.136 60.5403 21.632 60.3486 22.1281C60.1569 22.5965 59.8831 23.0099 59.5272 23.3681C59.1712 23.7263 58.7879 24.0019 58.3224 24.1948C57.8569 24.3877 57.3915 24.4979 56.8986 24.4979H54.3795L60.8689 35.7962H63.8534L58.6236 26.7025C59.4998 26.4544 60.2665 26.0687 60.9784 25.5175Z" fill="#FBFBFB"/>
<path d="M18.126 14.2468L20.0427 19.3999L23.3558 28.1079L24.2046 30.5053L26.2582 35.8237H29.1332L20.9736 14.2468H18.126Z" fill="#FBFBFB"/>
<path d="M10.4326 35.8238H13.3076L15.3612 30.5053L16.21 28.1079L18.3458 22.4863L16.7303 18.1599L10.4326 35.8238Z" fill="#FBFBFB"/>
<path d="M91.453 19.0142H88.7148V35.7962H91.453V19.0142Z" fill="#FBFBFB"/>
<path d="M97.915 14.2468H82.2529V16.6443H97.915V14.2468Z" fill="#FBFBFB"/>
<path d="M21.4668 110.806H0V88.9531H0.73929V110.062H21.4668V110.806Z" fill="#FBFBFB"/>
<path d="M110.1 21.6045H109.361V0.744035H88.3867V0H110.1V21.6045Z" fill="#FBFBFB"/>
<path d="M0.739291 21.6045H0V0H21.7133V0.744035H0.739291V21.6045Z" fill="#FBFBFB"/>
<path d="M110.1 110.806H88.6328V110.062H109.36V88.9531H110.1V110.806Z" fill="#FBFBFB"/>
<path d="M14.7583 90.6341C14.4571 90.6341 14.1559 90.7168 13.8547 90.8545C13.5535 90.9923 13.3071 91.1852 13.0881 91.4333C12.869 91.6813 12.6774 91.9844 12.5404 92.3151C12.4035 92.6458 12.3488 93.0315 12.3488 93.4449C12.3488 93.8582 12.4035 94.2165 12.5404 94.5747C12.6774 94.9054 12.8416 95.2085 13.0881 95.4565C13.3071 95.7046 13.5809 95.8975 13.8547 96.0352C14.1559 96.173 14.4571 96.2557 14.7583 96.2557C15.0321 96.2557 15.2786 96.2006 15.525 96.1179C15.744 96.0352 15.9631 95.925 16.1274 95.7597C16.2917 95.6219 16.4559 95.429 16.5655 95.2361C16.675 95.0432 16.7571 94.8227 16.8393 94.6023H17.7976C17.6881 94.933 17.5512 95.2636 17.3869 95.5392C17.2226 95.8423 17.0036 96.0904 16.7298 96.3108C16.4833 96.5313 16.1821 96.6966 15.8536 96.8344C15.525 96.9446 15.169 97.0273 14.7857 97.0273C14.3476 97.0273 13.9369 96.9446 13.5535 96.7517C13.1702 96.5588 12.8143 96.3108 12.5131 95.9801C12.2119 95.6494 11.9654 95.2636 11.8012 94.8503C11.6095 94.4094 11.5273 93.9409 11.5273 93.4449C11.5273 92.9489 11.6095 92.4804 11.8012 92.0395C11.9928 91.5986 12.2119 91.2128 12.5131 90.8821C12.8143 90.5514 13.1702 90.3034 13.5535 90.1105C13.9643 89.9176 14.375 89.835 14.7857 89.835C15.169 89.835 15.4976 89.8901 15.8262 90.0278C16.1548 90.1381 16.4286 90.331 16.675 90.5514C16.9214 90.7719 17.1405 91.0199 17.3321 91.323C17.4964 91.6261 17.6607 91.9293 17.7429 92.26H16.7845C16.7298 92.0395 16.6476 91.8191 16.5381 91.6262C16.4286 91.4333 16.2917 91.2679 16.1 91.1026C15.9357 90.9648 15.744 90.827 15.525 90.7443C15.2786 90.6892 15.0321 90.6341 14.7583 90.6341Z" fill="#FBFBFB"/>
<path d="M23.6848 96.9717H22.7812V89.8896H23.6848V96.9717Z" fill="#FBFBFB"/>
<path d="M33.6789 90.6886H31.5705V96.9715H30.6669V90.6886H28.5586V89.917H33.7063V90.6886H33.6789Z" fill="#FBFBFB"/>
<path d="M37.7314 89.917H38.6898L40.4148 93.2789L42.1398 89.917H43.0982L40.8529 94.2434V96.9991H39.9493V94.2434L37.7314 89.917Z" fill="#FBFBFB"/>
<path d="M53.6945 91.7639C53.6945 91.5159 53.7492 91.2955 53.8588 91.0475C53.9683 90.7994 54.1326 90.6065 54.3242 90.4412C54.5159 90.2759 54.7623 90.1105 55.0362 90.0003C55.31 89.8901 55.6112 89.835 55.9671 89.835C56.2683 89.835 56.5695 89.8901 56.8159 90.0003C57.0897 90.1105 57.3088 90.2759 57.5005 90.4412C57.6921 90.6341 57.8564 90.8545 57.9659 91.1301C58.0755 91.4057 58.1302 91.6813 58.1302 91.9568H57.254C57.254 91.571 57.1171 91.2403 56.8707 90.9923C56.6243 90.7443 56.3231 90.6065 55.9671 90.6065C55.7481 90.6065 55.5838 90.6341 55.3921 90.7168C55.2278 90.7719 55.0635 90.8546 54.954 90.9648C54.8445 91.075 54.735 91.1852 54.6802 91.323C54.6254 91.4608 54.5707 91.5986 54.5707 91.7364C54.5707 92.0395 54.6528 92.26 54.8445 92.4253C55.0362 92.5906 55.2552 92.7284 55.529 92.8386C55.8028 92.9489 56.104 93.0591 56.4326 93.1418C56.7612 93.2244 57.0624 93.3622 57.3362 93.5C57.61 93.6654 57.8564 93.8583 58.0207 94.1063C58.2124 94.3543 58.2945 94.6849 58.2945 95.1259C58.2945 95.3739 58.2398 95.6219 58.1302 95.8423C58.0207 96.0628 57.8564 96.2833 57.6647 96.4486C57.4731 96.6139 57.2266 96.7517 56.9255 96.8619C56.6243 96.9722 56.2957 97.0273 55.9397 97.0273C55.5838 97.0273 55.2552 96.9722 54.954 96.8619C54.6528 96.7517 54.4064 96.6139 54.2147 96.421C54.0231 96.2281 53.8588 96.0077 53.7492 95.7321C53.6397 95.4841 53.585 95.181 53.585 94.8779H54.4885C54.4885 95.2912 54.6254 95.6494 54.8445 95.8699C55.0909 96.1179 55.4469 96.2281 55.9397 96.2281C56.4326 96.2281 56.7886 96.1179 57.035 95.8975C57.2814 95.677 57.3909 95.4014 57.3909 95.0983C57.3909 94.7952 57.3088 94.5747 57.1171 94.4094C56.9255 94.244 56.7064 94.1063 56.4326 93.996C56.1588 93.8858 55.8576 93.7756 55.529 93.6929C55.2004 93.6102 54.8993 93.4724 54.6254 93.3347C54.3516 93.1693 54.1326 92.9764 53.9409 92.7284C53.804 92.508 53.6945 92.1773 53.6945 91.7639Z" fill="#FBFBFB"/>
<path d="M65.7972 89.9176C66.0984 89.9176 66.3996 89.9727 66.6734 90.083C66.9472 90.1932 67.1936 90.3585 67.3853 90.5514C67.577 90.7443 67.7412 90.9923 67.8782 91.2403C68.0151 91.4884 68.0698 91.7915 68.0698 92.0671C68.0698 92.3426 68.0151 92.6457 67.8782 92.8938C67.7412 93.1418 67.6043 93.3898 67.3853 93.5827C67.1936 93.7756 66.9472 93.9409 66.6734 94.0511C66.3996 94.1614 66.0984 94.2165 65.7972 94.2165H64.2912V96.917H63.415V89.835H65.7972V89.9176ZM65.7972 93.5C65.9615 93.5 66.1531 93.4724 66.3174 93.3898C66.4817 93.3071 66.6186 93.2244 66.7555 93.0867C66.8924 92.9489 66.9746 92.8111 67.0567 92.6457C67.1389 92.4804 67.1663 92.2875 67.1663 92.0946C67.1663 91.9017 67.1389 91.7088 67.0567 91.5435C66.9746 91.3781 66.8924 91.2128 66.7555 91.1026C66.6186 90.9648 66.4817 90.8821 66.3174 90.7994C66.1531 90.7168 65.9889 90.6892 65.7972 90.6892H64.2912V93.5H65.7972Z" fill="#FBFBFB"/>
<path d="M76.4749 95.2356H73.5725L72.9154 96.9717H71.957L74.6404 89.8896H75.4071L78.0904 96.9717H77.1321L76.4749 95.2356ZM73.8463 94.4641H76.2011L75.0237 91.3777L73.8463 94.4641Z" fill="#FBFBFB"/>
<path d="M85.3472 90.6341C85.046 90.6341 84.7448 90.7168 84.4436 90.8545C84.1424 90.9923 83.896 91.1852 83.6769 91.4333C83.4579 91.6813 83.2662 91.9844 83.1293 92.3151C82.9924 92.6458 82.9376 93.0315 82.9376 93.4449C82.9376 93.8582 82.9924 94.2165 83.1293 94.5747C83.2662 94.9054 83.4305 95.2085 83.6769 95.4565C83.896 95.7046 84.1698 95.8975 84.4436 96.0352C84.7448 96.173 85.046 96.2557 85.3472 96.2557C85.621 96.2557 85.8674 96.2006 86.1139 96.1179C86.3329 96.0352 86.552 95.925 86.7162 95.7597C86.8805 95.6219 87.0448 95.429 87.1543 95.2361C87.2639 95.0432 87.346 94.8227 87.4282 94.6023H88.3865C88.277 94.933 88.1401 95.2636 87.9758 95.5392C87.8115 95.8423 87.5924 96.0904 87.3186 96.3108C87.0722 96.5313 86.771 96.6966 86.4424 96.8344C86.1139 96.9446 85.7579 97.0273 85.3746 97.0273C84.9365 97.0273 84.5258 96.9446 84.1424 96.7517C83.7591 96.5588 83.4031 96.3108 83.1019 95.9801C82.8007 95.6494 82.5543 95.2636 82.39 94.8503C82.1984 94.4094 82.1162 93.9409 82.1162 93.4449C82.1162 92.9489 82.1984 92.4804 82.39 92.0395C82.5817 91.5986 82.8007 91.2128 83.1019 90.8821C83.4031 90.5514 83.7591 90.3034 84.1424 90.1105C84.5531 89.9176 84.9639 89.835 85.3746 89.835C85.7579 89.835 86.0865 89.8901 86.4151 90.0278C86.7436 90.1381 87.0174 90.331 87.2639 90.5514C87.5103 90.7719 87.7293 91.0199 87.921 91.323C88.0853 91.6261 88.2496 91.9293 88.3317 92.26H87.3734C87.3186 92.0395 87.2365 91.8191 87.127 91.6262C87.0174 91.4333 86.8805 91.2679 86.6889 91.1026C86.5246 90.9648 86.3329 90.827 86.1139 90.7443C85.84 90.6892 85.621 90.6341 85.3472 90.6341Z" fill="#FBFBFB"/>
<path d="M97.9418 96.2001V96.9717H93.3691V89.8896H97.8323V90.6612H94.2727V92.9209H97.5585V93.6925H94.2727V96.1726H97.9418V96.2001Z" fill="#FBFBFB"/>
</svg>
