<svg width="235" height="73" viewBox="0 0 235 73" fill="none" xmlns="http://www.w3.org/2000/svg">
<g clip-path="url(#clip0)">
<path d="M137.732 56.2146L136.227 55.2247C144.857 42.2124 143.07 24.7525 131.977 13.7102C119.042 0.838108 97.9998 0.838108 85.065 13.7102L83.791 12.4422C97.4267 -1.13412 119.615 -1.13086 133.251 12.4422C144.948 24.0842 146.834 42.4927 137.732 56.2146Z" fill="#FBFBFB"/>
<path d="M26.1568 17.6423L24.8828 16.3742L33.3267 7.96595L34.6017 9.23404L26.1568 17.6423Z" fill="#FBFBFB"/>
<path d="M34.6052 17.6423L33.3291 16.3742L41.7719 7.96595L43.0491 9.23404L34.6052 17.6423Z" fill="#FBFBFB"/>
<path d="M43.0474 17.6423L41.7734 16.3742L50.2195 7.96595L51.4934 9.23404L43.0474 17.6423Z" fill="#FBFBFB"/>
<path d="M124.843 19.635L123.587 18.3452L142.604 -0.000270945L143.862 1.28846L124.843 19.635Z" fill="#FBFBFB"/>
<path d="M18.1365 52.5452L9.19709 40.3076L5.50734 44.1151V52.5452H0V25.0134H5.50734V37.9192L17.5427 25.0134H24.0805L12.8978 36.6022L24.7432 52.5452H18.1365Z" fill="#FBFBFB"/>
<path d="M77.8738 52.5452L63.5733 33.8563V52.5452H58.1445V25.0134H63.3713L77.2122 43.122V25.0134H82.641V52.5452H77.8738Z" fill="#FBFBFB"/>
<path d="M117.131 52.5444H122.638V25.0137H117.131V52.5444Z" fill="#FBFBFB"/>
<path d="M148.581 52.5452L134.279 33.8563V52.5452H128.853V25.0134H134.067L147.919 43.122V25.0134H153.359V52.5452H148.581Z" fill="#FBFBFB"/>
<path d="M169.161 52.9473C164.888 52.9473 160.805 51.4629 157.621 48.7496L160.861 44.8867C163.667 47.1414 166.359 48.1792 169.273 48.1792C172.033 48.1792 173.749 47.0186 173.749 45.1649V45.0877C173.749 43.1894 172.459 42.3299 167.759 41.1357C161.558 39.5492 158.619 37.9084 158.619 32.8404V32.7611C158.619 30.3727 159.539 28.3396 161.289 26.8553C162.994 25.4035 165.448 24.5875 168.174 24.5875C171.988 24.5875 175.385 25.7056 178.245 27.9158L175.385 32.0243C172.738 30.2379 170.35 29.3675 168.095 29.3675C165.146 29.3675 164.091 30.8856 164.091 32.1808V32.2699C164.091 34.5029 165.853 35.1625 170.496 36.3447C175.879 37.7411 179.233 39.5829 179.233 44.4618V44.5498C179.233 49.7319 175.353 52.9473 169.161 52.9473Z" fill="#FBFBFB"/>
<path d="M201.52 52.5452L192.581 40.3076L188.879 44.1151V52.5452H183.36V25.0134H188.879V37.9192L200.926 25.0134H207.465L196.281 36.6022L208.126 52.5452H201.52Z" fill="#FBFBFB"/>
<path d="M218.86 52.5452V41.6485L208.248 25.0134H214.688L221.653 36.6913L228.775 25.0134H234.999L224.366 41.5366V52.5452H218.86Z" fill="#FBFBFB"/>
<path d="M49.5085 52.5452L46.929 46.2036H34.434L31.8316 52.5452H26.2686L30.991 41.4801H44.9782V41.4366H45L40.6815 30.9518L40.6477 30.9866L38.1129 24.8124V24.8015H43.4073L55.2626 52.5452H49.5085Z" fill="#FBFBFB"/>
<path d="M93.7896 52.5452V47.6554H97.7151C100.318 47.6554 102.549 46.8056 104.165 45.2213C105.79 43.6131 106.632 41.4257 106.632 38.857V38.7679C106.632 33.5542 102.976 29.9032 97.7151 29.9032H93.7896H93.4304H87.0039V25.0134H97.7151C106.24 25.0134 112.43 30.7627 112.43 38.6885V38.7679C112.43 42.5634 110.995 46.0472 108.36 48.5703C105.667 51.138 101.887 52.5452 97.7151 52.5452H93.7896Z" fill="#FBFBFB"/>
<path d="M33.5508 68.2938V68.2667C33.5508 66.188 32.028 64.4874 29.9255 64.4874C27.8241 64.4874 26.3264 66.1619 26.3264 68.2406V68.2667C26.3264 70.3465 27.8503 72.0459 29.9517 72.0459C32.0531 72.0459 33.5508 70.3715 33.5508 68.2938ZM25.25 68.2938V68.2667C25.25 65.7424 27.1549 63.5333 29.9517 63.5333C32.7518 63.5333 34.6305 65.7175 34.6305 68.2406V68.2667C34.6305 70.7909 32.7256 73 29.9255 73C27.1287 73 25.25 70.817 25.25 68.2938Z" fill="#FBFBFB"/>
<path d="M40.7628 64.6457V71.8891H42.9166C45.2418 71.8891 46.7264 70.3211 46.7264 68.2935V68.2663C46.7264 66.2408 45.2418 64.6457 42.9166 64.6457H40.7628ZM39.7246 63.6905H42.9166C45.8072 63.6905 47.8028 65.6638 47.8028 68.2413V68.2663C47.8028 70.8427 45.8072 72.8442 42.9166 72.8442H39.7246V63.6905Z" fill="#FBFBFB"/>
<path d="M52.8975 63.6905H59.5456V64.6305H53.9356V67.7567H58.9539V68.6977H53.9356V71.9021H59.61V72.8442H52.8975V63.6905Z" fill="#FBFBFB"/>
<path d="M63.9932 71.5092L64.6361 70.7519C65.5968 71.6146 66.5159 72.046 67.7899 72.046C69.0245 72.046 69.8389 71.393 69.8389 70.49V70.4639C69.8389 69.6142 69.3804 69.1317 67.4471 68.7242C65.3326 68.2668 64.361 67.5876 64.361 66.0827V66.0566C64.361 64.6179 65.635 63.5595 67.3816 63.5595C68.7232 63.5595 69.6806 63.9387 70.6151 64.6842L70.0103 65.4817C69.1566 64.7885 68.303 64.4875 67.3565 64.4875C66.1601 64.4875 65.3992 65.1416 65.3992 65.9653V65.9925C65.3992 66.8552 65.8719 67.3377 67.8958 67.7702C69.9437 68.2157 70.8902 68.96 70.8902 70.3585V70.3868C70.8902 71.9537 69.5769 72.9751 67.7506 72.9751C66.2922 72.9751 65.0957 72.4905 63.9932 71.5092Z" fill="#FBFBFB"/>
<path d="M75.2988 71.5092L75.9418 70.7519C76.9024 71.6146 77.8216 72.046 79.0956 72.046C80.3302 72.046 81.1446 71.393 81.1446 70.49V70.4639C81.1446 69.6142 80.6861 69.1317 78.7528 68.7242C76.6383 68.2668 75.6667 67.5876 75.6667 66.0827V66.0566C75.6667 64.6179 76.9417 63.5595 78.6873 63.5595C80.0289 63.5595 80.9863 63.9387 81.9207 64.6842L81.317 65.4817C80.4623 64.7885 79.6086 64.4875 78.6622 64.4875C77.4657 64.4875 76.706 65.1416 76.706 65.9653V65.9925C76.706 66.8552 77.1775 67.3377 79.2014 67.7702C81.2494 68.2157 82.1958 68.96 82.1958 70.3585V70.3868C82.1958 71.9537 80.8837 72.9751 79.0563 72.9751C77.5978 72.9751 76.4014 72.4905 75.2988 71.5092Z" fill="#FBFBFB"/>
<path d="M93.1738 69.4961L91.0844 64.8269L88.983 69.4961H93.1738ZM90.6128 63.6251H91.5833L95.7741 72.844H94.6584L93.581 70.4241H88.5758L87.4863 72.844H86.4209L90.6128 63.6251Z" fill="#FBFBFB"/>
<path d="M111.185 68.3584C112.566 68.3584 113.552 67.6521 113.552 66.4753V66.4492C113.552 65.3246 112.683 64.6454 111.198 64.6454H108.362V68.3584H111.185ZM107.324 63.6903H111.278C112.408 63.6903 113.313 64.0304 113.892 64.6052C114.338 65.0496 114.602 65.6918 114.602 66.4101V66.4362C114.602 67.9531 113.552 68.842 112.107 69.1038L114.93 72.844H113.656L110.988 69.2864H108.362V72.844H107.324V63.6903Z" fill="#FBFBFB"/>
<path d="M119.719 63.6905H126.368V64.6305H120.757V67.7567H125.776V68.6977H120.757V71.9021H126.432V72.8442H119.719V63.6905Z" fill="#FBFBFB"/>
<path d="M130.815 71.5092L131.458 70.7519C132.419 71.6146 133.338 72.046 134.612 72.046C135.847 72.046 136.661 71.393 136.661 70.49V70.4639C136.661 69.6142 136.203 69.1317 134.269 68.7242C132.155 68.2668 131.183 67.5876 131.183 66.0827V66.0566C131.183 64.6179 132.458 63.5595 134.204 63.5595C135.546 63.5595 136.503 63.9387 137.437 64.6842L136.834 65.4817C135.979 64.7885 135.125 64.4875 134.178 64.4875C132.981 64.4875 132.221 65.1416 132.221 65.9653V65.9925C132.221 66.8552 132.694 67.3377 134.718 67.7702C136.765 68.2157 137.712 68.96 137.712 70.3585V70.3868C137.712 71.9537 136.399 72.9751 134.572 72.9751C133.113 72.9751 131.918 72.4905 130.815 71.5092Z" fill="#FBFBFB"/>
<path d="M142.817 63.691H143.854V72.8447H142.817V63.691Z" fill="#FBFBFB"/>
<path d="M150.48 64.6457V71.8891H152.637C154.961 71.8891 156.445 70.3211 156.445 68.2935V68.2663C156.445 66.2408 154.961 64.6457 152.637 64.6457H150.48ZM149.441 63.6905H152.637C155.524 63.6905 157.522 65.6638 157.522 68.2413V68.2663C157.522 70.8427 155.524 72.8442 152.637 72.8442H149.441V63.6905Z" fill="#FBFBFB"/>
<path d="M162.616 63.6905H169.265V64.6305H163.654V67.7567H168.674V68.6977H163.654V71.9021H169.33V72.8442H162.616V63.6905Z" fill="#FBFBFB"/>
<path d="M174.317 63.6905H175.291L181.082 71.0263V63.6905H182.094V72.8442H181.267L175.329 65.3378V72.8442H174.317V63.6905Z" fill="#FBFBFB"/>
<path d="M187.185 68.2938V68.2667C187.185 65.6772 189.131 63.5333 191.837 63.5333C193.506 63.5333 194.502 64.1223 195.423 64.9851L194.713 65.7424C193.939 65.0111 193.071 64.4874 191.824 64.4874C189.787 64.4874 188.264 66.1358 188.264 68.2406V68.2667C188.264 70.3867 189.8 72.0459 191.824 72.0459C193.085 72.0459 193.91 71.5624 194.793 70.7257L195.476 71.3929C194.516 72.3589 193.465 73 191.797 73C189.144 73 187.185 70.9224 187.185 68.2938Z" fill="#FBFBFB"/>
<path d="M200.24 63.6905H206.889V64.6305H201.278V67.7567H206.298V68.6977H201.278V71.9021H206.953V72.8442H200.24V63.6905Z" fill="#FBFBFB"/>
</g>
<defs>
<clipPath id="clip0">
<rect width="235" height="73" fill="white"/>
</clipPath>
</defs>
</svg>
