<svg width="186" height="72" viewBox="0 0 186 72" fill="none" xmlns="http://www.w3.org/2000/svg">
<path d="M57.7484 32.5567L53.3497 25.2314H51.6531V32.5567H47.8828V13.7114H55.1092C57.3085 13.7114 59.0051 14.275 60.1362 15.3393C61.2673 16.4037 61.8328 17.781 61.8328 19.534C61.8328 20.974 61.4558 22.1636 60.6389 23.1027C59.822 24.0419 58.6909 24.7306 57.1828 25.0437L61.8957 32.5567H57.7484ZM51.6531 22.6019H54.7321C56.8686 22.6019 57.9997 21.6628 57.9997 19.7219C57.9997 18.8454 57.7484 18.094 57.1828 17.5932C56.6801 17.0923 55.8632 16.8419 54.7321 16.8419H51.6531V22.6019Z" fill="#FBFBFB"/>
<path d="M78.2965 17.7184V32.494H74.5262V29.4888C74.1492 30.4905 73.4579 31.2418 72.5782 31.8053C71.6985 32.3688 70.6302 32.6192 69.4363 32.6192C67.7397 32.6192 66.3573 32.0558 65.3519 30.9288C64.3465 29.8019 63.8438 28.2366 63.8438 26.2332V17.6558H67.614V25.7949C67.614 26.9845 67.9282 27.861 68.4938 28.5497C69.1221 29.1758 69.939 29.5514 70.9444 29.5514C72.0127 29.5514 72.8924 29.1758 73.5208 28.4871C74.1492 27.7984 74.4633 26.7966 74.4633 25.4818V17.6558H78.2965V17.7184Z" fill="#FBFBFB"/>
<path d="M90.989 18.9079C92.0572 19.7844 92.7484 21.0366 92.9998 22.5392H89.4809C89.3552 21.8505 89.041 21.2871 88.5383 20.8488C88.0356 20.4105 87.4072 20.2227 86.5903 20.2227C85.9619 20.2227 85.4592 20.3479 85.0822 20.661C84.7052 20.974 84.5167 21.3497 84.5167 21.9131C84.5167 22.3514 84.6423 22.6644 84.9565 22.9149C85.2707 23.1653 85.5849 23.3531 86.0248 23.4784C86.4646 23.6036 87.093 23.7914 87.8471 23.9792C88.9782 24.2297 89.8579 24.4801 90.6119 24.7931C91.3032 25.0436 91.9315 25.4818 92.4342 26.1079C92.9369 26.734 93.1883 27.4853 93.1883 28.5497C93.1883 29.8018 92.6856 30.8662 91.6802 31.6175C90.6748 32.4314 89.3552 32.807 87.6586 32.807C85.7106 32.807 84.2025 32.3688 83.0086 31.4923C81.8775 30.6158 81.1234 29.4261 80.8721 27.7983H84.5167C84.5795 28.5496 84.9565 29.1131 85.4592 29.4888C86.0248 29.9271 86.716 30.1149 87.6586 30.1149C88.2869 30.1149 88.7896 29.9896 89.1038 29.6766C89.418 29.3635 89.6065 28.9879 89.6065 28.4871C89.6065 28.0488 89.4809 27.7358 89.1667 27.4227C88.8525 27.1097 88.4755 26.9218 88.0984 26.7966C87.6586 26.6714 87.0302 26.4836 86.2133 26.2958C85.0822 26.0453 84.2025 25.7949 83.5113 25.5444C82.82 25.294 82.2545 24.8558 81.7518 24.2923C81.2491 23.7288 80.9977 22.9149 80.9977 21.9131C80.9977 20.661 81.5004 19.5966 82.443 18.7827C83.4484 17.9688 84.768 17.5931 86.5275 17.5931C88.4126 17.5305 89.8579 18.0313 90.989 18.9079Z" fill="#FBFBFB"/>
<path d="M104.814 18.4696C105.694 19.0331 106.322 19.847 106.699 20.8487V17.7808H110.469V32.5565H106.699V29.4887C106.322 30.4905 105.694 31.3043 104.814 31.8678C103.934 32.4939 102.866 32.7444 101.609 32.7444C100.353 32.7444 99.2215 32.4313 98.2161 31.8678C97.2107 31.2417 96.4567 30.3652 95.8911 29.2382C95.3256 28.1113 95.0742 26.7339 95.0742 25.1687C95.0742 23.6034 95.3256 22.2887 95.8911 21.0991C96.4567 19.9721 97.2107 19.0957 98.2161 18.4696C99.2215 17.8435 100.353 17.5931 101.609 17.5931C102.803 17.5305 103.872 17.8435 104.814 18.4696ZM99.9127 21.9757C99.2215 22.727 98.8445 23.7913 98.8445 25.1061C98.8445 26.4209 99.2215 27.4852 99.9127 28.2365C100.604 28.9878 101.547 29.3634 102.74 29.3634C103.872 29.3634 104.814 28.9878 105.568 28.1739C106.322 27.4226 106.699 26.3583 106.699 25.0435C106.699 23.7287 106.322 22.6644 105.568 21.9131C104.814 21.1618 103.872 20.7235 102.74 20.7235C101.547 20.8487 100.604 21.2244 99.9127 21.9757Z" fill="#FBFBFB"/>
<path d="M126.556 19.221C127.561 20.3479 128.064 21.9131 128.064 23.9166V32.494H124.294V24.3549C124.294 23.1653 123.98 22.2888 123.414 21.6001C122.786 20.974 121.969 20.5983 120.901 20.5983C119.832 20.5983 118.953 20.974 118.324 21.6627C117.696 22.3514 117.382 23.3531 117.382 24.6679V32.494H113.611V17.7183H117.382V20.661C117.759 19.6592 118.45 18.9079 119.33 18.3444C120.209 17.781 121.278 17.5305 122.471 17.5305C124.168 17.5305 125.551 18.094 126.556 19.221Z" fill="#FBFBFB"/>
<path d="M131.394 12.0208C131.834 11.6451 132.399 11.4573 133.09 11.4573C133.782 11.4573 134.347 11.6451 134.787 12.0208C135.227 12.3964 135.415 12.8973 135.415 13.5234C135.415 14.0868 135.227 14.5877 134.787 14.9634C134.347 15.339 133.782 15.5268 133.09 15.5268C132.399 15.5268 131.834 15.339 131.394 14.9634C130.954 14.5877 130.765 14.0868 130.765 13.5234C130.703 12.8973 130.954 12.3964 131.394 12.0208ZM134.913 32.5565H131.142V17.7808H134.913V32.5565Z" fill="#FBFBFB"/>
<path d="M144.59 28.7374L148.298 17.7183H152.319L146.852 32.5566H142.265L136.735 17.7183H140.82L144.59 28.7374Z" fill="#FBFBFB"/>
<path d="M57.7484 54.72L53.3497 47.3948H51.6531V54.72H47.8828V35.8748H55.1092C57.3085 35.8748 59.0051 36.4382 60.1362 37.5026C61.2673 38.5669 61.8328 39.9443 61.8328 41.6974C61.8328 43.1374 61.4558 44.3269 60.6389 45.2661C59.822 46.2052 58.6909 46.8939 57.1828 47.2069L61.8957 54.72H57.7484ZM51.6531 44.8278H54.7321C56.8686 44.8278 57.9997 43.8887 57.9997 41.9479C57.9997 41.0713 57.7484 40.32 57.1828 39.8191C56.6801 39.3182 55.8632 39.0678 54.7321 39.0678H51.6531V44.8278Z" fill="#FBFBFB"/>
<path d="M78.1705 48.0834H67.2995C67.3624 49.3982 67.7394 50.3999 68.3678 50.9634C69.059 51.5895 69.8759 51.9025 70.8185 51.9025C71.6982 51.9025 72.4522 51.7147 73.0178 51.2765C73.5833 50.8382 73.9603 50.2747 74.1489 49.5234H78.1705C77.982 50.5251 77.5421 51.4643 76.9137 52.2783C76.2853 53.0922 75.4685 53.7182 74.463 54.2191C73.4576 54.6573 72.3266 54.9078 71.1326 54.9078C69.6874 54.9078 68.4306 54.5947 67.2995 53.9686C66.1684 53.3425 65.2887 52.4661 64.6603 51.3391C64.032 50.2122 63.7178 48.8347 63.7178 47.3321C63.7178 45.7669 64.032 44.4521 64.6603 43.2625C65.2887 42.1356 66.1684 41.2591 67.2995 40.633C68.4306 40.0069 69.6874 39.6938 71.1326 39.6938C72.5779 39.6938 73.8975 40.0069 74.9658 40.633C76.034 41.2591 76.9137 42.073 77.4793 43.1373C78.1076 44.2017 78.359 45.3912 78.359 46.7686C78.2962 47.1443 78.2962 47.5825 78.1705 48.0834ZM73.5833 43.7008C72.8921 43.0747 72.0752 42.7617 71.0698 42.7617C70.0644 42.7617 69.1847 43.0747 68.4935 43.7008C67.8022 44.3269 67.4252 45.266 67.3624 46.4556H74.5887C74.5887 45.2034 74.2745 44.3269 73.5833 43.7008Z" fill="#FBFBFB"/>
<path d="M90.486 41.1339C91.5543 42.0105 92.2455 43.2627 92.4968 44.7653H88.9779C88.8523 44.0766 88.5381 43.5131 88.0354 43.0749C87.5327 42.6366 86.9043 42.4488 86.0874 42.4488C85.459 42.4488 84.9563 42.574 84.5793 42.887C84.2023 43.2001 84.0137 43.5757 84.0137 44.1392C84.0137 44.5775 84.1394 44.8905 84.4536 45.141C84.7678 45.3914 85.082 45.5792 85.5218 45.7044C85.9617 45.8296 86.5901 46.0175 87.3441 46.2053C88.4752 46.4557 89.3549 46.7062 90.109 47.0192C90.8002 47.2696 91.4286 47.7078 91.9313 48.3339C92.434 48.96 92.6854 49.7114 92.6854 50.7757C92.6854 52.0279 92.1827 53.0923 91.1773 53.8436C90.1718 54.6575 88.8522 55.0331 87.1556 55.0331C85.2077 55.0331 83.6995 54.5949 82.5056 53.7183C81.3745 52.8418 80.6205 51.6522 80.3691 50.0244H84.0137C84.0766 50.7757 84.4536 51.3392 84.9563 51.7149C85.5218 52.1531 86.2131 52.341 87.1556 52.341C87.784 52.341 88.2867 52.2157 88.6009 51.9026C88.9151 51.5896 89.1036 51.214 89.1036 50.7131C89.1036 50.2749 88.9779 49.9618 88.6637 49.6488C88.3495 49.3983 87.9725 49.1479 87.5955 49.0227C87.1556 48.8975 86.5272 48.7096 85.7104 48.5218C84.5793 48.2714 83.6995 48.021 83.0083 47.7705C82.3171 47.5201 81.7516 47.0818 81.2489 46.5183C80.7462 45.9549 80.4948 45.141 80.4948 44.1392C80.4948 42.887 80.9975 41.8227 81.9401 41.0088C82.9455 40.1949 84.2651 39.8192 86.0245 39.8192C87.9097 39.7566 89.355 40.2574 90.486 41.1339Z" fill="#FBFBFB"/>
<path d="M95.5131 34.2468C95.953 33.8712 96.5186 33.6833 97.2098 33.6833C97.901 33.6833 98.4665 33.8712 98.9064 34.2468C99.3463 34.6225 99.5348 35.1233 99.5348 35.7494C99.5348 36.3129 99.3463 36.8138 98.9064 37.1894C98.4665 37.5651 97.901 37.7529 97.2098 37.7529C96.5186 37.7529 95.953 37.5651 95.5131 37.1894C95.0733 36.8138 94.8848 36.3129 94.8848 35.7494C94.8848 35.1233 95.0733 34.6225 95.5131 34.2468ZM99.0949 54.7199H95.3246V39.9442H99.0949V54.7199Z" fill="#FBFBFB"/>
<path d="M111.726 40.6331C112.606 41.1966 113.234 42.0105 113.611 43.0122V34.9983H117.382V54.72H113.611V51.6523C113.234 52.654 112.606 53.4679 111.726 54.0313C110.846 54.6574 109.778 54.9079 108.521 54.9079C107.265 54.9079 106.134 54.5948 105.128 54.0313C104.123 53.4052 103.369 52.5287 102.803 51.4018C102.238 50.2748 101.986 48.8974 101.986 47.3322C101.986 45.767 102.238 44.4522 102.803 43.2626C103.369 42.1357 104.123 41.2592 105.128 40.6331C106.134 40.007 107.265 39.6939 108.521 39.6939C109.778 39.7566 110.846 40.0696 111.726 40.6331ZM106.825 44.2018C106.134 44.9531 105.757 46.0174 105.757 47.3322C105.757 48.647 106.134 49.7113 106.825 50.4626C107.516 51.2139 108.459 51.5896 109.653 51.5896C110.784 51.5896 111.726 51.214 112.48 50.4001C113.234 49.6488 113.611 48.5844 113.611 47.2697C113.611 45.9549 113.234 44.8905 112.48 44.1392C111.726 43.3879 110.784 42.9496 109.653 42.9496C108.521 43.0748 107.579 43.4505 106.825 44.2018Z" fill="#FBFBFB"/>
<path d="M134.598 48.0834H123.727C123.79 49.3982 124.167 50.3999 124.796 50.9634C125.487 51.5895 126.304 51.9025 127.246 51.9025C128.126 51.9025 128.88 51.7147 129.446 51.2765C130.011 50.8382 130.388 50.2747 130.577 49.5234H134.598C134.41 50.5251 133.97 51.4643 133.341 52.2783C132.713 53.0922 131.896 53.7182 130.891 54.2191C129.885 54.6573 128.754 54.9078 127.56 54.9078C126.115 54.9078 124.858 54.5947 123.727 53.9686C122.596 53.3425 121.716 52.4661 121.088 51.3391C120.46 50.2122 120.146 48.8347 120.146 47.3321C120.146 45.7669 120.46 44.4521 121.088 43.2625C121.716 42.1356 122.596 41.2591 123.727 40.633C124.858 40.0069 126.115 39.6938 127.56 39.6938C129.006 39.6938 130.325 40.0069 131.393 40.633C132.462 41.2591 133.341 42.073 133.907 43.1373C134.535 44.2017 134.787 45.3912 134.787 46.7686C134.724 47.1443 134.724 47.5825 134.598 48.0834ZM130.011 43.7008C129.32 43.0747 128.503 42.7617 127.498 42.7617C126.492 42.7617 125.612 43.0747 124.921 43.7008C124.23 44.3269 123.853 45.266 123.79 46.4556H131.016C131.016 45.2034 130.702 44.3269 130.011 43.7008Z" fill="#FBFBFB"/>
<path d="M150.37 41.447C151.376 42.574 151.878 44.1392 151.878 46.1427V54.7201H148.108V46.5809C148.108 45.3914 147.794 44.5149 147.228 43.8262C146.6 43.2001 145.783 42.8244 144.715 42.8244C143.647 42.8244 142.767 43.2001 142.139 43.8888C141.51 44.5775 141.196 45.5792 141.196 46.894V54.7201H137.426V39.9444H141.196V42.887C141.573 41.8853 142.264 41.134 143.144 40.5705C144.024 40.007 145.092 39.7566 146.286 39.7566C147.983 39.7566 149.365 40.3201 150.37 41.447Z" fill="#FBFBFB"/>
<path d="M166.646 41.3217C167.902 42.3235 168.719 43.7634 169.033 45.5165H165.012C164.823 44.7651 164.509 44.1391 163.944 43.6382C163.378 43.1999 162.624 42.9495 161.744 42.9495C160.739 42.9495 159.922 43.3252 159.231 44.0765C158.54 44.8278 158.225 45.8921 158.225 47.3321C158.225 48.7721 158.54 49.8365 159.231 50.5878C159.922 51.3391 160.739 51.7147 161.744 51.7147C162.624 51.7147 163.315 51.4643 163.944 51.0261C164.509 50.5878 164.886 49.9617 165.012 49.1478H169.033C168.719 50.9009 167.902 52.3408 166.646 53.3425C165.389 54.3443 163.755 54.9078 161.87 54.9078C160.425 54.9078 159.168 54.5947 158.037 53.9686C156.906 53.3425 156.026 52.4661 155.398 51.3391C154.769 50.2122 154.455 48.8347 154.455 47.3321C154.455 45.7669 154.769 44.4521 155.398 43.2625C156.026 42.1356 156.906 41.2591 158.037 40.633C159.168 40.0069 160.425 39.6938 161.87 39.6938C163.755 39.7565 165.389 40.32 166.646 41.3217Z" fill="#FBFBFB"/>
<path d="M185.56 48.0834H174.689C174.752 49.3982 175.129 50.3999 175.757 50.9634C176.449 51.5895 177.266 51.9025 178.208 51.9025C179.088 51.9025 179.842 51.7147 180.407 51.2765C180.973 50.8382 181.35 50.2747 181.539 49.5234H185.56C185.372 50.5251 184.932 51.4643 184.303 52.2783C183.675 53.0922 182.858 53.7182 181.853 54.2191C180.847 54.6573 179.716 54.9078 178.522 54.9078C177.077 54.9078 175.82 54.5947 174.689 53.9686C173.558 53.3425 172.678 52.4661 172.05 51.3391C171.422 50.2122 171.107 48.8347 171.107 47.3321C171.107 45.7669 171.422 44.4521 172.05 43.2625C172.678 42.1356 173.558 41.2591 174.689 40.633C175.82 40.0069 177.077 39.6938 178.522 39.6938C179.968 39.6938 181.287 40.0069 182.355 40.633C183.424 41.2591 184.303 42.073 184.869 43.1373C185.497 44.2017 185.749 45.3912 185.749 46.7686C185.686 47.1443 185.623 47.5825 185.56 48.0834ZM180.91 43.7008C180.219 43.0747 179.402 42.7617 178.397 42.7617C177.391 42.7617 176.511 43.0747 175.82 43.7008C175.129 44.3269 174.752 45.266 174.689 46.4556H181.916C181.916 45.2034 181.601 44.3269 180.91 43.7008Z" fill="#FBFBFB"/>
<path d="M0.50293 63.3599H21.8678C23.0617 62.1077 23.9414 60.9808 24.9468 59.5408H0.50293V63.3599Z" fill="#FBFBFB"/>
<path d="M0.50293 54.7826H27.8374C28.7171 53.0922 29.3455 51.7148 29.9739 49.8992H0.50293V54.7826Z" fill="#FBFBFB"/>
<path d="M0.50293 71.9999H9.99144C11.6881 71.186 13.3218 70.3095 14.8928 69.2451H0.50293V71.9999Z" fill="#FBFBFB"/>
<path d="M0.50293 0V38.2539H32.0475C32.0475 38.0035 32.0475 37.753 32.0475 37.44C32.0475 18.72 18.4117 3.13043 0.50293 0Z" fill="#FBFBFB"/>
<path d="M0.50293 46.7061H30.9164C31.4191 44.5774 31.7962 42.4487 31.9218 40.1948H0.50293V46.7061Z" fill="#FBFBFB"/>
</svg>
