<svg width="208" height="50" viewBox="0 0 208 50" fill="none" xmlns="http://www.w3.org/2000/svg">
<path d="M49.4873 14.9165H59.4459V17.1092H55.6885V26.8992H53.2447V17.1092H49.4873V14.9165Z" fill="black"/>
<path d="M64.6396 26.8992V14.9165H73.3458V17.1092H67.0835V19.4255H72.1239V21.5873H67.0835V24.6756H73.5291V26.8992H64.6396Z" fill="black"/>
<path d="M81.3178 19.9814H84.2199C85.3196 19.9814 85.9917 19.4563 85.9917 18.5298C85.9917 17.6342 85.3196 17.0783 84.2199 17.0783H81.3178V19.9814ZM78.874 26.8992V14.9165H84.3726C85.6251 14.9165 86.6332 15.2562 87.3663 15.9048C88.0995 16.5533 88.466 17.418 88.466 18.4681C88.466 20.074 87.5496 21.3093 86.0222 21.8035L89.688 26.9301H86.847L83.3951 22.0814H81.3484V26.9301H78.874V26.8992Z" fill="black"/>
<path d="M97.0805 19.9814H99.9826C101.082 19.9814 101.754 19.4563 101.754 18.5298C101.754 17.6342 101.082 17.0783 99.9826 17.0783H97.0805V19.9814ZM94.6367 26.8992V14.9165H100.135C101.388 14.9165 102.396 15.2562 103.129 15.9048C103.862 16.5533 104.229 17.418 104.229 18.4681C104.229 20.074 103.312 21.3093 101.785 21.8035L105.451 26.9301H102.61L99.1578 22.0814H97.1111V26.9301H94.6367V26.8992Z" fill="black"/>
<path d="M113.852 22.0817H117.334L115.593 17.9124L113.852 22.0817ZM109.361 26.8995L114.432 14.855H116.784L121.855 26.8995H119.259L118.098 24.12H113.088L111.927 26.8995H109.361Z" fill="black"/>
<path d="M127.415 25.3859C126.193 24.2124 125.582 22.6991 125.582 20.9079C125.582 19.0857 126.193 17.5725 127.384 16.4298C128.606 15.2562 130.134 14.6694 131.997 14.6694C133.158 14.6694 134.196 14.9165 135.143 15.4106V17.8813C134.227 17.2636 133.188 16.9548 132.028 16.9548C130.897 16.9548 129.95 17.3254 129.187 18.0666C128.454 18.8078 128.056 19.7343 128.056 20.877C128.056 22.0197 128.454 22.977 129.217 23.7182C129.981 24.4594 130.958 24.7991 132.119 24.7991C133.402 24.7991 134.502 24.4594 135.357 23.7491V26.2198C134.38 26.8066 133.28 27.0845 131.997 27.0845C130.134 27.1463 128.606 26.5595 127.415 25.3859Z" fill="black"/>
<path d="M146.415 24.83C147.454 24.83 148.34 24.4594 149.012 23.7182C149.715 22.977 150.051 22.0505 150.051 20.9079C150.051 19.7652 149.684 18.8387 149.012 18.0975C148.309 17.3563 147.454 16.9857 146.415 16.9857C145.377 16.9857 144.491 17.3563 143.788 18.0975C143.086 18.8387 142.75 19.7652 142.75 20.9079C142.75 22.0505 143.086 22.977 143.788 23.7182C144.491 24.4594 145.346 24.83 146.415 24.83ZM142.017 16.4915C143.177 15.2871 144.674 14.6694 146.415 14.6694C148.187 14.6694 149.623 15.2562 150.814 16.4915C151.975 17.696 152.586 19.1784 152.586 20.9079C152.586 22.6373 152.006 24.1197 150.814 25.3242C149.654 26.5286 148.187 27.1463 146.415 27.1463C144.644 27.1463 143.177 26.5595 142.017 25.3242C140.856 24.1197 140.275 22.6373 140.275 20.9079C140.275 19.1475 140.825 17.6651 142.017 16.4915Z" fill="black"/>
<path d="M156.496 14.9165H166.455V17.1092H162.697V26.8992H160.253V17.1092H156.496V14.9165Z" fill="black"/>
<path d="M170.854 14.9165H180.813V17.1092H177.056V26.8992H174.612V17.1092H170.854V14.9165Z" fill="black"/>
<path d="M187.778 22.0817H191.23L189.519 17.9124L187.778 22.0817ZM183.287 26.8995L188.358 14.855H190.71L195.781 26.8995H193.185L192.024 24.12H187.014L185.853 26.8995H183.287Z" fill="black"/>
<path d="M52.0234 32.3657H55.6892V33.1996H54.3145V36.782H53.3981V33.1996H52.0234V32.3657Z" fill="black"/>
<path d="M57.583 36.782V32.3657H60.7905V33.1996H58.4689V34.0334H60.3323V34.8364H58.4689V35.9791H60.8516V36.782H57.583Z" fill="black"/>
<path d="M63.6925 34.2495H64.6395C65.0672 34.2495 65.3116 34.0642 65.3116 33.6936C65.3116 33.3539 65.0672 33.1377 64.6395 33.1377H63.6925V34.2495ZM62.8066 36.7819V32.3965H64.7006C65.1588 32.3965 65.5254 32.52 65.8003 32.7671C66.0752 33.0141 66.1974 33.323 66.1974 33.7245C66.1974 34.1259 66.0752 34.4348 65.8003 34.6818C65.5254 34.9289 65.1588 35.0524 64.7006 35.0524H63.6925V36.7819H62.8066Z" fill="black"/>
<path d="M68.9465 35.0217H70.2295L69.588 33.5084L68.9465 35.0217ZM67.2969 36.782L69.1603 32.3657H70.0156L71.8791 36.782H70.9321L70.5044 35.7629H68.6715L68.2439 36.782H67.2969Z" fill="black"/>
<path d="M73.6816 36.782V32.3657H74.5981V34.0952L76.1866 32.3657H77.2863L75.4534 34.404L77.5918 36.782H76.4615L74.5981 34.7437V36.782H73.6816Z" fill="black"/>
<path d="M80.9822 36.0098C81.3793 36.0098 81.6848 35.8863 81.9292 35.6083C82.1736 35.3304 82.3263 34.9907 82.3263 34.5892C82.3263 34.1877 82.2041 33.8171 81.9292 33.57C81.6848 33.2921 81.3488 33.1686 80.9822 33.1686C80.5851 33.1686 80.2796 33.2921 80.0047 33.57C79.7603 33.848 79.6381 34.1877 79.6381 34.5892C79.6381 34.9907 79.7603 35.3613 80.0047 35.6083C80.2796 35.8863 80.6156 36.0098 80.9822 36.0098ZM79.3632 32.9524C79.7908 32.52 80.3407 32.2729 80.9822 32.2729C81.6237 32.2729 82.1736 32.4891 82.6012 32.9524C83.0289 33.3847 83.2427 33.9406 83.2427 34.5892C83.2427 35.2377 83.0289 35.7628 82.6012 36.226C82.1736 36.6584 81.6237 36.9054 80.9822 36.9054C80.3407 36.9054 79.7908 36.6893 79.3632 36.226C78.9355 35.7936 78.7217 35.2377 78.7217 34.5892C78.7217 33.9406 78.9355 33.3847 79.3632 32.9524Z" fill="black"/>
<path d="M84.6787 32.3657H88.3444V33.1996H86.9392V36.782H86.0534V33.1996H84.6787V32.3657Z" fill="black"/>
<path d="M94.7897 33.9409H92.8652V34.7439H94.7897V33.9409Z" fill="black"/>
<path d="M99.5244 36.782L101.357 34.4967L99.7077 32.3657H100.807L102.213 34.2187V32.3657H103.129V34.2187L104.565 32.3657H105.665L103.984 34.4967L105.848 36.782H104.687L103.129 34.8364V36.782H102.213V34.8364L100.685 36.782H99.5244Z" fill="black"/>
<path d="M107.589 36.782V32.3657H108.505V35.2379L110.613 32.3657H111.377V36.782H110.491V33.879L108.353 36.782H107.589Z" fill="black"/>
<path d="M113.302 32.3657H116.937V33.1996H115.562V36.782H114.676V33.1996H113.302V32.3657Z" fill="black"/>
<path d="M118.128 35.9173C118.22 35.9482 118.311 35.9791 118.433 35.9791C118.678 35.9791 118.831 35.8246 118.892 35.4849C118.983 35.1761 119.014 34.5584 119.044 33.6628L119.075 32.3657H122.16V36.7511H121.274V33.1687H119.961L119.93 34.0643C119.9 35.0834 119.778 35.7938 119.594 36.1952C119.38 36.5967 119.044 36.782 118.525 36.782C118.372 36.782 118.25 36.7511 118.158 36.7203V35.9173H118.128Z" fill="black"/>
<path d="M126.468 36.0098C126.865 36.0098 127.17 35.8863 127.415 35.6083C127.659 35.3304 127.812 34.9907 127.812 34.5892C127.812 34.1877 127.69 33.8171 127.415 33.57C127.17 33.2921 126.834 33.1686 126.468 33.1686C126.07 33.1686 125.765 33.2921 125.49 33.57C125.246 33.848 125.123 34.1877 125.123 34.5892C125.123 34.9907 125.246 35.3613 125.49 35.6083C125.765 35.8863 126.07 36.0098 126.468 36.0098ZM124.849 32.9524C125.276 32.52 125.826 32.2729 126.468 32.2729C127.109 32.2729 127.659 32.4891 128.087 32.9524C128.514 33.3847 128.728 33.9406 128.728 34.5892C128.728 35.2377 128.514 35.7628 128.087 36.226C127.659 36.6584 127.109 36.9054 126.468 36.9054C125.826 36.9054 125.276 36.6893 124.849 36.226C124.421 35.7936 124.207 35.2377 124.207 34.5892C124.207 33.9406 124.421 33.3847 124.849 32.9524Z" fill="black"/>
<path d="M131.66 36.0098H132.791C133.218 36.0098 133.493 35.7936 133.493 35.423C133.493 35.0524 133.218 34.8363 132.791 34.8363H131.66V36.0098ZM131.66 34.0951H132.668C133.035 34.0951 133.279 33.9098 133.279 33.6318C133.279 33.323 133.065 33.1377 132.668 33.1377H131.66V34.0951ZM130.774 36.7819V32.3965H132.821C133.615 32.3965 134.135 32.798 134.135 33.5083C134.135 33.9406 133.89 34.2495 133.585 34.373C133.829 34.4348 134.043 34.5583 134.196 34.7745C134.379 34.9907 134.471 35.2377 134.471 35.5466C134.471 35.9172 134.348 36.226 134.074 36.4422C133.799 36.6893 133.432 36.7819 132.974 36.7819H130.774Z" fill="black"/>
<path d="M136.457 36.782V32.3657H137.373V35.2379L139.481 32.3657H140.245V36.782H139.359V33.879L137.221 36.782H136.457Z" fill="black"/>
<path d="M143.85 31.0684C143.85 31.3463 144.033 31.5316 144.308 31.5316C144.613 31.5316 144.797 31.3463 144.797 31.0684H145.469C145.469 31.7169 144.98 32.1493 144.338 32.1493C143.697 32.1493 143.208 31.7478 143.208 31.0684H143.85ZM142.444 36.7818V32.3963H143.33V35.2685L145.438 32.3963H146.202V36.7818H145.316V33.9096L143.177 36.7818H142.444Z" fill="black"/>
<path d="M151.272 36.782V32.3657H152.158V34.0952L153.747 32.3657H154.847L153.014 34.404L155.183 36.782H154.022L152.158 34.7437V36.782H151.272Z" fill="black"/>
<path d="M158.574 36.0098C158.971 36.0098 159.277 35.8863 159.521 35.6083C159.765 35.3304 159.918 34.9907 159.918 34.5892C159.918 34.1877 159.796 33.8171 159.521 33.57C159.277 33.2921 158.941 33.1686 158.574 33.1686C158.177 33.1686 157.871 33.2921 157.596 33.57C157.352 33.848 157.23 34.1877 157.23 34.5892C157.23 34.9907 157.352 35.3613 157.596 35.6083C157.841 35.8863 158.177 36.0098 158.574 36.0098ZM156.955 32.9524C157.383 32.52 157.932 32.2729 158.574 32.2729C159.216 32.2729 159.765 32.4891 160.193 32.9524C160.621 33.3847 160.835 33.9406 160.835 34.5892C160.835 35.2377 160.621 35.7628 160.193 36.226C159.765 36.6584 159.216 36.9054 158.574 36.9054C157.932 36.9054 157.383 36.6893 156.955 36.226C156.527 35.7936 156.313 35.2377 156.313 34.5892C156.313 33.9406 156.527 33.3847 156.955 32.9524Z" fill="black"/>
<path d="M162.851 36.782V32.3657H163.767L165.019 34.1878L166.272 32.3657H167.158V36.782H166.272V33.7555L165.264 35.1761H164.775L163.767 33.7555V36.782H162.851Z" fill="black"/>
<path d="M169.356 36.782V32.3657H173.022V36.782H172.106V33.1996H170.273V36.782H169.356Z" fill="black"/>
<path d="M174.795 35.9173C174.887 35.9482 174.978 35.9791 175.1 35.9791C175.345 35.9791 175.498 35.8246 175.559 35.4849C175.65 35.1761 175.681 34.5584 175.711 33.6628L175.742 32.3657H178.827V36.7511H177.941V33.1687H176.628L176.597 34.0643C176.567 35.0834 176.445 35.7938 176.261 36.1952C176.047 36.5967 175.711 36.782 175.192 36.782C175.039 36.782 174.917 36.7511 174.825 36.7203V35.9173H174.795Z" fill="black"/>
<path d="M180.996 36.782V32.3657H184.204V33.1996H181.913V34.0334H183.745V34.8364H181.913V35.9791H184.265V36.782H180.996Z" fill="black"/>
<path d="M186.22 36.782V32.3657H187.136V34.0952L188.725 32.3657H189.824L187.961 34.404L190.13 36.782H189L187.136 34.7437V36.782H186.22Z" fill="black"/>
<path d="M191.932 36.2259C191.474 35.7935 191.26 35.2376 191.26 34.5891C191.26 33.9096 191.474 33.3846 191.932 32.9523C192.39 32.5199 192.94 32.3037 193.612 32.3037C194.04 32.3037 194.406 32.3964 194.773 32.5817V33.5082C194.437 33.292 194.07 33.1684 193.642 33.1684C193.215 33.1684 192.879 33.292 192.604 33.5699C192.329 33.8479 192.207 34.1876 192.207 34.5891C192.207 35.0214 192.359 35.3612 192.634 35.6391C192.909 35.9171 193.276 36.0406 193.704 36.0406C194.162 36.0406 194.559 35.9171 194.895 35.67V36.5965C194.528 36.8127 194.131 36.9053 193.673 36.9053C192.94 36.8744 192.39 36.6583 191.932 36.2259Z" fill="black"/>
<path d="M30.0288 42.6189L48.9684 31.9642L43.5309 10.0371L34.3665 17.5726L25.6604 17.8506L18.9094 10.0371L12.7998 28.3509L30.0288 42.6189Z" fill="#A21F21"/>
<path d="M31.8615 30.5127L31.3422 34.6201L27.1877 33.7554L25.6603 30.3891L31.8615 30.5127ZM19.4896 21.4021L24.9271 33.2922L16.8014 31.6554L20.5588 34.7746L37.7877 38.2644L40.8731 36.5349L33.175 34.9599L34.3358 26.0346L47.9296 27.6714L47.3492 25.2934L34.6413 23.7492C34.6413 23.7492 35.5272 16.8314 35.5272 16.8005L46.1273 20.4447L45.4552 17.7888L37.5128 15.0093L34.3969 17.5726L33.5721 17.6035L32.1975 28.1964L24.5911 28.042L21.2308 20.7227C21.2308 20.7227 29.1733 17.7579 29.2038 17.727L25.6603 17.8505L24.9577 17.0167L15.3657 20.5991L14.4492 23.3786L19.4896 21.4021Z" fill="#BB1818"/>
</svg>
