<svg width="90" height="108" viewBox="0 0 90 108" fill="none" xmlns="http://www.w3.org/2000/svg">
<g clip-path="url(#clip0)">
<path d="M10.4296 89.9123C10.4296 90.4629 10.3044 90.9371 10.0548 91.3356C9.80436 91.734 9.5089 92.0614 9.16757 92.318C8.82623 92.5745 8.47747 92.7616 8.12167 92.8803C7.76588 92.999 7.47744 93.0581 7.25595 93.0581H3.02941V96.745H0V86.78H8.19358C8.39523 86.78 8.62623 86.8632 8.88615 87.0292C9.14566 87.1952 9.39112 87.4207 9.62171 87.7053C9.85229 87.99 10.0449 88.3223 10.199 88.7016C10.3527 89.0816 10.4296 89.4854 10.4296 89.9123ZM6.27494 91.2503C6.61172 91.2503 6.90016 91.1317 7.14066 90.8943C7.38116 90.6574 7.50141 90.3727 7.50141 90.04C7.50141 89.708 7.38116 89.4234 7.14066 89.186C6.90016 88.9487 6.61172 88.83 6.27494 88.83H3.02941V91.2499H6.27494V91.2503Z" fill="#072146"/>
<path d="M13.7031 91.7914C13.7031 91.0892 13.8763 90.4175 14.2226 89.7769C14.5684 89.1362 15.0424 88.5694 15.6437 88.0759C16.2445 87.5825 16.9491 87.1886 17.7565 86.8941C18.5644 86.6001 19.4252 86.4529 20.3388 86.4529C21.2521 86.4529 22.1132 86.6001 22.9211 86.8941C23.729 87.1886 24.4335 87.5825 25.034 88.0759C25.6352 88.5694 26.1088 89.1362 26.4551 89.7769C26.8014 90.4175 26.9745 91.0892 26.9745 91.7914C26.9745 92.4842 26.8014 93.1534 26.4551 93.7986C26.1092 94.4441 25.6352 95.0134 25.034 95.5069C24.4331 96.0003 23.7286 96.3942 22.9211 96.6883C22.1132 96.9827 21.2521 97.1299 20.3388 97.1299C19.4252 97.1299 18.5644 96.9827 17.7565 96.6883C16.9487 96.3942 16.2441 96.0003 15.6437 95.5069C15.0424 95.0134 14.5688 94.4441 14.2226 93.7986C13.8763 93.1534 13.7031 92.4842 13.7031 91.7914ZM20.3677 87.8622C19.8867 87.8622 19.4322 87.9715 19.0045 88.1897C18.576 88.4083 18.2036 88.6978 17.8863 89.0579C17.5689 89.4188 17.3185 89.8319 17.1358 90.2964C16.9532 90.7617 16.8619 91.2413 16.8619 91.7343C16.8619 92.2281 16.9532 92.7073 17.1358 93.1722C17.3185 93.6375 17.5685 94.0526 17.8863 94.418C18.2036 94.7834 18.576 95.075 19.0045 95.2936C19.4322 95.5122 19.8867 95.621 20.3677 95.621C20.8483 95.621 21.3029 95.5122 21.731 95.2936C22.1591 95.075 22.5318 94.7834 22.8492 94.418C23.1662 94.0526 23.4166 93.6375 23.5992 93.1722C23.7819 92.7073 23.8736 92.2281 23.8736 91.7343C23.8736 91.2413 23.7819 90.7617 23.5992 90.2964C23.4166 89.8319 23.1666 89.4188 22.8492 89.0579C22.5318 88.6974 22.1591 88.4079 21.731 88.1897C21.3029 87.9715 20.8483 87.8622 20.3677 87.8622Z" fill="#072146"/>
<path d="M30.8418 86.7803H33.8712V95.1084H39.3387V96.7453H30.8418V86.7803Z" fill="#072146"/>
<path d="M54.0795 96.7453H51.0501L50.1703 94.7809H45.2223L44.3425 96.7453H42.3086L46.7946 86.7803H49.5935L54.0795 96.7453ZM49.1749 92.5886L47.7038 89.2858L46.2178 92.5886H49.1749Z" fill="#072146"/>
<path d="M62.607 93.0584H60.7462V96.7453H57.7168V86.7803H65.9104C66.112 86.7803 66.343 86.8635 66.603 87.0294C66.8625 87.1954 67.1079 87.4209 67.3385 87.7056C67.5691 87.9902 67.7617 88.3226 67.9158 88.7018C68.0695 89.0815 68.1464 89.4848 68.1464 89.9122C68.1464 90.3583 68.0646 90.7518 67.9009 91.094C67.7373 91.4353 67.5282 91.7297 67.2736 91.9765C67.0191 92.2236 66.7447 92.4275 66.4517 92.5886C66.1583 92.7501 65.8819 92.8683 65.6219 92.9446L68.1464 96.7453H65.0595L62.607 93.0584ZM63.9917 91.2502C64.3285 91.2502 64.617 91.1315 64.8575 90.8942C65.098 90.6572 65.2182 90.3726 65.2182 90.0398C65.2182 89.7079 65.098 89.4232 64.8575 89.1859C64.617 88.9485 64.3285 88.8299 63.9917 88.8299H60.7462V91.2498H63.9917V91.2502Z" fill="#072146"/>
<path d="M72.0254 86.7803H75.0403V96.7453H72.0254V86.7803Z" fill="#072146"/>
<path d="M88.0384 89.2853C87.8169 89.0292 87.557 88.818 87.259 88.652C86.9611 88.486 86.6483 88.3555 86.3214 88.2605C85.9941 88.1655 85.6598 88.099 85.3185 88.0611C84.9772 88.0232 84.6478 88.0044 84.3305 88.0044C84.09 88.0044 83.835 88.0423 83.566 88.1182C83.2965 88.194 83.049 88.2939 82.823 88.4171C82.5969 88.5407 82.4093 88.6879 82.2602 88.8587C82.111 89.0292 82.0366 89.2099 82.0366 89.3999C82.0366 89.5989 82.1304 89.7608 82.318 89.8839C82.5056 90.0075 82.7292 90.1025 82.9887 90.1686C83.2486 90.2351 83.5056 90.2803 83.7606 90.304C84.0152 90.3276 84.2052 90.3395 84.33 90.3395C84.7048 90.3395 85.104 90.3607 85.5276 90.4031C85.9507 90.4459 86.3714 90.5193 86.7896 90.6241C87.2082 90.7281 87.6119 90.8659 88.0016 91.0368C88.3909 91.2077 88.7322 91.4234 89.026 91.6844C89.319 91.9454 89.5545 92.2516 89.7326 92.6023C89.9103 92.9539 89.9996 93.3621 89.9996 93.8266C89.9996 94.2821 89.9083 94.6785 89.7256 95.0153C89.5426 95.3521 89.3 95.6421 88.9971 95.8835C88.6942 96.1257 88.3454 96.3227 87.9512 96.4744C87.5566 96.6261 87.1503 96.7448 86.7326 96.83C86.314 96.9156 85.8983 96.9748 85.4846 97.0078C85.071 97.0412 84.6862 97.058 84.3305 97.058C83.8879 97.058 83.3928 97.0315 82.8445 96.9797C82.2961 96.9275 81.7552 96.8276 81.2217 96.6803C80.6882 96.5335 80.1952 96.3272 79.7432 96.0613C79.2907 95.7958 78.9497 95.4492 78.7188 95.0218L80.1469 94.4101C80.2911 94.552 80.5027 94.6972 80.7816 94.8444C81.0605 94.9916 81.3849 95.1266 81.7552 95.2502C82.1254 95.3738 82.5317 95.4733 82.9742 95.5491C83.4164 95.625 83.8685 95.6629 84.33 95.6629C85.0706 95.6629 85.5995 95.5373 85.9173 95.2857C86.2342 95.0345 86.3933 94.7282 86.3933 94.3673C86.3933 94.1491 86.3115 93.9664 86.1478 93.8192C85.9842 93.6724 85.7896 93.5558 85.5635 93.4701C85.3375 93.3849 85.1065 93.3258 84.871 93.2923C84.635 93.2589 84.4404 93.2422 84.2866 93.2422C83.9499 93.2422 83.5846 93.2116 83.1903 93.15C82.7957 93.088 82.399 92.993 82.0002 92.8654C81.601 92.7369 81.2143 92.5758 80.8395 92.3813C80.4647 92.1872 80.1328 91.9544 79.844 91.684C79.5556 91.4132 79.3246 91.1074 79.1514 90.7656C78.9783 90.4243 78.8919 90.0446 78.8919 89.627C78.8919 89.2286 78.9832 88.8775 79.1659 88.5737C79.3485 88.2699 79.5915 88.002 79.8944 87.7691C80.1973 87.5367 80.5436 87.3425 80.9329 87.1855C81.3225 87.0289 81.7188 86.9009 82.123 86.8014C82.5267 86.7015 82.9209 86.6305 83.3056 86.5877C83.6904 86.5449 84.0317 86.5237 84.33 86.5237C84.7627 86.5237 85.2412 86.5592 85.7652 86.6305C86.2892 86.7019 86.8016 86.8206 87.3016 86.9865C87.8016 87.1525 88.2681 87.3682 88.7012 87.6341C89.1339 87.9 89.4702 88.232 89.7107 88.6304L88.0384 89.2853Z" fill="#072146"/>
<path d="M11.8809 107.755C11.8809 107.595 12.1974 107.595 12.1974 107.251L12.2048 103.081C12.2048 102.715 11.9346 102.883 11.9346 102.647C11.9346 102.555 12.0114 102.532 12.2747 102.532H13.2168C13.3404 102.532 13.464 102.54 13.464 102.647C13.464 102.814 13.1553 102.769 13.1553 103.081V104.461C13.1553 104.69 13.271 104.712 13.4181 104.721L15.8438 104.713C15.9752 104.713 16.0909 104.698 16.0909 104.492V103.074C16.0909 102.746 15.7975 102.822 15.7975 102.647C15.7975 102.547 15.9363 102.532 16.2144 102.532H16.9872C17.157 102.532 17.2959 102.547 17.2959 102.647C17.2959 102.806 17.0099 102.784 17.0099 103.05V107.312C17.0099 107.617 17.3264 107.587 17.3264 107.731C17.3264 107.861 17.1797 107.868 16.9173 107.868H16.0132C15.9438 107.868 15.7735 107.861 15.7735 107.777C15.7735 107.616 16.0983 107.616 16.0983 107.297L16.0673 105.795C16.0673 105.635 15.99 105.574 15.8818 105.574H13.371C13.2553 105.574 13.147 105.612 13.147 105.696V107.251C13.147 107.663 13.4945 107.556 13.4945 107.754C13.4945 107.861 13.3247 107.868 13.1317 107.868H12.1738C11.9656 107.869 11.8809 107.854 11.8809 107.755Z" fill="#072146"/>
<path d="M21.8398 102.418C23.215 102.433 24.5746 103.356 24.5746 105.231C24.5746 107.099 23.1531 108.022 21.7468 107.999C20.3794 107.976 19.0273 107.061 19.0273 105.231C19.0273 103.356 20.4414 102.411 21.8398 102.418ZM21.7778 107.191C22.7204 107.206 23.6708 106.55 23.6708 105.231C23.6708 103.905 22.7514 103.242 21.8319 103.234C20.8972 103.226 19.955 103.889 19.955 105.231C19.9546 106.52 20.8584 107.176 21.7778 107.191Z" fill="#072146"/>
<path d="M26.2243 107.755C26.2243 107.541 26.5177 107.663 26.5177 107.176V103.12C26.5177 102.708 26.2012 102.868 26.2012 102.647C26.2012 102.532 26.3479 102.532 26.4177 102.532H27.4917C27.5764 102.532 27.7388 102.532 27.7388 102.662C27.7388 102.853 27.4376 102.761 27.4376 103.066V103.142C27.4376 103.234 27.4529 103.279 27.5144 103.379L29.1372 105.315C29.2141 105.407 29.276 105.391 29.338 105.315L30.8909 103.424C30.9451 103.356 30.9604 103.279 30.9604 103.195V103.043C30.9604 102.761 30.7133 102.845 30.7133 102.654C30.7133 102.555 30.8062 102.532 31.0686 102.532H31.9265C32.0422 102.532 32.1658 102.555 32.1658 102.662C32.1658 102.844 31.8571 102.769 31.8492 103.15L31.8414 107.099C31.8414 107.64 32.1426 107.557 32.1426 107.762C32.1426 107.869 32.0658 107.869 31.8414 107.869H31.0228C30.76 107.869 30.6905 107.839 30.6905 107.74C30.6905 107.534 30.9761 107.641 30.9761 107.161L30.9686 104.858C30.9686 104.766 30.8839 104.79 30.8215 104.858L29.3616 106.573C29.2686 106.688 29.1917 106.673 29.1219 106.581L27.5462 104.858C27.4615 104.766 27.4227 104.835 27.4227 104.904L27.4074 107.206C27.4074 107.641 27.7008 107.565 27.7008 107.771C27.7008 107.87 27.5772 107.87 27.3301 107.87H26.4727C26.3479 107.869 26.2243 107.854 26.2243 107.755Z" fill="#072146"/>
<path d="M34.1758 107.778C34.1758 107.572 34.5159 107.656 34.5159 107.29L34.5084 103.188C34.5084 102.692 34.1993 102.883 34.1993 102.632C34.1993 102.502 34.4622 102.532 34.694 102.532H38.3945C38.4875 102.532 38.5879 102.555 38.5879 102.7V103.272C38.5879 103.364 38.5879 103.539 38.4412 103.539C38.2866 103.539 38.3718 103.287 37.9465 103.287H35.5357C35.4432 103.287 35.389 103.333 35.389 103.44V104.576C35.389 104.744 35.4275 104.79 35.5667 104.79H37.1424C37.3974 104.79 37.3974 104.584 37.5056 104.584C37.6445 104.584 37.6523 104.706 37.6523 104.873V105.491C37.6523 105.704 37.5986 105.766 37.4903 105.766C37.3974 105.766 37.3668 105.537 37.1424 105.537H35.613C35.4659 105.537 35.389 105.598 35.3965 105.719V106.932C35.3965 107.107 35.4812 107.115 35.6283 107.115H38.0077C38.3941 107.115 38.2548 106.848 38.4482 106.848C38.5875 106.848 38.5875 106.97 38.5875 107.115V107.709C38.5875 107.816 38.5486 107.869 38.4561 107.869H34.477C34.4076 107.869 34.1758 107.893 34.1758 107.778Z" fill="#072146"/>
<path d="M41.498 105.775C41.498 104.578 42.2596 104.163 42.3443 104.115C42.4481 104.057 42.4291 103.96 42.3443 103.902C42.1096 103.738 41.8555 103.42 41.8555 102.754C41.8555 101.933 42.5985 101.026 43.8022 101.026C44.6956 101.026 45.0436 101.364 45.1659 101.489C45.3254 101.654 45.4576 101.441 45.5796 101.528C45.7019 101.615 45.6453 101.702 45.5891 101.789L45.006 102.638C44.9403 102.725 44.8275 102.774 44.7142 102.657C44.5828 102.522 44.8275 102.435 44.6204 102.223C44.4039 102.001 44.2349 101.895 43.8022 101.895C43.2378 101.895 42.9088 102.309 42.9088 102.802C42.9088 103.13 43.2667 103.526 43.6708 103.526C43.8874 103.526 43.9812 103.526 43.9812 103.758V104.278C43.9812 104.443 43.8874 104.51 43.6522 104.51C43.0692 104.51 42.5518 105.031 42.5518 105.774C42.5518 106.353 43.0878 107.029 43.8122 107.029C44.3671 107.029 44.6399 106.778 44.7527 106.643C44.9221 106.449 44.8188 106.276 44.7246 106.17L43.9068 105.195C43.8312 105.099 43.8126 104.993 43.9068 104.896L44.2266 104.567C44.3299 104.461 44.4427 104.481 44.5556 104.616C44.6403 104.722 44.6775 104.809 44.7527 104.751C44.8093 104.703 44.7056 104.336 44.894 104.162C44.9878 104.075 45.0444 104.046 45.1667 104.172L45.6366 104.655C45.7213 104.742 45.7122 104.857 45.618 104.963C45.4209 105.185 45.4585 105.629 45.7312 105.938L46.587 106.884C46.6808 106.98 46.7089 107.106 46.587 107.221L46.2482 107.53C46.1263 107.646 46.0039 107.636 45.8907 107.511L45.7217 107.318C45.6275 107.202 45.5242 107.164 45.4019 107.289C45.082 107.617 44.6589 107.993 43.8878 107.993C42.3444 107.995 41.498 106.769 41.498 105.775Z" fill="#072146"/>
<path d="M49.1501 107.747C49.1501 107.541 49.4823 107.656 49.4823 107.084V103.272C49.4823 102.731 49.127 102.875 49.127 102.669C49.127 102.517 49.258 102.532 49.5439 102.532H52.1167C53.0824 102.532 53.9478 102.975 53.9478 104.27C53.9478 105.376 53.3374 106.116 52.0089 106.116H50.6258C50.3865 106.108 50.3939 106.138 50.3939 106.268V107.046C50.3939 107.64 50.7105 107.572 50.7105 107.755C50.7105 107.877 50.5948 107.869 50.4245 107.869H49.5129C49.3121 107.869 49.1501 107.861 49.1501 107.747ZM51.9622 105.246C52.7118 105.246 53.0519 104.888 53.0519 104.278C53.0519 103.645 52.5729 103.371 51.9159 103.371H50.641C50.4018 103.371 50.3939 103.379 50.3939 103.714V105.025C50.3939 105.155 50.3786 105.246 50.5253 105.246H51.9622Z" fill="#072146"/>
<path d="M55.6504 107.747C55.6504 107.549 55.9438 107.641 55.9438 107.283V103.135C55.9438 102.678 55.6657 102.815 55.6657 102.663C55.6657 102.571 55.7587 102.533 55.9285 102.533H56.7938C56.9636 102.533 57.0798 102.548 57.0798 102.663C57.0798 102.785 56.8248 102.754 56.8248 103.097V106.925C56.8248 107.093 56.8868 107.108 56.9798 107.108H59.0579C59.3666 107.108 59.4207 106.909 59.5757 107.001C59.6373 107.039 59.6141 107.191 59.5757 107.252L59.2509 107.763C59.1889 107.862 59.1273 107.87 59.0579 107.87H55.9289C55.7504 107.869 55.6504 107.862 55.6504 107.747Z" fill="#072146"/>
<path d="M61.0039 107.725C61.0039 107.534 61.2667 107.603 61.3824 107.268L62.8502 103.089C62.9432 102.815 62.742 102.822 62.742 102.678C62.742 102.571 62.8114 102.533 62.9275 102.533H64.0631C64.1866 102.533 64.2565 102.571 64.2565 102.678C64.2565 102.845 64.0015 102.822 64.1094 103.089L65.7627 107.305C65.8788 107.603 66.1028 107.549 66.1028 107.725C66.1028 107.854 66.0255 107.87 65.8094 107.87H64.8821C64.7044 107.87 64.6275 107.855 64.6275 107.74C64.6275 107.519 64.8978 107.611 64.8048 107.352L64.666 106.97C64.6275 106.863 64.5656 106.848 64.4651 106.848H62.5957C62.5184 106.848 62.4254 106.871 62.3866 106.955L62.3172 107.222C62.2015 107.664 62.4333 107.481 62.4333 107.74C62.4333 107.855 62.3172 107.87 62.0932 107.87H61.22C61.1118 107.869 61.0039 107.847 61.0039 107.725ZM64.2329 106.093C64.3259 106.093 64.3412 106.009 64.3098 105.925L63.5453 103.821C63.5143 103.737 63.4445 103.745 63.4217 103.813L62.6721 105.956C62.6411 106.047 62.6874 106.093 62.7804 106.093H64.2329V106.093Z" fill="#072146"/>
<path d="M67.6505 107.732L67.5038 107.489C67.4343 107.367 67.4806 107.245 67.5348 107.176L70.3853 103.478C70.4472 103.386 70.3778 103.318 70.2774 103.318H68.06C67.7277 103.318 67.7893 103.562 67.6273 103.562C67.5501 103.562 67.4885 103.554 67.4959 103.326V102.731C67.4959 102.609 67.6348 102.533 67.7666 102.533H71.2278C71.3514 102.533 71.4749 102.556 71.5291 102.686L71.6216 102.914C71.6758 103.044 71.6217 103.181 71.5679 103.258L68.8096 106.993C68.7707 107.046 68.8096 107.085 68.8559 107.085H70.934C71.2667 107.085 71.282 106.856 71.413 106.856C71.5138 106.856 71.5291 106.955 71.5291 107.108V107.618C71.5291 107.771 71.3902 107.87 71.2584 107.87H67.8901C67.7893 107.869 67.6889 107.801 67.6505 107.732Z" fill="#072146"/>
<path d="M73.0234 107.725C73.0234 107.534 73.2863 107.603 73.402 107.268L74.8698 103.089C74.9627 102.815 74.7615 102.822 74.7615 102.678C74.7615 102.571 74.8309 102.533 74.947 102.533H76.0826C76.2061 102.533 76.276 102.571 76.276 102.678C76.276 102.845 76.021 102.822 76.1293 103.089L77.7826 107.305C77.8987 107.603 78.1227 107.549 78.1227 107.725C78.1227 107.854 78.0454 107.87 77.8293 107.87H76.902C76.7243 107.87 76.6475 107.855 76.6475 107.74C76.6475 107.519 76.9177 107.611 76.8248 107.352L76.6859 106.97C76.6475 106.863 76.5855 106.848 76.4851 106.848H74.6156C74.5383 106.848 74.4454 106.871 74.4065 106.955L74.3371 107.222C74.2214 107.664 74.4532 107.481 74.4532 107.74C74.4532 107.855 74.3371 107.87 74.1131 107.87H73.24C73.1317 107.869 73.0234 107.847 73.0234 107.725ZM76.2528 106.093C76.3458 106.093 76.3611 106.009 76.3297 105.925L75.5652 103.821C75.5342 103.737 75.4644 103.745 75.4417 103.813L74.6921 105.956C74.6611 106.047 74.7074 106.093 74.8003 106.093H76.2528V106.093Z" fill="#072146"/>
<path d="M18.1729 10.8417C18.0886 10.92 18.0051 10.9987 17.927 11.0831L17.4493 11.5798L16.9716 12.0765C16.8121 12.2421 16.6514 12.4056 16.5043 12.5822L15.6009 13.6221C15.5265 13.7094 15.4484 13.7938 15.3774 13.8839L15.165 14.1547L14.7406 14.6966L14.3166 15.2386C14.2443 15.3275 14.1794 15.4221 14.1137 15.5163L13.9162 15.7977C11.774 18.7763 10.081 22.0676 8.91028 25.529L8.49044 26.8332C8.36481 27.272 8.25159 27.7144 8.13175 28.1548L8.04332 28.4856C8.01274 28.5953 7.98423 28.7062 7.96191 28.8179L7.81687 29.4867L7.67224 30.1555C7.64909 30.2672 7.62141 30.3778 7.6024 30.4903L7.5462 30.8276L7.32223 32.177C7.26479 32.6292 7.21644 33.0823 7.16355 33.5349C7.10239 33.9868 7.08131 34.4423 7.05032 34.8966C7.02305 35.3513 6.98048 35.8052 6.98172 36.2611C6.87139 39.9023 7.30239 43.5562 8.26192 47.0657C8.38754 47.5029 8.50531 47.9425 8.63755 48.3772L9.07433 49.6699L9.18384 49.9929L9.30781 50.3106L9.55782 50.9455L9.80823 51.5801C9.8479 51.6865 9.89501 51.7901 9.94254 51.8937L10.083 52.2044C10.2719 52.6183 10.4549 53.0347 10.6492 53.4458L11.2727 54.6594L11.4285 54.9628C11.4802 55.0639 11.5409 55.1606 11.5967 55.2597L11.9401 55.8493C12.1703 56.2416 12.3905 56.6397 12.6471 57.0161L13.3922 58.1591L14.1926 59.2642L14.3931 59.5399C14.4592 59.6325 14.5261 59.7242 14.5993 59.8115L15.0274 60.3429L15.4555 60.8738L15.6695 61.1393C15.7418 61.227 15.8199 61.3098 15.8952 61.395L16.8039 62.4125C16.9518 62.585 17.1146 62.744 17.2741 62.9063L17.7535 63.3916L18.2328 63.8765C18.3915 64.0392 18.5646 64.1876 18.7299 64.3434L19.2312 64.8058L19.4828 65.0354L19.7436 65.2556L20.2647 65.6961C20.4399 65.8408 20.6081 65.9938 20.7907 66.13L21.868 66.9664L22.9775 67.7599C23.3523 68.0169 23.7367 68.2611 24.1152 68.5119C25.6499 69.4866 27.2524 70.3544 28.9136 71.09C30.5732 71.8277 32.2848 72.4464 34.0307 72.9361C35.7783 73.4198 37.5576 73.7844 39.3527 74.0066C37.5733 73.6849 35.8179 73.2497 34.1084 72.6854C32.3972 72.1275 30.729 71.4497 29.1223 70.6557C25.9115 69.0669 22.9234 67.0483 20.3221 64.6244L20.075 64.4009L19.8366 64.1684L19.3593 63.704C19.2023 63.5474 19.037 63.3985 18.8865 63.2358L18.4316 62.7505L17.9766 62.2657C17.8254 62.1038 17.6704 61.9451 17.5311 61.7726L16.6729 60.7593C16.6022 60.6744 16.5282 60.5916 16.46 60.5048L16.2588 60.2409L15.8563 59.7136L15.4538 59.1868C15.3848 59.1003 15.3224 59.0094 15.2604 58.9176L15.0732 58.6444L14.3249 57.5519L13.6323 56.4247C11.8232 53.3993 10.4562 50.1222 9.60203 46.7224L9.51815 46.4047C9.48963 46.2991 9.46153 46.193 9.44087 46.0854L9.3045 45.4427L9.16814 44.8C9.14624 44.6927 9.12062 44.5863 9.10161 44.4782L9.04913 44.154L8.8392 42.8581C8.78507 42.4238 8.74003 41.9886 8.68961 41.5539C8.63176 41.12 8.61151 40.6829 8.58217 40.2465C8.55697 39.8102 8.51358 39.3746 8.51606 38.9371L8.49333 37.626L8.53382 36.3157C8.53754 35.8786 8.58548 35.4434 8.6173 35.0079C8.65325 34.5724 8.67846 34.1364 8.74375 33.7038L8.91235 32.4045L9.13962 31.1142L9.19624 30.7917C9.21525 30.684 9.24335 30.5784 9.26649 30.4715L9.41153 29.8325L9.55616 29.1939C9.57848 29.0871 9.60658 28.9814 9.63716 28.8766L9.72517 28.561C9.84419 28.141 9.95617 27.7185 10.0801 27.3001L10.4934 26.0567L10.5967 25.746C10.633 25.6432 10.6748 25.5421 10.7136 25.4401L10.9508 24.8292L11.1876 24.2183C11.2248 24.1156 11.2682 24.0157 11.3136 23.9162L11.4467 23.6168C11.6252 23.218 11.7984 22.8172 11.9806 22.42L12.5715 21.2496C12.7591 20.8548 12.9901 20.4821 13.2025 20.1004C13.4207 19.7215 13.6265 19.3354 13.8703 18.9716L14.5753 17.8652L15.3344 16.7944L15.5245 16.5268C15.5877 16.4375 15.6501 16.3474 15.7199 16.263L16.1266 15.7471L16.5324 15.2309L16.7353 14.9727C16.803 14.8867 16.8782 14.8067 16.9493 14.7231L17.8134 13.7322C17.9539 13.5638 18.108 13.408 18.2609 13.2506L18.7179 12.7771L19.1746 12.3037C19.2489 12.2233 19.3291 12.1479 19.4097 12.0737L19.6502 11.849L19.7233 11.7805C19.2828 11.402 18.8035 11.0542 18.284 10.7373L18.1729 10.8417Z" fill="#072146"/>
<path d="M82.4117 35.7179C82.3915 34.822 82.3183 33.9281 82.232 33.0354C82.1791 32.5901 82.134 32.1431 82.0646 31.6999C82.0311 31.478 82.0039 31.2549 81.9654 31.0335L81.8514 30.3692C81.2117 26.832 80.034 23.3799 78.3695 20.164C77.9596 19.3566 77.4996 18.5748 77.029 17.7996C76.7835 17.4183 76.5488 17.0297 76.2897 16.6569L75.9074 16.0934L75.5103 15.54C74.4492 14.0646 73.2628 12.6772 71.9941 11.3678C71.8388 11.2006 71.6731 11.0444 71.5086 10.8862L71.0156 10.4115L70.5222 9.93682C70.4412 9.85649 70.3548 9.78186 70.2681 9.70764L70.009 9.48335L68.9722 8.5866L67.8907 7.74164C66.4308 6.63976 64.9076 5.60803 63.2894 4.73738L62.6881 4.40095L62.0716 4.09346L61.4546 3.78598C61.2484 3.68485 61.0455 3.57638 60.8327 3.48829L59.5691 2.93409C59.36 2.83744 59.1438 2.75915 58.929 2.67636L58.2839 2.43005L57.6384 2.18415L56.9818 1.96883L56.3248 1.75474C56.1049 1.68541 55.8884 1.6063 55.6648 1.55043L54.3309 1.18586C54.1094 1.12061 53.8838 1.07453 53.6586 1.02396L52.9834 0.873481L52.3077 0.723411L51.6259 0.604742L50.9437 0.48648C50.716 0.448147 50.4895 0.403289 50.2598 0.379229L48.8853 0.208768C48.6568 0.175737 48.4258 0.166357 48.1957 0.146783L47.5047 0.0945846C45.6625 -0.0253085 43.8088 -0.0440672 41.9662 0.109673C41.7356 0.126801 41.5046 0.135772 41.2748 0.16024L40.586 0.23813L39.8979 0.318059L39.5537 0.358023L39.2116 0.413891L37.8429 0.638181C37.3892 0.724635 36.9384 0.827808 36.4859 0.92201L36.147 0.99419C36.0338 1.01784 35.9206 1.04149 35.8094 1.0729L35.1392 1.24906L34.4689 1.42564C34.3573 1.45582 34.2449 1.48314 34.1342 1.51536L33.8036 1.61935L32.4817 2.03612C32.0457 2.18823 31.6143 2.35379 31.18 2.51202C30.9643 2.5948 30.744 2.66617 30.5329 2.75915L29.8961 3.03115L29.2593 3.30356L28.9411 3.44058L28.6299 3.59187L27.5547 4.11549C27.9811 4.57141 28.4448 4.98818 28.9456 5.36662C33.0486 3.36921 37.5334 2.13032 42.1013 1.75841C43.8621 1.59365 45.6361 1.59569 47.4014 1.69316L48.0634 1.73679C48.2841 1.75351 48.5056 1.75963 48.7246 1.78981L50.0432 1.93825C50.2639 1.95823 50.4812 1.99819 50.6998 2.03245L51.3552 2.13725L52.0106 2.24206L52.6602 2.37785L53.3098 2.51324C53.5264 2.55892 53.7441 2.5997 53.9569 2.66005L55.2417 2.99281C55.4574 3.04338 55.6661 3.11719 55.8781 3.18081L56.512 3.37778L57.1455 3.57556L57.769 3.8023L58.393 4.02863C58.6009 4.10448 58.8104 4.17584 59.0128 4.26556L60.2373 4.77775C60.4435 4.8585 60.6402 4.96004 60.8402 5.05383L61.4389 5.3397L62.0381 5.62516L62.622 5.93957C65.7572 7.58504 68.6246 9.71416 71.1706 12.1707C72.4342 13.4084 73.6231 14.7256 74.6938 16.1337L75.095 16.6622L75.4814 17.2014C75.7438 17.5578 75.9822 17.9301 76.2314 18.2955C76.7116 19.0381 77.1769 19.7913 77.6038 20.5661C78.474 22.1072 79.217 23.7188 79.8505 25.3728C80.1604 26.2023 80.4526 27.0395 80.7001 27.8902C80.9559 28.7388 81.1757 29.5985 81.3716 30.4634L81.5113 31.1143C81.5584 31.3312 81.5944 31.5502 81.6361 31.768C81.7229 32.2035 81.7853 32.6431 81.8559 33.0815C81.9787 33.9607 82.0861 34.844 82.1452 35.7314C82.2894 37.5053 82.2758 39.2906 82.1675 41.0727C82.2675 40.1857 82.3559 39.2959 82.3886 38.402C82.4022 38.1786 82.4084 37.9555 82.4126 37.7316L82.427 37.0608C82.4233 36.6134 82.4311 36.1653 82.4117 35.7179Z" fill="#072146"/>
<path d="M23.935 16.5264C22.9523 12.0716 20.144 9.46985 15.4277 8.29579C20.0493 7.16537 22.7601 4.53262 23.9193 0.255615C25.1383 4.49184 27.8057 7.18332 32.2046 8.29539C27.7776 9.42336 24.9482 12.0582 23.935 16.5264Z" fill="#072146"/>
<path d="M81.6464 51.1421C81.441 50.6152 81.8745 44.0721 77.6732 38.4232C77.6732 38.4232 74.9611 33.975 70.666 31.3801C71.4069 31.5233 71.9722 31.8189 73.3946 31.8385C74.3173 31.8516 74.0124 29.3526 72.857 28.8395L71.8739 28.4032C69.9428 25.7411 65.025 19.3427 62.8063 21.6586C61.8542 21.1146 59.6645 20.5865 56.2359 20.0735C55.2962 21.4412 54.8491 22.5203 54.8929 23.3094C58.6455 29.5055 60.4141 36.8255 60.4075 43.5636C60.4075 43.5986 60.4521 43.61 60.4707 43.5807C61.1522 42.5029 61.9551 41.5751 62.6228 40.8464C61.9596 42.1089 61.4889 43.0995 61.4108 43.2532C60.5811 44.8905 60.0794 47.9755 59.9517 48.4025C59.8323 48.8026 59.4509 49.1586 59.2054 49.4897C58.6166 50.2841 58.0529 51.0813 57.3814 51.8117C56.7516 52.4968 56.4045 53.4286 55.8343 54.1839C55.2359 54.9762 54.6512 55.7723 54.0958 56.5948C53.7722 57.074 53.5813 57.222 53.0842 57.4924C52.7573 57.6706 52.3879 57.905 52.1251 58.173C51.6408 58.6676 51.6999 59.2512 51.7883 59.8959C51.9507 59.7964 52.1131 59.6965 52.2755 59.597C52.2755 60.2054 52.3313 60.548 52.5842 61.1055C53.0743 60.3755 53.7259 59.7438 54.5747 59.4437C55.5359 59.104 56.5099 59.0787 57.4624 58.6636C57.6831 58.5673 57.8984 58.4825 58.1099 58.3993C58.2141 58.3748 58.3174 58.35 58.4265 58.3271C58.6211 58.2704 58.8149 58.2125 59.0079 58.151C59.3703 58.0466 59.7269 57.9234 60.0856 57.8113L60.6191 57.6286L60.8856 57.5372L61.1497 57.4398C61.8559 57.1869 62.5489 56.9043 63.2315 56.6025C63.9138 56.3008 64.5849 55.9753 65.2357 55.6161C66.5399 54.9024 67.7804 54.0779 68.9139 53.1203C70.0412 52.1583 71.083 51.0801 71.8904 49.8045C71.6346 50.5165 71.2396 51.1755 70.8049 51.8019C70.359 52.4218 69.8565 53.0045 69.3069 53.54C68.2073 54.6121 66.942 55.5149 65.5923 56.2518C65.4221 56.3411 65.2535 56.4337 65.0816 56.5202L64.5638 56.7746C64.2134 56.9329 63.8646 57.0943 63.5068 57.2342C62.7939 57.5205 62.0687 57.775 61.3298 57.9805L61.0637 58.0572C61.1786 58.0572 61.2947 58.0584 61.4137 58.0612C62.0596 58.078 63.0671 58.3336 63.7683 58.6452C62.5728 58.4964 61.4402 58.5669 60.4315 58.6587C54.9359 59.159 54.264 61.3877 52.4065 62.9389C48.7134 66.0235 49.637 60.3262 45.3477 63.9882C45.6613 67.8007 46.7617 71.1589 48.6477 74.0629C50.461 74.7406 55.2603 74.2823 57.857 73.1682L55.6471 71.3987C69.5118 75.1741 88.3131 68.226 81.6464 51.1421Z" fill="#072146"/>
<path d="M49.7423 62.8027C50.534 62.3921 51.3093 61.8701 52.0531 61.2653C51.9328 60.9917 51.8535 60.7568 51.8039 60.5301L51.3671 60.798L51.2415 59.9694C51.156 59.3483 51.0394 58.4976 51.7283 57.7937C51.9878 57.5291 52.3543 57.2669 52.8184 57.0144C53.2494 56.7795 53.3676 56.6915 53.6366 56.2922C53.6668 56.2478 53.6978 56.2025 53.7279 56.1581C53.0506 56.3991 52.3808 56.607 51.7188 56.7808C46.8463 58.0596 48.8547 55.8029 46.2575 55.6136C45.5488 55.5619 44.8322 55.8934 44.1074 56.607C44.2144 58.4148 44.874 60.309 46.0872 62.2885C48.0137 61.5541 49.0055 61.5785 49.7423 62.8027Z" fill="#072146"/>
</g>
<defs>
<clipPath id="clip0">
<rect width="90" height="108" fill="white"/>
</clipPath>
</defs>
</svg>
