<svg width="123" height="123" viewBox="0 0 123 123" fill="none" xmlns="http://www.w3.org/2000/svg">
<path d="M4.90354e-06 62.3602C33.6629 55.1681 53.3497 34.5788 62.2174 -2.65689e-06C70.7695 33.8737 90.6573 53.7578 123 62.2474C90.9729 71.1883 70.626 90.734 62.2174 123C53.6654 90.5366 33.749 69.8062 4.90354e-06 62.3602Z" fill="#F7D323"/>
<path d="M73.1296 76.5251L72.0554 54.6713C72.0255 54.0633 71.5487 53.5864 70.9708 53.5864H67.8008V52.5125C67.8008 48.8528 64.9739 45.8755 61.4994 45.8755C58.025 45.8755 55.1986 48.8528 55.1986 52.5125V53.5864H52.0286C51.4505 53.5864 50.9736 54.0633 50.9437 54.6713L49.8667 76.5856C49.8514 76.8989 49.9587 77.2052 50.1638 77.4326C50.3688 77.66 50.6536 77.7889 50.9515 77.7889H72.048C72.0485 77.789 72.0489 77.789 72.0494 77.7889C72.6493 77.7889 73.1355 77.2767 73.1355 76.6449C73.1354 76.6043 73.1336 76.5644 73.1296 76.5251ZM56.746 58.2173C56.1035 58.2173 55.5825 57.6685 55.5825 56.9917C55.5825 56.315 56.1035 55.7662 56.746 55.7662C57.3885 55.7662 57.9095 56.315 57.9095 56.9917C57.9095 57.6685 57.3885 58.2173 56.746 58.2173ZM64.5693 53.5864H58.4299V52.5125C58.4299 50.7295 59.8069 49.2791 61.4994 49.2791C63.1922 49.2791 64.5693 50.7295 64.5693 52.5125V53.5864ZM66.2547 58.2173C65.6122 58.2173 65.0912 57.6685 65.0912 56.9917C65.0912 56.315 65.6122 55.7662 66.2547 55.7662C66.8972 55.7662 67.4182 56.315 67.4182 56.9917C67.4182 57.6685 66.8972 58.2173 66.2547 58.2173Z" fill="#FBFBFB"/>
</svg>
