<svg width="149" height="149" viewBox="0 0 149 149" fill="none" xmlns="http://www.w3.org/2000/svg">
<path d="M-3.30205e-06 75.542C40.7786 66.8296 64.6269 41.8881 75.3691 -3.21851e-06C85.7289 41.0339 109.821 65.1213 149 75.4054C110.203 86.2362 85.555 109.914 75.3691 149C65.0093 109.674 40.8829 84.562 -3.30205e-06 75.542Z" fill="#F7D323"/>
<path d="M82.2462 88.9625C82.837 87.8249 83.7232 87.0665 84.9047 87.0665C87.1201 87.0665 90.1478 87.8249 91.1817 85.1705C91.7725 83.6537 91.9201 81.9852 91.9201 80.3168C91.9201 76.6765 89.4832 73.4912 91.5509 70.1542C92.0678 69.32 93.0278 68.6374 93.8402 69.0166C94.5048 69.3958 94.8002 70.3818 94.8002 71.216C95.0217 73.7945 94.6525 76.4489 94.5048 79.0275C94.5048 79.4067 94.4309 79.8617 94.4309 80.2409C94.2094 82.9712 93.9879 85.7772 93.1017 88.2799C92.954 88.6591 92.8063 89.0383 92.5848 89.2659C92.2155 89.6451 91.5509 89.7209 91.034 89.7209C90.8124 89.7209 90.5171 89.7209 90.2217 89.7209C90.2217 90.4793 90.2217 90.4035 90.2217 91.1619C90.2217 91.6169 90.1478 91.9961 89.7047 91.9961V95.6364C90.6648 96.0156 91.6248 96.774 92.5848 97.9116C92.8802 98.2908 92.8063 98.8217 92.5109 99.125C92.3632 99.2767 92.2155 99.3525 91.994 99.3525C91.7725 99.3525 91.6248 99.2767 91.4771 99.0492C90.5171 97.8358 89.4832 97.1532 88.5232 97.0774C87.5632 97.1532 86.5293 97.7599 85.5693 99.0492C85.4216 99.2009 85.2001 99.3525 85.0524 99.3525C84.9047 99.3525 84.6832 99.2767 84.5355 99.125C84.2401 98.8217 84.2401 98.2908 84.4616 97.9116C85.3478 96.774 86.3078 96.0156 87.3416 95.6364V92.1478C86.8247 92.1478 86.7509 91.6927 86.8247 91.3135C86.8247 90.5551 86.8247 90.4793 86.8247 89.7209C85.717 89.7967 84.757 90.0243 84.0924 90.7068C83.6493 91.1619 83.0585 91.1619 82.6155 90.7068C82.0247 90.2518 81.877 89.5692 82.2462 88.9625Z" fill="#FBFBFB"/>
<path d="M89.4878 80.6946V80.8463V80.9222C89.4878 81.2255 89.4878 81.5289 89.4878 81.8322C89.4878 84.0316 88.0109 85.4725 85.8693 85.3209C84.2447 85.1692 82.5462 85.0933 80.9216 84.9417C80.3308 84.8658 79.9616 85.245 79.8877 85.8517C79.5924 88.7336 79.3708 91.5397 79.0754 94.4216C79.0754 94.725 79.0016 94.9525 79.0016 95.2559C78.8539 96.0143 78.4847 96.3176 77.82 96.3935C77.377 96.3935 76.9339 96.3935 76.5646 96.3935C75.9739 96.3935 75.6046 96.1659 75.3831 95.7867C75.2354 95.5592 75.1616 95.2559 75.1616 94.8767C75.1616 92.4498 75.1616 90.0229 75.1616 87.5202C75.1616 85.9276 75.1616 84.4108 75.1616 82.8181C75.1616 81.3013 76.0477 80.3913 77.5246 80.3913C78.9277 80.3913 80.3308 80.3913 81.7339 80.3913C82.5462 80.3913 82.9893 80.0121 83.0632 79.1778L82.7678 72.5039C82.3985 72.7315 82.177 72.959 81.8816 73.1107C81.217 73.4899 80.7001 74.0207 79.8877 74.0207C78.337 74.0207 76.2693 74.0207 74.7185 74.0207C73.5369 74.0207 72.7246 73.1107 72.7246 71.8972C72.7246 71.4422 72.8723 71.063 73.0938 70.7596C73.4631 70.2287 74.0539 69.8495 74.7923 69.9254C75.9739 69.9254 77.2293 69.9254 78.4108 69.9254C78.6323 69.9254 79.4447 69.8495 79.5924 69.7737C80.257 69.3945 80.9216 68.9395 81.5862 68.4844C82.2508 68.1052 82.8416 67.6502 83.5801 67.3468C83.7278 67.271 83.8755 67.1952 84.0232 67.1952C85.1309 66.8918 86.2386 67.0435 87.3463 67.1193C88.3801 67.1952 89.2663 68.1811 89.414 69.2428C89.4878 69.7737 89.4878 70.3804 89.4878 70.9113C89.4878 74.0207 89.4878 77.1302 89.4878 80.2396C89.4878 80.3913 89.4878 80.543 89.4878 80.6946Z" fill="#FBFBFB"/>
<path d="M89.4887 61.2044C89.4887 62.6453 88.8241 63.8588 87.7164 64.6172C87.0518 65.0722 86.2395 65.3756 85.3533 65.3756C84.9841 65.3756 84.6887 65.2997 84.3933 65.2239C82.621 64.7688 81.4395 63.1004 81.4395 61.0527C81.4395 58.6258 83.2118 56.8057 85.4272 56.8057C87.6426 56.8815 89.4887 58.7017 89.4887 61.2044Z" fill="#FBFBFB"/>
<path d="M56.8462 68.4092H79.8864C79.6648 68.5609 79.3694 68.7125 79.1479 68.8642C79.0002 68.8642 78.5571 68.9401 78.3356 68.9401C77.2279 68.9401 76.0463 68.9401 74.7171 68.9401C73.6832 68.9401 72.7971 69.3951 72.2801 70.2293C71.9848 70.6844 71.7632 71.2911 71.7632 71.8978C71.7632 71.9736 71.7632 72.0495 71.7632 72.1253H56.8462C55.8123 72.1253 55 71.2911 55 70.3052C55 69.3193 55.8123 68.4092 56.8462 68.4092Z" fill="#FBFBFB"/>
<path d="M57.291 72.8833V97.152H71.3219V72.8833H57.291ZM70.0665 87.217C70.0665 87.7479 69.6234 88.1271 69.1803 88.1271C68.9588 88.1271 68.7373 88.0513 68.5157 87.8237C68.368 87.6721 68.2203 87.4445 68.2203 87.1412V82.7425C68.2203 82.2116 68.6634 81.8324 69.1065 81.8324C69.328 81.8324 69.5496 81.9082 69.7711 82.1358C69.9188 82.2874 70.0665 82.515 70.0665 82.8183V87.217Z" fill="#FBFBFB"/>
<path d="M81.8814 74.2496L81.9553 75.6905H71.9121V73.0361C72.0598 73.4912 72.2813 73.8704 72.5767 74.1737C73.0937 74.7046 73.8321 75.008 74.6444 75.008C75.3091 75.008 76.0475 75.008 76.786 75.008C77.8198 75.008 78.9275 75.008 79.8137 75.008H79.8876C80.7737 75.008 81.3645 74.6288 81.8814 74.2496Z" fill="#FBFBFB"/>
<path d="M59.7246 54V64.6934H65.9277H66.0754V65.6035C64.7462 65.831 63.7123 66.3619 63.3431 66.9686C63.1954 67.1961 63.3431 67.5753 63.6385 67.5753H72.1309C72.4263 67.5753 72.5739 67.272 72.4263 66.9686C72.057 66.3619 71.0232 65.831 69.6939 65.6035V64.6934H69.8416H74.5678H76.0447V54H59.7246ZM74.937 63.7075H60.7585V54.8342H74.937V63.7075Z" fill="#FBFBFB"/>
</svg>
