<svg width="193" height="193" viewBox="0 0 193 193" fill="none" xmlns="http://www.w3.org/2000/svg">
<path d="M5.6758e-05 97.8498C52.8206 86.5645 83.7114 54.2577 97.6258 -4.16894e-06C111.045 53.1514 142.251 84.3517 193 97.6728C142.746 111.702 110.82 142.371 97.6257 193C84.2067 142.061 52.9557 109.533 5.6758e-05 97.8498Z" fill="#F7D323"/>
<path d="M113.363 73.7803C110.277 73.7803 107.391 83.6817 107.391 94.2748C107.391 101.576 111.372 104.522 111.372 104.522V120.918C111.372 122.045 112.268 122.967 113.363 122.967C114.458 122.967 115.354 122.045 115.354 120.918V75.1893C115.354 73.7803 113.985 73.7803 113.363 73.7803Z" fill="#FBFBFB"/>
<path d="M101.419 73.7803L102.663 87.1017C102.663 87.6653 102.215 88.1264 101.668 88.1264C101.12 88.1264 100.672 87.6653 100.672 87.1017L99.9255 73.7803H98.93L98.1835 87.1017C98.1835 87.6653 97.7355 88.1264 97.188 88.1264C96.6405 88.1264 96.1926 87.6653 96.1926 87.1017L97.4369 73.7803H96.4414C96.4414 73.7803 93.4551 87.5116 93.4551 90.1759C93.4551 92.8402 95.1225 95.1202 97.4369 95.9656V120.918C97.4369 122.045 98.3328 122.967 99.4278 122.967C100.523 122.967 101.419 122.045 101.419 120.918V95.9656C103.733 95.1202 105.4 92.8658 105.4 90.1759C105.4 87.486 102.414 73.7803 102.414 73.7803H101.419Z" fill="#FBFBFB"/>
<path d="M85.4903 73.7803C82.1928 73.7803 79.5176 81.9781 79.5176 90.1759C79.5176 92.8402 81.185 95.1202 83.4994 95.9656V120.918C83.4994 122.045 84.3953 122.967 85.4903 122.967C86.5853 122.967 87.4812 122.045 87.4812 120.918V95.9656C89.7956 95.1202 91.463 92.8658 91.463 90.1759C91.463 81.9781 88.7877 73.7803 85.4903 73.7803Z" fill="#FBFBFB"/>
</svg>
