<svg width="163" height="163" viewBox="0 0 163 163" fill="none" xmlns="http://www.w3.org/2000/svg">
<path d="M1.16465e-05 82.64C44.6101 73.1089 70.6992 45.8239 82.4508 -3.52092e-06C93.7839 44.8895 120.139 71.2401 163 82.4905C120.558 94.3389 93.5938 120.241 82.4507 163C71.1176 119.979 44.7242 92.5074 1.16465e-05 82.64Z" fill="#F7D323"/>
<path d="M96.2393 78.8892C93.6012 76.8576 90.4862 76.6163 88.3095 76.4921C90.1747 74.6433 91.3321 72.0816 91.3344 69.248C91.3344 68.7589 91.2882 68.2809 91.222 67.8099C92.8562 67.3535 94.0609 65.8234 94.0609 64.001C94.0632 61.8165 92.3394 60.0457 90.2129 60.0445C89.1309 60.0439 88.1543 60.5038 87.4539 61.2413C85.7141 59.8635 83.5203 59.0334 81.1303 59.0322C78.7187 59.0311 76.5055 59.8711 74.7572 61.2682C74.0561 60.5096 73.0676 60.0339 71.9684 60.0339C69.8425 60.0328 68.1176 61.8019 68.1171 63.9858C68.1153 65.8363 69.3543 67.3864 71.0261 67.8181C70.9611 68.2826 70.916 68.7536 70.9155 69.2357C70.9138 71.9521 71.981 74.4154 73.7105 76.2454C71.742 76.1962 69.3697 76.3919 67.1514 77.693C63.6799 79.7245 64.9621 85.3494 70.0148 84.8251C70.7016 84.7536 71.3381 84.6347 71.9542 84.4924C71.7055 85.0172 71.4745 85.5937 71.28 86.2451C71.0335 87.0746 70.9349 88.1911 71.1157 89.3756C70.0017 92.898 69.8174 97.7251 70.6 101.152C71.7602 106.23 77.3571 105.647 78.0986 101.614C78.4192 99.8808 78.2201 97.8036 77.8322 95.8347C78.7586 96.0239 79.799 96.1323 80.9689 96.1364C82.1046 96.141 83.1176 96.045 84.0234 95.8733C83.6607 97.8528 83.4901 99.9394 83.8369 101.672C84.6361 105.693 90.2392 106.192 91.3275 101.098C92.0303 97.8041 91.8283 93.2407 90.7879 89.781C91.0486 88.4782 90.9625 87.2292 90.6984 86.3212C90.5421 85.7805 90.3595 85.292 90.1633 84.8403C90.8969 85.1426 91.6777 85.3968 92.5339 85.5995C97.4822 86.7647 99.4364 81.349 96.2393 78.8892ZM90.2118 61.929C91.3235 61.9296 92.2242 62.8563 92.2236 63.9987C92.2236 64.9336 91.6167 65.7139 90.7873 65.9699C90.3527 64.687 89.6711 63.5206 88.7978 62.5236C89.1623 62.1569 89.6608 61.9284 90.2118 61.929ZM85.6987 66.9283C86.3273 66.9288 86.8367 67.4654 86.8361 68.1292C86.8361 68.7917 86.3256 69.3277 85.6976 69.3277C85.069 69.3271 84.5591 68.7899 84.5602 68.1274C84.5608 67.4643 85.0707 66.9277 85.6987 66.9283ZM81.1606 68.4566C81.7703 68.456 82.359 68.5615 82.9003 68.7513C83.5979 68.992 84.2162 69.3769 84.7319 69.8561C85.4329 70.5274 85.932 71.388 86.1208 72.3557C86.1796 72.6369 86.2081 72.9321 86.2087 73.2344C86.207 73.9444 86.0433 74.6163 85.7552 75.2209C85.4985 75.7417 85.1494 76.2103 84.7296 76.6092C84.2117 77.0972 83.5945 77.4739 82.8958 77.7146C82.3544 77.9044 81.7652 78.0058 81.1543 78.0046C80.6187 78.0052 80.1042 77.9279 79.6182 77.7826C78.839 77.5453 78.1477 77.1394 77.5841 76.6057C77.1609 76.2056 76.8101 75.7376 76.5585 75.2162C76.2653 74.6111 76.105 73.9386 76.1045 73.228C76.105 72.9269 76.1347 72.631 76.1878 72.3499C76.3788 71.3827 76.8779 70.5216 77.5875 69.8514C78.1522 69.3207 78.843 68.9153 79.6227 68.6851C80.1099 68.5334 80.6238 68.4566 81.1606 68.4566ZM76.4815 66.9224C77.1107 66.9224 77.62 67.4602 77.6189 68.1233C77.6189 68.7864 77.109 69.3224 76.4804 69.3218C75.8512 69.3218 75.3418 68.7841 75.3424 68.121C75.3424 67.459 75.8524 66.9218 76.4815 66.9224ZM71.4551 65.9816C70.5903 65.7485 69.9498 64.9477 69.9503 63.9864C69.9509 62.8435 70.8533 61.9179 71.9662 61.9185C72.5377 61.9185 73.0505 62.1651 73.4167 62.5576C72.556 63.5505 71.8846 64.7087 71.4551 65.9816ZM80.8172 93.7808C77.7649 93.7791 75.2928 90.8225 75.2951 87.1771C75.2973 83.5317 77.7729 80.5769 80.8252 80.5786C83.8774 80.581 86.3501 83.5381 86.3479 87.183C86.3456 90.8284 83.8694 93.7826 80.8172 93.7808Z" fill="#FBFBFB"/>
<path d="M80.0944 73.9362C80.1093 73.9362 80.3762 73.9362 80.6648 73.7821C80.7664 73.7288 80.8691 73.6556 80.9655 73.5577C81.0402 73.4816 81.1035 73.3949 81.1582 73.3006C81.2141 73.399 81.278 73.491 81.3556 73.5695C81.7155 73.9368 82.1736 73.9368 82.1913 73.9368C82.4696 73.9373 82.6949 73.8752 82.8775 73.778C83.3064 73.5507 83.4912 73.1301 83.5311 72.8712C83.5505 72.7476 83.469 72.6328 83.3486 72.6123C83.2283 72.5923 83.1147 72.6761 83.0936 72.7991C83.0817 72.8688 82.9556 73.4828 82.1901 73.4822C82.1867 73.4828 81.8946 73.4787 81.6688 73.2473C81.4794 73.0534 81.3836 72.7529 81.3836 72.3522C81.3836 72.2848 81.383 72.2315 81.383 72.1735C81.4611 72.1378 81.5495 72.0845 81.6517 72.0024C81.6517 72.0024 82.6156 71.1993 82.8512 70.559C82.8746 70.4946 82.8969 70.4442 82.9048 70.3927L82.9128 70.3874C82.9128 70.3874 82.9721 70.0295 82.6755 69.9674C82.3846 69.9064 81.2278 69.4987 79.7157 69.9521C79.7157 69.9521 79.641 69.9767 79.6016 70.0013C79.5423 70.033 79.3974 70.1226 79.406 70.3206C79.4065 70.3276 79.406 70.3341 79.4071 70.3417C79.4071 70.3434 79.4071 70.3452 79.4071 70.3464C79.4122 70.4073 79.4282 70.4758 79.4664 70.5537C79.601 70.839 80.0094 71.3774 80.4264 71.7746C80.5964 71.9456 80.7721 72.0845 80.9404 72.1665C80.9404 72.2221 80.9409 72.2825 80.9409 72.3504C80.9398 73.4423 80.1846 73.4787 80.0973 73.4792C79.3329 73.4787 79.208 72.8659 79.196 72.7956C79.1767 72.6726 79.0637 72.5882 78.9434 72.6076C78.8219 72.6275 78.7397 72.7441 78.7585 72.8677C78.8139 73.2373 79.1664 73.935 80.0944 73.9362Z" fill="#FBFBFB"/>
</svg>
