<svg width="125" height="125" viewBox="0 0 125 125" fill="none" xmlns="http://www.w3.org/2000/svg">
<path d="M-2.77017e-06 63.3742C34.2102 56.0651 54.2172 35.141 63.2291 -2.70009e-06C71.9202 34.4245 92.1314 54.632 125 63.2596C92.4522 72.3458 71.7744 92.2093 63.2291 125C54.538 92.0087 34.2977 70.9413 -2.77017e-06 63.3742Z" fill="#F7D323"/>
<path d="M46.6473 68.9855L56.0147 78.3528C56.6851 79.0233 57.7731 79.0285 58.4498 78.3678L46.6324 66.5503C45.9717 67.2274 45.9769 68.315 46.6473 68.9855Z" fill="#FBFBFB"/>
<path d="M67.1559 54.955L55.7949 66.3159L58.6851 69.2061L70.046 57.8451L67.1559 54.955Z" fill="#FBFBFB"/>
<path d="M47.3792 62.5047L47.2875 62.5965C46.4146 63.4693 46.4146 64.8896 47.2875 65.7624L47.5891 66.0641H47.5865L58.9375 77.4151V77.4129L59.2392 77.7145C60.112 78.5874 61.5319 78.5874 62.4051 77.7141L62.4969 77.6224C63.3697 76.7495 63.3697 75.3293 62.4972 74.4564L50.5455 62.5047C49.6723 61.6319 48.2524 61.6319 47.3792 62.5047Z" fill="#FBFBFB"/>
<path d="M63.4358 46.4466L63.3441 46.5384C62.4712 47.4112 62.4712 48.8315 63.3441 49.7043L75.2962 61.6564C76.169 62.5293 77.5889 62.5293 78.4621 61.656L78.5539 61.5643C79.4267 60.6914 79.4267 59.2712 78.5542 58.3983L66.6022 46.4466C65.7289 45.5738 64.3091 45.5738 63.4358 46.4466Z" fill="#FBFBFB"/>
<path d="M67.3867 45.797L79.2061 57.6126C79.8679 56.9359 79.8634 55.8471 79.1923 55.1763L69.8249 45.8089C69.1533 45.1374 68.0631 45.1333 67.3867 45.797Z" fill="#FBFBFB"/>
<path d="M49.198 75.8025C49.8173 76.4218 50.7025 76.6742 51.566 76.4781L52.2842 76.3144L48.6861 72.7163L48.5224 73.4344C48.3259 74.298 48.5787 75.1832 49.198 75.8025Z" fill="#FBFBFB"/>
<path d="M74.2709 47.6845L73.5527 47.8482L77.1508 51.4463L77.3145 50.7282C77.511 49.8646 77.2582 48.9794 76.6389 48.3601C76.0196 47.7408 75.1344 47.488 74.2709 47.6845Z" fill="#FBFBFB"/>
</svg>
